%TF.GenerationSoftware,KiCad,Pcbnew,8.0.1*%
%TF.CreationDate,2024-05-15T21:52:54+03:00*%
%TF.ProjectId,USB_ISOLATOR,5553425f-4953-44f4-9c41-544f522e6b69,rev?*%
%TF.SameCoordinates,Original*%
%TF.FileFunction,Soldermask,Bot*%
%TF.FilePolarity,Negative*%
%FSLAX46Y46*%
G04 Gerber Fmt 4.6, Leading zero omitted, Abs format (unit mm)*
G04 Created by KiCad (PCBNEW 8.0.1) date 2024-05-15 21:52:54*
%MOMM*%
%LPD*%
G01*
G04 APERTURE LIST*
G04 APERTURE END LIST*
G36*
X145019134Y-91520806D02*
G01*
X145025347Y-91527019D01*
X145026416Y-91527462D01*
X145039537Y-91540583D01*
X145039979Y-91541651D01*
X145046194Y-91547866D01*
X145046195Y-91556657D01*
X145046639Y-91557729D01*
X145049994Y-121235000D01*
X145050000Y-121285000D01*
X145046194Y-121304134D01*
X145039978Y-121310349D01*
X145039537Y-121311416D01*
X145026416Y-121324537D01*
X145025349Y-121324978D01*
X145019134Y-121331194D01*
X145010328Y-121331200D01*
X145009237Y-121331653D01*
X140010245Y-121334992D01*
X140000000Y-121335000D01*
X139980866Y-121331194D01*
X139974651Y-121324979D01*
X139973583Y-121324537D01*
X139960462Y-121311416D01*
X139960019Y-121310347D01*
X139953806Y-121304134D01*
X139953804Y-121295344D01*
X139953360Y-121294270D01*
X139950000Y-91573135D01*
X139950000Y-91573127D01*
X139950000Y-91567000D01*
X139953806Y-91547866D01*
X139960018Y-91541653D01*
X139960462Y-91540583D01*
X139973583Y-91527462D01*
X139974653Y-91527018D01*
X139980866Y-91520806D01*
X139989667Y-91520799D01*
X139990762Y-91520346D01*
X144993899Y-91517004D01*
X144993905Y-91517004D01*
X145000000Y-91517000D01*
X145019134Y-91520806D01*
G37*
G36*
X126518800Y-119620400D02*
G01*
X124818800Y-119620400D01*
X124818800Y-117920400D01*
X126518800Y-117920400D01*
X126518800Y-119620400D01*
G37*
G36*
X128249940Y-117925056D02*
G01*
X128297649Y-117925056D01*
X128338845Y-117933812D01*
X128374506Y-117937325D01*
X128419313Y-117950916D01*
X128471464Y-117962002D01*
X128504830Y-117976857D01*
X128533852Y-117985661D01*
X128579967Y-118010310D01*
X128633800Y-118034278D01*
X128658831Y-118052464D01*
X128680697Y-118064152D01*
X128725297Y-118100755D01*
X128777561Y-118138727D01*
X128794531Y-118157574D01*
X128809412Y-118169787D01*
X128849408Y-118218522D01*
X128896464Y-118270783D01*
X128906347Y-118287902D01*
X128915047Y-118298502D01*
X128947227Y-118358707D01*
X128985314Y-118424674D01*
X128989694Y-118438157D01*
X128993538Y-118445347D01*
X129014726Y-118515196D01*
X129040225Y-118593675D01*
X129041122Y-118602216D01*
X129041874Y-118604693D01*
X129049185Y-118678922D01*
X129058800Y-118770400D01*
X129049184Y-118861885D01*
X129041874Y-118936106D01*
X129041122Y-118938582D01*
X129040225Y-118947125D01*
X129014721Y-119025617D01*
X128993538Y-119095452D01*
X128989695Y-119102640D01*
X128985314Y-119116126D01*
X128947220Y-119182104D01*
X128915047Y-119242297D01*
X128906349Y-119252894D01*
X128896464Y-119270017D01*
X128849399Y-119322288D01*
X128809412Y-119371012D01*
X128794534Y-119383221D01*
X128777561Y-119402073D01*
X128725286Y-119440052D01*
X128680697Y-119476647D01*
X128658836Y-119488331D01*
X128633800Y-119506522D01*
X128579955Y-119530494D01*
X128533852Y-119555138D01*
X128504837Y-119563939D01*
X128471464Y-119578798D01*
X128419302Y-119589885D01*
X128374506Y-119603474D01*
X128338853Y-119606985D01*
X128297649Y-119615744D01*
X128249930Y-119615744D01*
X128208800Y-119619795D01*
X128167670Y-119615744D01*
X128119951Y-119615744D01*
X128078746Y-119606985D01*
X128043093Y-119603474D01*
X127998293Y-119589884D01*
X127946136Y-119578798D01*
X127912764Y-119563940D01*
X127883747Y-119555138D01*
X127837638Y-119530492D01*
X127783800Y-119506522D01*
X127758766Y-119488333D01*
X127736902Y-119476647D01*
X127692304Y-119440046D01*
X127640039Y-119402073D01*
X127623067Y-119383224D01*
X127608187Y-119371012D01*
X127568189Y-119322275D01*
X127521136Y-119270017D01*
X127511252Y-119252898D01*
X127502552Y-119242297D01*
X127470365Y-119182081D01*
X127432286Y-119116126D01*
X127427905Y-119102645D01*
X127424061Y-119095452D01*
X127402863Y-119025571D01*
X127377375Y-118947125D01*
X127376477Y-118938587D01*
X127375725Y-118936106D01*
X127368399Y-118861734D01*
X127358800Y-118770400D01*
X127368398Y-118679074D01*
X127375725Y-118604693D01*
X127376477Y-118602211D01*
X127377375Y-118593675D01*
X127402858Y-118515242D01*
X127424061Y-118445347D01*
X127427906Y-118438152D01*
X127432286Y-118424674D01*
X127470358Y-118358730D01*
X127502552Y-118298502D01*
X127511254Y-118287898D01*
X127521136Y-118270783D01*
X127568180Y-118218534D01*
X127608187Y-118169787D01*
X127623071Y-118157571D01*
X127640039Y-118138727D01*
X127692293Y-118100761D01*
X127736902Y-118064152D01*
X127758771Y-118052462D01*
X127783800Y-118034278D01*
X127837626Y-118010312D01*
X127883747Y-117985661D01*
X127912771Y-117976856D01*
X127946136Y-117962002D01*
X127998282Y-117950917D01*
X128043093Y-117937325D01*
X128078755Y-117933812D01*
X128119951Y-117925056D01*
X128167660Y-117925056D01*
X128208800Y-117921004D01*
X128249940Y-117925056D01*
G37*
G36*
X130789940Y-117925056D02*
G01*
X130837649Y-117925056D01*
X130878845Y-117933812D01*
X130914506Y-117937325D01*
X130959313Y-117950916D01*
X131011464Y-117962002D01*
X131044830Y-117976857D01*
X131073852Y-117985661D01*
X131119967Y-118010310D01*
X131173800Y-118034278D01*
X131198831Y-118052464D01*
X131220697Y-118064152D01*
X131265297Y-118100755D01*
X131317561Y-118138727D01*
X131334531Y-118157574D01*
X131349412Y-118169787D01*
X131389408Y-118218522D01*
X131436464Y-118270783D01*
X131446347Y-118287902D01*
X131455047Y-118298502D01*
X131487227Y-118358707D01*
X131525314Y-118424674D01*
X131529694Y-118438157D01*
X131533538Y-118445347D01*
X131554726Y-118515196D01*
X131580225Y-118593675D01*
X131581122Y-118602216D01*
X131581874Y-118604693D01*
X131589185Y-118678922D01*
X131598800Y-118770400D01*
X131589184Y-118861885D01*
X131581874Y-118936106D01*
X131581122Y-118938582D01*
X131580225Y-118947125D01*
X131554721Y-119025617D01*
X131533538Y-119095452D01*
X131529695Y-119102640D01*
X131525314Y-119116126D01*
X131487220Y-119182104D01*
X131455047Y-119242297D01*
X131446349Y-119252894D01*
X131436464Y-119270017D01*
X131389399Y-119322288D01*
X131349412Y-119371012D01*
X131334534Y-119383221D01*
X131317561Y-119402073D01*
X131265286Y-119440052D01*
X131220697Y-119476647D01*
X131198836Y-119488331D01*
X131173800Y-119506522D01*
X131119955Y-119530494D01*
X131073852Y-119555138D01*
X131044837Y-119563939D01*
X131011464Y-119578798D01*
X130959302Y-119589885D01*
X130914506Y-119603474D01*
X130878853Y-119606985D01*
X130837649Y-119615744D01*
X130789930Y-119615744D01*
X130748800Y-119619795D01*
X130707670Y-119615744D01*
X130659951Y-119615744D01*
X130618746Y-119606985D01*
X130583093Y-119603474D01*
X130538293Y-119589884D01*
X130486136Y-119578798D01*
X130452764Y-119563940D01*
X130423747Y-119555138D01*
X130377638Y-119530492D01*
X130323800Y-119506522D01*
X130298766Y-119488333D01*
X130276902Y-119476647D01*
X130232304Y-119440046D01*
X130180039Y-119402073D01*
X130163067Y-119383224D01*
X130148187Y-119371012D01*
X130108189Y-119322275D01*
X130061136Y-119270017D01*
X130051252Y-119252898D01*
X130042552Y-119242297D01*
X130010365Y-119182081D01*
X129972286Y-119116126D01*
X129967905Y-119102645D01*
X129964061Y-119095452D01*
X129942863Y-119025571D01*
X129917375Y-118947125D01*
X129916477Y-118938587D01*
X129915725Y-118936106D01*
X129908399Y-118861734D01*
X129898800Y-118770400D01*
X129908398Y-118679074D01*
X129915725Y-118604693D01*
X129916477Y-118602211D01*
X129917375Y-118593675D01*
X129942858Y-118515242D01*
X129964061Y-118445347D01*
X129967906Y-118438152D01*
X129972286Y-118424674D01*
X130010358Y-118358730D01*
X130042552Y-118298502D01*
X130051254Y-118287898D01*
X130061136Y-118270783D01*
X130108180Y-118218534D01*
X130148187Y-118169787D01*
X130163071Y-118157571D01*
X130180039Y-118138727D01*
X130232293Y-118100761D01*
X130276902Y-118064152D01*
X130298771Y-118052462D01*
X130323800Y-118034278D01*
X130377626Y-118010312D01*
X130423747Y-117985661D01*
X130452771Y-117976856D01*
X130486136Y-117962002D01*
X130538282Y-117950917D01*
X130583093Y-117937325D01*
X130618755Y-117933812D01*
X130659951Y-117925056D01*
X130707660Y-117925056D01*
X130748800Y-117921004D01*
X130789940Y-117925056D01*
G37*
G36*
X122242589Y-112491723D02*
G01*
X122306269Y-112491723D01*
X122363109Y-112501208D01*
X122416994Y-112505449D01*
X122481892Y-112521029D01*
X122550628Y-112532500D01*
X122599377Y-112549235D01*
X122645805Y-112560382D01*
X122713381Y-112588372D01*
X122784943Y-112612940D01*
X122824914Y-112634571D01*
X122863210Y-112650434D01*
X122931086Y-112692028D01*
X123002822Y-112730850D01*
X123033863Y-112755010D01*
X123063851Y-112773387D01*
X123129385Y-112829358D01*
X123198322Y-112883014D01*
X123220808Y-112907440D01*
X123242787Y-112926212D01*
X123303137Y-112996873D01*
X123366111Y-113065281D01*
X123380914Y-113087939D01*
X123395612Y-113105148D01*
X123447841Y-113190378D01*
X123501611Y-113272679D01*
X123510012Y-113291832D01*
X123518565Y-113305789D01*
X123559783Y-113405298D01*
X123601126Y-113499551D01*
X123604747Y-113513852D01*
X123608617Y-113523194D01*
X123636063Y-113637514D01*
X123661942Y-113739708D01*
X123662650Y-113748258D01*
X123663550Y-113752005D01*
X123674692Y-113893583D01*
X123682400Y-113986600D01*
X123674691Y-114079624D01*
X123663550Y-114221194D01*
X123662650Y-114224940D01*
X123661942Y-114233492D01*
X123636058Y-114335703D01*
X123608617Y-114450005D01*
X123604748Y-114459344D01*
X123601126Y-114473649D01*
X123559775Y-114567918D01*
X123518565Y-114667410D01*
X123510014Y-114681363D01*
X123501611Y-114700521D01*
X123447831Y-114782837D01*
X123395612Y-114868051D01*
X123380917Y-114885256D01*
X123366111Y-114907919D01*
X123303125Y-114976339D01*
X123242787Y-115046987D01*
X123220812Y-115065755D01*
X123198322Y-115090186D01*
X123129372Y-115143851D01*
X123063851Y-115199812D01*
X123033869Y-115218184D01*
X123002822Y-115242350D01*
X122931072Y-115281178D01*
X122863210Y-115322765D01*
X122824922Y-115338624D01*
X122784943Y-115360260D01*
X122713366Y-115384831D01*
X122645805Y-115412817D01*
X122599387Y-115423960D01*
X122550628Y-115440700D01*
X122481879Y-115452172D01*
X122416994Y-115467750D01*
X122363121Y-115471989D01*
X122306269Y-115481477D01*
X122242576Y-115481477D01*
X122182400Y-115486213D01*
X122122223Y-115481477D01*
X122058531Y-115481477D01*
X122001679Y-115471990D01*
X121947805Y-115467750D01*
X121882917Y-115452171D01*
X121814172Y-115440700D01*
X121765414Y-115423961D01*
X121718994Y-115412817D01*
X121651427Y-115384829D01*
X121579857Y-115360260D01*
X121539880Y-115338625D01*
X121501589Y-115322765D01*
X121433719Y-115281174D01*
X121361978Y-115242350D01*
X121330934Y-115218187D01*
X121300948Y-115199812D01*
X121235416Y-115143842D01*
X121166478Y-115090186D01*
X121143991Y-115065759D01*
X121122012Y-115046987D01*
X121061660Y-114976324D01*
X120998689Y-114907919D01*
X120983886Y-114885261D01*
X120969187Y-114868051D01*
X120916952Y-114782812D01*
X120863189Y-114700521D01*
X120854788Y-114681369D01*
X120846234Y-114667410D01*
X120805006Y-114567877D01*
X120763674Y-114473649D01*
X120760053Y-114459351D01*
X120756182Y-114450005D01*
X120728722Y-114335627D01*
X120702858Y-114233492D01*
X120702149Y-114224946D01*
X120701249Y-114221194D01*
X120690088Y-114079383D01*
X120682400Y-113986600D01*
X120690087Y-113893823D01*
X120701249Y-113752005D01*
X120702150Y-113748251D01*
X120702858Y-113739708D01*
X120728717Y-113637590D01*
X120756182Y-113523194D01*
X120760053Y-113513846D01*
X120763674Y-113499551D01*
X120804998Y-113405339D01*
X120846234Y-113305789D01*
X120854789Y-113291826D01*
X120863189Y-113272679D01*
X120916942Y-113190402D01*
X120969187Y-113105148D01*
X120983888Y-113087934D01*
X120998689Y-113065281D01*
X121061648Y-112996888D01*
X121122012Y-112926212D01*
X121143995Y-112907436D01*
X121166478Y-112883014D01*
X121235402Y-112829367D01*
X121300948Y-112773387D01*
X121330940Y-112755007D01*
X121361978Y-112730850D01*
X121433705Y-112692033D01*
X121501589Y-112650434D01*
X121539888Y-112634569D01*
X121579857Y-112612940D01*
X121651413Y-112588374D01*
X121718994Y-112560382D01*
X121765424Y-112549234D01*
X121814172Y-112532500D01*
X121882903Y-112521030D01*
X121947805Y-112505449D01*
X122001690Y-112501208D01*
X122058531Y-112491723D01*
X122122211Y-112491723D01*
X122182400Y-112486986D01*
X122242589Y-112491723D01*
G37*
G36*
X136262729Y-113429793D02*
G01*
X136311662Y-113429793D01*
X136353917Y-113438774D01*
X136390783Y-113442406D01*
X136437102Y-113456456D01*
X136490590Y-113467826D01*
X136524812Y-113483062D01*
X136554819Y-113492165D01*
X136602508Y-113517654D01*
X136657700Y-113542228D01*
X136683358Y-113560870D01*
X136705987Y-113572965D01*
X136752141Y-113610843D01*
X136805689Y-113649748D01*
X136823078Y-113669060D01*
X136838490Y-113681709D01*
X136879910Y-113732179D01*
X136928090Y-113785688D01*
X136938210Y-113803216D01*
X136947234Y-113814212D01*
X136980613Y-113876662D01*
X137019552Y-113944105D01*
X137024031Y-113957892D01*
X137028034Y-113965380D01*
X137050095Y-114038107D01*
X137076079Y-114118077D01*
X137076993Y-114126781D01*
X137077793Y-114129416D01*
X137085577Y-114208444D01*
X137095200Y-114300000D01*
X137085576Y-114391563D01*
X137077793Y-114470583D01*
X137076994Y-114473216D01*
X137076079Y-114481923D01*
X137050090Y-114561906D01*
X137028034Y-114634619D01*
X137024032Y-114642105D01*
X137019552Y-114655895D01*
X136980606Y-114723350D01*
X136947234Y-114785787D01*
X136938211Y-114796780D01*
X136928090Y-114814312D01*
X136879901Y-114867831D01*
X136838490Y-114918290D01*
X136823081Y-114930935D01*
X136805689Y-114950252D01*
X136752130Y-114989164D01*
X136705987Y-115027034D01*
X136683363Y-115039126D01*
X136657700Y-115057772D01*
X136602496Y-115082349D01*
X136554819Y-115107834D01*
X136524819Y-115116934D01*
X136490590Y-115132174D01*
X136437091Y-115143545D01*
X136390783Y-115157593D01*
X136353926Y-115161223D01*
X136311662Y-115170207D01*
X136262719Y-115170207D01*
X136220200Y-115174395D01*
X136177681Y-115170207D01*
X136128738Y-115170207D01*
X136086474Y-115161223D01*
X136049616Y-115157593D01*
X136003304Y-115143544D01*
X135949810Y-115132174D01*
X135915582Y-115116935D01*
X135885580Y-115107834D01*
X135837897Y-115082347D01*
X135782700Y-115057772D01*
X135757038Y-115039128D01*
X135734412Y-115027034D01*
X135688260Y-114989157D01*
X135634711Y-114950252D01*
X135617321Y-114930938D01*
X135601909Y-114918290D01*
X135560487Y-114867818D01*
X135512310Y-114814312D01*
X135502190Y-114796784D01*
X135493165Y-114785787D01*
X135459779Y-114723326D01*
X135420848Y-114655895D01*
X135416368Y-114642110D01*
X135412365Y-114634619D01*
X135390294Y-114561860D01*
X135364321Y-114481923D01*
X135363406Y-114473221D01*
X135362606Y-114470583D01*
X135354807Y-114391412D01*
X135345200Y-114300000D01*
X135354807Y-114208595D01*
X135362606Y-114129416D01*
X135363406Y-114126776D01*
X135364321Y-114118077D01*
X135390289Y-114038153D01*
X135412365Y-113965380D01*
X135416369Y-113957887D01*
X135420848Y-113944105D01*
X135459772Y-113876685D01*
X135493165Y-113814212D01*
X135502192Y-113803212D01*
X135512310Y-113785688D01*
X135560478Y-113732191D01*
X135601909Y-113681709D01*
X135617324Y-113669057D01*
X135634711Y-113649748D01*
X135688249Y-113610849D01*
X135734412Y-113572965D01*
X135757044Y-113560868D01*
X135782700Y-113542228D01*
X135837886Y-113517657D01*
X135885580Y-113492165D01*
X135915589Y-113483061D01*
X135949810Y-113467826D01*
X136003293Y-113456457D01*
X136049616Y-113442406D01*
X136086483Y-113438774D01*
X136128738Y-113429793D01*
X136177671Y-113429793D01*
X136220200Y-113425604D01*
X136262729Y-113429793D01*
G37*
G36*
X138802729Y-113429793D02*
G01*
X138851662Y-113429793D01*
X138893917Y-113438774D01*
X138930783Y-113442406D01*
X138977102Y-113456456D01*
X139030590Y-113467826D01*
X139064812Y-113483062D01*
X139094819Y-113492165D01*
X139142508Y-113517654D01*
X139197700Y-113542228D01*
X139223358Y-113560870D01*
X139245987Y-113572965D01*
X139292141Y-113610843D01*
X139345689Y-113649748D01*
X139363078Y-113669060D01*
X139378490Y-113681709D01*
X139419910Y-113732179D01*
X139468090Y-113785688D01*
X139478210Y-113803216D01*
X139487234Y-113814212D01*
X139520613Y-113876662D01*
X139559552Y-113944105D01*
X139564031Y-113957892D01*
X139568034Y-113965380D01*
X139590095Y-114038107D01*
X139616079Y-114118077D01*
X139616993Y-114126781D01*
X139617793Y-114129416D01*
X139625577Y-114208444D01*
X139635200Y-114300000D01*
X139625576Y-114391563D01*
X139617793Y-114470583D01*
X139616994Y-114473216D01*
X139616079Y-114481923D01*
X139590090Y-114561906D01*
X139568034Y-114634619D01*
X139564032Y-114642105D01*
X139559552Y-114655895D01*
X139520606Y-114723350D01*
X139487234Y-114785787D01*
X139478211Y-114796780D01*
X139468090Y-114814312D01*
X139419901Y-114867831D01*
X139378490Y-114918290D01*
X139363081Y-114930935D01*
X139345689Y-114950252D01*
X139292130Y-114989164D01*
X139245987Y-115027034D01*
X139223363Y-115039126D01*
X139197700Y-115057772D01*
X139142496Y-115082349D01*
X139094819Y-115107834D01*
X139064819Y-115116934D01*
X139030590Y-115132174D01*
X138977091Y-115143545D01*
X138930783Y-115157593D01*
X138893926Y-115161223D01*
X138851662Y-115170207D01*
X138802719Y-115170207D01*
X138760200Y-115174395D01*
X138717681Y-115170207D01*
X138668738Y-115170207D01*
X138626474Y-115161223D01*
X138589616Y-115157593D01*
X138543304Y-115143544D01*
X138489810Y-115132174D01*
X138455582Y-115116935D01*
X138425580Y-115107834D01*
X138377897Y-115082347D01*
X138322700Y-115057772D01*
X138297038Y-115039128D01*
X138274412Y-115027034D01*
X138228260Y-114989157D01*
X138174711Y-114950252D01*
X138157321Y-114930938D01*
X138141909Y-114918290D01*
X138100487Y-114867818D01*
X138052310Y-114814312D01*
X138042190Y-114796784D01*
X138033165Y-114785787D01*
X137999779Y-114723326D01*
X137960848Y-114655895D01*
X137956368Y-114642110D01*
X137952365Y-114634619D01*
X137930294Y-114561860D01*
X137904321Y-114481923D01*
X137903406Y-114473221D01*
X137902606Y-114470583D01*
X137894807Y-114391412D01*
X137885200Y-114300000D01*
X137894807Y-114208595D01*
X137902606Y-114129416D01*
X137903406Y-114126776D01*
X137904321Y-114118077D01*
X137930289Y-114038153D01*
X137952365Y-113965380D01*
X137956369Y-113957887D01*
X137960848Y-113944105D01*
X137999772Y-113876685D01*
X138033165Y-113814212D01*
X138042192Y-113803212D01*
X138052310Y-113785688D01*
X138100478Y-113732191D01*
X138141909Y-113681709D01*
X138157324Y-113669057D01*
X138174711Y-113649748D01*
X138228249Y-113610849D01*
X138274412Y-113572965D01*
X138297044Y-113560868D01*
X138322700Y-113542228D01*
X138377886Y-113517657D01*
X138425580Y-113492165D01*
X138455589Y-113483061D01*
X138489810Y-113467826D01*
X138543293Y-113456457D01*
X138589616Y-113442406D01*
X138626483Y-113438774D01*
X138668738Y-113429793D01*
X138717671Y-113429793D01*
X138760200Y-113425604D01*
X138802729Y-113429793D01*
G37*
G36*
X146422729Y-113429793D02*
G01*
X146471662Y-113429793D01*
X146513917Y-113438774D01*
X146550783Y-113442406D01*
X146597102Y-113456456D01*
X146650590Y-113467826D01*
X146684812Y-113483062D01*
X146714819Y-113492165D01*
X146762508Y-113517654D01*
X146817700Y-113542228D01*
X146843358Y-113560870D01*
X146865987Y-113572965D01*
X146912141Y-113610843D01*
X146965689Y-113649748D01*
X146983078Y-113669060D01*
X146998490Y-113681709D01*
X147039910Y-113732179D01*
X147088090Y-113785688D01*
X147098210Y-113803216D01*
X147107234Y-113814212D01*
X147140613Y-113876662D01*
X147179552Y-113944105D01*
X147184031Y-113957892D01*
X147188034Y-113965380D01*
X147210095Y-114038107D01*
X147236079Y-114118077D01*
X147236993Y-114126781D01*
X147237793Y-114129416D01*
X147245577Y-114208444D01*
X147255200Y-114300000D01*
X147245576Y-114391563D01*
X147237793Y-114470583D01*
X147236994Y-114473216D01*
X147236079Y-114481923D01*
X147210090Y-114561906D01*
X147188034Y-114634619D01*
X147184032Y-114642105D01*
X147179552Y-114655895D01*
X147140606Y-114723350D01*
X147107234Y-114785787D01*
X147098211Y-114796780D01*
X147088090Y-114814312D01*
X147039901Y-114867831D01*
X146998490Y-114918290D01*
X146983081Y-114930935D01*
X146965689Y-114950252D01*
X146912130Y-114989164D01*
X146865987Y-115027034D01*
X146843363Y-115039126D01*
X146817700Y-115057772D01*
X146762496Y-115082349D01*
X146714819Y-115107834D01*
X146684819Y-115116934D01*
X146650590Y-115132174D01*
X146597091Y-115143545D01*
X146550783Y-115157593D01*
X146513926Y-115161223D01*
X146471662Y-115170207D01*
X146422719Y-115170207D01*
X146380200Y-115174395D01*
X146337681Y-115170207D01*
X146288738Y-115170207D01*
X146246474Y-115161223D01*
X146209616Y-115157593D01*
X146163304Y-115143544D01*
X146109810Y-115132174D01*
X146075582Y-115116935D01*
X146045580Y-115107834D01*
X145997897Y-115082347D01*
X145942700Y-115057772D01*
X145917038Y-115039128D01*
X145894412Y-115027034D01*
X145848260Y-114989157D01*
X145794711Y-114950252D01*
X145777321Y-114930938D01*
X145761909Y-114918290D01*
X145720487Y-114867818D01*
X145672310Y-114814312D01*
X145662190Y-114796784D01*
X145653165Y-114785787D01*
X145619779Y-114723326D01*
X145580848Y-114655895D01*
X145576368Y-114642110D01*
X145572365Y-114634619D01*
X145550294Y-114561860D01*
X145524321Y-114481923D01*
X145523406Y-114473221D01*
X145522606Y-114470583D01*
X145514807Y-114391412D01*
X145505200Y-114300000D01*
X145514807Y-114208595D01*
X145522606Y-114129416D01*
X145523406Y-114126776D01*
X145524321Y-114118077D01*
X145550289Y-114038153D01*
X145572365Y-113965380D01*
X145576369Y-113957887D01*
X145580848Y-113944105D01*
X145619772Y-113876685D01*
X145653165Y-113814212D01*
X145662192Y-113803212D01*
X145672310Y-113785688D01*
X145720478Y-113732191D01*
X145761909Y-113681709D01*
X145777324Y-113669057D01*
X145794711Y-113649748D01*
X145848249Y-113610849D01*
X145894412Y-113572965D01*
X145917044Y-113560868D01*
X145942700Y-113542228D01*
X145997886Y-113517657D01*
X146045580Y-113492165D01*
X146075589Y-113483061D01*
X146109810Y-113467826D01*
X146163293Y-113456457D01*
X146209616Y-113442406D01*
X146246483Y-113438774D01*
X146288738Y-113429793D01*
X146337671Y-113429793D01*
X146380200Y-113425604D01*
X146422729Y-113429793D01*
G37*
G36*
X151502729Y-113429793D02*
G01*
X151551662Y-113429793D01*
X151593917Y-113438774D01*
X151630783Y-113442406D01*
X151677102Y-113456456D01*
X151730590Y-113467826D01*
X151764812Y-113483062D01*
X151794819Y-113492165D01*
X151842508Y-113517654D01*
X151897700Y-113542228D01*
X151923358Y-113560870D01*
X151945987Y-113572965D01*
X151992141Y-113610843D01*
X152045689Y-113649748D01*
X152063078Y-113669060D01*
X152078490Y-113681709D01*
X152119910Y-113732179D01*
X152168090Y-113785688D01*
X152178210Y-113803216D01*
X152187234Y-113814212D01*
X152220613Y-113876662D01*
X152259552Y-113944105D01*
X152264031Y-113957892D01*
X152268034Y-113965380D01*
X152290095Y-114038107D01*
X152316079Y-114118077D01*
X152316993Y-114126781D01*
X152317793Y-114129416D01*
X152325577Y-114208444D01*
X152335200Y-114300000D01*
X152325576Y-114391563D01*
X152317793Y-114470583D01*
X152316994Y-114473216D01*
X152316079Y-114481923D01*
X152290090Y-114561906D01*
X152268034Y-114634619D01*
X152264032Y-114642105D01*
X152259552Y-114655895D01*
X152220606Y-114723350D01*
X152187234Y-114785787D01*
X152178211Y-114796780D01*
X152168090Y-114814312D01*
X152119901Y-114867831D01*
X152078490Y-114918290D01*
X152063081Y-114930935D01*
X152045689Y-114950252D01*
X151992130Y-114989164D01*
X151945987Y-115027034D01*
X151923363Y-115039126D01*
X151897700Y-115057772D01*
X151842496Y-115082349D01*
X151794819Y-115107834D01*
X151764819Y-115116934D01*
X151730590Y-115132174D01*
X151677091Y-115143545D01*
X151630783Y-115157593D01*
X151593926Y-115161223D01*
X151551662Y-115170207D01*
X151502719Y-115170207D01*
X151460200Y-115174395D01*
X151417681Y-115170207D01*
X151368738Y-115170207D01*
X151326474Y-115161223D01*
X151289616Y-115157593D01*
X151243304Y-115143544D01*
X151189810Y-115132174D01*
X151155582Y-115116935D01*
X151125580Y-115107834D01*
X151077897Y-115082347D01*
X151022700Y-115057772D01*
X150997038Y-115039128D01*
X150974412Y-115027034D01*
X150928260Y-114989157D01*
X150874711Y-114950252D01*
X150857321Y-114930938D01*
X150841909Y-114918290D01*
X150800487Y-114867818D01*
X150752310Y-114814312D01*
X150742190Y-114796784D01*
X150733165Y-114785787D01*
X150699779Y-114723326D01*
X150660848Y-114655895D01*
X150656368Y-114642110D01*
X150652365Y-114634619D01*
X150630294Y-114561860D01*
X150604321Y-114481923D01*
X150603406Y-114473221D01*
X150602606Y-114470583D01*
X150594807Y-114391412D01*
X150585200Y-114300000D01*
X150594807Y-114208595D01*
X150602606Y-114129416D01*
X150603406Y-114126776D01*
X150604321Y-114118077D01*
X150630289Y-114038153D01*
X150652365Y-113965380D01*
X150656369Y-113957887D01*
X150660848Y-113944105D01*
X150699772Y-113876685D01*
X150733165Y-113814212D01*
X150742192Y-113803212D01*
X150752310Y-113785688D01*
X150800478Y-113732191D01*
X150841909Y-113681709D01*
X150857324Y-113669057D01*
X150874711Y-113649748D01*
X150928249Y-113610849D01*
X150974412Y-113572965D01*
X150997044Y-113560868D01*
X151022700Y-113542228D01*
X151077886Y-113517657D01*
X151125580Y-113492165D01*
X151155589Y-113483061D01*
X151189810Y-113467826D01*
X151243293Y-113456457D01*
X151289616Y-113442406D01*
X151326483Y-113438774D01*
X151368738Y-113429793D01*
X151417671Y-113429793D01*
X151460200Y-113425604D01*
X151502729Y-113429793D01*
G37*
G36*
X163109812Y-111261682D02*
G01*
X163175996Y-111264282D01*
X163181956Y-111265226D01*
X163198017Y-111266015D01*
X163241320Y-111274628D01*
X163333355Y-111289206D01*
X163362956Y-111298823D01*
X163390285Y-111304260D01*
X163428846Y-111320232D01*
X163482532Y-111337676D01*
X163532828Y-111363303D01*
X163571397Y-111379279D01*
X163594567Y-111394760D01*
X163622301Y-111408892D01*
X163697696Y-111463670D01*
X163734393Y-111488190D01*
X163742224Y-111496021D01*
X163749191Y-111501083D01*
X163860116Y-111612008D01*
X163865177Y-111618974D01*
X163873010Y-111626807D01*
X163897532Y-111663508D01*
X163952307Y-111738898D01*
X163966437Y-111766629D01*
X163981921Y-111789803D01*
X163997898Y-111828376D01*
X164023523Y-111878667D01*
X164040964Y-111932345D01*
X164056940Y-111970915D01*
X164062377Y-111998249D01*
X164071993Y-112027844D01*
X164086567Y-112119861D01*
X164095185Y-112163183D01*
X164095185Y-112174266D01*
X164096532Y-112182771D01*
X164096532Y-112339628D01*
X164095185Y-112348132D01*
X164095185Y-112359217D01*
X164086567Y-112402541D01*
X164071993Y-112494555D01*
X164062377Y-112524148D01*
X164056940Y-112551485D01*
X164040962Y-112590058D01*
X164023523Y-112643732D01*
X163997900Y-112694018D01*
X163981921Y-112732597D01*
X163966434Y-112755773D01*
X163952307Y-112783501D01*
X163897541Y-112858879D01*
X163873010Y-112895593D01*
X163865174Y-112903428D01*
X163860116Y-112910391D01*
X163749191Y-113021316D01*
X163742228Y-113026374D01*
X163734393Y-113034210D01*
X163697679Y-113058741D01*
X163622301Y-113113507D01*
X163594573Y-113127634D01*
X163571397Y-113143121D01*
X163532818Y-113159100D01*
X163482532Y-113184723D01*
X163428858Y-113202162D01*
X163390285Y-113218140D01*
X163362948Y-113223577D01*
X163333355Y-113233193D01*
X163241344Y-113247766D01*
X163198017Y-113256385D01*
X163186768Y-113256410D01*
X163178326Y-113257748D01*
X161102355Y-113261195D01*
X161102345Y-113261194D01*
X161100000Y-113261200D01*
X161090089Y-113260713D01*
X161024003Y-113258117D01*
X161018051Y-113257174D01*
X161001983Y-113256385D01*
X160958658Y-113247767D01*
X160866644Y-113233193D01*
X160837049Y-113223577D01*
X160809715Y-113218140D01*
X160771145Y-113202164D01*
X160717467Y-113184723D01*
X160667176Y-113159098D01*
X160628603Y-113143121D01*
X160605429Y-113127637D01*
X160577698Y-113113507D01*
X160502308Y-113058732D01*
X160465607Y-113034210D01*
X160457774Y-113026377D01*
X160450808Y-113021316D01*
X160339883Y-112910391D01*
X160334821Y-112903424D01*
X160326990Y-112895593D01*
X160302470Y-112858896D01*
X160247692Y-112783501D01*
X160233560Y-112755767D01*
X160218079Y-112732597D01*
X160202103Y-112694028D01*
X160176476Y-112643732D01*
X160159032Y-112590046D01*
X160143060Y-112551485D01*
X160137623Y-112524156D01*
X160128006Y-112494555D01*
X160113430Y-112402531D01*
X160104815Y-112359217D01*
X160104815Y-112348132D01*
X160103468Y-112339628D01*
X160103468Y-112182771D01*
X160104815Y-112174266D01*
X160104815Y-112163183D01*
X160113430Y-112119871D01*
X160128006Y-112027844D01*
X160137624Y-111998241D01*
X160143060Y-111970915D01*
X160159031Y-111932356D01*
X160176476Y-111878667D01*
X160202105Y-111828365D01*
X160218079Y-111789803D01*
X160233558Y-111766636D01*
X160247692Y-111738898D01*
X160302478Y-111663490D01*
X160326990Y-111626807D01*
X160334818Y-111618978D01*
X160339883Y-111612008D01*
X160450808Y-111501083D01*
X160457778Y-111496018D01*
X160465607Y-111488190D01*
X160502290Y-111463678D01*
X160577698Y-111408892D01*
X160605436Y-111394758D01*
X160628603Y-111379279D01*
X160667165Y-111363305D01*
X160717467Y-111337676D01*
X160771156Y-111320231D01*
X160809715Y-111304260D01*
X160837041Y-111298824D01*
X160866644Y-111289206D01*
X160958684Y-111274627D01*
X161001983Y-111266015D01*
X161013224Y-111265989D01*
X161021673Y-111264651D01*
X163097644Y-111261204D01*
X163097677Y-111261205D01*
X163100000Y-111261200D01*
X163109812Y-111261682D01*
G37*
G36*
X124937370Y-110121667D02*
G01*
X124975953Y-110121667D01*
X125019477Y-110130918D01*
X125070417Y-110136658D01*
X125107459Y-110149619D01*
X125139396Y-110156408D01*
X125185423Y-110176900D01*
X125239507Y-110195825D01*
X125267655Y-110213512D01*
X125292057Y-110224376D01*
X125337553Y-110257431D01*
X125391192Y-110291135D01*
X125410457Y-110310400D01*
X125427243Y-110322596D01*
X125468742Y-110368685D01*
X125517865Y-110417808D01*
X125529163Y-110435789D01*
X125539056Y-110446776D01*
X125572902Y-110505400D01*
X125613175Y-110569493D01*
X125618202Y-110583861D01*
X125622607Y-110591490D01*
X125645163Y-110660910D01*
X125672342Y-110738583D01*
X125673372Y-110747728D01*
X125674245Y-110750414D01*
X125682152Y-110825649D01*
X125692400Y-110916600D01*
X125682151Y-111007558D01*
X125674245Y-111082785D01*
X125673372Y-111085469D01*
X125672342Y-111094617D01*
X125645158Y-111172302D01*
X125622607Y-111241709D01*
X125618203Y-111249335D01*
X125613175Y-111263707D01*
X125572895Y-111327810D01*
X125539056Y-111386423D01*
X125529165Y-111397407D01*
X125517865Y-111415392D01*
X125468733Y-111464523D01*
X125427243Y-111510603D01*
X125410460Y-111522796D01*
X125391192Y-111542065D01*
X125337543Y-111575774D01*
X125292057Y-111608823D01*
X125267661Y-111619684D01*
X125239507Y-111637375D01*
X125185412Y-111656303D01*
X125139396Y-111676791D01*
X125107465Y-111683578D01*
X125070417Y-111696542D01*
X125019474Y-111702281D01*
X124975953Y-111711533D01*
X124937370Y-111711533D01*
X124892400Y-111716600D01*
X124847430Y-111711533D01*
X124808847Y-111711533D01*
X124765324Y-111702281D01*
X124714383Y-111696542D01*
X124677336Y-111683578D01*
X124645403Y-111676791D01*
X124599382Y-111656301D01*
X124545293Y-111637375D01*
X124517141Y-111619686D01*
X124492742Y-111608823D01*
X124447249Y-111575769D01*
X124393608Y-111542065D01*
X124374341Y-111522798D01*
X124357556Y-111510603D01*
X124316056Y-111464513D01*
X124266935Y-111415392D01*
X124255636Y-111397411D01*
X124245743Y-111386423D01*
X124211891Y-111327791D01*
X124171625Y-111263707D01*
X124166597Y-111249340D01*
X124162192Y-111241709D01*
X124139627Y-111172262D01*
X124112458Y-111094617D01*
X124111427Y-111085474D01*
X124110554Y-111082785D01*
X124102633Y-111007426D01*
X124092400Y-110916600D01*
X124102632Y-110825781D01*
X124110554Y-110750414D01*
X124111428Y-110747724D01*
X124112458Y-110738583D01*
X124139622Y-110660950D01*
X124162192Y-110591490D01*
X124166598Y-110583857D01*
X124171625Y-110569493D01*
X124211884Y-110505419D01*
X124245743Y-110446776D01*
X124255639Y-110435785D01*
X124266935Y-110417808D01*
X124316047Y-110368695D01*
X124357556Y-110322596D01*
X124374345Y-110310397D01*
X124393608Y-110291135D01*
X124447245Y-110257432D01*
X124492746Y-110224374D01*
X124517148Y-110213509D01*
X124545293Y-110195825D01*
X124599362Y-110176905D01*
X124645398Y-110156409D01*
X124677342Y-110149619D01*
X124714383Y-110136658D01*
X124765322Y-110130918D01*
X124808847Y-110121667D01*
X124847430Y-110121667D01*
X124892400Y-110116600D01*
X124937370Y-110121667D01*
G37*
G36*
X134352400Y-110654200D02*
G01*
X132652400Y-110654200D01*
X132652400Y-108954200D01*
X134352400Y-108954200D01*
X134352400Y-110654200D01*
G37*
G36*
X151980000Y-110120800D02*
G01*
X150280000Y-110120800D01*
X150280000Y-108420800D01*
X151980000Y-108420800D01*
X151980000Y-110120800D01*
G37*
G36*
X124937370Y-107621667D02*
G01*
X124975953Y-107621667D01*
X125019477Y-107630918D01*
X125070417Y-107636658D01*
X125107459Y-107649619D01*
X125139396Y-107656408D01*
X125185423Y-107676900D01*
X125239507Y-107695825D01*
X125267655Y-107713512D01*
X125292057Y-107724376D01*
X125337553Y-107757431D01*
X125391192Y-107791135D01*
X125410457Y-107810400D01*
X125427243Y-107822596D01*
X125468742Y-107868685D01*
X125517865Y-107917808D01*
X125529163Y-107935789D01*
X125539056Y-107946776D01*
X125572902Y-108005400D01*
X125613175Y-108069493D01*
X125618202Y-108083861D01*
X125622607Y-108091490D01*
X125645163Y-108160910D01*
X125672342Y-108238583D01*
X125673372Y-108247728D01*
X125674245Y-108250414D01*
X125682152Y-108325649D01*
X125692400Y-108416600D01*
X125682151Y-108507558D01*
X125674245Y-108582785D01*
X125673372Y-108585469D01*
X125672342Y-108594617D01*
X125645158Y-108672302D01*
X125622607Y-108741709D01*
X125618203Y-108749335D01*
X125613175Y-108763707D01*
X125572895Y-108827810D01*
X125539056Y-108886423D01*
X125529165Y-108897407D01*
X125517865Y-108915392D01*
X125468733Y-108964523D01*
X125427243Y-109010603D01*
X125410460Y-109022796D01*
X125391192Y-109042065D01*
X125337543Y-109075774D01*
X125292057Y-109108823D01*
X125267661Y-109119684D01*
X125239507Y-109137375D01*
X125185412Y-109156303D01*
X125139396Y-109176791D01*
X125107465Y-109183578D01*
X125070417Y-109196542D01*
X125019474Y-109202281D01*
X124975953Y-109211533D01*
X124937370Y-109211533D01*
X124892400Y-109216600D01*
X124847430Y-109211533D01*
X124808847Y-109211533D01*
X124765324Y-109202281D01*
X124714383Y-109196542D01*
X124677336Y-109183578D01*
X124645403Y-109176791D01*
X124599382Y-109156301D01*
X124545293Y-109137375D01*
X124517141Y-109119686D01*
X124492742Y-109108823D01*
X124447249Y-109075769D01*
X124393608Y-109042065D01*
X124374341Y-109022798D01*
X124357556Y-109010603D01*
X124316056Y-108964513D01*
X124266935Y-108915392D01*
X124255636Y-108897411D01*
X124245743Y-108886423D01*
X124211891Y-108827791D01*
X124171625Y-108763707D01*
X124166597Y-108749340D01*
X124162192Y-108741709D01*
X124139627Y-108672262D01*
X124112458Y-108594617D01*
X124111427Y-108585474D01*
X124110554Y-108582785D01*
X124102633Y-108507426D01*
X124092400Y-108416600D01*
X124102632Y-108325781D01*
X124110554Y-108250414D01*
X124111428Y-108247724D01*
X124112458Y-108238583D01*
X124139622Y-108160950D01*
X124162192Y-108091490D01*
X124166598Y-108083857D01*
X124171625Y-108069493D01*
X124211884Y-108005419D01*
X124245743Y-107946776D01*
X124255639Y-107935785D01*
X124266935Y-107917808D01*
X124316047Y-107868695D01*
X124357556Y-107822596D01*
X124374345Y-107810397D01*
X124393608Y-107791135D01*
X124447245Y-107757432D01*
X124492746Y-107724374D01*
X124517148Y-107713509D01*
X124545293Y-107695825D01*
X124599362Y-107676905D01*
X124645398Y-107656409D01*
X124677342Y-107649619D01*
X124714383Y-107636658D01*
X124765322Y-107630918D01*
X124808847Y-107621667D01*
X124847430Y-107621667D01*
X124892400Y-107616600D01*
X124937370Y-107621667D01*
G37*
G36*
X162162315Y-108166289D02*
G01*
X162171157Y-108166289D01*
X162217369Y-108179858D01*
X162276978Y-108194550D01*
X162289134Y-108200930D01*
X162307708Y-108206384D01*
X162344159Y-108229809D01*
X162383510Y-108250463D01*
X162402568Y-108267347D01*
X162427430Y-108283325D01*
X162449985Y-108309355D01*
X162473567Y-108330247D01*
X162495023Y-108361331D01*
X162520627Y-108390880D01*
X162530809Y-108413177D01*
X162541915Y-108429266D01*
X162560323Y-108477804D01*
X162579746Y-108520334D01*
X162581756Y-108534316D01*
X162584579Y-108541759D01*
X162594092Y-108620111D01*
X162600000Y-108661200D01*
X162594091Y-108702290D01*
X162584579Y-108780640D01*
X162581756Y-108788081D01*
X162579746Y-108802066D01*
X162560321Y-108844600D01*
X162541915Y-108893133D01*
X162530811Y-108909219D01*
X162520627Y-108931520D01*
X162495019Y-108961072D01*
X162473567Y-108992152D01*
X162449989Y-109013039D01*
X162427430Y-109039075D01*
X162402564Y-109055055D01*
X162383510Y-109071936D01*
X162344167Y-109092584D01*
X162307708Y-109116016D01*
X162289130Y-109121470D01*
X162276978Y-109127849D01*
X162217380Y-109142538D01*
X162171157Y-109156111D01*
X162162315Y-109156111D01*
X162160157Y-109156643D01*
X162039843Y-109156643D01*
X162037685Y-109156111D01*
X162028843Y-109156111D01*
X161982622Y-109142539D01*
X161923021Y-109127849D01*
X161910867Y-109121470D01*
X161892292Y-109116016D01*
X161855836Y-109092587D01*
X161816489Y-109071936D01*
X161797432Y-109055052D01*
X161772570Y-109039075D01*
X161750013Y-109013043D01*
X161726432Y-108992152D01*
X161704975Y-108961066D01*
X161679373Y-108931520D01*
X161669190Y-108909224D01*
X161658084Y-108893133D01*
X161639672Y-108844587D01*
X161620254Y-108802066D01*
X161618243Y-108788085D01*
X161615420Y-108780640D01*
X161605901Y-108702245D01*
X161600000Y-108661200D01*
X161605901Y-108620156D01*
X161615420Y-108541759D01*
X161618244Y-108534312D01*
X161620254Y-108520334D01*
X161639670Y-108477817D01*
X161658084Y-108429266D01*
X161669192Y-108413172D01*
X161679373Y-108390880D01*
X161704971Y-108361337D01*
X161726432Y-108330247D01*
X161750017Y-108309351D01*
X161772570Y-108283325D01*
X161797428Y-108267349D01*
X161816489Y-108250463D01*
X161855845Y-108229806D01*
X161892292Y-108206384D01*
X161910863Y-108200931D01*
X161923021Y-108194550D01*
X161982632Y-108179857D01*
X162028843Y-108166289D01*
X162037685Y-108166289D01*
X162039843Y-108165757D01*
X162160157Y-108165757D01*
X162162315Y-108166289D01*
G37*
G36*
X124937370Y-105621667D02*
G01*
X124975953Y-105621667D01*
X125019477Y-105630918D01*
X125070417Y-105636658D01*
X125107459Y-105649619D01*
X125139396Y-105656408D01*
X125185423Y-105676900D01*
X125239507Y-105695825D01*
X125267655Y-105713512D01*
X125292057Y-105724376D01*
X125337553Y-105757431D01*
X125391192Y-105791135D01*
X125410457Y-105810400D01*
X125427243Y-105822596D01*
X125468742Y-105868685D01*
X125517865Y-105917808D01*
X125529163Y-105935789D01*
X125539056Y-105946776D01*
X125572902Y-106005400D01*
X125613175Y-106069493D01*
X125618202Y-106083861D01*
X125622607Y-106091490D01*
X125645163Y-106160910D01*
X125672342Y-106238583D01*
X125673372Y-106247728D01*
X125674245Y-106250414D01*
X125682152Y-106325649D01*
X125692400Y-106416600D01*
X125682151Y-106507558D01*
X125674245Y-106582785D01*
X125673372Y-106585469D01*
X125672342Y-106594617D01*
X125645158Y-106672302D01*
X125622607Y-106741709D01*
X125618203Y-106749335D01*
X125613175Y-106763707D01*
X125572895Y-106827810D01*
X125539056Y-106886423D01*
X125529165Y-106897407D01*
X125517865Y-106915392D01*
X125468733Y-106964523D01*
X125427243Y-107010603D01*
X125410460Y-107022796D01*
X125391192Y-107042065D01*
X125337543Y-107075774D01*
X125292057Y-107108823D01*
X125267661Y-107119684D01*
X125239507Y-107137375D01*
X125185412Y-107156303D01*
X125139396Y-107176791D01*
X125107465Y-107183578D01*
X125070417Y-107196542D01*
X125019474Y-107202281D01*
X124975953Y-107211533D01*
X124937370Y-107211533D01*
X124892400Y-107216600D01*
X124847430Y-107211533D01*
X124808847Y-107211533D01*
X124765324Y-107202281D01*
X124714383Y-107196542D01*
X124677336Y-107183578D01*
X124645403Y-107176791D01*
X124599382Y-107156301D01*
X124545293Y-107137375D01*
X124517141Y-107119686D01*
X124492742Y-107108823D01*
X124447249Y-107075769D01*
X124393608Y-107042065D01*
X124374341Y-107022798D01*
X124357556Y-107010603D01*
X124316056Y-106964513D01*
X124266935Y-106915392D01*
X124255636Y-106897411D01*
X124245743Y-106886423D01*
X124211891Y-106827791D01*
X124171625Y-106763707D01*
X124166597Y-106749340D01*
X124162192Y-106741709D01*
X124139627Y-106672262D01*
X124112458Y-106594617D01*
X124111427Y-106585474D01*
X124110554Y-106582785D01*
X124102633Y-106507426D01*
X124092400Y-106416600D01*
X124102632Y-106325781D01*
X124110554Y-106250414D01*
X124111428Y-106247724D01*
X124112458Y-106238583D01*
X124139622Y-106160950D01*
X124162192Y-106091490D01*
X124166598Y-106083857D01*
X124171625Y-106069493D01*
X124211884Y-106005419D01*
X124245743Y-105946776D01*
X124255639Y-105935785D01*
X124266935Y-105917808D01*
X124316047Y-105868695D01*
X124357556Y-105822596D01*
X124374345Y-105810397D01*
X124393608Y-105791135D01*
X124447245Y-105757432D01*
X124492746Y-105724374D01*
X124517148Y-105713509D01*
X124545293Y-105695825D01*
X124599362Y-105676905D01*
X124645398Y-105656409D01*
X124677342Y-105649619D01*
X124714383Y-105636658D01*
X124765322Y-105630918D01*
X124808847Y-105621667D01*
X124847430Y-105621667D01*
X124892400Y-105616600D01*
X124937370Y-105621667D01*
G37*
G36*
X125642400Y-104716600D02*
G01*
X124142400Y-104716600D01*
X124142400Y-103116600D01*
X125642400Y-103116600D01*
X125642400Y-104716600D01*
G37*
G36*
X162162315Y-103666289D02*
G01*
X162171157Y-103666289D01*
X162217369Y-103679858D01*
X162276978Y-103694550D01*
X162289134Y-103700930D01*
X162307708Y-103706384D01*
X162344159Y-103729809D01*
X162383510Y-103750463D01*
X162402568Y-103767347D01*
X162427430Y-103783325D01*
X162449985Y-103809355D01*
X162473567Y-103830247D01*
X162495023Y-103861331D01*
X162520627Y-103890880D01*
X162530809Y-103913177D01*
X162541915Y-103929266D01*
X162560323Y-103977804D01*
X162579746Y-104020334D01*
X162581756Y-104034316D01*
X162584579Y-104041759D01*
X162594092Y-104120111D01*
X162600000Y-104161200D01*
X162594091Y-104202290D01*
X162584579Y-104280640D01*
X162581756Y-104288081D01*
X162579746Y-104302066D01*
X162560321Y-104344600D01*
X162541915Y-104393133D01*
X162530811Y-104409219D01*
X162520627Y-104431520D01*
X162495019Y-104461072D01*
X162473567Y-104492152D01*
X162449989Y-104513039D01*
X162427430Y-104539075D01*
X162402564Y-104555055D01*
X162383510Y-104571936D01*
X162344167Y-104592584D01*
X162307708Y-104616016D01*
X162289130Y-104621470D01*
X162276978Y-104627849D01*
X162217380Y-104642538D01*
X162171157Y-104656111D01*
X162162315Y-104656111D01*
X162160157Y-104656643D01*
X162039843Y-104656643D01*
X162037685Y-104656111D01*
X162028843Y-104656111D01*
X161982622Y-104642539D01*
X161923021Y-104627849D01*
X161910867Y-104621470D01*
X161892292Y-104616016D01*
X161855836Y-104592587D01*
X161816489Y-104571936D01*
X161797432Y-104555052D01*
X161772570Y-104539075D01*
X161750013Y-104513043D01*
X161726432Y-104492152D01*
X161704975Y-104461066D01*
X161679373Y-104431520D01*
X161669190Y-104409224D01*
X161658084Y-104393133D01*
X161639672Y-104344587D01*
X161620254Y-104302066D01*
X161618243Y-104288085D01*
X161615420Y-104280640D01*
X161605901Y-104202245D01*
X161600000Y-104161200D01*
X161605901Y-104120156D01*
X161615420Y-104041759D01*
X161618244Y-104034312D01*
X161620254Y-104020334D01*
X161639670Y-103977817D01*
X161658084Y-103929266D01*
X161669192Y-103913172D01*
X161679373Y-103890880D01*
X161704971Y-103861337D01*
X161726432Y-103830247D01*
X161750017Y-103809351D01*
X161772570Y-103783325D01*
X161797428Y-103767349D01*
X161816489Y-103750463D01*
X161855845Y-103729806D01*
X161892292Y-103706384D01*
X161910863Y-103700931D01*
X161923021Y-103694550D01*
X161982632Y-103679857D01*
X162028843Y-103666289D01*
X162037685Y-103666289D01*
X162039843Y-103665757D01*
X162160157Y-103665757D01*
X162162315Y-103666289D01*
G37*
G36*
X122242589Y-99351723D02*
G01*
X122306269Y-99351723D01*
X122363109Y-99361208D01*
X122416994Y-99365449D01*
X122481892Y-99381029D01*
X122550628Y-99392500D01*
X122599377Y-99409235D01*
X122645805Y-99420382D01*
X122713381Y-99448372D01*
X122784943Y-99472940D01*
X122824914Y-99494571D01*
X122863210Y-99510434D01*
X122931086Y-99552028D01*
X123002822Y-99590850D01*
X123033863Y-99615010D01*
X123063851Y-99633387D01*
X123129385Y-99689358D01*
X123198322Y-99743014D01*
X123220808Y-99767440D01*
X123242787Y-99786212D01*
X123303137Y-99856873D01*
X123366111Y-99925281D01*
X123380914Y-99947939D01*
X123395612Y-99965148D01*
X123447841Y-100050378D01*
X123501611Y-100132679D01*
X123510012Y-100151832D01*
X123518565Y-100165789D01*
X123559783Y-100265298D01*
X123601126Y-100359551D01*
X123604747Y-100373852D01*
X123608617Y-100383194D01*
X123636063Y-100497514D01*
X123661942Y-100599708D01*
X123662650Y-100608258D01*
X123663550Y-100612005D01*
X123674692Y-100753583D01*
X123682400Y-100846600D01*
X123674691Y-100939624D01*
X123663550Y-101081194D01*
X123662650Y-101084940D01*
X123661942Y-101093492D01*
X123636058Y-101195703D01*
X123608617Y-101310005D01*
X123604748Y-101319344D01*
X123601126Y-101333649D01*
X123559775Y-101427918D01*
X123518565Y-101527410D01*
X123510014Y-101541363D01*
X123501611Y-101560521D01*
X123447831Y-101642837D01*
X123395612Y-101728051D01*
X123380917Y-101745256D01*
X123366111Y-101767919D01*
X123303125Y-101836339D01*
X123242787Y-101906987D01*
X123220812Y-101925755D01*
X123198322Y-101950186D01*
X123129372Y-102003851D01*
X123063851Y-102059812D01*
X123033869Y-102078184D01*
X123002822Y-102102350D01*
X122931072Y-102141178D01*
X122863210Y-102182765D01*
X122824922Y-102198624D01*
X122784943Y-102220260D01*
X122713366Y-102244831D01*
X122645805Y-102272817D01*
X122599387Y-102283960D01*
X122550628Y-102300700D01*
X122481879Y-102312172D01*
X122416994Y-102327750D01*
X122363121Y-102331989D01*
X122306269Y-102341477D01*
X122242576Y-102341477D01*
X122182400Y-102346213D01*
X122122223Y-102341477D01*
X122058531Y-102341477D01*
X122001679Y-102331990D01*
X121947805Y-102327750D01*
X121882917Y-102312171D01*
X121814172Y-102300700D01*
X121765414Y-102283961D01*
X121718994Y-102272817D01*
X121651427Y-102244829D01*
X121579857Y-102220260D01*
X121539880Y-102198625D01*
X121501589Y-102182765D01*
X121433719Y-102141174D01*
X121361978Y-102102350D01*
X121330934Y-102078187D01*
X121300948Y-102059812D01*
X121235416Y-102003842D01*
X121166478Y-101950186D01*
X121143991Y-101925759D01*
X121122012Y-101906987D01*
X121061660Y-101836324D01*
X120998689Y-101767919D01*
X120983886Y-101745261D01*
X120969187Y-101728051D01*
X120916952Y-101642812D01*
X120863189Y-101560521D01*
X120854788Y-101541369D01*
X120846234Y-101527410D01*
X120805006Y-101427877D01*
X120763674Y-101333649D01*
X120760053Y-101319351D01*
X120756182Y-101310005D01*
X120728722Y-101195627D01*
X120702858Y-101093492D01*
X120702149Y-101084946D01*
X120701249Y-101081194D01*
X120690088Y-100939383D01*
X120682400Y-100846600D01*
X120690087Y-100753823D01*
X120701249Y-100612005D01*
X120702150Y-100608251D01*
X120702858Y-100599708D01*
X120728717Y-100497590D01*
X120756182Y-100383194D01*
X120760053Y-100373846D01*
X120763674Y-100359551D01*
X120804998Y-100265339D01*
X120846234Y-100165789D01*
X120854789Y-100151826D01*
X120863189Y-100132679D01*
X120916942Y-100050402D01*
X120969187Y-99965148D01*
X120983888Y-99947934D01*
X120998689Y-99925281D01*
X121061648Y-99856888D01*
X121122012Y-99786212D01*
X121143995Y-99767436D01*
X121166478Y-99743014D01*
X121235402Y-99689367D01*
X121300948Y-99633387D01*
X121330940Y-99615007D01*
X121361978Y-99590850D01*
X121433705Y-99552033D01*
X121501589Y-99510434D01*
X121539888Y-99494569D01*
X121579857Y-99472940D01*
X121651413Y-99448374D01*
X121718994Y-99420382D01*
X121765424Y-99409234D01*
X121814172Y-99392500D01*
X121882903Y-99381030D01*
X121947805Y-99365449D01*
X122001690Y-99361208D01*
X122058531Y-99351723D01*
X122122211Y-99351723D01*
X122182400Y-99346986D01*
X122242589Y-99351723D01*
G37*
G36*
X163109812Y-99561682D02*
G01*
X163175996Y-99564282D01*
X163181956Y-99565226D01*
X163198017Y-99566015D01*
X163241320Y-99574628D01*
X163333355Y-99589206D01*
X163362956Y-99598823D01*
X163390285Y-99604260D01*
X163428846Y-99620232D01*
X163482532Y-99637676D01*
X163532828Y-99663303D01*
X163571397Y-99679279D01*
X163594567Y-99694760D01*
X163622301Y-99708892D01*
X163697696Y-99763670D01*
X163734393Y-99788190D01*
X163742224Y-99796021D01*
X163749191Y-99801083D01*
X163860116Y-99912008D01*
X163865177Y-99918974D01*
X163873010Y-99926807D01*
X163897532Y-99963508D01*
X163952307Y-100038898D01*
X163966437Y-100066629D01*
X163981921Y-100089803D01*
X163997898Y-100128376D01*
X164023523Y-100178667D01*
X164040964Y-100232345D01*
X164056940Y-100270915D01*
X164062377Y-100298249D01*
X164071993Y-100327844D01*
X164086567Y-100419861D01*
X164095185Y-100463183D01*
X164095185Y-100474266D01*
X164096532Y-100482771D01*
X164096532Y-100639628D01*
X164095185Y-100648132D01*
X164095185Y-100659217D01*
X164086567Y-100702541D01*
X164071993Y-100794555D01*
X164062377Y-100824148D01*
X164056940Y-100851485D01*
X164040962Y-100890058D01*
X164023523Y-100943732D01*
X163997900Y-100994018D01*
X163981921Y-101032597D01*
X163966434Y-101055773D01*
X163952307Y-101083501D01*
X163897541Y-101158879D01*
X163873010Y-101195593D01*
X163865174Y-101203428D01*
X163860116Y-101210391D01*
X163749191Y-101321316D01*
X163742228Y-101326374D01*
X163734393Y-101334210D01*
X163697679Y-101358741D01*
X163622301Y-101413507D01*
X163594573Y-101427634D01*
X163571397Y-101443121D01*
X163532818Y-101459100D01*
X163482532Y-101484723D01*
X163428858Y-101502162D01*
X163390285Y-101518140D01*
X163362948Y-101523577D01*
X163333355Y-101533193D01*
X163241344Y-101547766D01*
X163198017Y-101556385D01*
X163186768Y-101556410D01*
X163178326Y-101557748D01*
X161102355Y-101561195D01*
X161102345Y-101561194D01*
X161100000Y-101561200D01*
X161090089Y-101560713D01*
X161024003Y-101558117D01*
X161018051Y-101557174D01*
X161001983Y-101556385D01*
X160958658Y-101547767D01*
X160866644Y-101533193D01*
X160837049Y-101523577D01*
X160809715Y-101518140D01*
X160771145Y-101502164D01*
X160717467Y-101484723D01*
X160667176Y-101459098D01*
X160628603Y-101443121D01*
X160605429Y-101427637D01*
X160577698Y-101413507D01*
X160502308Y-101358732D01*
X160465607Y-101334210D01*
X160457774Y-101326377D01*
X160450808Y-101321316D01*
X160339883Y-101210391D01*
X160334821Y-101203424D01*
X160326990Y-101195593D01*
X160302470Y-101158896D01*
X160247692Y-101083501D01*
X160233560Y-101055767D01*
X160218079Y-101032597D01*
X160202103Y-100994028D01*
X160176476Y-100943732D01*
X160159032Y-100890046D01*
X160143060Y-100851485D01*
X160137623Y-100824156D01*
X160128006Y-100794555D01*
X160113430Y-100702531D01*
X160104815Y-100659217D01*
X160104815Y-100648132D01*
X160103468Y-100639628D01*
X160103468Y-100482771D01*
X160104815Y-100474266D01*
X160104815Y-100463183D01*
X160113430Y-100419871D01*
X160128006Y-100327844D01*
X160137624Y-100298241D01*
X160143060Y-100270915D01*
X160159031Y-100232356D01*
X160176476Y-100178667D01*
X160202105Y-100128365D01*
X160218079Y-100089803D01*
X160233558Y-100066636D01*
X160247692Y-100038898D01*
X160302478Y-99963490D01*
X160326990Y-99926807D01*
X160334818Y-99918978D01*
X160339883Y-99912008D01*
X160450808Y-99801083D01*
X160457778Y-99796018D01*
X160465607Y-99788190D01*
X160502290Y-99763678D01*
X160577698Y-99708892D01*
X160605436Y-99694758D01*
X160628603Y-99679279D01*
X160667165Y-99663305D01*
X160717467Y-99637676D01*
X160771156Y-99620231D01*
X160809715Y-99604260D01*
X160837041Y-99598824D01*
X160866644Y-99589206D01*
X160958684Y-99574627D01*
X161001983Y-99566015D01*
X161013224Y-99565989D01*
X161021673Y-99564651D01*
X163097644Y-99561204D01*
X163097677Y-99561205D01*
X163100000Y-99561200D01*
X163109812Y-99561682D01*
G37*
G36*
X156060189Y-94505123D02*
G01*
X156123869Y-94505123D01*
X156180709Y-94514608D01*
X156234594Y-94518849D01*
X156299492Y-94534429D01*
X156368228Y-94545900D01*
X156416977Y-94562635D01*
X156463405Y-94573782D01*
X156530981Y-94601772D01*
X156602543Y-94626340D01*
X156642514Y-94647971D01*
X156680810Y-94663834D01*
X156748686Y-94705428D01*
X156820422Y-94744250D01*
X156851463Y-94768410D01*
X156881451Y-94786787D01*
X156946985Y-94842758D01*
X157015922Y-94896414D01*
X157038408Y-94920840D01*
X157060387Y-94939612D01*
X157120737Y-95010273D01*
X157183711Y-95078681D01*
X157198514Y-95101339D01*
X157213212Y-95118548D01*
X157265441Y-95203778D01*
X157319211Y-95286079D01*
X157327612Y-95305232D01*
X157336165Y-95319189D01*
X157377383Y-95418698D01*
X157418726Y-95512951D01*
X157422347Y-95527252D01*
X157426217Y-95536594D01*
X157453663Y-95650914D01*
X157479542Y-95753108D01*
X157480250Y-95761658D01*
X157481150Y-95765405D01*
X157492292Y-95906983D01*
X157500000Y-96000000D01*
X157492291Y-96093024D01*
X157481150Y-96234594D01*
X157480250Y-96238340D01*
X157479542Y-96246892D01*
X157453658Y-96349103D01*
X157426217Y-96463405D01*
X157422348Y-96472744D01*
X157418726Y-96487049D01*
X157377375Y-96581318D01*
X157336165Y-96680810D01*
X157327614Y-96694763D01*
X157319211Y-96713921D01*
X157265431Y-96796237D01*
X157213212Y-96881451D01*
X157198517Y-96898656D01*
X157183711Y-96921319D01*
X157120725Y-96989739D01*
X157060387Y-97060387D01*
X157038412Y-97079155D01*
X157015922Y-97103586D01*
X156946972Y-97157251D01*
X156881451Y-97213212D01*
X156851469Y-97231584D01*
X156820422Y-97255750D01*
X156748672Y-97294578D01*
X156680810Y-97336165D01*
X156642522Y-97352024D01*
X156602543Y-97373660D01*
X156530966Y-97398231D01*
X156463405Y-97426217D01*
X156416987Y-97437360D01*
X156368228Y-97454100D01*
X156299479Y-97465572D01*
X156234594Y-97481150D01*
X156180721Y-97485389D01*
X156123869Y-97494877D01*
X156060176Y-97494877D01*
X156000000Y-97499613D01*
X155939823Y-97494877D01*
X155876131Y-97494877D01*
X155819279Y-97485390D01*
X155765405Y-97481150D01*
X155700517Y-97465571D01*
X155631772Y-97454100D01*
X155583014Y-97437361D01*
X155536594Y-97426217D01*
X155469027Y-97398229D01*
X155397457Y-97373660D01*
X155357480Y-97352025D01*
X155319189Y-97336165D01*
X155251319Y-97294574D01*
X155179578Y-97255750D01*
X155148534Y-97231587D01*
X155118548Y-97213212D01*
X155053016Y-97157242D01*
X154984078Y-97103586D01*
X154961591Y-97079159D01*
X154939612Y-97060387D01*
X154879260Y-96989724D01*
X154816289Y-96921319D01*
X154801486Y-96898661D01*
X154786787Y-96881451D01*
X154734552Y-96796212D01*
X154680789Y-96713921D01*
X154672388Y-96694769D01*
X154663834Y-96680810D01*
X154622606Y-96581277D01*
X154581274Y-96487049D01*
X154577653Y-96472751D01*
X154573782Y-96463405D01*
X154546322Y-96349027D01*
X154520458Y-96246892D01*
X154519749Y-96238346D01*
X154518849Y-96234594D01*
X154507688Y-96092783D01*
X154500000Y-96000000D01*
X154507687Y-95907223D01*
X154518849Y-95765405D01*
X154519750Y-95761651D01*
X154520458Y-95753108D01*
X154546317Y-95650990D01*
X154573782Y-95536594D01*
X154577653Y-95527246D01*
X154581274Y-95512951D01*
X154622598Y-95418739D01*
X154663834Y-95319189D01*
X154672389Y-95305226D01*
X154680789Y-95286079D01*
X154734542Y-95203802D01*
X154786787Y-95118548D01*
X154801488Y-95101334D01*
X154816289Y-95078681D01*
X154879248Y-95010288D01*
X154939612Y-94939612D01*
X154961595Y-94920836D01*
X154984078Y-94896414D01*
X155053002Y-94842767D01*
X155118548Y-94786787D01*
X155148540Y-94768407D01*
X155179578Y-94744250D01*
X155251305Y-94705433D01*
X155319189Y-94663834D01*
X155357488Y-94647969D01*
X155397457Y-94626340D01*
X155469013Y-94601774D01*
X155536594Y-94573782D01*
X155583024Y-94562634D01*
X155631772Y-94545900D01*
X155700503Y-94534430D01*
X155765405Y-94518849D01*
X155819290Y-94514608D01*
X155876131Y-94505123D01*
X155939811Y-94505123D01*
X156000000Y-94500386D01*
X156060189Y-94505123D01*
G37*
G36*
X128266800Y-95312600D02*
G01*
X126566800Y-95312600D01*
X126566800Y-93612600D01*
X128266800Y-93612600D01*
X128266800Y-95312600D01*
G37*
G36*
X122377940Y-93617256D02*
G01*
X122425649Y-93617256D01*
X122466845Y-93626012D01*
X122502506Y-93629525D01*
X122547313Y-93643116D01*
X122599464Y-93654202D01*
X122632830Y-93669057D01*
X122661852Y-93677861D01*
X122707967Y-93702510D01*
X122761800Y-93726478D01*
X122786831Y-93744664D01*
X122808697Y-93756352D01*
X122853297Y-93792955D01*
X122905561Y-93830927D01*
X122922531Y-93849774D01*
X122937412Y-93861987D01*
X122977408Y-93910722D01*
X123024464Y-93962983D01*
X123034347Y-93980102D01*
X123043047Y-93990702D01*
X123075227Y-94050907D01*
X123113314Y-94116874D01*
X123117694Y-94130357D01*
X123121538Y-94137547D01*
X123142726Y-94207396D01*
X123168225Y-94285875D01*
X123169122Y-94294416D01*
X123169874Y-94296893D01*
X123177185Y-94371122D01*
X123186800Y-94462600D01*
X123177184Y-94554085D01*
X123169874Y-94628306D01*
X123169122Y-94630782D01*
X123168225Y-94639325D01*
X123142721Y-94717817D01*
X123121538Y-94787652D01*
X123117695Y-94794840D01*
X123113314Y-94808326D01*
X123075220Y-94874304D01*
X123043047Y-94934497D01*
X123034349Y-94945094D01*
X123024464Y-94962217D01*
X122977399Y-95014488D01*
X122937412Y-95063212D01*
X122922534Y-95075421D01*
X122905561Y-95094273D01*
X122853286Y-95132252D01*
X122808697Y-95168847D01*
X122786836Y-95180531D01*
X122761800Y-95198722D01*
X122707955Y-95222694D01*
X122661852Y-95247338D01*
X122632837Y-95256139D01*
X122599464Y-95270998D01*
X122547302Y-95282085D01*
X122502506Y-95295674D01*
X122466853Y-95299185D01*
X122425649Y-95307944D01*
X122377930Y-95307944D01*
X122336800Y-95311995D01*
X122295670Y-95307944D01*
X122247951Y-95307944D01*
X122206746Y-95299185D01*
X122171093Y-95295674D01*
X122126293Y-95282084D01*
X122074136Y-95270998D01*
X122040764Y-95256140D01*
X122011747Y-95247338D01*
X121965638Y-95222692D01*
X121911800Y-95198722D01*
X121886766Y-95180533D01*
X121864902Y-95168847D01*
X121820304Y-95132246D01*
X121768039Y-95094273D01*
X121751067Y-95075424D01*
X121736187Y-95063212D01*
X121696189Y-95014475D01*
X121649136Y-94962217D01*
X121639252Y-94945098D01*
X121630552Y-94934497D01*
X121598365Y-94874281D01*
X121560286Y-94808326D01*
X121555905Y-94794845D01*
X121552061Y-94787652D01*
X121530863Y-94717771D01*
X121505375Y-94639325D01*
X121504477Y-94630787D01*
X121503725Y-94628306D01*
X121496399Y-94553934D01*
X121486800Y-94462600D01*
X121496398Y-94371274D01*
X121503725Y-94296893D01*
X121504477Y-94294411D01*
X121505375Y-94285875D01*
X121530858Y-94207442D01*
X121552061Y-94137547D01*
X121555906Y-94130352D01*
X121560286Y-94116874D01*
X121598358Y-94050930D01*
X121630552Y-93990702D01*
X121639254Y-93980098D01*
X121649136Y-93962983D01*
X121696180Y-93910734D01*
X121736187Y-93861987D01*
X121751071Y-93849771D01*
X121768039Y-93830927D01*
X121820293Y-93792961D01*
X121864902Y-93756352D01*
X121886771Y-93744662D01*
X121911800Y-93726478D01*
X121965626Y-93702512D01*
X122011747Y-93677861D01*
X122040771Y-93669056D01*
X122074136Y-93654202D01*
X122126282Y-93643117D01*
X122171093Y-93629525D01*
X122206755Y-93626012D01*
X122247951Y-93617256D01*
X122295660Y-93617256D01*
X122336800Y-93613204D01*
X122377940Y-93617256D01*
G37*
G36*
X124917940Y-93617256D02*
G01*
X124965649Y-93617256D01*
X125006845Y-93626012D01*
X125042506Y-93629525D01*
X125087313Y-93643116D01*
X125139464Y-93654202D01*
X125172830Y-93669057D01*
X125201852Y-93677861D01*
X125247967Y-93702510D01*
X125301800Y-93726478D01*
X125326831Y-93744664D01*
X125348697Y-93756352D01*
X125393297Y-93792955D01*
X125445561Y-93830927D01*
X125462531Y-93849774D01*
X125477412Y-93861987D01*
X125517408Y-93910722D01*
X125564464Y-93962983D01*
X125574347Y-93980102D01*
X125583047Y-93990702D01*
X125615227Y-94050907D01*
X125653314Y-94116874D01*
X125657694Y-94130357D01*
X125661538Y-94137547D01*
X125682726Y-94207396D01*
X125708225Y-94285875D01*
X125709122Y-94294416D01*
X125709874Y-94296893D01*
X125717185Y-94371122D01*
X125726800Y-94462600D01*
X125717184Y-94554085D01*
X125709874Y-94628306D01*
X125709122Y-94630782D01*
X125708225Y-94639325D01*
X125682721Y-94717817D01*
X125661538Y-94787652D01*
X125657695Y-94794840D01*
X125653314Y-94808326D01*
X125615220Y-94874304D01*
X125583047Y-94934497D01*
X125574349Y-94945094D01*
X125564464Y-94962217D01*
X125517399Y-95014488D01*
X125477412Y-95063212D01*
X125462534Y-95075421D01*
X125445561Y-95094273D01*
X125393286Y-95132252D01*
X125348697Y-95168847D01*
X125326836Y-95180531D01*
X125301800Y-95198722D01*
X125247955Y-95222694D01*
X125201852Y-95247338D01*
X125172837Y-95256139D01*
X125139464Y-95270998D01*
X125087302Y-95282085D01*
X125042506Y-95295674D01*
X125006853Y-95299185D01*
X124965649Y-95307944D01*
X124917930Y-95307944D01*
X124876800Y-95311995D01*
X124835670Y-95307944D01*
X124787951Y-95307944D01*
X124746746Y-95299185D01*
X124711093Y-95295674D01*
X124666293Y-95282084D01*
X124614136Y-95270998D01*
X124580764Y-95256140D01*
X124551747Y-95247338D01*
X124505638Y-95222692D01*
X124451800Y-95198722D01*
X124426766Y-95180533D01*
X124404902Y-95168847D01*
X124360304Y-95132246D01*
X124308039Y-95094273D01*
X124291067Y-95075424D01*
X124276187Y-95063212D01*
X124236189Y-95014475D01*
X124189136Y-94962217D01*
X124179252Y-94945098D01*
X124170552Y-94934497D01*
X124138365Y-94874281D01*
X124100286Y-94808326D01*
X124095905Y-94794845D01*
X124092061Y-94787652D01*
X124070863Y-94717771D01*
X124045375Y-94639325D01*
X124044477Y-94630787D01*
X124043725Y-94628306D01*
X124036399Y-94553934D01*
X124026800Y-94462600D01*
X124036398Y-94371274D01*
X124043725Y-94296893D01*
X124044477Y-94294411D01*
X124045375Y-94285875D01*
X124070858Y-94207442D01*
X124092061Y-94137547D01*
X124095906Y-94130352D01*
X124100286Y-94116874D01*
X124138358Y-94050930D01*
X124170552Y-93990702D01*
X124179254Y-93980098D01*
X124189136Y-93962983D01*
X124236180Y-93910734D01*
X124276187Y-93861987D01*
X124291071Y-93849771D01*
X124308039Y-93830927D01*
X124360293Y-93792961D01*
X124404902Y-93756352D01*
X124426771Y-93744662D01*
X124451800Y-93726478D01*
X124505626Y-93702512D01*
X124551747Y-93677861D01*
X124580771Y-93669056D01*
X124614136Y-93654202D01*
X124666282Y-93643117D01*
X124711093Y-93629525D01*
X124746755Y-93626012D01*
X124787951Y-93617256D01*
X124835660Y-93617256D01*
X124876800Y-93613204D01*
X124917940Y-93617256D01*
G37*
M02*
