%TF.GenerationSoftware,KiCad,Pcbnew,8.0.1*%
%TF.CreationDate,2024-05-15T21:52:54+03:00*%
%TF.ProjectId,USB_ISOLATOR,5553425f-4953-44f4-9c41-544f522e6b69,rev?*%
%TF.SameCoordinates,Original*%
%TF.FileFunction,Legend,Top*%
%TF.FilePolarity,Positive*%
%FSLAX46Y46*%
G04 Gerber Fmt 4.6, Leading zero omitted, Abs format (unit mm)*
G04 Created by KiCad (PCBNEW 8.0.1) date 2024-05-15 21:52:54*
%MOMM*%
%LPD*%
G01*
G04 APERTURE LIST*
G04 Aperture macros list*
%AMRoundRect*
0 Rectangle with rounded corners*
0 $1 Rounding radius*
0 $2 $3 $4 $5 $6 $7 $8 $9 X,Y pos of 4 corners*
0 Add a 4 corners polygon primitive as box body*
4,1,4,$2,$3,$4,$5,$6,$7,$8,$9,$2,$3,0*
0 Add four circle primitives for the rounded corners*
1,1,$1+$1,$2,$3*
1,1,$1+$1,$4,$5*
1,1,$1+$1,$6,$7*
1,1,$1+$1,$8,$9*
0 Add four rect primitives between the rounded corners*
20,1,$1+$1,$2,$3,$4,$5,0*
20,1,$1+$1,$4,$5,$6,$7,0*
20,1,$1+$1,$6,$7,$8,$9,0*
20,1,$1+$1,$8,$9,$2,$3,0*%
G04 Aperture macros list end*
%ADD10C,0.130000*%
%ADD11C,0.200000*%
%ADD12C,0.100000*%
%ADD13C,0.150000*%
%ADD14C,0.120000*%
%ADD15C,1.000000*%
%ADD16R,2.500000X1.200000*%
%ADD17O,4.000000X2.000000*%
%ADD18R,1.700000X1.700000*%
%ADD19RoundRect,0.225000X0.250000X-0.225000X0.250000X0.225000X-0.250000X0.225000X-0.250000X-0.225000X0*%
%ADD20RoundRect,0.250000X-0.250000X-0.475000X0.250000X-0.475000X0.250000X0.475000X-0.250000X0.475000X0*%
%ADD21O,1.700000X1.700000*%
%ADD22R,2.000000X1.780000*%
%ADD23RoundRect,0.150000X0.150000X-0.512500X0.150000X0.512500X-0.150000X0.512500X-0.150000X-0.512500X0*%
%ADD24RoundRect,0.150000X-0.875000X-0.150000X0.875000X-0.150000X0.875000X0.150000X-0.875000X0.150000X0*%
%ADD25RoundRect,0.160000X-0.197500X-0.160000X0.197500X-0.160000X0.197500X0.160000X-0.197500X0.160000X0*%
%ADD26RoundRect,0.200000X-0.200000X-0.275000X0.200000X-0.275000X0.200000X0.275000X-0.200000X0.275000X0*%
%ADD27RoundRect,0.250000X0.250000X0.475000X-0.250000X0.475000X-0.250000X-0.475000X0.250000X-0.475000X0*%
%ADD28RoundRect,0.150000X-0.150000X0.587500X-0.150000X-0.587500X0.150000X-0.587500X0.150000X0.587500X0*%
%ADD29RoundRect,0.200000X0.275000X-0.200000X0.275000X0.200000X-0.275000X0.200000X-0.275000X-0.200000X0*%
%ADD30RoundRect,0.200000X-0.275000X0.200000X-0.275000X-0.200000X0.275000X-0.200000X0.275000X0.200000X0*%
%ADD31RoundRect,0.225000X-0.250000X0.225000X-0.250000X-0.225000X0.250000X-0.225000X0.250000X0.225000X0*%
%ADD32R,1.500000X1.600000*%
%ADD33C,1.600000*%
%ADD34C,3.000000*%
%ADD35RoundRect,0.243750X0.456250X-0.243750X0.456250X0.243750X-0.456250X0.243750X-0.456250X-0.243750X0*%
%ADD36RoundRect,0.250000X-0.275000X-0.350000X0.275000X-0.350000X0.275000X0.350000X-0.275000X0.350000X0*%
%ADD37RoundRect,0.162500X0.617500X0.162500X-0.617500X0.162500X-0.617500X-0.162500X0.617500X-0.162500X0*%
%ADD38RoundRect,0.243750X-0.243750X-0.456250X0.243750X-0.456250X0.243750X0.456250X-0.243750X0.456250X0*%
%ADD39RoundRect,0.243750X0.243750X0.456250X-0.243750X0.456250X-0.243750X-0.456250X0.243750X-0.456250X0*%
%ADD40RoundRect,0.160000X0.160000X-0.197500X0.160000X0.197500X-0.160000X0.197500X-0.160000X-0.197500X0*%
%ADD41C,1.750000*%
%ADD42RoundRect,0.250000X-0.600000X0.400000X-0.600000X-0.400000X0.600000X-0.400000X0.600000X0.400000X0*%
G04 APERTURE END LIST*
D10*
G36*
X125091435Y-92252221D02*
G01*
X125143027Y-92299700D01*
X125171684Y-92401092D01*
X125170926Y-92404906D01*
X125175008Y-92617941D01*
X125172867Y-92622475D01*
X125148464Y-92734484D01*
X125106082Y-92780539D01*
X125059357Y-92806882D01*
X124957342Y-92810073D01*
X124913749Y-92790923D01*
X124862156Y-92743444D01*
X124833500Y-92642054D01*
X124834259Y-92638240D01*
X124830176Y-92425203D01*
X124832318Y-92420671D01*
X124856720Y-92308661D01*
X124899100Y-92262608D01*
X124945827Y-92236263D01*
X125047842Y-92233072D01*
X125091435Y-92252221D01*
G37*
G36*
X126145370Y-93014351D02*
G01*
X123926481Y-93014351D01*
X123926481Y-92471573D01*
X124004259Y-92471573D01*
X124007664Y-92557510D01*
X124004967Y-92562006D01*
X124006200Y-92587338D01*
X124039366Y-92704683D01*
X124037756Y-92709514D01*
X124044454Y-92733975D01*
X124075874Y-92789702D01*
X124075874Y-92796447D01*
X124089964Y-92817535D01*
X124093294Y-92820600D01*
X124093338Y-92820677D01*
X124093401Y-92820698D01*
X124155045Y-92877428D01*
X124160004Y-92887345D01*
X124175289Y-92896057D01*
X124177717Y-92898292D01*
X124179209Y-92898292D01*
X124182037Y-92899904D01*
X124272332Y-92926239D01*
X124277718Y-92931625D01*
X124302592Y-92936573D01*
X124306953Y-92936337D01*
X124307199Y-92936409D01*
X124307389Y-92936313D01*
X124358892Y-92933529D01*
X124364651Y-92936409D01*
X124389814Y-92933237D01*
X124394095Y-92931627D01*
X124394133Y-92931625D01*
X124394152Y-92931605D01*
X124482738Y-92898291D01*
X124494135Y-92898291D01*
X124508805Y-92888488D01*
X124511846Y-92887345D01*
X124512512Y-92886011D01*
X124515222Y-92884201D01*
X124562644Y-92829779D01*
X124562644Y-92780030D01*
X124527466Y-92744854D01*
X124477717Y-92744854D01*
X124456630Y-92758945D01*
X124437640Y-92780736D01*
X124368884Y-92806593D01*
X124320708Y-92809197D01*
X124241991Y-92786239D01*
X124193628Y-92741731D01*
X124165809Y-92692390D01*
X124165651Y-92689141D01*
X124133500Y-92575387D01*
X124134259Y-92571573D01*
X124131029Y-92490065D01*
X124132318Y-92487338D01*
X124150276Y-92404906D01*
X124704259Y-92404906D01*
X124708436Y-92622891D01*
X124704967Y-92628673D01*
X124706200Y-92654005D01*
X124742540Y-92782579D01*
X124742540Y-92796448D01*
X124749333Y-92806614D01*
X124750366Y-92810269D01*
X124752717Y-92811680D01*
X124756630Y-92817535D01*
X124817830Y-92873855D01*
X124820155Y-92880828D01*
X124840190Y-92896378D01*
X124844237Y-92898155D01*
X124844384Y-92898291D01*
X124844545Y-92898291D01*
X124903706Y-92924279D01*
X124911052Y-92931625D01*
X124928188Y-92935033D01*
X124931319Y-92936409D01*
X124932732Y-92935937D01*
X124935926Y-92936573D01*
X125062484Y-92932614D01*
X125073867Y-92936409D01*
X125090977Y-92931723D01*
X125094133Y-92931625D01*
X125095186Y-92930571D01*
X125098328Y-92929711D01*
X125154055Y-92898292D01*
X125160801Y-92898292D01*
X125181888Y-92884202D01*
X125184952Y-92880871D01*
X125185030Y-92880828D01*
X125185051Y-92880764D01*
X125243891Y-92816825D01*
X125254818Y-92810269D01*
X125259980Y-92799341D01*
X125262644Y-92796447D01*
X125262644Y-92793703D01*
X125265651Y-92787338D01*
X125291805Y-92667286D01*
X125295978Y-92663114D01*
X125300926Y-92638240D01*
X125296748Y-92420254D01*
X125300218Y-92414473D01*
X125298985Y-92389141D01*
X125262644Y-92260565D01*
X125262644Y-92246699D01*
X125255851Y-92236532D01*
X125254818Y-92232877D01*
X125252466Y-92231465D01*
X125248555Y-92225612D01*
X125189835Y-92171573D01*
X125470925Y-92171573D01*
X125475873Y-92896447D01*
X125511051Y-92931625D01*
X125560799Y-92931625D01*
X125595977Y-92896447D01*
X125600925Y-92871573D01*
X125598066Y-92452734D01*
X125714563Y-92696882D01*
X125721324Y-92715472D01*
X125724038Y-92716738D01*
X125725360Y-92719508D01*
X125746251Y-92727104D01*
X125766404Y-92736510D01*
X125769259Y-92735471D01*
X125772114Y-92736510D01*
X125792269Y-92727104D01*
X125813158Y-92719508D01*
X125815559Y-92716235D01*
X125817195Y-92715472D01*
X125818251Y-92712565D01*
X125828161Y-92699061D01*
X125939526Y-92454976D01*
X125942540Y-92896447D01*
X125977718Y-92931625D01*
X126027466Y-92931625D01*
X126062644Y-92896447D01*
X126067592Y-92871573D01*
X126062902Y-92184567D01*
X126067529Y-92174427D01*
X126062743Y-92161266D01*
X126062644Y-92146699D01*
X126054476Y-92138531D01*
X126050528Y-92127673D01*
X126037572Y-92121627D01*
X126027466Y-92111521D01*
X126015915Y-92111521D01*
X126005447Y-92106636D01*
X125992013Y-92111521D01*
X125977718Y-92111521D01*
X125969549Y-92119689D01*
X125958693Y-92123637D01*
X125943690Y-92144085D01*
X125770600Y-92523453D01*
X125596051Y-92157645D01*
X125595977Y-92146699D01*
X125586129Y-92136851D01*
X125579824Y-92123637D01*
X125568967Y-92119689D01*
X125560799Y-92111521D01*
X125546504Y-92111521D01*
X125533070Y-92106636D01*
X125522602Y-92111521D01*
X125511051Y-92111521D01*
X125500943Y-92121628D01*
X125487989Y-92127674D01*
X125484041Y-92138530D01*
X125475873Y-92146699D01*
X125470925Y-92171573D01*
X125189835Y-92171573D01*
X125187354Y-92169290D01*
X125185030Y-92162318D01*
X125164995Y-92146768D01*
X125160949Y-92144991D01*
X125160801Y-92144854D01*
X125160638Y-92144854D01*
X125101478Y-92118866D01*
X125094133Y-92111521D01*
X125076998Y-92108112D01*
X125073867Y-92106737D01*
X125072452Y-92107208D01*
X125069259Y-92106573D01*
X124942701Y-92110531D01*
X124931319Y-92106737D01*
X124914208Y-92111422D01*
X124911052Y-92111521D01*
X124909997Y-92112575D01*
X124906858Y-92113435D01*
X124851129Y-92144855D01*
X124844384Y-92144855D01*
X124823297Y-92158944D01*
X124820231Y-92162274D01*
X124820155Y-92162318D01*
X124820133Y-92162381D01*
X124761291Y-92226321D01*
X124750366Y-92232877D01*
X124745205Y-92243802D01*
X124742540Y-92246698D01*
X124742540Y-92249443D01*
X124739533Y-92255809D01*
X124713379Y-92375859D01*
X124709207Y-92380032D01*
X124704259Y-92404906D01*
X124150276Y-92404906D01*
X124157584Y-92371362D01*
X124160730Y-92367309D01*
X124183242Y-92316063D01*
X124231773Y-92263325D01*
X124302966Y-92236552D01*
X124351143Y-92233948D01*
X124430411Y-92257068D01*
X124477717Y-92298292D01*
X124527466Y-92298292D01*
X124562644Y-92263116D01*
X124562644Y-92213367D01*
X124548555Y-92192279D01*
X124515823Y-92163754D01*
X124511846Y-92155801D01*
X124496954Y-92147312D01*
X124494135Y-92144855D01*
X124492644Y-92144854D01*
X124489813Y-92143241D01*
X124399518Y-92116906D01*
X124394133Y-92111521D01*
X124369259Y-92106573D01*
X124364897Y-92106808D01*
X124364651Y-92106737D01*
X124364460Y-92106832D01*
X124312957Y-92109616D01*
X124307199Y-92106737D01*
X124282037Y-92109909D01*
X124277755Y-92111518D01*
X124277718Y-92111521D01*
X124277698Y-92111540D01*
X124189114Y-92144854D01*
X124177717Y-92144854D01*
X124163045Y-92154657D01*
X124160004Y-92155801D01*
X124159336Y-92157135D01*
X124156630Y-92158944D01*
X124100310Y-92220144D01*
X124093338Y-92222469D01*
X124077788Y-92242504D01*
X124076010Y-92246551D01*
X124075874Y-92246699D01*
X124075874Y-92246860D01*
X124053576Y-92297617D01*
X124050366Y-92299544D01*
X124039533Y-92322476D01*
X124013379Y-92442526D01*
X124009207Y-92446699D01*
X124004259Y-92471573D01*
X123926481Y-92471573D01*
X123926481Y-92028795D01*
X126145370Y-92028795D01*
X126145370Y-93014351D01*
G37*
G36*
X125983251Y-116158491D02*
G01*
X125799890Y-116160866D01*
X125890113Y-115884624D01*
X125983251Y-116158491D01*
G37*
G36*
X123942313Y-115748318D02*
G01*
X124030411Y-115774210D01*
X124083576Y-115823355D01*
X124113925Y-115877502D01*
X124114095Y-115880990D01*
X124148659Y-116004100D01*
X124147868Y-116008082D01*
X124151183Y-116096549D01*
X124149809Y-116099460D01*
X124122270Y-116224819D01*
X124119016Y-116229013D01*
X124094359Y-116284758D01*
X124041069Y-116342409D01*
X123962809Y-116371655D01*
X123848899Y-116374425D01*
X123844913Y-115750179D01*
X123941459Y-115747831D01*
X123942313Y-115748318D01*
G37*
G36*
X127275259Y-115769448D02*
G01*
X127331789Y-115821702D01*
X127362946Y-115932673D01*
X127362155Y-115936654D01*
X127366287Y-116166248D01*
X127364096Y-116170889D01*
X127337435Y-116292250D01*
X127290453Y-116343076D01*
X127238959Y-116371937D01*
X127127365Y-116375229D01*
X127079050Y-116353860D01*
X127022518Y-116301603D01*
X126991363Y-116190635D01*
X126992155Y-116186654D01*
X126988022Y-115957058D01*
X126990214Y-115952419D01*
X127016874Y-115831057D01*
X127063856Y-115780231D01*
X127115350Y-115751370D01*
X127226943Y-115748078D01*
X127275259Y-115769448D01*
G37*
G36*
X124768965Y-116158491D02*
G01*
X124585604Y-116160866D01*
X124675827Y-115884624D01*
X124768965Y-116158491D01*
G37*
G36*
X128325487Y-116656415D02*
G01*
X123635964Y-116656415D01*
X123635964Y-115686654D01*
X123719297Y-115686654D01*
X123724245Y-116461528D01*
X123759423Y-116496706D01*
X123784297Y-116501654D01*
X123950503Y-116497611D01*
X123958260Y-116501490D01*
X123983423Y-116498318D01*
X123987736Y-116496706D01*
X123987742Y-116496706D01*
X123987745Y-116496702D01*
X124083303Y-116460992D01*
X124094886Y-116460992D01*
X124109585Y-116451170D01*
X124112599Y-116450044D01*
X124113265Y-116448711D01*
X124115973Y-116446902D01*
X124121187Y-116441261D01*
X124362318Y-116441261D01*
X124384566Y-116485758D01*
X124431761Y-116501490D01*
X124476258Y-116479242D01*
X124488818Y-116457209D01*
X124544483Y-116286773D01*
X124811417Y-116283316D01*
X124878049Y-116479241D01*
X124922546Y-116501490D01*
X124969742Y-116485758D01*
X124991990Y-116441261D01*
X124988818Y-116416099D01*
X124915778Y-116201331D01*
X124915778Y-116197494D01*
X124913800Y-116195516D01*
X124749200Y-115711528D01*
X125009959Y-115711528D01*
X125045137Y-115746706D01*
X125070011Y-115751654D01*
X125219701Y-115750020D01*
X125224245Y-116461528D01*
X125259423Y-116496706D01*
X125309171Y-116496706D01*
X125344349Y-116461528D01*
X125348381Y-116441261D01*
X125576604Y-116441261D01*
X125598852Y-116485758D01*
X125646047Y-116501490D01*
X125690544Y-116479242D01*
X125703104Y-116457209D01*
X125758769Y-116286773D01*
X126025703Y-116283316D01*
X126092335Y-116479241D01*
X126136832Y-116501490D01*
X126152817Y-116496161D01*
X126152817Y-116532956D01*
X126187995Y-116568134D01*
X126212869Y-116573082D01*
X126809171Y-116568134D01*
X126844349Y-116532956D01*
X126844349Y-116483208D01*
X126809171Y-116448030D01*
X126784297Y-116443082D01*
X126202953Y-116447905D01*
X126206276Y-116441261D01*
X126203104Y-116416099D01*
X126130064Y-116201331D01*
X126130064Y-116197494D01*
X126128086Y-116195516D01*
X126040050Y-115936654D01*
X126862155Y-115936654D01*
X126866377Y-116171229D01*
X126862863Y-116177087D01*
X126864096Y-116202419D01*
X126902817Y-116340332D01*
X126902817Y-116354386D01*
X126909621Y-116364570D01*
X126910643Y-116368207D01*
X126912994Y-116369618D01*
X126916907Y-116375473D01*
X126982817Y-116436398D01*
X126985194Y-116443528D01*
X127005229Y-116459078D01*
X127009300Y-116460878D01*
X127009423Y-116460992D01*
X127009556Y-116460992D01*
X127073357Y-116489211D01*
X127080852Y-116496706D01*
X127098025Y-116500122D01*
X127101118Y-116501490D01*
X127102532Y-116501018D01*
X127105726Y-116501654D01*
X127241653Y-116497644D01*
X127253191Y-116501490D01*
X127270324Y-116496798D01*
X127273457Y-116496706D01*
X127274510Y-116495652D01*
X127277652Y-116494792D01*
X127337957Y-116460992D01*
X127344887Y-116460992D01*
X127365974Y-116446902D01*
X127369067Y-116443555D01*
X127369116Y-116443528D01*
X127369129Y-116443488D01*
X127432551Y-116374875D01*
X127443666Y-116368207D01*
X127448840Y-116357253D01*
X127451492Y-116354385D01*
X127451491Y-116351641D01*
X127454499Y-116345276D01*
X127482944Y-116215790D01*
X127487207Y-116211528D01*
X127492155Y-116186654D01*
X127487932Y-115952077D01*
X127491447Y-115946220D01*
X127490214Y-115920889D01*
X127451491Y-115782973D01*
X127451492Y-115768923D01*
X127444687Y-115758738D01*
X127443666Y-115755101D01*
X127441313Y-115753689D01*
X127437402Y-115747835D01*
X127371492Y-115686909D01*
X127371407Y-115686654D01*
X127683583Y-115686654D01*
X127688531Y-116461528D01*
X127723709Y-116496706D01*
X127773457Y-116496706D01*
X127808635Y-116461528D01*
X127813583Y-116436654D01*
X127810303Y-115923029D01*
X128117047Y-116452961D01*
X128117102Y-116461528D01*
X128128745Y-116473171D01*
X128137355Y-116488045D01*
X128145968Y-116490394D01*
X128152280Y-116496706D01*
X128169112Y-116496706D01*
X128185351Y-116501135D01*
X128193102Y-116496706D01*
X128202028Y-116496706D01*
X128213929Y-116484804D01*
X128228545Y-116476453D01*
X128230893Y-116467840D01*
X128237206Y-116461528D01*
X128242154Y-116436654D01*
X128237206Y-115661780D01*
X128202028Y-115626602D01*
X128152280Y-115626602D01*
X128117102Y-115661780D01*
X128112154Y-115686654D01*
X128115433Y-116200278D01*
X127808689Y-115670346D01*
X127808635Y-115661780D01*
X127796991Y-115650136D01*
X127788382Y-115635263D01*
X127779768Y-115632913D01*
X127773457Y-115626602D01*
X127756625Y-115626602D01*
X127740386Y-115622173D01*
X127732635Y-115626602D01*
X127723709Y-115626602D01*
X127711807Y-115638503D01*
X127697192Y-115646855D01*
X127694842Y-115655468D01*
X127688531Y-115661780D01*
X127683583Y-115686654D01*
X127371407Y-115686654D01*
X127369116Y-115679780D01*
X127349081Y-115664230D01*
X127345009Y-115662429D01*
X127344887Y-115662316D01*
X127344754Y-115662316D01*
X127280951Y-115634096D01*
X127273457Y-115626602D01*
X127256283Y-115623185D01*
X127253191Y-115621818D01*
X127251776Y-115622289D01*
X127248583Y-115621654D01*
X127112655Y-115625663D01*
X127101118Y-115621818D01*
X127083984Y-115626509D01*
X127080852Y-115626602D01*
X127079798Y-115627655D01*
X127076657Y-115628516D01*
X127016353Y-115662316D01*
X127009423Y-115662316D01*
X126988336Y-115676406D01*
X126985242Y-115679753D01*
X126985194Y-115679780D01*
X126985180Y-115679819D01*
X126921756Y-115748432D01*
X126910643Y-115755101D01*
X126905469Y-115766052D01*
X126902817Y-115768922D01*
X126902817Y-115771666D01*
X126899810Y-115778032D01*
X126871365Y-115907517D01*
X126867103Y-115911780D01*
X126862155Y-115936654D01*
X126040050Y-115936654D01*
X125954896Y-115686269D01*
X125956276Y-115682047D01*
X125947473Y-115664441D01*
X125940544Y-115644066D01*
X125936199Y-115641894D01*
X125934028Y-115637550D01*
X125914478Y-115631033D01*
X125896047Y-115621818D01*
X125891439Y-115623353D01*
X125886832Y-115621818D01*
X125868402Y-115631033D01*
X125848852Y-115637550D01*
X125846679Y-115641894D01*
X125842335Y-115644067D01*
X125829775Y-115666100D01*
X125657869Y-116192441D01*
X125652817Y-116197494D01*
X125652817Y-116207911D01*
X125576604Y-116441261D01*
X125348381Y-116441261D01*
X125349297Y-116436654D01*
X125344903Y-115748654D01*
X125523457Y-115746706D01*
X125558635Y-115711528D01*
X125558635Y-115661780D01*
X125523457Y-115626602D01*
X125498583Y-115621654D01*
X125045137Y-115626602D01*
X125009959Y-115661780D01*
X125009959Y-115711528D01*
X124749200Y-115711528D01*
X124740610Y-115686269D01*
X124741990Y-115682047D01*
X124733187Y-115664441D01*
X124726258Y-115644066D01*
X124721913Y-115641894D01*
X124719742Y-115637550D01*
X124700192Y-115631033D01*
X124681761Y-115621818D01*
X124677153Y-115623353D01*
X124672546Y-115621818D01*
X124654116Y-115631033D01*
X124634566Y-115637550D01*
X124632393Y-115641894D01*
X124628049Y-115644067D01*
X124615489Y-115666100D01*
X124443583Y-116192441D01*
X124438531Y-116197494D01*
X124438531Y-116207911D01*
X124362318Y-116441261D01*
X124121187Y-116441261D01*
X124176898Y-116380991D01*
X124184028Y-116378615D01*
X124199578Y-116358580D01*
X124201378Y-116354508D01*
X124201492Y-116354386D01*
X124201492Y-116354252D01*
X124226021Y-116298793D01*
X124229380Y-116296778D01*
X124240213Y-116273847D01*
X124268657Y-116144361D01*
X124272920Y-116140099D01*
X124277868Y-116115225D01*
X124274384Y-116022275D01*
X124277160Y-116017649D01*
X124275927Y-115992318D01*
X124240340Y-115865566D01*
X124241990Y-115860617D01*
X124235292Y-115836156D01*
X124201492Y-115775851D01*
X124201492Y-115768922D01*
X124187402Y-115747835D01*
X124184054Y-115744741D01*
X124184028Y-115744693D01*
X124183988Y-115744679D01*
X124117643Y-115683351D01*
X124112599Y-115673264D01*
X124097286Y-115664535D01*
X124094886Y-115662316D01*
X124093394Y-115662316D01*
X124090566Y-115660704D01*
X123993238Y-115632098D01*
X123987742Y-115626602D01*
X123962868Y-115621654D01*
X123759423Y-115626602D01*
X123724245Y-115661780D01*
X123719297Y-115686654D01*
X123635964Y-115686654D01*
X123635964Y-115538321D01*
X128325487Y-115538321D01*
X128325487Y-116656415D01*
G37*
G36*
X130495030Y-92325248D02*
G01*
X130551560Y-92377502D01*
X130582717Y-92488473D01*
X130581926Y-92492454D01*
X130586058Y-92722048D01*
X130583867Y-92726689D01*
X130557206Y-92848050D01*
X130510224Y-92898876D01*
X130458730Y-92927737D01*
X130347136Y-92931029D01*
X130298821Y-92909660D01*
X130242289Y-92857403D01*
X130211134Y-92746435D01*
X130211926Y-92742454D01*
X130207793Y-92512858D01*
X130209985Y-92508219D01*
X130236645Y-92386857D01*
X130283627Y-92336031D01*
X130335121Y-92307170D01*
X130446714Y-92303878D01*
X130495030Y-92325248D01*
G37*
G36*
X135376370Y-92304118D02*
G01*
X135464468Y-92330010D01*
X135517633Y-92379155D01*
X135547982Y-92433302D01*
X135548152Y-92436790D01*
X135582716Y-92559900D01*
X135581925Y-92563882D01*
X135585240Y-92652349D01*
X135583866Y-92655260D01*
X135556327Y-92780619D01*
X135553073Y-92784813D01*
X135528416Y-92840558D01*
X135475126Y-92898209D01*
X135396866Y-92927455D01*
X135282956Y-92930225D01*
X135278970Y-92305979D01*
X135375516Y-92303631D01*
X135376370Y-92304118D01*
G37*
G36*
X138269228Y-92661261D02*
G01*
X138357845Y-92687306D01*
X138376505Y-92703667D01*
X138403720Y-92752224D01*
X138406587Y-92828731D01*
X138385501Y-92876404D01*
X138364281Y-92900606D01*
X138316113Y-92927603D01*
X138104390Y-92930976D01*
X138102682Y-92663464D01*
X138267877Y-92660491D01*
X138269228Y-92661261D01*
G37*
G36*
X138316592Y-92325306D02*
G01*
X138340791Y-92346524D01*
X138368155Y-92395348D01*
X138370304Y-92437162D01*
X138349787Y-92483547D01*
X138328567Y-92507749D01*
X138280363Y-92534766D01*
X138101880Y-92537979D01*
X138100401Y-92306362D01*
X138266981Y-92303364D01*
X138316592Y-92325306D01*
G37*
G36*
X133423735Y-92325306D02*
G01*
X133447934Y-92346524D01*
X133475149Y-92395081D01*
X133478016Y-92471588D01*
X133456930Y-92519261D01*
X133435710Y-92543463D01*
X133387542Y-92570460D01*
X133173539Y-92573869D01*
X133171831Y-92306488D01*
X133373909Y-92303268D01*
X133423735Y-92325306D01*
G37*
G36*
X138616687Y-93140787D02*
G01*
X129427164Y-93140787D01*
X129427164Y-92242454D01*
X129510497Y-92242454D01*
X129515445Y-93017328D01*
X129550623Y-93052506D01*
X129575497Y-93057454D01*
X129957514Y-93052506D01*
X129992692Y-93017328D01*
X129992692Y-92967580D01*
X129957514Y-92932402D01*
X129932640Y-92927454D01*
X129640106Y-92931242D01*
X129637304Y-92492454D01*
X130081926Y-92492454D01*
X130086148Y-92727029D01*
X130082634Y-92732887D01*
X130083867Y-92758219D01*
X130122588Y-92896132D01*
X130122588Y-92910186D01*
X130129392Y-92920370D01*
X130130414Y-92924007D01*
X130132765Y-92925418D01*
X130136678Y-92931273D01*
X130202588Y-92992198D01*
X130204965Y-92999328D01*
X130225000Y-93014878D01*
X130229071Y-93016678D01*
X130229194Y-93016792D01*
X130229327Y-93016792D01*
X130293128Y-93045011D01*
X130300623Y-93052506D01*
X130317796Y-93055922D01*
X130320889Y-93057290D01*
X130322303Y-93056818D01*
X130325497Y-93057454D01*
X130461424Y-93053444D01*
X130472962Y-93057290D01*
X130490095Y-93052598D01*
X130493228Y-93052506D01*
X130494281Y-93051452D01*
X130497423Y-93050592D01*
X130557728Y-93016792D01*
X130564658Y-93016792D01*
X130585745Y-93002702D01*
X130588838Y-92999355D01*
X130588887Y-92999328D01*
X130588900Y-92999288D01*
X130652322Y-92930675D01*
X130663437Y-92924007D01*
X130668611Y-92913053D01*
X130671263Y-92910185D01*
X130671262Y-92907441D01*
X130674270Y-92901076D01*
X130702715Y-92771590D01*
X130706978Y-92767328D01*
X130711926Y-92742454D01*
X130707703Y-92507877D01*
X130711218Y-92502020D01*
X130709985Y-92476689D01*
X130671262Y-92338773D01*
X130671263Y-92324723D01*
X130664458Y-92314538D01*
X130663437Y-92310901D01*
X130661084Y-92309489D01*
X130657173Y-92303635D01*
X130591263Y-92242709D01*
X130588887Y-92235580D01*
X130584488Y-92232166D01*
X130832745Y-92232166D01*
X130833693Y-92257509D01*
X131013395Y-92991963D01*
X131011064Y-93001015D01*
X131018937Y-93014614D01*
X131022839Y-93030561D01*
X131031119Y-93035656D01*
X131035990Y-93044069D01*
X131051518Y-93048209D01*
X131065209Y-93056635D01*
X131074667Y-93054382D01*
X131084058Y-93056887D01*
X131097964Y-93048835D01*
X131113604Y-93045112D01*
X131118699Y-93036831D01*
X131127112Y-93031961D01*
X131138302Y-93009202D01*
X131217979Y-92699820D01*
X131299086Y-92993862D01*
X131297031Y-93002742D01*
X131305196Y-93016011D01*
X131309596Y-93031961D01*
X131318008Y-93036831D01*
X131323104Y-93045112D01*
X131338742Y-93048835D01*
X131352650Y-93056887D01*
X131362042Y-93054382D01*
X131371499Y-93056634D01*
X131385187Y-93048210D01*
X131400718Y-93044069D01*
X131405588Y-93035656D01*
X131413869Y-93030561D01*
X131424443Y-93007509D01*
X131568504Y-92385311D01*
X132296212Y-92385311D01*
X132299618Y-92451619D01*
X132296376Y-92461348D01*
X132300983Y-92478173D01*
X132301160Y-92481614D01*
X132302213Y-92482667D01*
X132303074Y-92485809D01*
X132336874Y-92546113D01*
X132336874Y-92553043D01*
X132350964Y-92574130D01*
X132354135Y-92576910D01*
X132354338Y-92577272D01*
X132354675Y-92577384D01*
X132381755Y-92601128D01*
X132383536Y-92606470D01*
X132403571Y-92622020D01*
X132407629Y-92623815D01*
X132407765Y-92623934D01*
X132407898Y-92623934D01*
X132463357Y-92648464D01*
X132465373Y-92651823D01*
X132488304Y-92662656D01*
X132613663Y-92690194D01*
X132617857Y-92693449D01*
X132673735Y-92718163D01*
X132697932Y-92739380D01*
X132725298Y-92788205D01*
X132727447Y-92830019D01*
X132706930Y-92876404D01*
X132685710Y-92900606D01*
X132637395Y-92927685D01*
X132489763Y-92931276D01*
X132488910Y-92930790D01*
X132356604Y-92891904D01*
X132312107Y-92914152D01*
X132296376Y-92961348D01*
X132318624Y-93005845D01*
X132340657Y-93018404D01*
X132437984Y-93047009D01*
X132443481Y-93052506D01*
X132468355Y-93057454D01*
X132639536Y-93053290D01*
X132651534Y-93057290D01*
X132668732Y-93052580D01*
X132671800Y-93052506D01*
X132672853Y-93051452D01*
X132675995Y-93050592D01*
X132736301Y-93016791D01*
X132743230Y-93016791D01*
X132764318Y-93002701D01*
X132767097Y-92999530D01*
X132767459Y-92999328D01*
X132767571Y-92998990D01*
X132791315Y-92971909D01*
X132796657Y-92970129D01*
X132812207Y-92950094D01*
X132814002Y-92946033D01*
X132814121Y-92945899D01*
X132814120Y-92945766D01*
X132842340Y-92881965D01*
X132849835Y-92874471D01*
X132853251Y-92857297D01*
X132854619Y-92854205D01*
X132854147Y-92852790D01*
X132854783Y-92849597D01*
X132851376Y-92783288D01*
X132854619Y-92773560D01*
X132850011Y-92756734D01*
X132849835Y-92753294D01*
X132848781Y-92752240D01*
X132847921Y-92749099D01*
X132814120Y-92688794D01*
X132814121Y-92681866D01*
X132800032Y-92660779D01*
X132796859Y-92657997D01*
X132796657Y-92657636D01*
X132796318Y-92657523D01*
X132769240Y-92633780D01*
X132767459Y-92628437D01*
X132747424Y-92612887D01*
X132743363Y-92611091D01*
X132743230Y-92610974D01*
X132743098Y-92610973D01*
X132687637Y-92586443D01*
X132685622Y-92583085D01*
X132662691Y-92572252D01*
X132537331Y-92544713D01*
X132533138Y-92541459D01*
X132477260Y-92516744D01*
X132453060Y-92495525D01*
X132425696Y-92446702D01*
X132423547Y-92404888D01*
X132444064Y-92358501D01*
X132465282Y-92334302D01*
X132513599Y-92307222D01*
X132661231Y-92303631D01*
X132662085Y-92304118D01*
X132794391Y-92343004D01*
X132838888Y-92320756D01*
X132854620Y-92273561D01*
X132839066Y-92242454D01*
X133046212Y-92242454D01*
X133051160Y-93017328D01*
X133086338Y-93052506D01*
X133136086Y-93052506D01*
X133171264Y-93017328D01*
X133176212Y-92992454D01*
X133174340Y-92699305D01*
X133388761Y-92695889D01*
X133401534Y-92700147D01*
X133418832Y-92695410D01*
X133421800Y-92695363D01*
X133422853Y-92694309D01*
X133425995Y-92693449D01*
X133486301Y-92659648D01*
X133493230Y-92659648D01*
X133514318Y-92645558D01*
X133517097Y-92642387D01*
X133517459Y-92642185D01*
X133517571Y-92641847D01*
X133541315Y-92614766D01*
X133546657Y-92612986D01*
X133562207Y-92592951D01*
X133564002Y-92588890D01*
X133564121Y-92588756D01*
X133564120Y-92588623D01*
X133592340Y-92524822D01*
X133599835Y-92517328D01*
X133603251Y-92500154D01*
X133604619Y-92497062D01*
X133604147Y-92495647D01*
X133604783Y-92492454D01*
X133601001Y-92391556D01*
X133604619Y-92380703D01*
X133599956Y-92363675D01*
X133599835Y-92360437D01*
X133598780Y-92359382D01*
X133597921Y-92356243D01*
X133564121Y-92295937D01*
X133564121Y-92289007D01*
X133550031Y-92267920D01*
X133546859Y-92265139D01*
X133546657Y-92264778D01*
X133546319Y-92264665D01*
X133520987Y-92242454D01*
X133796212Y-92242454D01*
X133801160Y-93017328D01*
X133836338Y-93052506D01*
X133861212Y-93057454D01*
X134243229Y-93052506D01*
X134278407Y-93017328D01*
X134278407Y-92967580D01*
X134243229Y-92932402D01*
X134218355Y-92927454D01*
X133925821Y-92931242D01*
X133924111Y-92663464D01*
X134136086Y-92659649D01*
X134171264Y-92624471D01*
X134171264Y-92574723D01*
X134136086Y-92539545D01*
X134111212Y-92534597D01*
X133923309Y-92537979D01*
X133921832Y-92306668D01*
X134243229Y-92302506D01*
X134278407Y-92267328D01*
X134278407Y-92242454D01*
X134474783Y-92242454D01*
X134479731Y-93017328D01*
X134514909Y-93052506D01*
X134539783Y-93057454D01*
X134921800Y-93052506D01*
X134956978Y-93017328D01*
X134956978Y-92967580D01*
X134921800Y-92932402D01*
X134896926Y-92927454D01*
X134604392Y-92931242D01*
X134602682Y-92663464D01*
X134814657Y-92659649D01*
X134849835Y-92624471D01*
X134849835Y-92574723D01*
X134814657Y-92539545D01*
X134789783Y-92534597D01*
X134601880Y-92537979D01*
X134600403Y-92306668D01*
X134921800Y-92302506D01*
X134956978Y-92267328D01*
X134956978Y-92242454D01*
X135153354Y-92242454D01*
X135158302Y-93017328D01*
X135193480Y-93052506D01*
X135218354Y-93057454D01*
X135384560Y-93053411D01*
X135392317Y-93057290D01*
X135417480Y-93054118D01*
X135421793Y-93052506D01*
X135421799Y-93052506D01*
X135421802Y-93052502D01*
X135517360Y-93016792D01*
X135528943Y-93016792D01*
X135543642Y-93006970D01*
X135546656Y-93005844D01*
X135547322Y-93004511D01*
X135550030Y-93002702D01*
X135610955Y-92936791D01*
X135618085Y-92934415D01*
X135633635Y-92914380D01*
X135635435Y-92910308D01*
X135635549Y-92910186D01*
X135635549Y-92910052D01*
X135660078Y-92854593D01*
X135663437Y-92852578D01*
X135674270Y-92829647D01*
X135702714Y-92700161D01*
X135706977Y-92695899D01*
X135711925Y-92671025D01*
X135708441Y-92578075D01*
X135711217Y-92573449D01*
X135709984Y-92548118D01*
X135674397Y-92421366D01*
X135676047Y-92416417D01*
X135669349Y-92391956D01*
X135635549Y-92331651D01*
X135635549Y-92324722D01*
X135621459Y-92303635D01*
X135618111Y-92300541D01*
X135618085Y-92300493D01*
X135618045Y-92300479D01*
X135555273Y-92242454D01*
X136474783Y-92242454D01*
X136479466Y-92840647D01*
X136474947Y-92854205D01*
X136479708Y-92871593D01*
X136479731Y-92874471D01*
X136480784Y-92875524D01*
X136481645Y-92878666D01*
X136515445Y-92938970D01*
X136515445Y-92945900D01*
X136529535Y-92966987D01*
X136532706Y-92969767D01*
X136532909Y-92970129D01*
X136533246Y-92970241D01*
X136560327Y-92993985D01*
X136562108Y-92999328D01*
X136582143Y-93014878D01*
X136586203Y-93016673D01*
X136586338Y-93016792D01*
X136586470Y-93016792D01*
X136650271Y-93045011D01*
X136657766Y-93052506D01*
X136674939Y-93055922D01*
X136678032Y-93057290D01*
X136679446Y-93056818D01*
X136682640Y-93057454D01*
X136818567Y-93053444D01*
X136830105Y-93057290D01*
X136847238Y-93052598D01*
X136850371Y-93052506D01*
X136851424Y-93051452D01*
X136854566Y-93050592D01*
X136914872Y-93016791D01*
X136921801Y-93016791D01*
X136942889Y-93002701D01*
X136945668Y-92999530D01*
X136946030Y-92999328D01*
X136946142Y-92998990D01*
X136969886Y-92971909D01*
X136975228Y-92970129D01*
X136990778Y-92950094D01*
X136992573Y-92946033D01*
X136992692Y-92945899D01*
X136992691Y-92945766D01*
X137020911Y-92881965D01*
X137028406Y-92874471D01*
X137031822Y-92857297D01*
X137033190Y-92854205D01*
X137032718Y-92852790D01*
X137033354Y-92849597D01*
X137029719Y-92385311D01*
X137224783Y-92385311D01*
X137228189Y-92451619D01*
X137224947Y-92461348D01*
X137229554Y-92478173D01*
X137229731Y-92481614D01*
X137230784Y-92482667D01*
X137231645Y-92485809D01*
X137265445Y-92546113D01*
X137265445Y-92553043D01*
X137279535Y-92574130D01*
X137282706Y-92576910D01*
X137282909Y-92577272D01*
X137283246Y-92577384D01*
X137310326Y-92601128D01*
X137312107Y-92606470D01*
X137332142Y-92622020D01*
X137336200Y-92623815D01*
X137336336Y-92623934D01*
X137336469Y-92623934D01*
X137391928Y-92648464D01*
X137393944Y-92651823D01*
X137416875Y-92662656D01*
X137542234Y-92690194D01*
X137546428Y-92693449D01*
X137602306Y-92718163D01*
X137626503Y-92739380D01*
X137653869Y-92788205D01*
X137656018Y-92830019D01*
X137635501Y-92876404D01*
X137614281Y-92900606D01*
X137565966Y-92927685D01*
X137418334Y-92931276D01*
X137417481Y-92930790D01*
X137285175Y-92891904D01*
X137240678Y-92914152D01*
X137224947Y-92961348D01*
X137247195Y-93005845D01*
X137269228Y-93018404D01*
X137366555Y-93047009D01*
X137372052Y-93052506D01*
X137396926Y-93057454D01*
X137568107Y-93053290D01*
X137580105Y-93057290D01*
X137597303Y-93052580D01*
X137600371Y-93052506D01*
X137601424Y-93051452D01*
X137604566Y-93050592D01*
X137664872Y-93016791D01*
X137671801Y-93016791D01*
X137692889Y-93002701D01*
X137695668Y-92999530D01*
X137696030Y-92999328D01*
X137696142Y-92998990D01*
X137719886Y-92971909D01*
X137725228Y-92970129D01*
X137740778Y-92950094D01*
X137742573Y-92946033D01*
X137742692Y-92945899D01*
X137742691Y-92945766D01*
X137770911Y-92881965D01*
X137778406Y-92874471D01*
X137781822Y-92857297D01*
X137783190Y-92854205D01*
X137782718Y-92852790D01*
X137783354Y-92849597D01*
X137779947Y-92783288D01*
X137783190Y-92773560D01*
X137778582Y-92756734D01*
X137778406Y-92753294D01*
X137777352Y-92752240D01*
X137776492Y-92749099D01*
X137742691Y-92688794D01*
X137742692Y-92681866D01*
X137728603Y-92660779D01*
X137725430Y-92657997D01*
X137725228Y-92657636D01*
X137724889Y-92657523D01*
X137697811Y-92633780D01*
X137696030Y-92628437D01*
X137675995Y-92612887D01*
X137671934Y-92611091D01*
X137671801Y-92610974D01*
X137671669Y-92610973D01*
X137616208Y-92586443D01*
X137614193Y-92583085D01*
X137591262Y-92572252D01*
X137465902Y-92544713D01*
X137461709Y-92541459D01*
X137405831Y-92516744D01*
X137381631Y-92495525D01*
X137354267Y-92446702D01*
X137352118Y-92404888D01*
X137372635Y-92358501D01*
X137393853Y-92334302D01*
X137442170Y-92307222D01*
X137589802Y-92303631D01*
X137590656Y-92304118D01*
X137722962Y-92343004D01*
X137767459Y-92320756D01*
X137783191Y-92273561D01*
X137767637Y-92242454D01*
X137974783Y-92242454D01*
X137979731Y-93017328D01*
X138014909Y-93052506D01*
X138039783Y-93057454D01*
X138317332Y-93053032D01*
X138330105Y-93057290D01*
X138347403Y-93052553D01*
X138350371Y-93052506D01*
X138351424Y-93051452D01*
X138354566Y-93050592D01*
X138414872Y-93016791D01*
X138421801Y-93016791D01*
X138442889Y-93002701D01*
X138445668Y-92999530D01*
X138446030Y-92999328D01*
X138446142Y-92998990D01*
X138469886Y-92971909D01*
X138475228Y-92970129D01*
X138490778Y-92950094D01*
X138492573Y-92946033D01*
X138492692Y-92945899D01*
X138492691Y-92945766D01*
X138520911Y-92881965D01*
X138528406Y-92874471D01*
X138531822Y-92857297D01*
X138533190Y-92854205D01*
X138532718Y-92852790D01*
X138533354Y-92849597D01*
X138529572Y-92748699D01*
X138533190Y-92737846D01*
X138528527Y-92720818D01*
X138528406Y-92717580D01*
X138527351Y-92716525D01*
X138526492Y-92713386D01*
X138492692Y-92653080D01*
X138492692Y-92646150D01*
X138478602Y-92625063D01*
X138475430Y-92622282D01*
X138475228Y-92621921D01*
X138474890Y-92621808D01*
X138443594Y-92594367D01*
X138439514Y-92586207D01*
X138431769Y-92581792D01*
X138434172Y-92579052D01*
X138439514Y-92577272D01*
X138455064Y-92557237D01*
X138456858Y-92553178D01*
X138456978Y-92553043D01*
X138456978Y-92552909D01*
X138485197Y-92489108D01*
X138492692Y-92481614D01*
X138496108Y-92464440D01*
X138497476Y-92461348D01*
X138497004Y-92459933D01*
X138497640Y-92456740D01*
X138494233Y-92390431D01*
X138497476Y-92380703D01*
X138492868Y-92363878D01*
X138492692Y-92360437D01*
X138491637Y-92359382D01*
X138490778Y-92356243D01*
X138456978Y-92295937D01*
X138456978Y-92289007D01*
X138442888Y-92267920D01*
X138439716Y-92265139D01*
X138439514Y-92264778D01*
X138439176Y-92264665D01*
X138412096Y-92240921D01*
X138410316Y-92235580D01*
X138390281Y-92220030D01*
X138386222Y-92218235D01*
X138386087Y-92218116D01*
X138385954Y-92218116D01*
X138322151Y-92189896D01*
X138314657Y-92182402D01*
X138297483Y-92178985D01*
X138294391Y-92177618D01*
X138292976Y-92178089D01*
X138289783Y-92177454D01*
X138014909Y-92182402D01*
X137979731Y-92217580D01*
X137974783Y-92242454D01*
X137767637Y-92242454D01*
X137760942Y-92229064D01*
X137738909Y-92216504D01*
X137641581Y-92187898D01*
X137636085Y-92182402D01*
X137611211Y-92177454D01*
X137440030Y-92181617D01*
X137428032Y-92177618D01*
X137410834Y-92182327D01*
X137407766Y-92182402D01*
X137406711Y-92183456D01*
X137403572Y-92184316D01*
X137343266Y-92218116D01*
X137336336Y-92218116D01*
X137315249Y-92232206D01*
X137312468Y-92235377D01*
X137312107Y-92235580D01*
X137311994Y-92235917D01*
X137288250Y-92262997D01*
X137282909Y-92264778D01*
X137267359Y-92284813D01*
X137265564Y-92288871D01*
X137265445Y-92289007D01*
X137265445Y-92289140D01*
X137237225Y-92352942D01*
X137229731Y-92360437D01*
X137226314Y-92377610D01*
X137224947Y-92380703D01*
X137225418Y-92382117D01*
X137224783Y-92385311D01*
X137029719Y-92385311D01*
X137028406Y-92217580D01*
X136993228Y-92182402D01*
X136943480Y-92182402D01*
X136908302Y-92217580D01*
X136903354Y-92242454D01*
X136907920Y-92825718D01*
X136885501Y-92876404D01*
X136864281Y-92900606D01*
X136815873Y-92927737D01*
X136704279Y-92931029D01*
X136655832Y-92909601D01*
X136631631Y-92888382D01*
X136604710Y-92840350D01*
X136599835Y-92217580D01*
X136564657Y-92182402D01*
X136514909Y-92182402D01*
X136479731Y-92217580D01*
X136474783Y-92242454D01*
X135555273Y-92242454D01*
X135551700Y-92239151D01*
X135546656Y-92229064D01*
X135531343Y-92220335D01*
X135528943Y-92218116D01*
X135527451Y-92218116D01*
X135524623Y-92216504D01*
X135427295Y-92187898D01*
X135421799Y-92182402D01*
X135396925Y-92177454D01*
X135193480Y-92182402D01*
X135158302Y-92217580D01*
X135153354Y-92242454D01*
X134956978Y-92242454D01*
X134956978Y-92217580D01*
X134921800Y-92182402D01*
X134896926Y-92177454D01*
X134514909Y-92182402D01*
X134479731Y-92217580D01*
X134474783Y-92242454D01*
X134278407Y-92242454D01*
X134278407Y-92217580D01*
X134243229Y-92182402D01*
X134218355Y-92177454D01*
X133836338Y-92182402D01*
X133801160Y-92217580D01*
X133796212Y-92242454D01*
X133520987Y-92242454D01*
X133519239Y-92240921D01*
X133517459Y-92235580D01*
X133497424Y-92220030D01*
X133493365Y-92218235D01*
X133493230Y-92218116D01*
X133493097Y-92218116D01*
X133429294Y-92189896D01*
X133421800Y-92182402D01*
X133404626Y-92178985D01*
X133401534Y-92177618D01*
X133400119Y-92178089D01*
X133396926Y-92177454D01*
X133086338Y-92182402D01*
X133051160Y-92217580D01*
X133046212Y-92242454D01*
X132839066Y-92242454D01*
X132832371Y-92229064D01*
X132810338Y-92216504D01*
X132713010Y-92187898D01*
X132707514Y-92182402D01*
X132682640Y-92177454D01*
X132511459Y-92181617D01*
X132499461Y-92177618D01*
X132482263Y-92182327D01*
X132479195Y-92182402D01*
X132478140Y-92183456D01*
X132475001Y-92184316D01*
X132414695Y-92218116D01*
X132407765Y-92218116D01*
X132386678Y-92232206D01*
X132383897Y-92235377D01*
X132383536Y-92235580D01*
X132383423Y-92235917D01*
X132359679Y-92262997D01*
X132354338Y-92264778D01*
X132338788Y-92284813D01*
X132336993Y-92288871D01*
X132336874Y-92289007D01*
X132336874Y-92289140D01*
X132308654Y-92352942D01*
X132301160Y-92360437D01*
X132297743Y-92377610D01*
X132296376Y-92380703D01*
X132296847Y-92382117D01*
X132296212Y-92385311D01*
X131568504Y-92385311D01*
X131603963Y-92232165D01*
X131577890Y-92189796D01*
X131529495Y-92178273D01*
X131487125Y-92204347D01*
X131476551Y-92227398D01*
X131358383Y-92737763D01*
X131280719Y-92456207D01*
X131282787Y-92448180D01*
X131274608Y-92434053D01*
X131269969Y-92417233D01*
X131262300Y-92412793D01*
X131257861Y-92405125D01*
X131241535Y-92400771D01*
X131226915Y-92392307D01*
X131218354Y-92394589D01*
X131209793Y-92392307D01*
X131195172Y-92400771D01*
X131178847Y-92405125D01*
X131174407Y-92412793D01*
X131166739Y-92417233D01*
X131155549Y-92439992D01*
X131079494Y-92735304D01*
X130949583Y-92204347D01*
X130907213Y-92178274D01*
X130858818Y-92189796D01*
X130832745Y-92232166D01*
X130584488Y-92232166D01*
X130568852Y-92220030D01*
X130564780Y-92218229D01*
X130564658Y-92218116D01*
X130564525Y-92218116D01*
X130500722Y-92189896D01*
X130493228Y-92182402D01*
X130476054Y-92178985D01*
X130472962Y-92177618D01*
X130471547Y-92178089D01*
X130468354Y-92177454D01*
X130332426Y-92181463D01*
X130320889Y-92177618D01*
X130303755Y-92182309D01*
X130300623Y-92182402D01*
X130299569Y-92183455D01*
X130296428Y-92184316D01*
X130236124Y-92218116D01*
X130229194Y-92218116D01*
X130208107Y-92232206D01*
X130205013Y-92235553D01*
X130204965Y-92235580D01*
X130204951Y-92235619D01*
X130141527Y-92304232D01*
X130130414Y-92310901D01*
X130125240Y-92321852D01*
X130122588Y-92324722D01*
X130122588Y-92327466D01*
X130119581Y-92333832D01*
X130091136Y-92463317D01*
X130086874Y-92467580D01*
X130081926Y-92492454D01*
X129637304Y-92492454D01*
X129635549Y-92217580D01*
X129600371Y-92182402D01*
X129550623Y-92182402D01*
X129515445Y-92217580D01*
X129510497Y-92242454D01*
X129427164Y-92242454D01*
X129427164Y-92094121D01*
X138616687Y-92094121D01*
X138616687Y-93140787D01*
G37*
D11*
G36*
X126256832Y-96657284D02*
G01*
X126323222Y-96722040D01*
X126361476Y-96869465D01*
X126363155Y-97177929D01*
X126325420Y-97334790D01*
X126262976Y-97398810D01*
X126202108Y-97430413D01*
X126058779Y-97431724D01*
X125999388Y-97403152D01*
X125932999Y-97338396D01*
X125894745Y-97190971D01*
X125893066Y-96882508D01*
X125930801Y-96725646D01*
X125993244Y-96661627D01*
X126054112Y-96630024D01*
X126197442Y-96628713D01*
X126256832Y-96657284D01*
G37*
G36*
X127862963Y-97741330D02*
G01*
X124821762Y-97741330D01*
X124821762Y-96530219D01*
X124932873Y-96530219D01*
X124934794Y-97549728D01*
X124949726Y-97585776D01*
X124977316Y-97613366D01*
X125013364Y-97628298D01*
X125032873Y-97630219D01*
X125528572Y-97628298D01*
X125564620Y-97613366D01*
X125592210Y-97585776D01*
X125607142Y-97549728D01*
X125607142Y-97510710D01*
X125592210Y-97474662D01*
X125564620Y-97447072D01*
X125528572Y-97432140D01*
X125509063Y-97430219D01*
X125132687Y-97431677D01*
X125131617Y-96863552D01*
X125694778Y-96863552D01*
X125696558Y-97190574D01*
X125694896Y-97201746D01*
X125696685Y-97213843D01*
X125696699Y-97216394D01*
X125697263Y-97217757D01*
X125697764Y-97221139D01*
X125744318Y-97400554D01*
X125744318Y-97406870D01*
X125748705Y-97417462D01*
X125751978Y-97430075D01*
X125756403Y-97436047D01*
X125759249Y-97442918D01*
X125771686Y-97458071D01*
X125868074Y-97552088D01*
X125876323Y-97561600D01*
X125880558Y-97564266D01*
X125882077Y-97565747D01*
X125884517Y-97566757D01*
X125892914Y-97572043D01*
X125975931Y-97611981D01*
X125977316Y-97613366D01*
X125988065Y-97617818D01*
X126006460Y-97626668D01*
X126010043Y-97626922D01*
X126013364Y-97628298D01*
X126032873Y-97630219D01*
X126208380Y-97628613D01*
X126210842Y-97629434D01*
X126224457Y-97628466D01*
X126242858Y-97628298D01*
X126246178Y-97626922D01*
X126249762Y-97626668D01*
X126268070Y-97619662D01*
X126363098Y-97570322D01*
X126374145Y-97565747D01*
X126377991Y-97562589D01*
X126379898Y-97561600D01*
X126381628Y-97559605D01*
X126389298Y-97553310D01*
X126475967Y-97464453D01*
X126481015Y-97461425D01*
X126487631Y-97452494D01*
X126496973Y-97442918D01*
X126499818Y-97436047D01*
X126504244Y-97430075D01*
X126510839Y-97411615D01*
X126555418Y-97226302D01*
X126559523Y-97216394D01*
X126560715Y-97204284D01*
X126561326Y-97201746D01*
X126561108Y-97200287D01*
X126561444Y-97196885D01*
X126559663Y-96869862D01*
X126561326Y-96858691D01*
X126559536Y-96846593D01*
X126559523Y-96844043D01*
X126558958Y-96842679D01*
X126558458Y-96839298D01*
X126511904Y-96659882D01*
X126511904Y-96653567D01*
X126507517Y-96642976D01*
X126504244Y-96630362D01*
X126499817Y-96624387D01*
X126496972Y-96617519D01*
X126484536Y-96602365D01*
X126414402Y-96533958D01*
X126694847Y-96533958D01*
X126697497Y-96553381D01*
X126936364Y-97548519D01*
X126938219Y-97562476D01*
X126940773Y-97566888D01*
X126941980Y-97571915D01*
X126950495Y-97583681D01*
X126957768Y-97596244D01*
X126961845Y-97599364D01*
X126964855Y-97603524D01*
X126977217Y-97611131D01*
X126988751Y-97619960D01*
X126993714Y-97621283D01*
X126998085Y-97623973D01*
X127012419Y-97626271D01*
X127026452Y-97630013D01*
X127031540Y-97629336D01*
X127036612Y-97630150D01*
X127050746Y-97626784D01*
X127065130Y-97624873D01*
X127069570Y-97622302D01*
X127074569Y-97621112D01*
X127086335Y-97612596D01*
X127098898Y-97605324D01*
X127102018Y-97601246D01*
X127106178Y-97598237D01*
X127113785Y-97585874D01*
X127122614Y-97574341D01*
X127125313Y-97567140D01*
X127126627Y-97565007D01*
X127127010Y-97562616D01*
X127129497Y-97555985D01*
X127223353Y-97200407D01*
X127317867Y-97551264D01*
X127320071Y-97565007D01*
X127322736Y-97569338D01*
X127324084Y-97574341D01*
X127332912Y-97585874D01*
X127340520Y-97598237D01*
X127344679Y-97601246D01*
X127347800Y-97605324D01*
X127360364Y-97612598D01*
X127372129Y-97621112D01*
X127377124Y-97622301D01*
X127381568Y-97624874D01*
X127395957Y-97626785D01*
X127410086Y-97630150D01*
X127415157Y-97629336D01*
X127420246Y-97630013D01*
X127434278Y-97626271D01*
X127448613Y-97623973D01*
X127452983Y-97621283D01*
X127457947Y-97619960D01*
X127469480Y-97611131D01*
X127481843Y-97603524D01*
X127484852Y-97599364D01*
X127488930Y-97596244D01*
X127496205Y-97583677D01*
X127504718Y-97571915D01*
X127507222Y-97564649D01*
X127508480Y-97562477D01*
X127508799Y-97560073D01*
X127511106Y-97553381D01*
X127751852Y-96533958D01*
X127745675Y-96495432D01*
X127725226Y-96462201D01*
X127693617Y-96439326D01*
X127655660Y-96430289D01*
X127617133Y-96436465D01*
X127583903Y-96456914D01*
X127561028Y-96488523D01*
X127554640Y-96507057D01*
X127408485Y-97125939D01*
X127319676Y-96796260D01*
X127318004Y-96783675D01*
X127314790Y-96778125D01*
X127313090Y-96771811D01*
X127305065Y-96761328D01*
X127298454Y-96749908D01*
X127293310Y-96745971D01*
X127289374Y-96740828D01*
X127277956Y-96734218D01*
X127267471Y-96726192D01*
X127261207Y-96724521D01*
X127255606Y-96721279D01*
X127242528Y-96719541D01*
X127229770Y-96716139D01*
X127223348Y-96716992D01*
X127216928Y-96716139D01*
X127204174Y-96719539D01*
X127191092Y-96721278D01*
X127185487Y-96724522D01*
X127179227Y-96726192D01*
X127168743Y-96734216D01*
X127157324Y-96740828D01*
X127153387Y-96745971D01*
X127148244Y-96749908D01*
X127141634Y-96761325D01*
X127133608Y-96771811D01*
X127130012Y-96781399D01*
X127128695Y-96783676D01*
X127128440Y-96785594D01*
X127126726Y-96790166D01*
X127038398Y-97124795D01*
X126885671Y-96488523D01*
X126862796Y-96456914D01*
X126829566Y-96436465D01*
X126791039Y-96430288D01*
X126753082Y-96439326D01*
X126721473Y-96462201D01*
X126701024Y-96495431D01*
X126694847Y-96533958D01*
X126414402Y-96533958D01*
X126388146Y-96508348D01*
X126379898Y-96498838D01*
X126375661Y-96496171D01*
X126374144Y-96494691D01*
X126371704Y-96493680D01*
X126363308Y-96488395D01*
X126280290Y-96448456D01*
X126278906Y-96447072D01*
X126268156Y-96442619D01*
X126249762Y-96433770D01*
X126246178Y-96433515D01*
X126242858Y-96432140D01*
X126223349Y-96430219D01*
X126047841Y-96431824D01*
X126045380Y-96431004D01*
X126031764Y-96431971D01*
X126013364Y-96432140D01*
X126010043Y-96433515D01*
X126006460Y-96433770D01*
X125988151Y-96440776D01*
X125893117Y-96490118D01*
X125882078Y-96494691D01*
X125878233Y-96497846D01*
X125876323Y-96498838D01*
X125874590Y-96500835D01*
X125866924Y-96507127D01*
X125780256Y-96595982D01*
X125775207Y-96599012D01*
X125768587Y-96607946D01*
X125759250Y-96617519D01*
X125756404Y-96624387D01*
X125751978Y-96630362D01*
X125745383Y-96648823D01*
X125700803Y-96834133D01*
X125696699Y-96844043D01*
X125695506Y-96856152D01*
X125694896Y-96858691D01*
X125695113Y-96860149D01*
X125694778Y-96863552D01*
X125131617Y-96863552D01*
X125130952Y-96510710D01*
X125116020Y-96474662D01*
X125088430Y-96447072D01*
X125052382Y-96432140D01*
X125013364Y-96432140D01*
X124977316Y-96447072D01*
X124949726Y-96474662D01*
X124934794Y-96510710D01*
X124932873Y-96530219D01*
X124821762Y-96530219D01*
X124821762Y-96319108D01*
X127862963Y-96319108D01*
X127862963Y-97741330D01*
G37*
G36*
X127418237Y-98161798D02*
G01*
X127485378Y-98227285D01*
X127520998Y-98295889D01*
X127564477Y-98463456D01*
X127565883Y-98582264D01*
X127525643Y-98749536D01*
X127489721Y-98824206D01*
X127422412Y-98893214D01*
X127319230Y-98928907D01*
X127192791Y-98929850D01*
X127191280Y-98128085D01*
X127310392Y-98127197D01*
X127418237Y-98161798D01*
G37*
G36*
X124698240Y-98156053D02*
G01*
X124724017Y-98180715D01*
X124755134Y-98240646D01*
X124756268Y-98336493D01*
X124727646Y-98395988D01*
X124702988Y-98421761D01*
X124643345Y-98452729D01*
X124382370Y-98453980D01*
X124381757Y-98128347D01*
X124638093Y-98127117D01*
X124698240Y-98156053D01*
G37*
G36*
X127875517Y-99239930D02*
G01*
X123072343Y-99239930D01*
X123072343Y-98219295D01*
X123183454Y-98219295D01*
X123184810Y-98300312D01*
X123184239Y-98302026D01*
X123185023Y-98313070D01*
X123185375Y-98334042D01*
X123186750Y-98337362D01*
X123187005Y-98340946D01*
X123194011Y-98359254D01*
X123243351Y-98454283D01*
X123247926Y-98465328D01*
X123251082Y-98469174D01*
X123252073Y-98471082D01*
X123254067Y-98472811D01*
X123260362Y-98480482D01*
X123310464Y-98528415D01*
X123317380Y-98536390D01*
X123321529Y-98539001D01*
X123323134Y-98540537D01*
X123325574Y-98541547D01*
X123333971Y-98546833D01*
X123424242Y-98590261D01*
X123431216Y-98595428D01*
X123445850Y-98600656D01*
X123447517Y-98601458D01*
X123448237Y-98601509D01*
X123449676Y-98602023D01*
X123623219Y-98643771D01*
X123698240Y-98679862D01*
X123724017Y-98704524D01*
X123755242Y-98764663D01*
X123756054Y-98813128D01*
X123727647Y-98872176D01*
X123702985Y-98897954D01*
X123643236Y-98928976D01*
X123446990Y-98930440D01*
X123295961Y-98881985D01*
X123257041Y-98884751D01*
X123222142Y-98902201D01*
X123196577Y-98931677D01*
X123184239Y-98968693D01*
X123187005Y-99007613D01*
X123204455Y-99042512D01*
X123233931Y-99068077D01*
X123251831Y-99076068D01*
X123394915Y-99121974D01*
X123406802Y-99126898D01*
X123411794Y-99127389D01*
X123413803Y-99128034D01*
X123416437Y-99127846D01*
X123426311Y-99128819D01*
X123649266Y-99127156D01*
X123651899Y-99128034D01*
X123666004Y-99127031D01*
X123683915Y-99126898D01*
X123687235Y-99125522D01*
X123690819Y-99125268D01*
X123709127Y-99118262D01*
X123804155Y-99068922D01*
X123815202Y-99064347D01*
X123819048Y-99061189D01*
X123820955Y-99060200D01*
X123822685Y-99058205D01*
X123830355Y-99051910D01*
X123878288Y-99001807D01*
X123886263Y-98994892D01*
X123888874Y-98990742D01*
X123890411Y-98989137D01*
X123891422Y-98986695D01*
X123896706Y-98978301D01*
X123936644Y-98895283D01*
X123938029Y-98893899D01*
X123942481Y-98883149D01*
X123951331Y-98864755D01*
X123951585Y-98861171D01*
X123952961Y-98857851D01*
X123954882Y-98838342D01*
X123953525Y-98757324D01*
X123954097Y-98755611D01*
X123953312Y-98744566D01*
X123952961Y-98723595D01*
X123951585Y-98720274D01*
X123951331Y-98716691D01*
X123944325Y-98698382D01*
X123894982Y-98603348D01*
X123890410Y-98592308D01*
X123887254Y-98588462D01*
X123886263Y-98586554D01*
X123884265Y-98584821D01*
X123877973Y-98577155D01*
X123827872Y-98529223D01*
X123820955Y-98521247D01*
X123816805Y-98518634D01*
X123815201Y-98517100D01*
X123812761Y-98516089D01*
X123804365Y-98510804D01*
X123714093Y-98467375D01*
X123707120Y-98462209D01*
X123692487Y-98456981D01*
X123690819Y-98456179D01*
X123690096Y-98456127D01*
X123688659Y-98455614D01*
X123515116Y-98413865D01*
X123440093Y-98377773D01*
X123414320Y-98353115D01*
X123383093Y-98292972D01*
X123382281Y-98244508D01*
X123410688Y-98185460D01*
X123435350Y-98159683D01*
X123495098Y-98128661D01*
X123691344Y-98127197D01*
X123842374Y-98175653D01*
X123881294Y-98172887D01*
X123916193Y-98155437D01*
X123941758Y-98125961D01*
X123954097Y-98088945D01*
X123951330Y-98050025D01*
X123940727Y-98028819D01*
X124183454Y-98028819D01*
X124185375Y-99048328D01*
X124200307Y-99084376D01*
X124227897Y-99111966D01*
X124263945Y-99126898D01*
X124302963Y-99126898D01*
X124339011Y-99111966D01*
X124366601Y-99084376D01*
X124381533Y-99048328D01*
X124383454Y-99028819D01*
X124382744Y-98652151D01*
X124648993Y-98650874D01*
X124651899Y-98651843D01*
X124666723Y-98650789D01*
X124683915Y-98650707D01*
X124687235Y-98649331D01*
X124690819Y-98649077D01*
X124709127Y-98642071D01*
X124804156Y-98592730D01*
X124815201Y-98588156D01*
X124819047Y-98584999D01*
X124820955Y-98584009D01*
X124822684Y-98582014D01*
X124830355Y-98575720D01*
X124878288Y-98525617D01*
X124886263Y-98518702D01*
X124888874Y-98514552D01*
X124890410Y-98512948D01*
X124891420Y-98510507D01*
X124896706Y-98502111D01*
X124936644Y-98419093D01*
X124938029Y-98417709D01*
X124942481Y-98406959D01*
X124951331Y-98388565D01*
X124951585Y-98384981D01*
X124952961Y-98381661D01*
X124954882Y-98362152D01*
X124953365Y-98233995D01*
X124954097Y-98231802D01*
X124953188Y-98219019D01*
X124952961Y-98199786D01*
X124951585Y-98196465D01*
X124951331Y-98192882D01*
X124944325Y-98174573D01*
X124894982Y-98079539D01*
X124890410Y-98068499D01*
X124887254Y-98064653D01*
X124886263Y-98062745D01*
X124884265Y-98061012D01*
X124877973Y-98053346D01*
X124852336Y-98028819D01*
X125183454Y-98028819D01*
X125185375Y-99048328D01*
X125200307Y-99084376D01*
X125227897Y-99111966D01*
X125263945Y-99126898D01*
X125283454Y-99128819D01*
X125779153Y-99126898D01*
X125815201Y-99111966D01*
X125842791Y-99084376D01*
X125857723Y-99048328D01*
X125857723Y-99009310D01*
X125842791Y-98973262D01*
X125815201Y-98945672D01*
X125779153Y-98930740D01*
X125759644Y-98928819D01*
X125383268Y-98930277D01*
X125382654Y-98604468D01*
X125636296Y-98603088D01*
X125672344Y-98588156D01*
X125699934Y-98560566D01*
X125714866Y-98524518D01*
X125714866Y-98485500D01*
X125699934Y-98449452D01*
X125672344Y-98421862D01*
X125636296Y-98406930D01*
X125616787Y-98405009D01*
X125382280Y-98406285D01*
X125381757Y-98128438D01*
X125779153Y-98126898D01*
X125815201Y-98111966D01*
X125842791Y-98084376D01*
X125857723Y-98048328D01*
X125857723Y-98028819D01*
X126088216Y-98028819D01*
X126090137Y-99048328D01*
X126105069Y-99084376D01*
X126132659Y-99111966D01*
X126168707Y-99126898D01*
X126188216Y-99128819D01*
X126683915Y-99126898D01*
X126719963Y-99111966D01*
X126747553Y-99084376D01*
X126762485Y-99048328D01*
X126762485Y-99009310D01*
X126747553Y-98973262D01*
X126719963Y-98945672D01*
X126683915Y-98930740D01*
X126664406Y-98928819D01*
X126288030Y-98930277D01*
X126287416Y-98604468D01*
X126541058Y-98603088D01*
X126577106Y-98588156D01*
X126604696Y-98560566D01*
X126619628Y-98524518D01*
X126619628Y-98485500D01*
X126604696Y-98449452D01*
X126577106Y-98421862D01*
X126541058Y-98406930D01*
X126521549Y-98405009D01*
X126287042Y-98406285D01*
X126286519Y-98128438D01*
X126683915Y-98126898D01*
X126719963Y-98111966D01*
X126747553Y-98084376D01*
X126762485Y-98048328D01*
X126762485Y-98028819D01*
X126992978Y-98028819D01*
X126994899Y-99048328D01*
X127009831Y-99084376D01*
X127037421Y-99111966D01*
X127073469Y-99126898D01*
X127092978Y-99128819D01*
X127329778Y-99127053D01*
X127343580Y-99128034D01*
X127348507Y-99126913D01*
X127350582Y-99126898D01*
X127353024Y-99125886D01*
X127362696Y-99123687D01*
X127491073Y-99079278D01*
X127493440Y-99079278D01*
X127505432Y-99074310D01*
X127523453Y-99068077D01*
X127526168Y-99065722D01*
X127529488Y-99064347D01*
X127544641Y-99051910D01*
X127638658Y-98955520D01*
X127648168Y-98947273D01*
X127650834Y-98943037D01*
X127652316Y-98941518D01*
X127653327Y-98939076D01*
X127658611Y-98930682D01*
X127702039Y-98840410D01*
X127707206Y-98833437D01*
X127712434Y-98818802D01*
X127713236Y-98817136D01*
X127713287Y-98816415D01*
X127713801Y-98814977D01*
X127758380Y-98629664D01*
X127762485Y-98619756D01*
X127763677Y-98607646D01*
X127764288Y-98605108D01*
X127764070Y-98603649D01*
X127764406Y-98600247D01*
X127762778Y-98462673D01*
X127764288Y-98452529D01*
X127762516Y-98440550D01*
X127762485Y-98437881D01*
X127761920Y-98436517D01*
X127761420Y-98433136D01*
X127713915Y-98250056D01*
X127713236Y-98240501D01*
X127707643Y-98225885D01*
X127707206Y-98224200D01*
X127706776Y-98223620D01*
X127706230Y-98222192D01*
X127656887Y-98127158D01*
X127652315Y-98116119D01*
X127649159Y-98112274D01*
X127648168Y-98110364D01*
X127646170Y-98108631D01*
X127639879Y-98100965D01*
X127553934Y-98017136D01*
X127552929Y-98015126D01*
X127543399Y-98006860D01*
X127529487Y-97993291D01*
X127526168Y-97991916D01*
X127523453Y-97989561D01*
X127505552Y-97981570D01*
X127362472Y-97935665D01*
X127350582Y-97930740D01*
X127345588Y-97930248D01*
X127343580Y-97929604D01*
X127340946Y-97929791D01*
X127331073Y-97928819D01*
X127073469Y-97930740D01*
X127037421Y-97945672D01*
X127009831Y-97973262D01*
X126994899Y-98009310D01*
X126992978Y-98028819D01*
X126762485Y-98028819D01*
X126762485Y-98009310D01*
X126747553Y-97973262D01*
X126719963Y-97945672D01*
X126683915Y-97930740D01*
X126664406Y-97928819D01*
X126168707Y-97930740D01*
X126132659Y-97945672D01*
X126105069Y-97973262D01*
X126090137Y-98009310D01*
X126088216Y-98028819D01*
X125857723Y-98028819D01*
X125857723Y-98009310D01*
X125842791Y-97973262D01*
X125815201Y-97945672D01*
X125779153Y-97930740D01*
X125759644Y-97928819D01*
X125263945Y-97930740D01*
X125227897Y-97945672D01*
X125200307Y-97973262D01*
X125185375Y-98009310D01*
X125183454Y-98028819D01*
X124852336Y-98028819D01*
X124827872Y-98005414D01*
X124820955Y-97997438D01*
X124816805Y-97994825D01*
X124815201Y-97993291D01*
X124812761Y-97992280D01*
X124804365Y-97986995D01*
X124721347Y-97947056D01*
X124719963Y-97945672D01*
X124709213Y-97941219D01*
X124690819Y-97932370D01*
X124687235Y-97932115D01*
X124683915Y-97930740D01*
X124664406Y-97928819D01*
X124263945Y-97930740D01*
X124227897Y-97945672D01*
X124200307Y-97973262D01*
X124185375Y-98009310D01*
X124183454Y-98028819D01*
X123940727Y-98028819D01*
X123933881Y-98015126D01*
X123904405Y-97989561D01*
X123886504Y-97981570D01*
X123743424Y-97935665D01*
X123731534Y-97930740D01*
X123726540Y-97930248D01*
X123724532Y-97929604D01*
X123721898Y-97929791D01*
X123712025Y-97928819D01*
X123489069Y-97930481D01*
X123486437Y-97929604D01*
X123472331Y-97930606D01*
X123454421Y-97930740D01*
X123451100Y-97932115D01*
X123447517Y-97932370D01*
X123429208Y-97939376D01*
X123334174Y-97988718D01*
X123323134Y-97993291D01*
X123319288Y-97996446D01*
X123317380Y-97997438D01*
X123315647Y-97999435D01*
X123307981Y-98005728D01*
X123260049Y-98055828D01*
X123252073Y-98062746D01*
X123249460Y-98066895D01*
X123247926Y-98068500D01*
X123246915Y-98070939D01*
X123241630Y-98079336D01*
X123201691Y-98162353D01*
X123200307Y-98163738D01*
X123195854Y-98174487D01*
X123187005Y-98192882D01*
X123186750Y-98196465D01*
X123185375Y-98199786D01*
X123183454Y-98219295D01*
X123072343Y-98219295D01*
X123072343Y-97817708D01*
X127875517Y-97817708D01*
X127875517Y-99239930D01*
G37*
G36*
X124326021Y-97741330D02*
G01*
X120808562Y-97741330D01*
X120808562Y-96530219D01*
X120919673Y-96530219D01*
X120921594Y-97549728D01*
X120936526Y-97585776D01*
X120964116Y-97613366D01*
X121000164Y-97628298D01*
X121039182Y-97628298D01*
X121075230Y-97613366D01*
X121102820Y-97585776D01*
X121117752Y-97549728D01*
X121119673Y-97530219D01*
X121118873Y-97106086D01*
X121492183Y-97104872D01*
X121493022Y-97549728D01*
X121507954Y-97585776D01*
X121535544Y-97613366D01*
X121571592Y-97628298D01*
X121610610Y-97628298D01*
X121646658Y-97613366D01*
X121674248Y-97585776D01*
X121689180Y-97549728D01*
X121691101Y-97530219D01*
X121689217Y-96530219D01*
X121967292Y-96530219D01*
X121969213Y-97549728D01*
X121984145Y-97585776D01*
X122011735Y-97613366D01*
X122047783Y-97628298D01*
X122086801Y-97628298D01*
X122122849Y-97613366D01*
X122150439Y-97585776D01*
X122165371Y-97549728D01*
X122167292Y-97530219D01*
X122166215Y-96958790D01*
X122395863Y-96958790D01*
X122397490Y-97096363D01*
X122395981Y-97106508D01*
X122397752Y-97118486D01*
X122397784Y-97121156D01*
X122398348Y-97122519D01*
X122398849Y-97125901D01*
X122446353Y-97308980D01*
X122447033Y-97318536D01*
X122452624Y-97333148D01*
X122453063Y-97334837D01*
X122453493Y-97335417D01*
X122454039Y-97336844D01*
X122503375Y-97431866D01*
X122507953Y-97442918D01*
X122511111Y-97446766D01*
X122512101Y-97448672D01*
X122514095Y-97450401D01*
X122520390Y-97458071D01*
X122606335Y-97541902D01*
X122607340Y-97543912D01*
X122616864Y-97552172D01*
X122630781Y-97565747D01*
X122634100Y-97567122D01*
X122636816Y-97569477D01*
X122654716Y-97577468D01*
X122797800Y-97623374D01*
X122809687Y-97628298D01*
X122814679Y-97628789D01*
X122816688Y-97629434D01*
X122819322Y-97629246D01*
X122829196Y-97630219D01*
X122925338Y-97628609D01*
X122936941Y-97629434D01*
X122941777Y-97628334D01*
X122943943Y-97628298D01*
X122946385Y-97627286D01*
X122956057Y-97625087D01*
X123084434Y-97580678D01*
X123086801Y-97580678D01*
X123098793Y-97575710D01*
X123116814Y-97569477D01*
X123119529Y-97567122D01*
X123122849Y-97565747D01*
X123138002Y-97553310D01*
X123198058Y-97490537D01*
X123212989Y-97454488D01*
X123214910Y-97434980D01*
X123212989Y-97082138D01*
X123198057Y-97046090D01*
X123170467Y-97018500D01*
X123134419Y-97003568D01*
X123114910Y-97001647D01*
X122904925Y-97003568D01*
X122868877Y-97018500D01*
X122841287Y-97046090D01*
X122826355Y-97082138D01*
X122826355Y-97121156D01*
X122841287Y-97157204D01*
X122868877Y-97184794D01*
X122904925Y-97199726D01*
X122924434Y-97201647D01*
X123015449Y-97200814D01*
X123016497Y-97393224D01*
X123014868Y-97394927D01*
X122912257Y-97430422D01*
X122848770Y-97431485D01*
X122742030Y-97397240D01*
X122674891Y-97331752D01*
X122639270Y-97263145D01*
X122595791Y-97095580D01*
X122594385Y-96976773D01*
X122634625Y-96809500D01*
X122670547Y-96734830D01*
X122737854Y-96665824D01*
X122841193Y-96630077D01*
X122946394Y-96628832D01*
X123040878Y-96674287D01*
X123079798Y-96677053D01*
X123116814Y-96664714D01*
X123146291Y-96639149D01*
X123163740Y-96604251D01*
X123166505Y-96565331D01*
X123154802Y-96530219D01*
X123443482Y-96530219D01*
X123445403Y-97549728D01*
X123460335Y-97585776D01*
X123487925Y-97613366D01*
X123523973Y-97628298D01*
X123562991Y-97628298D01*
X123599039Y-97613366D01*
X123626629Y-97585776D01*
X123641561Y-97549728D01*
X123643482Y-97530219D01*
X123642682Y-97106086D01*
X124015992Y-97104872D01*
X124016831Y-97549728D01*
X124031763Y-97585776D01*
X124059353Y-97613366D01*
X124095401Y-97628298D01*
X124134419Y-97628298D01*
X124170467Y-97613366D01*
X124198057Y-97585776D01*
X124212989Y-97549728D01*
X124214910Y-97530219D01*
X124212989Y-96510710D01*
X124198057Y-96474662D01*
X124170467Y-96447072D01*
X124134419Y-96432140D01*
X124095401Y-96432140D01*
X124059353Y-96447072D01*
X124031763Y-96474662D01*
X124016831Y-96510710D01*
X124014910Y-96530219D01*
X124015619Y-96906731D01*
X123642309Y-96907945D01*
X123641561Y-96510710D01*
X123626629Y-96474662D01*
X123599039Y-96447072D01*
X123562991Y-96432140D01*
X123523973Y-96432140D01*
X123487925Y-96447072D01*
X123460335Y-96474662D01*
X123445403Y-96510710D01*
X123443482Y-96530219D01*
X123154802Y-96530219D01*
X123154167Y-96528315D01*
X123128602Y-96498838D01*
X123112012Y-96488395D01*
X123028994Y-96448456D01*
X123027610Y-96447072D01*
X123016860Y-96442619D01*
X122998466Y-96433770D01*
X122994882Y-96433515D01*
X122991562Y-96432140D01*
X122972053Y-96430219D01*
X122829392Y-96431906D01*
X122816688Y-96431004D01*
X122811802Y-96432114D01*
X122809687Y-96432140D01*
X122807245Y-96433151D01*
X122797573Y-96435351D01*
X122669199Y-96479759D01*
X122666830Y-96479759D01*
X122654833Y-96484728D01*
X122636816Y-96490961D01*
X122634100Y-96493316D01*
X122630782Y-96494691D01*
X122615628Y-96507127D01*
X122521611Y-96603516D01*
X122512101Y-96611765D01*
X122509434Y-96616001D01*
X122507954Y-96617519D01*
X122506943Y-96619958D01*
X122501658Y-96628355D01*
X122458229Y-96718626D01*
X122453063Y-96725600D01*
X122447835Y-96740232D01*
X122447033Y-96741901D01*
X122446981Y-96742623D01*
X122446468Y-96744061D01*
X122401888Y-96929371D01*
X122397784Y-96939281D01*
X122396591Y-96951390D01*
X122395981Y-96953929D01*
X122396198Y-96955387D01*
X122395863Y-96958790D01*
X122166215Y-96958790D01*
X122165371Y-96510710D01*
X122150439Y-96474662D01*
X122122849Y-96447072D01*
X122086801Y-96432140D01*
X122047783Y-96432140D01*
X122011735Y-96447072D01*
X121984145Y-96474662D01*
X121969213Y-96510710D01*
X121967292Y-96530219D01*
X121689217Y-96530219D01*
X121689180Y-96510710D01*
X121674248Y-96474662D01*
X121646658Y-96447072D01*
X121610610Y-96432140D01*
X121571592Y-96432140D01*
X121535544Y-96447072D01*
X121507954Y-96474662D01*
X121493022Y-96510710D01*
X121491101Y-96530219D01*
X121491810Y-96906731D01*
X121118500Y-96907945D01*
X121117752Y-96510710D01*
X121102820Y-96474662D01*
X121075230Y-96447072D01*
X121039182Y-96432140D01*
X121000164Y-96432140D01*
X120964116Y-96447072D01*
X120936526Y-96474662D01*
X120921594Y-96510710D01*
X120919673Y-96530219D01*
X120808562Y-96530219D01*
X120808562Y-96319108D01*
X124326021Y-96319108D01*
X124326021Y-97741330D01*
G37*
D12*
X161922295Y-113833619D02*
X161922295Y-114643142D01*
X161922295Y-114643142D02*
X161969914Y-114738380D01*
X161969914Y-114738380D02*
X162017533Y-114786000D01*
X162017533Y-114786000D02*
X162112771Y-114833619D01*
X162112771Y-114833619D02*
X162303247Y-114833619D01*
X162303247Y-114833619D02*
X162398485Y-114786000D01*
X162398485Y-114786000D02*
X162446104Y-114738380D01*
X162446104Y-114738380D02*
X162493723Y-114643142D01*
X162493723Y-114643142D02*
X162493723Y-113833619D01*
X162874676Y-113833619D02*
X163541342Y-113833619D01*
X163541342Y-113833619D02*
X163112771Y-114833619D01*
D13*
X139203133Y-112043380D02*
X139155514Y-112091000D01*
X139155514Y-112091000D02*
X139012657Y-112138619D01*
X139012657Y-112138619D02*
X138917419Y-112138619D01*
X138917419Y-112138619D02*
X138774562Y-112091000D01*
X138774562Y-112091000D02*
X138679324Y-111995761D01*
X138679324Y-111995761D02*
X138631705Y-111900523D01*
X138631705Y-111900523D02*
X138584086Y-111710047D01*
X138584086Y-111710047D02*
X138584086Y-111567190D01*
X138584086Y-111567190D02*
X138631705Y-111376714D01*
X138631705Y-111376714D02*
X138679324Y-111281476D01*
X138679324Y-111281476D02*
X138774562Y-111186238D01*
X138774562Y-111186238D02*
X138917419Y-111138619D01*
X138917419Y-111138619D02*
X139012657Y-111138619D01*
X139012657Y-111138619D02*
X139155514Y-111186238D01*
X139155514Y-111186238D02*
X139203133Y-111233857D01*
X140060276Y-111138619D02*
X139869800Y-111138619D01*
X139869800Y-111138619D02*
X139774562Y-111186238D01*
X139774562Y-111186238D02*
X139726943Y-111233857D01*
X139726943Y-111233857D02*
X139631705Y-111376714D01*
X139631705Y-111376714D02*
X139584086Y-111567190D01*
X139584086Y-111567190D02*
X139584086Y-111948142D01*
X139584086Y-111948142D02*
X139631705Y-112043380D01*
X139631705Y-112043380D02*
X139679324Y-112091000D01*
X139679324Y-112091000D02*
X139774562Y-112138619D01*
X139774562Y-112138619D02*
X139965038Y-112138619D01*
X139965038Y-112138619D02*
X140060276Y-112091000D01*
X140060276Y-112091000D02*
X140107895Y-112043380D01*
X140107895Y-112043380D02*
X140155514Y-111948142D01*
X140155514Y-111948142D02*
X140155514Y-111710047D01*
X140155514Y-111710047D02*
X140107895Y-111614809D01*
X140107895Y-111614809D02*
X140060276Y-111567190D01*
X140060276Y-111567190D02*
X139965038Y-111519571D01*
X139965038Y-111519571D02*
X139774562Y-111519571D01*
X139774562Y-111519571D02*
X139679324Y-111567190D01*
X139679324Y-111567190D02*
X139631705Y-111614809D01*
X139631705Y-111614809D02*
X139584086Y-111710047D01*
X121231066Y-117996619D02*
X121231066Y-118710904D01*
X121231066Y-118710904D02*
X121183447Y-118853761D01*
X121183447Y-118853761D02*
X121088209Y-118949000D01*
X121088209Y-118949000D02*
X120945352Y-118996619D01*
X120945352Y-118996619D02*
X120850114Y-118996619D01*
X121659638Y-118091857D02*
X121707257Y-118044238D01*
X121707257Y-118044238D02*
X121802495Y-117996619D01*
X121802495Y-117996619D02*
X122040590Y-117996619D01*
X122040590Y-117996619D02*
X122135828Y-118044238D01*
X122135828Y-118044238D02*
X122183447Y-118091857D01*
X122183447Y-118091857D02*
X122231066Y-118187095D01*
X122231066Y-118187095D02*
X122231066Y-118282333D01*
X122231066Y-118282333D02*
X122183447Y-118425190D01*
X122183447Y-118425190D02*
X121612019Y-118996619D01*
X121612019Y-118996619D02*
X122231066Y-118996619D01*
X148691695Y-93130019D02*
X148691695Y-93939542D01*
X148691695Y-93939542D02*
X148739314Y-94034780D01*
X148739314Y-94034780D02*
X148786933Y-94082400D01*
X148786933Y-94082400D02*
X148882171Y-94130019D01*
X148882171Y-94130019D02*
X149072647Y-94130019D01*
X149072647Y-94130019D02*
X149167885Y-94082400D01*
X149167885Y-94082400D02*
X149215504Y-94034780D01*
X149215504Y-94034780D02*
X149263123Y-93939542D01*
X149263123Y-93939542D02*
X149263123Y-93130019D01*
X149691695Y-93225257D02*
X149739314Y-93177638D01*
X149739314Y-93177638D02*
X149834552Y-93130019D01*
X149834552Y-93130019D02*
X150072647Y-93130019D01*
X150072647Y-93130019D02*
X150167885Y-93177638D01*
X150167885Y-93177638D02*
X150215504Y-93225257D01*
X150215504Y-93225257D02*
X150263123Y-93320495D01*
X150263123Y-93320495D02*
X150263123Y-93415733D01*
X150263123Y-93415733D02*
X150215504Y-93558590D01*
X150215504Y-93558590D02*
X149644076Y-94130019D01*
X149644076Y-94130019D02*
X150263123Y-94130019D01*
X128092295Y-109919419D02*
X128092295Y-110728942D01*
X128092295Y-110728942D02*
X128139914Y-110824180D01*
X128139914Y-110824180D02*
X128187533Y-110871800D01*
X128187533Y-110871800D02*
X128282771Y-110919419D01*
X128282771Y-110919419D02*
X128473247Y-110919419D01*
X128473247Y-110919419D02*
X128568485Y-110871800D01*
X128568485Y-110871800D02*
X128616104Y-110824180D01*
X128616104Y-110824180D02*
X128663723Y-110728942D01*
X128663723Y-110728942D02*
X128663723Y-109919419D01*
X129568485Y-109919419D02*
X129378009Y-109919419D01*
X129378009Y-109919419D02*
X129282771Y-109967038D01*
X129282771Y-109967038D02*
X129235152Y-110014657D01*
X129235152Y-110014657D02*
X129139914Y-110157514D01*
X129139914Y-110157514D02*
X129092295Y-110347990D01*
X129092295Y-110347990D02*
X129092295Y-110728942D01*
X129092295Y-110728942D02*
X129139914Y-110824180D01*
X129139914Y-110824180D02*
X129187533Y-110871800D01*
X129187533Y-110871800D02*
X129282771Y-110919419D01*
X129282771Y-110919419D02*
X129473247Y-110919419D01*
X129473247Y-110919419D02*
X129568485Y-110871800D01*
X129568485Y-110871800D02*
X129616104Y-110824180D01*
X129616104Y-110824180D02*
X129663723Y-110728942D01*
X129663723Y-110728942D02*
X129663723Y-110490847D01*
X129663723Y-110490847D02*
X129616104Y-110395609D01*
X129616104Y-110395609D02*
X129568485Y-110347990D01*
X129568485Y-110347990D02*
X129473247Y-110300371D01*
X129473247Y-110300371D02*
X129282771Y-110300371D01*
X129282771Y-110300371D02*
X129187533Y-110347990D01*
X129187533Y-110347990D02*
X129139914Y-110395609D01*
X129139914Y-110395609D02*
X129092295Y-110490847D01*
X154559095Y-102985219D02*
X154559095Y-103794742D01*
X154559095Y-103794742D02*
X154606714Y-103889980D01*
X154606714Y-103889980D02*
X154654333Y-103937600D01*
X154654333Y-103937600D02*
X154749571Y-103985219D01*
X154749571Y-103985219D02*
X154940047Y-103985219D01*
X154940047Y-103985219D02*
X155035285Y-103937600D01*
X155035285Y-103937600D02*
X155082904Y-103889980D01*
X155082904Y-103889980D02*
X155130523Y-103794742D01*
X155130523Y-103794742D02*
X155130523Y-102985219D01*
X156082904Y-102985219D02*
X155606714Y-102985219D01*
X155606714Y-102985219D02*
X155559095Y-103461409D01*
X155559095Y-103461409D02*
X155606714Y-103413790D01*
X155606714Y-103413790D02*
X155701952Y-103366171D01*
X155701952Y-103366171D02*
X155940047Y-103366171D01*
X155940047Y-103366171D02*
X156035285Y-103413790D01*
X156035285Y-103413790D02*
X156082904Y-103461409D01*
X156082904Y-103461409D02*
X156130523Y-103556647D01*
X156130523Y-103556647D02*
X156130523Y-103794742D01*
X156130523Y-103794742D02*
X156082904Y-103889980D01*
X156082904Y-103889980D02*
X156035285Y-103937600D01*
X156035285Y-103937600D02*
X155940047Y-103985219D01*
X155940047Y-103985219D02*
X155701952Y-103985219D01*
X155701952Y-103985219D02*
X155606714Y-103937600D01*
X155606714Y-103937600D02*
X155559095Y-103889980D01*
X148361476Y-108883895D02*
X148361476Y-109531514D01*
X148361476Y-109531514D02*
X148399571Y-109607704D01*
X148399571Y-109607704D02*
X148437666Y-109645800D01*
X148437666Y-109645800D02*
X148513857Y-109683895D01*
X148513857Y-109683895D02*
X148666238Y-109683895D01*
X148666238Y-109683895D02*
X148742428Y-109645800D01*
X148742428Y-109645800D02*
X148780523Y-109607704D01*
X148780523Y-109607704D02*
X148818619Y-109531514D01*
X148818619Y-109531514D02*
X148818619Y-108883895D01*
X149618618Y-109683895D02*
X149161475Y-109683895D01*
X149390047Y-109683895D02*
X149390047Y-108883895D01*
X149390047Y-108883895D02*
X149313856Y-108998180D01*
X149313856Y-108998180D02*
X149237666Y-109074371D01*
X149237666Y-109074371D02*
X149161475Y-109112466D01*
X150836333Y-100537180D02*
X150788714Y-100584800D01*
X150788714Y-100584800D02*
X150645857Y-100632419D01*
X150645857Y-100632419D02*
X150550619Y-100632419D01*
X150550619Y-100632419D02*
X150407762Y-100584800D01*
X150407762Y-100584800D02*
X150312524Y-100489561D01*
X150312524Y-100489561D02*
X150264905Y-100394323D01*
X150264905Y-100394323D02*
X150217286Y-100203847D01*
X150217286Y-100203847D02*
X150217286Y-100060990D01*
X150217286Y-100060990D02*
X150264905Y-99870514D01*
X150264905Y-99870514D02*
X150312524Y-99775276D01*
X150312524Y-99775276D02*
X150407762Y-99680038D01*
X150407762Y-99680038D02*
X150550619Y-99632419D01*
X150550619Y-99632419D02*
X150645857Y-99632419D01*
X150645857Y-99632419D02*
X150788714Y-99680038D01*
X150788714Y-99680038D02*
X150836333Y-99727657D01*
X151693476Y-99965752D02*
X151693476Y-100632419D01*
X151455381Y-99584800D02*
X151217286Y-100299085D01*
X151217286Y-100299085D02*
X151836333Y-100299085D01*
X145172133Y-111916380D02*
X145124514Y-111964000D01*
X145124514Y-111964000D02*
X144981657Y-112011619D01*
X144981657Y-112011619D02*
X144886419Y-112011619D01*
X144886419Y-112011619D02*
X144743562Y-111964000D01*
X144743562Y-111964000D02*
X144648324Y-111868761D01*
X144648324Y-111868761D02*
X144600705Y-111773523D01*
X144600705Y-111773523D02*
X144553086Y-111583047D01*
X144553086Y-111583047D02*
X144553086Y-111440190D01*
X144553086Y-111440190D02*
X144600705Y-111249714D01*
X144600705Y-111249714D02*
X144648324Y-111154476D01*
X144648324Y-111154476D02*
X144743562Y-111059238D01*
X144743562Y-111059238D02*
X144886419Y-111011619D01*
X144886419Y-111011619D02*
X144981657Y-111011619D01*
X144981657Y-111011619D02*
X145124514Y-111059238D01*
X145124514Y-111059238D02*
X145172133Y-111106857D01*
X146076895Y-111011619D02*
X145600705Y-111011619D01*
X145600705Y-111011619D02*
X145553086Y-111487809D01*
X145553086Y-111487809D02*
X145600705Y-111440190D01*
X145600705Y-111440190D02*
X145695943Y-111392571D01*
X145695943Y-111392571D02*
X145934038Y-111392571D01*
X145934038Y-111392571D02*
X146029276Y-111440190D01*
X146029276Y-111440190D02*
X146076895Y-111487809D01*
X146076895Y-111487809D02*
X146124514Y-111583047D01*
X146124514Y-111583047D02*
X146124514Y-111821142D01*
X146124514Y-111821142D02*
X146076895Y-111916380D01*
X146076895Y-111916380D02*
X146029276Y-111964000D01*
X146029276Y-111964000D02*
X145934038Y-112011619D01*
X145934038Y-112011619D02*
X145695943Y-112011619D01*
X145695943Y-112011619D02*
X145600705Y-111964000D01*
X145600705Y-111964000D02*
X145553086Y-111916380D01*
X131502161Y-104893257D02*
X131406923Y-104845638D01*
X131406923Y-104845638D02*
X131311685Y-104750400D01*
X131311685Y-104750400D02*
X131168828Y-104607542D01*
X131168828Y-104607542D02*
X131073590Y-104559923D01*
X131073590Y-104559923D02*
X130978352Y-104559923D01*
X131025971Y-104798019D02*
X130930733Y-104750400D01*
X130930733Y-104750400D02*
X130835495Y-104655161D01*
X130835495Y-104655161D02*
X130787876Y-104464685D01*
X130787876Y-104464685D02*
X130787876Y-104131352D01*
X130787876Y-104131352D02*
X130835495Y-103940876D01*
X130835495Y-103940876D02*
X130930733Y-103845638D01*
X130930733Y-103845638D02*
X131025971Y-103798019D01*
X131025971Y-103798019D02*
X131216447Y-103798019D01*
X131216447Y-103798019D02*
X131311685Y-103845638D01*
X131311685Y-103845638D02*
X131406923Y-103940876D01*
X131406923Y-103940876D02*
X131454542Y-104131352D01*
X131454542Y-104131352D02*
X131454542Y-104464685D01*
X131454542Y-104464685D02*
X131406923Y-104655161D01*
X131406923Y-104655161D02*
X131311685Y-104750400D01*
X131311685Y-104750400D02*
X131216447Y-104798019D01*
X131216447Y-104798019D02*
X131025971Y-104798019D01*
X132406923Y-104798019D02*
X131835495Y-104798019D01*
X132121209Y-104798019D02*
X132121209Y-103798019D01*
X132121209Y-103798019D02*
X132025971Y-103940876D01*
X132025971Y-103940876D02*
X131930733Y-104036114D01*
X131930733Y-104036114D02*
X131835495Y-104083733D01*
X128541542Y-112849819D02*
X128208209Y-112373628D01*
X127970114Y-112849819D02*
X127970114Y-111849819D01*
X127970114Y-111849819D02*
X128351066Y-111849819D01*
X128351066Y-111849819D02*
X128446304Y-111897438D01*
X128446304Y-111897438D02*
X128493923Y-111945057D01*
X128493923Y-111945057D02*
X128541542Y-112040295D01*
X128541542Y-112040295D02*
X128541542Y-112183152D01*
X128541542Y-112183152D02*
X128493923Y-112278390D01*
X128493923Y-112278390D02*
X128446304Y-112326009D01*
X128446304Y-112326009D02*
X128351066Y-112373628D01*
X128351066Y-112373628D02*
X127970114Y-112373628D01*
X129493923Y-112849819D02*
X128922495Y-112849819D01*
X129208209Y-112849819D02*
X129208209Y-111849819D01*
X129208209Y-111849819D02*
X129112971Y-111992676D01*
X129112971Y-111992676D02*
X129017733Y-112087914D01*
X129017733Y-112087914D02*
X128922495Y-112135533D01*
X130112971Y-111849819D02*
X130208209Y-111849819D01*
X130208209Y-111849819D02*
X130303447Y-111897438D01*
X130303447Y-111897438D02*
X130351066Y-111945057D01*
X130351066Y-111945057D02*
X130398685Y-112040295D01*
X130398685Y-112040295D02*
X130446304Y-112230771D01*
X130446304Y-112230771D02*
X130446304Y-112468866D01*
X130446304Y-112468866D02*
X130398685Y-112659342D01*
X130398685Y-112659342D02*
X130351066Y-112754580D01*
X130351066Y-112754580D02*
X130303447Y-112802200D01*
X130303447Y-112802200D02*
X130208209Y-112849819D01*
X130208209Y-112849819D02*
X130112971Y-112849819D01*
X130112971Y-112849819D02*
X130017733Y-112802200D01*
X130017733Y-112802200D02*
X129970114Y-112754580D01*
X129970114Y-112754580D02*
X129922495Y-112659342D01*
X129922495Y-112659342D02*
X129874876Y-112468866D01*
X129874876Y-112468866D02*
X129874876Y-112230771D01*
X129874876Y-112230771D02*
X129922495Y-112040295D01*
X129922495Y-112040295D02*
X129970114Y-111945057D01*
X129970114Y-111945057D02*
X130017733Y-111897438D01*
X130017733Y-111897438D02*
X130112971Y-111849819D01*
X158716742Y-114094419D02*
X158383409Y-113618228D01*
X158145314Y-114094419D02*
X158145314Y-113094419D01*
X158145314Y-113094419D02*
X158526266Y-113094419D01*
X158526266Y-113094419D02*
X158621504Y-113142038D01*
X158621504Y-113142038D02*
X158669123Y-113189657D01*
X158669123Y-113189657D02*
X158716742Y-113284895D01*
X158716742Y-113284895D02*
X158716742Y-113427752D01*
X158716742Y-113427752D02*
X158669123Y-113522990D01*
X158669123Y-113522990D02*
X158621504Y-113570609D01*
X158621504Y-113570609D02*
X158526266Y-113618228D01*
X158526266Y-113618228D02*
X158145314Y-113618228D01*
X159669123Y-114094419D02*
X159097695Y-114094419D01*
X159383409Y-114094419D02*
X159383409Y-113094419D01*
X159383409Y-113094419D02*
X159288171Y-113237276D01*
X159288171Y-113237276D02*
X159192933Y-113332514D01*
X159192933Y-113332514D02*
X159097695Y-113380133D01*
X160050076Y-113189657D02*
X160097695Y-113142038D01*
X160097695Y-113142038D02*
X160192933Y-113094419D01*
X160192933Y-113094419D02*
X160431028Y-113094419D01*
X160431028Y-113094419D02*
X160526266Y-113142038D01*
X160526266Y-113142038D02*
X160573885Y-113189657D01*
X160573885Y-113189657D02*
X160621504Y-113284895D01*
X160621504Y-113284895D02*
X160621504Y-113380133D01*
X160621504Y-113380133D02*
X160573885Y-113522990D01*
X160573885Y-113522990D02*
X160002457Y-114094419D01*
X160002457Y-114094419D02*
X160621504Y-114094419D01*
X152411133Y-103274019D02*
X152077800Y-102797828D01*
X151839705Y-103274019D02*
X151839705Y-102274019D01*
X151839705Y-102274019D02*
X152220657Y-102274019D01*
X152220657Y-102274019D02*
X152315895Y-102321638D01*
X152315895Y-102321638D02*
X152363514Y-102369257D01*
X152363514Y-102369257D02*
X152411133Y-102464495D01*
X152411133Y-102464495D02*
X152411133Y-102607352D01*
X152411133Y-102607352D02*
X152363514Y-102702590D01*
X152363514Y-102702590D02*
X152315895Y-102750209D01*
X152315895Y-102750209D02*
X152220657Y-102797828D01*
X152220657Y-102797828D02*
X151839705Y-102797828D01*
X152982562Y-102702590D02*
X152887324Y-102654971D01*
X152887324Y-102654971D02*
X152839705Y-102607352D01*
X152839705Y-102607352D02*
X152792086Y-102512114D01*
X152792086Y-102512114D02*
X152792086Y-102464495D01*
X152792086Y-102464495D02*
X152839705Y-102369257D01*
X152839705Y-102369257D02*
X152887324Y-102321638D01*
X152887324Y-102321638D02*
X152982562Y-102274019D01*
X152982562Y-102274019D02*
X153173038Y-102274019D01*
X153173038Y-102274019D02*
X153268276Y-102321638D01*
X153268276Y-102321638D02*
X153315895Y-102369257D01*
X153315895Y-102369257D02*
X153363514Y-102464495D01*
X153363514Y-102464495D02*
X153363514Y-102512114D01*
X153363514Y-102512114D02*
X153315895Y-102607352D01*
X153315895Y-102607352D02*
X153268276Y-102654971D01*
X153268276Y-102654971D02*
X153173038Y-102702590D01*
X153173038Y-102702590D02*
X152982562Y-102702590D01*
X152982562Y-102702590D02*
X152887324Y-102750209D01*
X152887324Y-102750209D02*
X152839705Y-102797828D01*
X152839705Y-102797828D02*
X152792086Y-102893066D01*
X152792086Y-102893066D02*
X152792086Y-103083542D01*
X152792086Y-103083542D02*
X152839705Y-103178780D01*
X152839705Y-103178780D02*
X152887324Y-103226400D01*
X152887324Y-103226400D02*
X152982562Y-103274019D01*
X152982562Y-103274019D02*
X153173038Y-103274019D01*
X153173038Y-103274019D02*
X153268276Y-103226400D01*
X153268276Y-103226400D02*
X153315895Y-103178780D01*
X153315895Y-103178780D02*
X153363514Y-103083542D01*
X153363514Y-103083542D02*
X153363514Y-102893066D01*
X153363514Y-102893066D02*
X153315895Y-102797828D01*
X153315895Y-102797828D02*
X153268276Y-102750209D01*
X153268276Y-102750209D02*
X153173038Y-102702590D01*
X131811733Y-100714980D02*
X131764114Y-100762600D01*
X131764114Y-100762600D02*
X131621257Y-100810219D01*
X131621257Y-100810219D02*
X131526019Y-100810219D01*
X131526019Y-100810219D02*
X131383162Y-100762600D01*
X131383162Y-100762600D02*
X131287924Y-100667361D01*
X131287924Y-100667361D02*
X131240305Y-100572123D01*
X131240305Y-100572123D02*
X131192686Y-100381647D01*
X131192686Y-100381647D02*
X131192686Y-100238790D01*
X131192686Y-100238790D02*
X131240305Y-100048314D01*
X131240305Y-100048314D02*
X131287924Y-99953076D01*
X131287924Y-99953076D02*
X131383162Y-99857838D01*
X131383162Y-99857838D02*
X131526019Y-99810219D01*
X131526019Y-99810219D02*
X131621257Y-99810219D01*
X131621257Y-99810219D02*
X131764114Y-99857838D01*
X131764114Y-99857838D02*
X131811733Y-99905457D01*
X132192686Y-99905457D02*
X132240305Y-99857838D01*
X132240305Y-99857838D02*
X132335543Y-99810219D01*
X132335543Y-99810219D02*
X132573638Y-99810219D01*
X132573638Y-99810219D02*
X132668876Y-99857838D01*
X132668876Y-99857838D02*
X132716495Y-99905457D01*
X132716495Y-99905457D02*
X132764114Y-100000695D01*
X132764114Y-100000695D02*
X132764114Y-100095933D01*
X132764114Y-100095933D02*
X132716495Y-100238790D01*
X132716495Y-100238790D02*
X132145067Y-100810219D01*
X132145067Y-100810219D02*
X132764114Y-100810219D01*
X135012133Y-108481019D02*
X134678800Y-108004828D01*
X134440705Y-108481019D02*
X134440705Y-107481019D01*
X134440705Y-107481019D02*
X134821657Y-107481019D01*
X134821657Y-107481019D02*
X134916895Y-107528638D01*
X134916895Y-107528638D02*
X134964514Y-107576257D01*
X134964514Y-107576257D02*
X135012133Y-107671495D01*
X135012133Y-107671495D02*
X135012133Y-107814352D01*
X135012133Y-107814352D02*
X134964514Y-107909590D01*
X134964514Y-107909590D02*
X134916895Y-107957209D01*
X134916895Y-107957209D02*
X134821657Y-108004828D01*
X134821657Y-108004828D02*
X134440705Y-108004828D01*
X135964514Y-108481019D02*
X135393086Y-108481019D01*
X135678800Y-108481019D02*
X135678800Y-107481019D01*
X135678800Y-107481019D02*
X135583562Y-107623876D01*
X135583562Y-107623876D02*
X135488324Y-107719114D01*
X135488324Y-107719114D02*
X135393086Y-107766733D01*
X136866333Y-99362419D02*
X136533000Y-98886228D01*
X136294905Y-99362419D02*
X136294905Y-98362419D01*
X136294905Y-98362419D02*
X136675857Y-98362419D01*
X136675857Y-98362419D02*
X136771095Y-98410038D01*
X136771095Y-98410038D02*
X136818714Y-98457657D01*
X136818714Y-98457657D02*
X136866333Y-98552895D01*
X136866333Y-98552895D02*
X136866333Y-98695752D01*
X136866333Y-98695752D02*
X136818714Y-98790990D01*
X136818714Y-98790990D02*
X136771095Y-98838609D01*
X136771095Y-98838609D02*
X136675857Y-98886228D01*
X136675857Y-98886228D02*
X136294905Y-98886228D01*
X137771095Y-98362419D02*
X137294905Y-98362419D01*
X137294905Y-98362419D02*
X137247286Y-98838609D01*
X137247286Y-98838609D02*
X137294905Y-98790990D01*
X137294905Y-98790990D02*
X137390143Y-98743371D01*
X137390143Y-98743371D02*
X137628238Y-98743371D01*
X137628238Y-98743371D02*
X137723476Y-98790990D01*
X137723476Y-98790990D02*
X137771095Y-98838609D01*
X137771095Y-98838609D02*
X137818714Y-98933847D01*
X137818714Y-98933847D02*
X137818714Y-99171942D01*
X137818714Y-99171942D02*
X137771095Y-99267180D01*
X137771095Y-99267180D02*
X137723476Y-99314800D01*
X137723476Y-99314800D02*
X137628238Y-99362419D01*
X137628238Y-99362419D02*
X137390143Y-99362419D01*
X137390143Y-99362419D02*
X137294905Y-99314800D01*
X137294905Y-99314800D02*
X137247286Y-99267180D01*
X151674533Y-105280619D02*
X151341200Y-104804428D01*
X151103105Y-105280619D02*
X151103105Y-104280619D01*
X151103105Y-104280619D02*
X151484057Y-104280619D01*
X151484057Y-104280619D02*
X151579295Y-104328238D01*
X151579295Y-104328238D02*
X151626914Y-104375857D01*
X151626914Y-104375857D02*
X151674533Y-104471095D01*
X151674533Y-104471095D02*
X151674533Y-104613952D01*
X151674533Y-104613952D02*
X151626914Y-104709190D01*
X151626914Y-104709190D02*
X151579295Y-104756809D01*
X151579295Y-104756809D02*
X151484057Y-104804428D01*
X151484057Y-104804428D02*
X151103105Y-104804428D01*
X152531676Y-104613952D02*
X152531676Y-105280619D01*
X152293581Y-104233000D02*
X152055486Y-104947285D01*
X152055486Y-104947285D02*
X152674533Y-104947285D01*
X121307266Y-116625019D02*
X121307266Y-117339304D01*
X121307266Y-117339304D02*
X121259647Y-117482161D01*
X121259647Y-117482161D02*
X121164409Y-117577400D01*
X121164409Y-117577400D02*
X121021552Y-117625019D01*
X121021552Y-117625019D02*
X120926314Y-117625019D01*
X122307266Y-117625019D02*
X121735838Y-117625019D01*
X122021552Y-117625019D02*
X122021552Y-116625019D01*
X122021552Y-116625019D02*
X121926314Y-116767876D01*
X121926314Y-116767876D02*
X121831076Y-116863114D01*
X121831076Y-116863114D02*
X121735838Y-116910733D01*
X156767305Y-119352219D02*
X156767305Y-118352219D01*
X156767305Y-118352219D02*
X157005400Y-118352219D01*
X157005400Y-118352219D02*
X157148257Y-118399838D01*
X157148257Y-118399838D02*
X157243495Y-118495076D01*
X157243495Y-118495076D02*
X157291114Y-118590314D01*
X157291114Y-118590314D02*
X157338733Y-118780790D01*
X157338733Y-118780790D02*
X157338733Y-118923647D01*
X157338733Y-118923647D02*
X157291114Y-119114123D01*
X157291114Y-119114123D02*
X157243495Y-119209361D01*
X157243495Y-119209361D02*
X157148257Y-119304600D01*
X157148257Y-119304600D02*
X157005400Y-119352219D01*
X157005400Y-119352219D02*
X156767305Y-119352219D01*
X158291114Y-119352219D02*
X157719686Y-119352219D01*
X158005400Y-119352219D02*
X158005400Y-118352219D01*
X158005400Y-118352219D02*
X157910162Y-118495076D01*
X157910162Y-118495076D02*
X157814924Y-118590314D01*
X157814924Y-118590314D02*
X157719686Y-118637933D01*
X131145066Y-113164209D02*
X130811733Y-113164209D01*
X130811733Y-113688019D02*
X130811733Y-112688019D01*
X130811733Y-112688019D02*
X131287923Y-112688019D01*
X132002209Y-113164209D02*
X132145066Y-113211828D01*
X132145066Y-113211828D02*
X132192685Y-113259447D01*
X132192685Y-113259447D02*
X132240304Y-113354685D01*
X132240304Y-113354685D02*
X132240304Y-113497542D01*
X132240304Y-113497542D02*
X132192685Y-113592780D01*
X132192685Y-113592780D02*
X132145066Y-113640400D01*
X132145066Y-113640400D02*
X132049828Y-113688019D01*
X132049828Y-113688019D02*
X131668876Y-113688019D01*
X131668876Y-113688019D02*
X131668876Y-112688019D01*
X131668876Y-112688019D02*
X132002209Y-112688019D01*
X132002209Y-112688019D02*
X132097447Y-112735638D01*
X132097447Y-112735638D02*
X132145066Y-112783257D01*
X132145066Y-112783257D02*
X132192685Y-112878495D01*
X132192685Y-112878495D02*
X132192685Y-112973733D01*
X132192685Y-112973733D02*
X132145066Y-113068971D01*
X132145066Y-113068971D02*
X132097447Y-113116590D01*
X132097447Y-113116590D02*
X132002209Y-113164209D01*
X132002209Y-113164209D02*
X131668876Y-113164209D01*
X133192685Y-113688019D02*
X132621257Y-113688019D01*
X132906971Y-113688019D02*
X132906971Y-112688019D01*
X132906971Y-112688019D02*
X132811733Y-112830876D01*
X132811733Y-112830876D02*
X132716495Y-112926114D01*
X132716495Y-112926114D02*
X132621257Y-112973733D01*
X129082895Y-99835619D02*
X129082895Y-100645142D01*
X129082895Y-100645142D02*
X129130514Y-100740380D01*
X129130514Y-100740380D02*
X129178133Y-100788000D01*
X129178133Y-100788000D02*
X129273371Y-100835619D01*
X129273371Y-100835619D02*
X129463847Y-100835619D01*
X129463847Y-100835619D02*
X129559085Y-100788000D01*
X129559085Y-100788000D02*
X129606704Y-100740380D01*
X129606704Y-100740380D02*
X129654323Y-100645142D01*
X129654323Y-100645142D02*
X129654323Y-99835619D01*
X130559085Y-100168952D02*
X130559085Y-100835619D01*
X130320990Y-99788000D02*
X130082895Y-100502285D01*
X130082895Y-100502285D02*
X130701942Y-100502285D01*
X153928866Y-110040009D02*
X153595533Y-110040009D01*
X153595533Y-110563819D02*
X153595533Y-109563819D01*
X153595533Y-109563819D02*
X154071723Y-109563819D01*
X154786009Y-110040009D02*
X154928866Y-110087628D01*
X154928866Y-110087628D02*
X154976485Y-110135247D01*
X154976485Y-110135247D02*
X155024104Y-110230485D01*
X155024104Y-110230485D02*
X155024104Y-110373342D01*
X155024104Y-110373342D02*
X154976485Y-110468580D01*
X154976485Y-110468580D02*
X154928866Y-110516200D01*
X154928866Y-110516200D02*
X154833628Y-110563819D01*
X154833628Y-110563819D02*
X154452676Y-110563819D01*
X154452676Y-110563819D02*
X154452676Y-109563819D01*
X154452676Y-109563819D02*
X154786009Y-109563819D01*
X154786009Y-109563819D02*
X154881247Y-109611438D01*
X154881247Y-109611438D02*
X154928866Y-109659057D01*
X154928866Y-109659057D02*
X154976485Y-109754295D01*
X154976485Y-109754295D02*
X154976485Y-109849533D01*
X154976485Y-109849533D02*
X154928866Y-109944771D01*
X154928866Y-109944771D02*
X154881247Y-109992390D01*
X154881247Y-109992390D02*
X154786009Y-110040009D01*
X154786009Y-110040009D02*
X154452676Y-110040009D01*
X155405057Y-109659057D02*
X155452676Y-109611438D01*
X155452676Y-109611438D02*
X155547914Y-109563819D01*
X155547914Y-109563819D02*
X155786009Y-109563819D01*
X155786009Y-109563819D02*
X155881247Y-109611438D01*
X155881247Y-109611438D02*
X155928866Y-109659057D01*
X155928866Y-109659057D02*
X155976485Y-109754295D01*
X155976485Y-109754295D02*
X155976485Y-109849533D01*
X155976485Y-109849533D02*
X155928866Y-109992390D01*
X155928866Y-109992390D02*
X155357438Y-110563819D01*
X155357438Y-110563819D02*
X155976485Y-110563819D01*
X131240305Y-117065219D02*
X131240305Y-116065219D01*
X131240305Y-116065219D02*
X131478400Y-116065219D01*
X131478400Y-116065219D02*
X131621257Y-116112838D01*
X131621257Y-116112838D02*
X131716495Y-116208076D01*
X131716495Y-116208076D02*
X131764114Y-116303314D01*
X131764114Y-116303314D02*
X131811733Y-116493790D01*
X131811733Y-116493790D02*
X131811733Y-116636647D01*
X131811733Y-116636647D02*
X131764114Y-116827123D01*
X131764114Y-116827123D02*
X131716495Y-116922361D01*
X131716495Y-116922361D02*
X131621257Y-117017600D01*
X131621257Y-117017600D02*
X131478400Y-117065219D01*
X131478400Y-117065219D02*
X131240305Y-117065219D01*
X132192686Y-116160457D02*
X132240305Y-116112838D01*
X132240305Y-116112838D02*
X132335543Y-116065219D01*
X132335543Y-116065219D02*
X132573638Y-116065219D01*
X132573638Y-116065219D02*
X132668876Y-116112838D01*
X132668876Y-116112838D02*
X132716495Y-116160457D01*
X132716495Y-116160457D02*
X132764114Y-116255695D01*
X132764114Y-116255695D02*
X132764114Y-116350933D01*
X132764114Y-116350933D02*
X132716495Y-116493790D01*
X132716495Y-116493790D02*
X132145067Y-117065219D01*
X132145067Y-117065219D02*
X132764114Y-117065219D01*
X160029495Y-96441419D02*
X160029495Y-95441419D01*
X160029495Y-95917609D02*
X160600923Y-95917609D01*
X160600923Y-96441419D02*
X160600923Y-95441419D01*
X161600923Y-96441419D02*
X161029495Y-96441419D01*
X161315209Y-96441419D02*
X161315209Y-95441419D01*
X161315209Y-95441419D02*
X161219971Y-95584276D01*
X161219971Y-95584276D02*
X161124733Y-95679514D01*
X161124733Y-95679514D02*
X161029495Y-95727133D01*
X149058333Y-107490419D02*
X148725000Y-107014228D01*
X148486905Y-107490419D02*
X148486905Y-106490419D01*
X148486905Y-106490419D02*
X148867857Y-106490419D01*
X148867857Y-106490419D02*
X148963095Y-106538038D01*
X148963095Y-106538038D02*
X149010714Y-106585657D01*
X149010714Y-106585657D02*
X149058333Y-106680895D01*
X149058333Y-106680895D02*
X149058333Y-106823752D01*
X149058333Y-106823752D02*
X149010714Y-106918990D01*
X149010714Y-106918990D02*
X148963095Y-106966609D01*
X148963095Y-106966609D02*
X148867857Y-107014228D01*
X148867857Y-107014228D02*
X148486905Y-107014228D01*
X149915476Y-106490419D02*
X149725000Y-106490419D01*
X149725000Y-106490419D02*
X149629762Y-106538038D01*
X149629762Y-106538038D02*
X149582143Y-106585657D01*
X149582143Y-106585657D02*
X149486905Y-106728514D01*
X149486905Y-106728514D02*
X149439286Y-106918990D01*
X149439286Y-106918990D02*
X149439286Y-107299942D01*
X149439286Y-107299942D02*
X149486905Y-107395180D01*
X149486905Y-107395180D02*
X149534524Y-107442800D01*
X149534524Y-107442800D02*
X149629762Y-107490419D01*
X149629762Y-107490419D02*
X149820238Y-107490419D01*
X149820238Y-107490419D02*
X149915476Y-107442800D01*
X149915476Y-107442800D02*
X149963095Y-107395180D01*
X149963095Y-107395180D02*
X150010714Y-107299942D01*
X150010714Y-107299942D02*
X150010714Y-107061847D01*
X150010714Y-107061847D02*
X149963095Y-106966609D01*
X149963095Y-106966609D02*
X149915476Y-106918990D01*
X149915476Y-106918990D02*
X149820238Y-106871371D01*
X149820238Y-106871371D02*
X149629762Y-106871371D01*
X149629762Y-106871371D02*
X149534524Y-106918990D01*
X149534524Y-106918990D02*
X149486905Y-106966609D01*
X149486905Y-106966609D02*
X149439286Y-107061847D01*
D12*
X154355895Y-119091419D02*
X154355895Y-119900942D01*
X154355895Y-119900942D02*
X154403514Y-119996180D01*
X154403514Y-119996180D02*
X154451133Y-120043800D01*
X154451133Y-120043800D02*
X154546371Y-120091419D01*
X154546371Y-120091419D02*
X154736847Y-120091419D01*
X154736847Y-120091419D02*
X154832085Y-120043800D01*
X154832085Y-120043800D02*
X154879704Y-119996180D01*
X154879704Y-119996180D02*
X154927323Y-119900942D01*
X154927323Y-119900942D02*
X154927323Y-119091419D01*
X155308276Y-119091419D02*
X155927323Y-119091419D01*
X155927323Y-119091419D02*
X155593990Y-119472371D01*
X155593990Y-119472371D02*
X155736847Y-119472371D01*
X155736847Y-119472371D02*
X155832085Y-119519990D01*
X155832085Y-119519990D02*
X155879704Y-119567609D01*
X155879704Y-119567609D02*
X155927323Y-119662847D01*
X155927323Y-119662847D02*
X155927323Y-119900942D01*
X155927323Y-119900942D02*
X155879704Y-119996180D01*
X155879704Y-119996180D02*
X155832085Y-120043800D01*
X155832085Y-120043800D02*
X155736847Y-120091419D01*
X155736847Y-120091419D02*
X155451133Y-120091419D01*
X155451133Y-120091419D02*
X155355895Y-120043800D01*
X155355895Y-120043800D02*
X155308276Y-119996180D01*
D13*
X154405105Y-118006019D02*
X154405105Y-117006019D01*
X154405105Y-117006019D02*
X154643200Y-117006019D01*
X154643200Y-117006019D02*
X154786057Y-117053638D01*
X154786057Y-117053638D02*
X154881295Y-117148876D01*
X154881295Y-117148876D02*
X154928914Y-117244114D01*
X154928914Y-117244114D02*
X154976533Y-117434590D01*
X154976533Y-117434590D02*
X154976533Y-117577447D01*
X154976533Y-117577447D02*
X154928914Y-117767923D01*
X154928914Y-117767923D02*
X154881295Y-117863161D01*
X154881295Y-117863161D02*
X154786057Y-117958400D01*
X154786057Y-117958400D02*
X154643200Y-118006019D01*
X154643200Y-118006019D02*
X154405105Y-118006019D01*
X155309867Y-117006019D02*
X155928914Y-117006019D01*
X155928914Y-117006019D02*
X155595581Y-117386971D01*
X155595581Y-117386971D02*
X155738438Y-117386971D01*
X155738438Y-117386971D02*
X155833676Y-117434590D01*
X155833676Y-117434590D02*
X155881295Y-117482209D01*
X155881295Y-117482209D02*
X155928914Y-117577447D01*
X155928914Y-117577447D02*
X155928914Y-117815542D01*
X155928914Y-117815542D02*
X155881295Y-117910780D01*
X155881295Y-117910780D02*
X155833676Y-117958400D01*
X155833676Y-117958400D02*
X155738438Y-118006019D01*
X155738438Y-118006019D02*
X155452724Y-118006019D01*
X155452724Y-118006019D02*
X155357486Y-117958400D01*
X155357486Y-117958400D02*
X155309867Y-117910780D01*
X135012133Y-107414219D02*
X134678800Y-106938028D01*
X134440705Y-107414219D02*
X134440705Y-106414219D01*
X134440705Y-106414219D02*
X134821657Y-106414219D01*
X134821657Y-106414219D02*
X134916895Y-106461838D01*
X134916895Y-106461838D02*
X134964514Y-106509457D01*
X134964514Y-106509457D02*
X135012133Y-106604695D01*
X135012133Y-106604695D02*
X135012133Y-106747552D01*
X135012133Y-106747552D02*
X134964514Y-106842790D01*
X134964514Y-106842790D02*
X134916895Y-106890409D01*
X134916895Y-106890409D02*
X134821657Y-106938028D01*
X134821657Y-106938028D02*
X134440705Y-106938028D01*
X135393086Y-106509457D02*
X135440705Y-106461838D01*
X135440705Y-106461838D02*
X135535943Y-106414219D01*
X135535943Y-106414219D02*
X135774038Y-106414219D01*
X135774038Y-106414219D02*
X135869276Y-106461838D01*
X135869276Y-106461838D02*
X135916895Y-106509457D01*
X135916895Y-106509457D02*
X135964514Y-106604695D01*
X135964514Y-106604695D02*
X135964514Y-106699933D01*
X135964514Y-106699933D02*
X135916895Y-106842790D01*
X135916895Y-106842790D02*
X135345467Y-107414219D01*
X135345467Y-107414219D02*
X135964514Y-107414219D01*
X150785533Y-98428980D02*
X150737914Y-98476600D01*
X150737914Y-98476600D02*
X150595057Y-98524219D01*
X150595057Y-98524219D02*
X150499819Y-98524219D01*
X150499819Y-98524219D02*
X150356962Y-98476600D01*
X150356962Y-98476600D02*
X150261724Y-98381361D01*
X150261724Y-98381361D02*
X150214105Y-98286123D01*
X150214105Y-98286123D02*
X150166486Y-98095647D01*
X150166486Y-98095647D02*
X150166486Y-97952790D01*
X150166486Y-97952790D02*
X150214105Y-97762314D01*
X150214105Y-97762314D02*
X150261724Y-97667076D01*
X150261724Y-97667076D02*
X150356962Y-97571838D01*
X150356962Y-97571838D02*
X150499819Y-97524219D01*
X150499819Y-97524219D02*
X150595057Y-97524219D01*
X150595057Y-97524219D02*
X150737914Y-97571838D01*
X150737914Y-97571838D02*
X150785533Y-97619457D01*
X151118867Y-97524219D02*
X151737914Y-97524219D01*
X151737914Y-97524219D02*
X151404581Y-97905171D01*
X151404581Y-97905171D02*
X151547438Y-97905171D01*
X151547438Y-97905171D02*
X151642676Y-97952790D01*
X151642676Y-97952790D02*
X151690295Y-98000409D01*
X151690295Y-98000409D02*
X151737914Y-98095647D01*
X151737914Y-98095647D02*
X151737914Y-98333742D01*
X151737914Y-98333742D02*
X151690295Y-98428980D01*
X151690295Y-98428980D02*
X151642676Y-98476600D01*
X151642676Y-98476600D02*
X151547438Y-98524219D01*
X151547438Y-98524219D02*
X151261724Y-98524219D01*
X151261724Y-98524219D02*
X151166486Y-98476600D01*
X151166486Y-98476600D02*
X151118867Y-98428980D01*
D14*
%TO.C,J5*%
X149800000Y-107940800D02*
X151130000Y-107940800D01*
X149800000Y-109270800D02*
X149800000Y-107940800D01*
X149800000Y-110540800D02*
X149800000Y-110600800D01*
X149800000Y-110540800D02*
X152460000Y-110540800D01*
X149800000Y-110600800D02*
X152460000Y-110600800D01*
X152460000Y-110540800D02*
X152460000Y-110600800D01*
%TO.C,J4*%
X132172400Y-111134200D02*
X132172400Y-109804200D01*
X133502400Y-111134200D02*
X132172400Y-111134200D01*
X134772400Y-111134200D02*
X134832400Y-111134200D01*
X134772400Y-111134200D02*
X134772400Y-108474200D01*
X134832400Y-111134200D02*
X134832400Y-108474200D01*
X134772400Y-108474200D02*
X134832400Y-108474200D01*
%TO.C,C1*%
X134795800Y-102527980D02*
X134795800Y-102246820D01*
X135815800Y-102527980D02*
X135815800Y-102246820D01*
%TO.C,C6*%
X136339948Y-110872600D02*
X136862452Y-110872600D01*
X136339948Y-112342600D02*
X136862452Y-112342600D01*
%TO.C,J2*%
X124338800Y-120100400D02*
X124338800Y-118770400D01*
X125668800Y-120100400D02*
X124338800Y-120100400D01*
X126938800Y-117440400D02*
X132078800Y-117440400D01*
X126938800Y-120100400D02*
X126938800Y-117440400D01*
X126938800Y-120100400D02*
X132078800Y-120100400D01*
X132078800Y-120100400D02*
X132078800Y-117440400D01*
%TO.C,U2*%
X139081200Y-93107200D02*
X139081200Y-98307200D01*
X139081200Y-98307200D02*
X145551200Y-98307200D01*
X141316200Y-93107200D02*
X139081200Y-93107200D01*
X145551200Y-93107200D02*
X143316200Y-93107200D01*
X145551200Y-98307200D02*
X145551200Y-93107200D01*
X143316200Y-93107200D02*
G75*
G02*
X141316200Y-93107200I-1000000J0D01*
G01*
%TO.C,U6*%
X128183200Y-107569000D02*
X128183200Y-106769000D01*
X128183200Y-107569000D02*
X128183200Y-108369000D01*
X131303200Y-107569000D02*
X131303200Y-106769000D01*
X131303200Y-107569000D02*
X131303200Y-108369000D01*
X128233200Y-108869000D02*
X127903200Y-109109000D01*
X127903200Y-108629000D01*
X128233200Y-108869000D01*
G36*
X128233200Y-108869000D02*
G01*
X127903200Y-109109000D01*
X127903200Y-108629000D01*
X128233200Y-108869000D01*
G37*
%TO.C,U5*%
X153176800Y-106375200D02*
X153176800Y-105575200D01*
X153176800Y-106375200D02*
X153176800Y-107175200D01*
X156296800Y-106375200D02*
X156296800Y-105575200D01*
X156296800Y-106375200D02*
X156296800Y-107175200D01*
X153226800Y-107675200D02*
X152896800Y-107915200D01*
X152896800Y-107435200D01*
X153226800Y-107675200D01*
G36*
X153226800Y-107675200D02*
G01*
X152896800Y-107915200D01*
X152896800Y-107435200D01*
X153226800Y-107675200D01*
G37*
%TO.C,U1*%
X138430800Y-99718200D02*
X138430800Y-99973200D01*
X138430800Y-110238200D02*
X138430800Y-109983200D01*
X142290800Y-99718200D02*
X138430800Y-99718200D01*
X142290800Y-99718200D02*
X146150800Y-99718200D01*
X142290800Y-110238200D02*
X138430800Y-110238200D01*
X142290800Y-110238200D02*
X146150800Y-110238200D01*
X146150800Y-99718200D02*
X146150800Y-99973200D01*
X146150800Y-110238200D02*
X146150800Y-109983200D01*
X137578300Y-99973200D02*
X137238300Y-99503200D01*
X137918300Y-99503200D01*
X137578300Y-99973200D01*
G36*
X137578300Y-99973200D02*
G01*
X137238300Y-99503200D01*
X137918300Y-99503200D01*
X137578300Y-99973200D01*
G37*
%TO.C,J3*%
X121006800Y-93132600D02*
X121006800Y-95792600D01*
X126146800Y-93132600D02*
X121006800Y-93132600D01*
X126146800Y-93132600D02*
X126146800Y-95792600D01*
X126146800Y-95792600D02*
X121006800Y-95792600D01*
X127416800Y-93132600D02*
X128746800Y-93132600D01*
X128746800Y-93132600D02*
X128746800Y-94462600D01*
%TO.C,R3*%
X151648179Y-106528600D02*
X151983421Y-106528600D01*
X151648179Y-107288600D02*
X151983421Y-107288600D01*
%TO.C,C4*%
X148816600Y-102604180D02*
X148816600Y-102323020D01*
X149836600Y-102604180D02*
X149836600Y-102323020D01*
%TO.C,R11*%
X134306542Y-93355900D02*
X134781058Y-93355900D01*
X134306542Y-94400900D02*
X134781058Y-94400900D01*
%TO.C,C5*%
X148140052Y-110872600D02*
X147617548Y-110872600D01*
X148140052Y-112342600D02*
X147617548Y-112342600D01*
%TO.C,Q1*%
X128742000Y-102821500D02*
X128742000Y-102171500D01*
X128742000Y-102821500D02*
X128742000Y-103471500D01*
X131862000Y-102821500D02*
X131862000Y-102171500D01*
X131862000Y-102821500D02*
X131862000Y-103471500D01*
X132142000Y-101899000D02*
X131812000Y-101659000D01*
X132142000Y-101419000D01*
X132142000Y-101899000D01*
G36*
X132142000Y-101899000D02*
G01*
X131812000Y-101659000D01*
X132142000Y-101419000D01*
X132142000Y-101899000D01*
G37*
%TO.C,R13*%
X128179300Y-98357458D02*
X128179300Y-97882942D01*
X129224300Y-98357458D02*
X129224300Y-97882942D01*
%TO.C,R7*%
X132573500Y-104232942D02*
X132573500Y-104707458D01*
X133618500Y-104232942D02*
X133618500Y-104707458D01*
%TO.C,R10*%
X128560300Y-114240542D02*
X128560300Y-114715058D01*
X129605300Y-114240542D02*
X129605300Y-114715058D01*
%TO.C,R12*%
X156728900Y-112564142D02*
X156728900Y-113038658D01*
X157773900Y-112564142D02*
X157773900Y-113038658D01*
%TO.C,R8*%
X150429700Y-102700858D02*
X150429700Y-102226342D01*
X151474700Y-102700858D02*
X151474700Y-102226342D01*
%TO.C,C2*%
X133195600Y-101230820D02*
X133195600Y-101511980D01*
X134215600Y-101230820D02*
X134215600Y-101511980D01*
%TO.C,R1*%
X132826779Y-107595400D02*
X133162021Y-107595400D01*
X132826779Y-108355400D02*
X133162021Y-108355400D01*
%TO.C,R5*%
X134859500Y-97654342D02*
X134859500Y-98128858D01*
X135904500Y-97654342D02*
X135904500Y-98128858D01*
%TO.C,R4*%
X151648179Y-105487200D02*
X151983421Y-105487200D01*
X151648179Y-106247200D02*
X151983421Y-106247200D01*
%TO.C,J1*%
X111792400Y-100106600D02*
X111792400Y-114726600D01*
X111792400Y-114726600D02*
X112312400Y-114726600D01*
X112312400Y-100106600D02*
X111792400Y-100106600D01*
X112312400Y-100756600D02*
X112312400Y-100106600D01*
X112312400Y-100756600D02*
X120422400Y-100756600D01*
X112312400Y-114726600D02*
X112312400Y-114076600D01*
X120422400Y-114076600D02*
X112312400Y-114076600D01*
X127272400Y-100756600D02*
X123942400Y-100756600D01*
X127272400Y-100756600D02*
X127272400Y-114076600D01*
X127272400Y-114076600D02*
X123942400Y-114076600D01*
X127492400Y-103016600D02*
X127492400Y-104816600D01*
%TO.C,D1*%
X156469200Y-115078000D02*
X156469200Y-117763000D01*
X156469200Y-117763000D02*
X158389200Y-117763000D01*
X158389200Y-117763000D02*
X158389200Y-115078000D01*
%TO.C,FB1*%
X132380958Y-111123800D02*
X133201442Y-111123800D01*
X132380958Y-112243800D02*
X133201442Y-112243800D01*
%TO.C,U4*%
X131929200Y-99616900D02*
X131129200Y-99616900D01*
X131929200Y-99616900D02*
X132729200Y-99616900D01*
X132929200Y-96396900D02*
X131129200Y-96396900D01*
X133469200Y-99896900D02*
X132989200Y-99896900D01*
X133229200Y-99566900D01*
X133469200Y-99896900D01*
G36*
X133469200Y-99896900D02*
G01*
X132989200Y-99896900D01*
X133229200Y-99566900D01*
X133469200Y-99896900D01*
G37*
%TO.C,FB2*%
X151481758Y-111174600D02*
X152302242Y-111174600D01*
X151481758Y-112294600D02*
X152302242Y-112294600D01*
%TO.C,D4*%
X129480600Y-94137600D02*
X129480600Y-96057600D01*
X129480600Y-96057600D02*
X132165600Y-96057600D01*
X132165600Y-94137600D02*
X129480600Y-94137600D01*
%TO.C,D2*%
X130597400Y-115920400D02*
X133282400Y-115920400D01*
X133282400Y-114000400D02*
X130597400Y-114000400D01*
X133282400Y-115920400D02*
X133282400Y-114000400D01*
%TO.C,R6*%
X148845000Y-105298221D02*
X148845000Y-104962979D01*
X149605000Y-105298221D02*
X149605000Y-104962979D01*
%TO.C,R15*%
X134179542Y-94879900D02*
X134654058Y-94879900D01*
X134179542Y-95924900D02*
X134654058Y-95924900D01*
%TO.C,U3*%
D12*
X133426200Y-112776000D02*
X154000200Y-112776000D01*
X154000200Y-120904000D01*
X133426200Y-120904000D01*
X133426200Y-112776000D01*
D14*
%TO.C,R9*%
X134884179Y-104115600D02*
X135219421Y-104115600D01*
X134884179Y-104875600D02*
X135219421Y-104875600D01*
%TO.C,D3*%
X154134800Y-111157400D02*
X154134800Y-115567400D01*
X156354800Y-111157400D02*
X154134800Y-111157400D01*
X156354800Y-115567400D02*
X156354800Y-111157400D01*
%TO.C,R2*%
X132852179Y-106579400D02*
X133187421Y-106579400D01*
X132852179Y-107339400D02*
X133187421Y-107339400D01*
%TO.C,C3*%
X148791200Y-99429180D02*
X148791200Y-99148020D01*
X149811200Y-99429180D02*
X149811200Y-99148020D01*
%TD*%
%LPC*%
D12*
X140000000Y-91567000D02*
X145000000Y-91567000D01*
X145000000Y-121285000D01*
X140000000Y-121285000D01*
X140000000Y-91567000D01*
G36*
X140000000Y-91567000D02*
G01*
X145000000Y-91567000D01*
X145000000Y-121285000D01*
X140000000Y-121285000D01*
X140000000Y-91567000D01*
G37*
D15*
%TO.C,U7*%
X162100000Y-108661200D03*
X162100000Y-104161200D03*
D16*
X159850000Y-102911200D03*
X159850000Y-105411200D03*
X159850000Y-107411200D03*
X159850000Y-109911200D03*
D17*
X162100000Y-112261200D03*
X162100000Y-100561200D03*
%TD*%
D18*
%TO.C,J5*%
X151130000Y-109270800D03*
%TD*%
%TO.C,J4*%
X133502400Y-109804200D03*
%TD*%
D19*
%TO.C,C1*%
X135305800Y-103162400D03*
X135305800Y-101612400D03*
%TD*%
D20*
%TO.C,C6*%
X135651200Y-111607600D03*
X137551200Y-111607600D03*
%TD*%
D18*
%TO.C,J2*%
X125668800Y-118770400D03*
D21*
X128208800Y-118770400D03*
X130748800Y-118770400D03*
%TD*%
D22*
%TO.C,U2*%
X137551200Y-94437200D03*
X137551200Y-96977200D03*
X147081200Y-96977200D03*
X147081200Y-94437200D03*
%TD*%
D23*
%TO.C,U6*%
X128793200Y-108706500D03*
X129743200Y-108706500D03*
X130693200Y-108706500D03*
X130693200Y-106431500D03*
X129743200Y-106431500D03*
X128793200Y-106431500D03*
%TD*%
%TO.C,U5*%
X153786800Y-107512700D03*
X154736800Y-107512700D03*
X155686800Y-107512700D03*
X155686800Y-105237700D03*
X154736800Y-105237700D03*
X153786800Y-105237700D03*
%TD*%
D24*
%TO.C,U1*%
X137640800Y-100533200D03*
X137640800Y-101803200D03*
X137640800Y-103073200D03*
X137640800Y-104343200D03*
X137640800Y-105613200D03*
X137640800Y-106883200D03*
X137640800Y-108153200D03*
X137640800Y-109423200D03*
X146940800Y-109423200D03*
X146940800Y-108153200D03*
X146940800Y-106883200D03*
X146940800Y-105613200D03*
X146940800Y-104343200D03*
X146940800Y-103073200D03*
X146940800Y-101803200D03*
X146940800Y-100533200D03*
%TD*%
D18*
%TO.C,J3*%
X127416800Y-94462600D03*
D21*
X124876800Y-94462600D03*
X122336800Y-94462600D03*
%TD*%
D25*
%TO.C,R3*%
X151218300Y-106908600D03*
X152413300Y-106908600D03*
%TD*%
D19*
%TO.C,C4*%
X149326600Y-103238600D03*
X149326600Y-101688600D03*
%TD*%
D26*
%TO.C,R11*%
X133718800Y-93878400D03*
X135368800Y-93878400D03*
%TD*%
D27*
%TO.C,C5*%
X148828800Y-111607600D03*
X146928800Y-111607600D03*
%TD*%
D28*
%TO.C,Q1*%
X131252000Y-101884000D03*
X129352000Y-101884000D03*
X130302000Y-103759000D03*
%TD*%
D29*
%TO.C,R13*%
X128701800Y-98945200D03*
X128701800Y-97295200D03*
%TD*%
D30*
%TO.C,R7*%
X133096000Y-103645200D03*
X133096000Y-105295200D03*
%TD*%
%TO.C,R10*%
X129082800Y-113652800D03*
X129082800Y-115302800D03*
%TD*%
%TO.C,R12*%
X157251400Y-111976400D03*
X157251400Y-113626400D03*
%TD*%
D29*
%TO.C,R8*%
X150952200Y-103288600D03*
X150952200Y-101638600D03*
%TD*%
D31*
%TO.C,C2*%
X133705600Y-100596400D03*
X133705600Y-102146400D03*
%TD*%
D25*
%TO.C,R1*%
X132396900Y-107975400D03*
X133591900Y-107975400D03*
%TD*%
D30*
%TO.C,R5*%
X135382000Y-97066600D03*
X135382000Y-98716600D03*
%TD*%
D25*
%TO.C,R4*%
X151218300Y-105867200D03*
X152413300Y-105867200D03*
%TD*%
D32*
%TO.C,J1*%
X124892400Y-103916600D03*
D33*
X124892400Y-106416600D03*
X124892400Y-108416600D03*
X124892400Y-110916600D03*
D34*
X122182400Y-100846600D03*
X122182400Y-113986600D03*
%TD*%
D35*
%TO.C,D1*%
X157429200Y-117015500D03*
X157429200Y-115140500D03*
%TD*%
D36*
%TO.C,FB1*%
X131641200Y-111683800D03*
X133941200Y-111683800D03*
%TD*%
D37*
%TO.C,U4*%
X133379200Y-98956900D03*
X133379200Y-98006900D03*
X133379200Y-97056900D03*
X130679200Y-97056900D03*
X130679200Y-98956900D03*
%TD*%
D36*
%TO.C,FB2*%
X150742000Y-111734600D03*
X153042000Y-111734600D03*
%TD*%
D38*
%TO.C,D4*%
X130228100Y-95097600D03*
X132103100Y-95097600D03*
%TD*%
D39*
%TO.C,D2*%
X132534900Y-114960400D03*
X130659900Y-114960400D03*
%TD*%
D34*
%TO.C,H1*%
X156000000Y-96000000D03*
%TD*%
D40*
%TO.C,R6*%
X149225000Y-105728100D03*
X149225000Y-104533100D03*
%TD*%
D26*
%TO.C,R15*%
X133591800Y-95402400D03*
X135241800Y-95402400D03*
%TD*%
D41*
%TO.C,U3*%
X136220200Y-114300000D03*
X138760200Y-114300000D03*
X146380200Y-114300000D03*
X151460200Y-114300000D03*
%TD*%
D25*
%TO.C,R9*%
X134454300Y-104495600D03*
X135649300Y-104495600D03*
%TD*%
D42*
%TO.C,D3*%
X155244800Y-112067400D03*
X155244800Y-115567400D03*
%TD*%
D25*
%TO.C,R2*%
X132422300Y-106959400D03*
X133617300Y-106959400D03*
%TD*%
D19*
%TO.C,C3*%
X149301200Y-100063600D03*
X149301200Y-98513600D03*
%TD*%
%LPD*%
M02*
