M48
; DRILL file {KiCad 8.0.1} date 2024-05-15T21:52:54+0300
; FORMAT={-:-/ absolute / inch / decimal}
; #@! TF.CreationDate,2024-05-15T21:52:54+03:00
; #@! TF.GenerationSoftware,Kicad,Pcbnew,8.0.1
; #@! TF.FileFunction,Plated,1,4,PTH
FMAT,2
INCH
; #@! TA.AperFunction,Plated,PTH,ViaDrill
T1C0.0118
; #@! TA.AperFunction,Plated,PTH,ComponentDrill
T2C0.0354
; #@! TA.AperFunction,Plated,PTH,ComponentDrill
T3C0.0374
; #@! TA.AperFunction,Plated,PTH,ComponentDrill
T4C0.0394
; #@! TA.AperFunction,Plated,PTH,ComponentDrill
T5C0.0906
%
G90
G05
T1
X4.95Y-3.929
X5.046Y-4.605
X5.084Y-4.406
X5.091Y-3.749
X5.107Y-4.324
X5.117Y-3.97
X5.13Y-4.373
X5.165Y-3.969
X5.218Y-4.568
X5.228Y-4.02
X5.301Y-3.855
X5.325Y-3.9605
X5.329Y-3.918
X5.357Y-4.308
X5.365Y-4.008
X5.415Y-3.873
X5.417Y-4.339
X5.785Y-4.343
X5.791Y-3.874
X5.84Y-4.009
X5.841Y-4.109
X5.842Y-3.958
X5.877Y-3.8373
X5.914Y-4.135
X5.962Y-3.669
X5.981Y-4.003
X6.058Y-4.359
X6.079Y-4.598
X6.092Y-4.279
X6.095Y-4.033
X6.135Y-4.6
X6.159Y-4.043
X6.169Y-4.723
X6.17Y-3.996
X6.193Y-4.649
X6.2078Y-4.3148
X6.2118Y-4.3518
X6.306Y-4.683
X6.3068Y-3.6712
X6.342Y-4.578
X6.376Y-3.768
X6.44Y-3.676
X6.442Y-3.879
X6.457Y-4.722
T3
X4.917Y-4.0912
X4.917Y-4.1896
X4.917Y-4.2684
X4.917Y-4.3668
T4
X4.8164Y-3.719
X4.9164Y-3.719
X4.9476Y-4.676
X5.0164Y-3.719
X5.0476Y-4.676
X5.1476Y-4.676
X5.256Y-4.323
X5.363Y-4.5
X5.463Y-4.5
X5.763Y-4.5
X5.95Y-4.302
X5.963Y-4.5
T5
X4.8103Y-3.9703
X4.8103Y-4.4877
T2
G00X6.3504Y-3.9591
M15
G01X6.4134Y-3.9591
M16
G05
G00X6.3504Y-4.4197
M15
G01X6.4134Y-4.4197
M16
G05
M30
