%TF.GenerationSoftware,KiCad,Pcbnew,8.0.1*%
%TF.CreationDate,2024-05-15T21:52:54+03:00*%
%TF.ProjectId,USB_ISOLATOR,5553425f-4953-44f4-9c41-544f522e6b69,rev?*%
%TF.SameCoordinates,Original*%
%TF.FileFunction,Soldermask,Top*%
%TF.FilePolarity,Negative*%
%FSLAX46Y46*%
G04 Gerber Fmt 4.6, Leading zero omitted, Abs format (unit mm)*
G04 Created by KiCad (PCBNEW 8.0.1) date 2024-05-15 21:52:54*
%MOMM*%
%LPD*%
G01*
G04 APERTURE LIST*
G04 APERTURE END LIST*
G36*
X145019134Y-91520806D02*
G01*
X145025347Y-91527019D01*
X145026416Y-91527462D01*
X145039537Y-91540583D01*
X145039979Y-91541651D01*
X145046194Y-91547866D01*
X145046195Y-91556657D01*
X145046639Y-91557729D01*
X145049994Y-121235000D01*
X145050000Y-121285000D01*
X145046194Y-121304134D01*
X145039978Y-121310349D01*
X145039537Y-121311416D01*
X145026416Y-121324537D01*
X145025349Y-121324978D01*
X145019134Y-121331194D01*
X145010328Y-121331200D01*
X145009237Y-121331653D01*
X140010245Y-121334992D01*
X140000000Y-121335000D01*
X139980866Y-121331194D01*
X139974651Y-121324979D01*
X139973583Y-121324537D01*
X139960462Y-121311416D01*
X139960019Y-121310347D01*
X139953806Y-121304134D01*
X139953804Y-121295344D01*
X139953360Y-121294270D01*
X139950000Y-91573135D01*
X139950000Y-91573127D01*
X139950000Y-91567000D01*
X139953806Y-91547866D01*
X139960018Y-91541653D01*
X139960462Y-91540583D01*
X139973583Y-91527462D01*
X139974653Y-91527018D01*
X139980866Y-91520806D01*
X139989667Y-91520799D01*
X139990762Y-91520346D01*
X144993899Y-91517004D01*
X144993905Y-91517004D01*
X145000000Y-91517000D01*
X145019134Y-91520806D01*
G37*
G36*
X126518800Y-119620400D02*
G01*
X124818800Y-119620400D01*
X124818800Y-117920400D01*
X126518800Y-117920400D01*
X126518800Y-119620400D01*
G37*
G36*
X128249940Y-117925056D02*
G01*
X128297649Y-117925056D01*
X128338845Y-117933812D01*
X128374506Y-117937325D01*
X128419313Y-117950916D01*
X128471464Y-117962002D01*
X128504830Y-117976857D01*
X128533852Y-117985661D01*
X128579967Y-118010310D01*
X128633800Y-118034278D01*
X128658831Y-118052464D01*
X128680697Y-118064152D01*
X128725297Y-118100755D01*
X128777561Y-118138727D01*
X128794531Y-118157574D01*
X128809412Y-118169787D01*
X128849408Y-118218522D01*
X128896464Y-118270783D01*
X128906347Y-118287902D01*
X128915047Y-118298502D01*
X128947227Y-118358707D01*
X128985314Y-118424674D01*
X128989694Y-118438157D01*
X128993538Y-118445347D01*
X129014726Y-118515196D01*
X129040225Y-118593675D01*
X129041122Y-118602216D01*
X129041874Y-118604693D01*
X129049185Y-118678922D01*
X129058800Y-118770400D01*
X129049184Y-118861885D01*
X129041874Y-118936106D01*
X129041122Y-118938582D01*
X129040225Y-118947125D01*
X129014721Y-119025617D01*
X128993538Y-119095452D01*
X128989695Y-119102640D01*
X128985314Y-119116126D01*
X128947220Y-119182104D01*
X128915047Y-119242297D01*
X128906349Y-119252894D01*
X128896464Y-119270017D01*
X128849399Y-119322288D01*
X128809412Y-119371012D01*
X128794534Y-119383221D01*
X128777561Y-119402073D01*
X128725286Y-119440052D01*
X128680697Y-119476647D01*
X128658836Y-119488331D01*
X128633800Y-119506522D01*
X128579955Y-119530494D01*
X128533852Y-119555138D01*
X128504837Y-119563939D01*
X128471464Y-119578798D01*
X128419302Y-119589885D01*
X128374506Y-119603474D01*
X128338853Y-119606985D01*
X128297649Y-119615744D01*
X128249930Y-119615744D01*
X128208800Y-119619795D01*
X128167670Y-119615744D01*
X128119951Y-119615744D01*
X128078746Y-119606985D01*
X128043093Y-119603474D01*
X127998293Y-119589884D01*
X127946136Y-119578798D01*
X127912764Y-119563940D01*
X127883747Y-119555138D01*
X127837638Y-119530492D01*
X127783800Y-119506522D01*
X127758766Y-119488333D01*
X127736902Y-119476647D01*
X127692304Y-119440046D01*
X127640039Y-119402073D01*
X127623067Y-119383224D01*
X127608187Y-119371012D01*
X127568189Y-119322275D01*
X127521136Y-119270017D01*
X127511252Y-119252898D01*
X127502552Y-119242297D01*
X127470365Y-119182081D01*
X127432286Y-119116126D01*
X127427905Y-119102645D01*
X127424061Y-119095452D01*
X127402863Y-119025571D01*
X127377375Y-118947125D01*
X127376477Y-118938587D01*
X127375725Y-118936106D01*
X127368399Y-118861734D01*
X127358800Y-118770400D01*
X127368398Y-118679074D01*
X127375725Y-118604693D01*
X127376477Y-118602211D01*
X127377375Y-118593675D01*
X127402858Y-118515242D01*
X127424061Y-118445347D01*
X127427906Y-118438152D01*
X127432286Y-118424674D01*
X127470358Y-118358730D01*
X127502552Y-118298502D01*
X127511254Y-118287898D01*
X127521136Y-118270783D01*
X127568180Y-118218534D01*
X127608187Y-118169787D01*
X127623071Y-118157571D01*
X127640039Y-118138727D01*
X127692293Y-118100761D01*
X127736902Y-118064152D01*
X127758771Y-118052462D01*
X127783800Y-118034278D01*
X127837626Y-118010312D01*
X127883747Y-117985661D01*
X127912771Y-117976856D01*
X127946136Y-117962002D01*
X127998282Y-117950917D01*
X128043093Y-117937325D01*
X128078755Y-117933812D01*
X128119951Y-117925056D01*
X128167660Y-117925056D01*
X128208800Y-117921004D01*
X128249940Y-117925056D01*
G37*
G36*
X130789940Y-117925056D02*
G01*
X130837649Y-117925056D01*
X130878845Y-117933812D01*
X130914506Y-117937325D01*
X130959313Y-117950916D01*
X131011464Y-117962002D01*
X131044830Y-117976857D01*
X131073852Y-117985661D01*
X131119967Y-118010310D01*
X131173800Y-118034278D01*
X131198831Y-118052464D01*
X131220697Y-118064152D01*
X131265297Y-118100755D01*
X131317561Y-118138727D01*
X131334531Y-118157574D01*
X131349412Y-118169787D01*
X131389408Y-118218522D01*
X131436464Y-118270783D01*
X131446347Y-118287902D01*
X131455047Y-118298502D01*
X131487227Y-118358707D01*
X131525314Y-118424674D01*
X131529694Y-118438157D01*
X131533538Y-118445347D01*
X131554726Y-118515196D01*
X131580225Y-118593675D01*
X131581122Y-118602216D01*
X131581874Y-118604693D01*
X131589185Y-118678922D01*
X131598800Y-118770400D01*
X131589184Y-118861885D01*
X131581874Y-118936106D01*
X131581122Y-118938582D01*
X131580225Y-118947125D01*
X131554721Y-119025617D01*
X131533538Y-119095452D01*
X131529695Y-119102640D01*
X131525314Y-119116126D01*
X131487220Y-119182104D01*
X131455047Y-119242297D01*
X131446349Y-119252894D01*
X131436464Y-119270017D01*
X131389399Y-119322288D01*
X131349412Y-119371012D01*
X131334534Y-119383221D01*
X131317561Y-119402073D01*
X131265286Y-119440052D01*
X131220697Y-119476647D01*
X131198836Y-119488331D01*
X131173800Y-119506522D01*
X131119955Y-119530494D01*
X131073852Y-119555138D01*
X131044837Y-119563939D01*
X131011464Y-119578798D01*
X130959302Y-119589885D01*
X130914506Y-119603474D01*
X130878853Y-119606985D01*
X130837649Y-119615744D01*
X130789930Y-119615744D01*
X130748800Y-119619795D01*
X130707670Y-119615744D01*
X130659951Y-119615744D01*
X130618746Y-119606985D01*
X130583093Y-119603474D01*
X130538293Y-119589884D01*
X130486136Y-119578798D01*
X130452764Y-119563940D01*
X130423747Y-119555138D01*
X130377638Y-119530492D01*
X130323800Y-119506522D01*
X130298766Y-119488333D01*
X130276902Y-119476647D01*
X130232304Y-119440046D01*
X130180039Y-119402073D01*
X130163067Y-119383224D01*
X130148187Y-119371012D01*
X130108189Y-119322275D01*
X130061136Y-119270017D01*
X130051252Y-119252898D01*
X130042552Y-119242297D01*
X130010365Y-119182081D01*
X129972286Y-119116126D01*
X129967905Y-119102645D01*
X129964061Y-119095452D01*
X129942863Y-119025571D01*
X129917375Y-118947125D01*
X129916477Y-118938587D01*
X129915725Y-118936106D01*
X129908399Y-118861734D01*
X129898800Y-118770400D01*
X129908398Y-118679074D01*
X129915725Y-118604693D01*
X129916477Y-118602211D01*
X129917375Y-118593675D01*
X129942858Y-118515242D01*
X129964061Y-118445347D01*
X129967906Y-118438152D01*
X129972286Y-118424674D01*
X130010358Y-118358730D01*
X130042552Y-118298502D01*
X130051254Y-118287898D01*
X130061136Y-118270783D01*
X130108180Y-118218534D01*
X130148187Y-118169787D01*
X130163071Y-118157571D01*
X130180039Y-118138727D01*
X130232293Y-118100761D01*
X130276902Y-118064152D01*
X130298771Y-118052462D01*
X130323800Y-118034278D01*
X130377626Y-118010312D01*
X130423747Y-117985661D01*
X130452771Y-117976856D01*
X130486136Y-117962002D01*
X130538282Y-117950917D01*
X130583093Y-117937325D01*
X130618755Y-117933812D01*
X130659951Y-117925056D01*
X130707660Y-117925056D01*
X130748800Y-117921004D01*
X130789940Y-117925056D01*
G37*
G36*
X157910248Y-116532932D02*
G01*
X157953316Y-116539207D01*
X157961220Y-116543071D01*
X157978729Y-116546554D01*
X158007041Y-116565472D01*
X158026081Y-116574780D01*
X158036370Y-116585069D01*
X158057807Y-116599393D01*
X158072130Y-116620829D01*
X158082419Y-116631118D01*
X158091726Y-116650155D01*
X158110646Y-116678471D01*
X158114128Y-116695980D01*
X158117992Y-116703883D01*
X158124264Y-116746937D01*
X158129200Y-116771750D01*
X158129200Y-117259250D01*
X158124263Y-117284066D01*
X158117992Y-117327116D01*
X158114129Y-117335017D01*
X158110646Y-117352529D01*
X158091724Y-117380846D01*
X158082419Y-117399881D01*
X158072132Y-117410167D01*
X158057807Y-117431607D01*
X158036367Y-117445932D01*
X158026081Y-117456219D01*
X158007046Y-117465524D01*
X157978729Y-117484446D01*
X157961217Y-117487929D01*
X157953316Y-117491792D01*
X157910265Y-117498064D01*
X157885450Y-117503000D01*
X156972950Y-117503000D01*
X156948135Y-117498064D01*
X156905083Y-117491792D01*
X156897180Y-117487928D01*
X156879671Y-117484446D01*
X156851355Y-117465526D01*
X156832318Y-117456219D01*
X156822029Y-117445930D01*
X156800593Y-117431607D01*
X156786269Y-117410170D01*
X156775980Y-117399881D01*
X156766672Y-117380841D01*
X156747754Y-117352529D01*
X156744271Y-117335020D01*
X156740407Y-117327116D01*
X156734132Y-117284046D01*
X156729200Y-117259250D01*
X156729200Y-116771750D01*
X156734131Y-116746954D01*
X156740407Y-116703883D01*
X156744271Y-116695977D01*
X156747754Y-116678471D01*
X156766670Y-116650161D01*
X156775980Y-116631118D01*
X156786271Y-116620826D01*
X156800593Y-116599393D01*
X156822026Y-116585071D01*
X156832318Y-116574780D01*
X156851361Y-116565470D01*
X156879671Y-116546554D01*
X156897177Y-116543071D01*
X156905083Y-116539207D01*
X156948156Y-116532931D01*
X156972950Y-116528000D01*
X157885450Y-116528000D01*
X157910248Y-116532932D01*
G37*
G36*
X155869597Y-114922332D02*
G01*
X155914450Y-114928867D01*
X155922682Y-114932891D01*
X155940471Y-114936430D01*
X155969240Y-114955653D01*
X155989063Y-114965344D01*
X155999773Y-114976054D01*
X156021577Y-114990623D01*
X156036145Y-115012426D01*
X156046855Y-115023136D01*
X156056544Y-115042956D01*
X156075770Y-115071729D01*
X156079308Y-115089519D01*
X156083332Y-115097749D01*
X156089864Y-115142587D01*
X156094800Y-115167400D01*
X156094800Y-115967400D01*
X156089863Y-115992216D01*
X156083332Y-116037050D01*
X156079309Y-116045278D01*
X156075770Y-116063071D01*
X156056542Y-116091846D01*
X156046855Y-116111663D01*
X156036147Y-116122370D01*
X156021577Y-116144177D01*
X155999770Y-116158747D01*
X155989063Y-116169455D01*
X155969246Y-116179142D01*
X155940471Y-116198370D01*
X155922678Y-116201909D01*
X155914450Y-116205932D01*
X155869614Y-116212464D01*
X155844800Y-116217400D01*
X154644800Y-116217400D01*
X154619986Y-116212464D01*
X154575149Y-116205932D01*
X154566919Y-116201908D01*
X154549129Y-116198370D01*
X154520356Y-116179144D01*
X154500536Y-116169455D01*
X154489826Y-116158745D01*
X154468023Y-116144177D01*
X154453454Y-116122373D01*
X154442744Y-116111663D01*
X154433053Y-116091840D01*
X154413830Y-116063071D01*
X154410291Y-116045282D01*
X154406267Y-116037050D01*
X154399732Y-115992196D01*
X154394800Y-115967400D01*
X154394800Y-115167400D01*
X154399731Y-115142605D01*
X154406267Y-115097749D01*
X154410291Y-115089515D01*
X154413830Y-115071729D01*
X154433051Y-115042961D01*
X154442744Y-115023136D01*
X154453456Y-115012423D01*
X154468023Y-114990623D01*
X154489823Y-114976056D01*
X154500536Y-114965344D01*
X154520361Y-114955651D01*
X154549129Y-114936430D01*
X154566915Y-114932891D01*
X154575149Y-114928867D01*
X154620006Y-114922331D01*
X154644800Y-114917400D01*
X155844800Y-114917400D01*
X155869597Y-114922332D01*
G37*
G36*
X129373842Y-114905991D02*
G01*
X129406527Y-114910294D01*
X129414748Y-114914127D01*
X129434337Y-114918024D01*
X129460280Y-114935359D01*
X129471408Y-114940548D01*
X129478178Y-114947318D01*
X129499221Y-114961379D01*
X129513281Y-114982421D01*
X129520051Y-114989191D01*
X129525238Y-115000316D01*
X129542576Y-115026263D01*
X129546472Y-115045853D01*
X129550305Y-115054072D01*
X129554606Y-115086745D01*
X129557800Y-115102800D01*
X129557800Y-115502800D01*
X129554605Y-115518857D01*
X129550305Y-115551527D01*
X129546473Y-115559744D01*
X129542576Y-115579337D01*
X129525237Y-115605285D01*
X129520051Y-115616408D01*
X129513283Y-115623175D01*
X129499221Y-115644221D01*
X129478175Y-115658283D01*
X129471408Y-115665051D01*
X129460285Y-115670237D01*
X129434337Y-115687576D01*
X129414744Y-115691473D01*
X129406527Y-115695305D01*
X129373856Y-115699606D01*
X129357800Y-115702800D01*
X128807800Y-115702800D01*
X128791744Y-115699606D01*
X128759072Y-115695305D01*
X128750853Y-115691472D01*
X128731263Y-115687576D01*
X128705316Y-115670238D01*
X128694191Y-115665051D01*
X128687421Y-115658281D01*
X128666379Y-115644221D01*
X128652318Y-115623178D01*
X128645548Y-115616408D01*
X128640359Y-115605280D01*
X128623024Y-115579337D01*
X128619127Y-115559748D01*
X128615294Y-115551527D01*
X128610990Y-115518841D01*
X128607800Y-115502800D01*
X128607800Y-115102800D01*
X128610990Y-115086759D01*
X128615294Y-115054072D01*
X128619127Y-115045849D01*
X128623024Y-115026263D01*
X128640357Y-115000321D01*
X128645548Y-114989191D01*
X128652320Y-114982418D01*
X128666379Y-114961379D01*
X128687418Y-114947320D01*
X128694191Y-114940548D01*
X128705321Y-114935357D01*
X128731263Y-114918024D01*
X128750849Y-114914127D01*
X128759072Y-114910294D01*
X128791760Y-114905990D01*
X128807800Y-114902800D01*
X129357800Y-114902800D01*
X129373842Y-114905991D01*
G37*
G36*
X130928448Y-114265332D02*
G01*
X130971516Y-114271607D01*
X130979420Y-114275471D01*
X130996929Y-114278954D01*
X131025241Y-114297872D01*
X131044281Y-114307180D01*
X131054570Y-114317469D01*
X131076007Y-114331793D01*
X131090330Y-114353229D01*
X131100619Y-114363518D01*
X131109926Y-114382555D01*
X131128846Y-114410871D01*
X131132328Y-114428380D01*
X131136192Y-114436283D01*
X131142464Y-114479337D01*
X131147400Y-114504150D01*
X131147400Y-115416650D01*
X131142463Y-115441466D01*
X131136192Y-115484516D01*
X131132329Y-115492417D01*
X131128846Y-115509929D01*
X131109924Y-115538246D01*
X131100619Y-115557281D01*
X131090332Y-115567567D01*
X131076007Y-115589007D01*
X131054567Y-115603332D01*
X131044281Y-115613619D01*
X131025246Y-115622924D01*
X130996929Y-115641846D01*
X130979417Y-115645329D01*
X130971516Y-115649192D01*
X130928465Y-115655464D01*
X130903650Y-115660400D01*
X130416150Y-115660400D01*
X130391335Y-115655464D01*
X130348283Y-115649192D01*
X130340380Y-115645328D01*
X130322871Y-115641846D01*
X130294555Y-115622926D01*
X130275518Y-115613619D01*
X130265229Y-115603330D01*
X130243793Y-115589007D01*
X130229469Y-115567570D01*
X130219180Y-115557281D01*
X130209872Y-115538241D01*
X130190954Y-115509929D01*
X130187471Y-115492420D01*
X130183607Y-115484516D01*
X130177332Y-115441446D01*
X130172400Y-115416650D01*
X130172400Y-114504150D01*
X130177331Y-114479354D01*
X130183607Y-114436283D01*
X130187471Y-114428377D01*
X130190954Y-114410871D01*
X130209870Y-114382561D01*
X130219180Y-114363518D01*
X130229471Y-114353226D01*
X130243793Y-114331793D01*
X130265226Y-114317471D01*
X130275518Y-114307180D01*
X130294561Y-114297870D01*
X130322871Y-114278954D01*
X130340377Y-114275471D01*
X130348283Y-114271607D01*
X130391356Y-114265331D01*
X130416150Y-114260400D01*
X130903650Y-114260400D01*
X130928448Y-114265332D01*
G37*
G36*
X132803448Y-114265332D02*
G01*
X132846516Y-114271607D01*
X132854420Y-114275471D01*
X132871929Y-114278954D01*
X132900241Y-114297872D01*
X132919281Y-114307180D01*
X132929570Y-114317469D01*
X132951007Y-114331793D01*
X132965330Y-114353229D01*
X132975619Y-114363518D01*
X132984926Y-114382555D01*
X133003846Y-114410871D01*
X133007328Y-114428380D01*
X133011192Y-114436283D01*
X133017464Y-114479337D01*
X133022400Y-114504150D01*
X133022400Y-115416650D01*
X133017463Y-115441466D01*
X133011192Y-115484516D01*
X133007329Y-115492417D01*
X133003846Y-115509929D01*
X132984924Y-115538246D01*
X132975619Y-115557281D01*
X132965332Y-115567567D01*
X132951007Y-115589007D01*
X132929567Y-115603332D01*
X132919281Y-115613619D01*
X132900246Y-115622924D01*
X132871929Y-115641846D01*
X132854417Y-115645329D01*
X132846516Y-115649192D01*
X132803465Y-115655464D01*
X132778650Y-115660400D01*
X132291150Y-115660400D01*
X132266335Y-115655464D01*
X132223283Y-115649192D01*
X132215380Y-115645328D01*
X132197871Y-115641846D01*
X132169555Y-115622926D01*
X132150518Y-115613619D01*
X132140229Y-115603330D01*
X132118793Y-115589007D01*
X132104469Y-115567570D01*
X132094180Y-115557281D01*
X132084872Y-115538241D01*
X132065954Y-115509929D01*
X132062471Y-115492420D01*
X132058607Y-115484516D01*
X132052332Y-115441446D01*
X132047400Y-115416650D01*
X132047400Y-114504150D01*
X132052331Y-114479354D01*
X132058607Y-114436283D01*
X132062471Y-114428377D01*
X132065954Y-114410871D01*
X132084870Y-114382561D01*
X132094180Y-114363518D01*
X132104471Y-114353226D01*
X132118793Y-114331793D01*
X132140226Y-114317471D01*
X132150518Y-114307180D01*
X132169561Y-114297870D01*
X132197871Y-114278954D01*
X132215377Y-114275471D01*
X132223283Y-114271607D01*
X132266356Y-114265331D01*
X132291150Y-114260400D01*
X132778650Y-114260400D01*
X132803448Y-114265332D01*
G37*
G36*
X157910248Y-114657932D02*
G01*
X157953316Y-114664207D01*
X157961220Y-114668071D01*
X157978729Y-114671554D01*
X158007041Y-114690472D01*
X158026081Y-114699780D01*
X158036370Y-114710069D01*
X158057807Y-114724393D01*
X158072130Y-114745829D01*
X158082419Y-114756118D01*
X158091726Y-114775155D01*
X158110646Y-114803471D01*
X158114128Y-114820980D01*
X158117992Y-114828883D01*
X158124264Y-114871937D01*
X158129200Y-114896750D01*
X158129200Y-115384250D01*
X158124263Y-115409066D01*
X158117992Y-115452116D01*
X158114129Y-115460017D01*
X158110646Y-115477529D01*
X158091724Y-115505846D01*
X158082419Y-115524881D01*
X158072132Y-115535167D01*
X158057807Y-115556607D01*
X158036367Y-115570932D01*
X158026081Y-115581219D01*
X158007046Y-115590524D01*
X157978729Y-115609446D01*
X157961217Y-115612929D01*
X157953316Y-115616792D01*
X157910265Y-115623064D01*
X157885450Y-115628000D01*
X156972950Y-115628000D01*
X156948135Y-115623064D01*
X156905083Y-115616792D01*
X156897180Y-115612928D01*
X156879671Y-115609446D01*
X156851355Y-115590526D01*
X156832318Y-115581219D01*
X156822029Y-115570930D01*
X156800593Y-115556607D01*
X156786269Y-115535170D01*
X156775980Y-115524881D01*
X156766672Y-115505841D01*
X156747754Y-115477529D01*
X156744271Y-115460020D01*
X156740407Y-115452116D01*
X156734132Y-115409046D01*
X156729200Y-115384250D01*
X156729200Y-114896750D01*
X156734131Y-114871954D01*
X156740407Y-114828883D01*
X156744271Y-114820977D01*
X156747754Y-114803471D01*
X156766670Y-114775161D01*
X156775980Y-114756118D01*
X156786271Y-114745826D01*
X156800593Y-114724393D01*
X156822026Y-114710071D01*
X156832318Y-114699780D01*
X156851361Y-114690470D01*
X156879671Y-114671554D01*
X156897177Y-114668071D01*
X156905083Y-114664207D01*
X156948156Y-114657931D01*
X156972950Y-114653000D01*
X157885450Y-114653000D01*
X157910248Y-114657932D01*
G37*
G36*
X122242589Y-112491723D02*
G01*
X122306269Y-112491723D01*
X122363109Y-112501208D01*
X122416994Y-112505449D01*
X122481892Y-112521029D01*
X122550628Y-112532500D01*
X122599377Y-112549235D01*
X122645805Y-112560382D01*
X122713381Y-112588372D01*
X122784943Y-112612940D01*
X122824914Y-112634571D01*
X122863210Y-112650434D01*
X122931086Y-112692028D01*
X123002822Y-112730850D01*
X123033863Y-112755010D01*
X123063851Y-112773387D01*
X123129385Y-112829358D01*
X123198322Y-112883014D01*
X123220808Y-112907440D01*
X123242787Y-112926212D01*
X123303137Y-112996873D01*
X123366111Y-113065281D01*
X123380914Y-113087939D01*
X123395612Y-113105148D01*
X123447841Y-113190378D01*
X123501611Y-113272679D01*
X123510012Y-113291832D01*
X123518565Y-113305789D01*
X123559783Y-113405298D01*
X123601126Y-113499551D01*
X123604747Y-113513852D01*
X123608617Y-113523194D01*
X123636063Y-113637514D01*
X123661942Y-113739708D01*
X123662650Y-113748258D01*
X123663550Y-113752005D01*
X123674692Y-113893583D01*
X123682400Y-113986600D01*
X123674691Y-114079624D01*
X123663550Y-114221194D01*
X123662650Y-114224940D01*
X123661942Y-114233492D01*
X123636058Y-114335703D01*
X123608617Y-114450005D01*
X123604748Y-114459344D01*
X123601126Y-114473649D01*
X123559775Y-114567918D01*
X123518565Y-114667410D01*
X123510014Y-114681363D01*
X123501611Y-114700521D01*
X123447831Y-114782837D01*
X123395612Y-114868051D01*
X123380917Y-114885256D01*
X123366111Y-114907919D01*
X123303125Y-114976339D01*
X123242787Y-115046987D01*
X123220812Y-115065755D01*
X123198322Y-115090186D01*
X123129372Y-115143851D01*
X123063851Y-115199812D01*
X123033869Y-115218184D01*
X123002822Y-115242350D01*
X122931072Y-115281178D01*
X122863210Y-115322765D01*
X122824922Y-115338624D01*
X122784943Y-115360260D01*
X122713366Y-115384831D01*
X122645805Y-115412817D01*
X122599387Y-115423960D01*
X122550628Y-115440700D01*
X122481879Y-115452172D01*
X122416994Y-115467750D01*
X122363121Y-115471989D01*
X122306269Y-115481477D01*
X122242576Y-115481477D01*
X122182400Y-115486213D01*
X122122223Y-115481477D01*
X122058531Y-115481477D01*
X122001679Y-115471990D01*
X121947805Y-115467750D01*
X121882917Y-115452171D01*
X121814172Y-115440700D01*
X121765414Y-115423961D01*
X121718994Y-115412817D01*
X121651427Y-115384829D01*
X121579857Y-115360260D01*
X121539880Y-115338625D01*
X121501589Y-115322765D01*
X121433719Y-115281174D01*
X121361978Y-115242350D01*
X121330934Y-115218187D01*
X121300948Y-115199812D01*
X121235416Y-115143842D01*
X121166478Y-115090186D01*
X121143991Y-115065759D01*
X121122012Y-115046987D01*
X121061660Y-114976324D01*
X120998689Y-114907919D01*
X120983886Y-114885261D01*
X120969187Y-114868051D01*
X120916952Y-114782812D01*
X120863189Y-114700521D01*
X120854788Y-114681369D01*
X120846234Y-114667410D01*
X120805006Y-114567877D01*
X120763674Y-114473649D01*
X120760053Y-114459351D01*
X120756182Y-114450005D01*
X120728722Y-114335627D01*
X120702858Y-114233492D01*
X120702149Y-114224946D01*
X120701249Y-114221194D01*
X120690088Y-114079383D01*
X120682400Y-113986600D01*
X120690087Y-113893823D01*
X120701249Y-113752005D01*
X120702150Y-113748251D01*
X120702858Y-113739708D01*
X120728717Y-113637590D01*
X120756182Y-113523194D01*
X120760053Y-113513846D01*
X120763674Y-113499551D01*
X120804998Y-113405339D01*
X120846234Y-113305789D01*
X120854789Y-113291826D01*
X120863189Y-113272679D01*
X120916942Y-113190402D01*
X120969187Y-113105148D01*
X120983888Y-113087934D01*
X120998689Y-113065281D01*
X121061648Y-112996888D01*
X121122012Y-112926212D01*
X121143995Y-112907436D01*
X121166478Y-112883014D01*
X121235402Y-112829367D01*
X121300948Y-112773387D01*
X121330940Y-112755007D01*
X121361978Y-112730850D01*
X121433705Y-112692033D01*
X121501589Y-112650434D01*
X121539888Y-112634569D01*
X121579857Y-112612940D01*
X121651413Y-112588374D01*
X121718994Y-112560382D01*
X121765424Y-112549234D01*
X121814172Y-112532500D01*
X121882903Y-112521030D01*
X121947805Y-112505449D01*
X122001690Y-112501208D01*
X122058531Y-112491723D01*
X122122211Y-112491723D01*
X122182400Y-112486986D01*
X122242589Y-112491723D01*
G37*
G36*
X136262729Y-113429793D02*
G01*
X136311662Y-113429793D01*
X136353917Y-113438774D01*
X136390783Y-113442406D01*
X136437102Y-113456456D01*
X136490590Y-113467826D01*
X136524812Y-113483062D01*
X136554819Y-113492165D01*
X136602508Y-113517654D01*
X136657700Y-113542228D01*
X136683358Y-113560870D01*
X136705987Y-113572965D01*
X136752141Y-113610843D01*
X136805689Y-113649748D01*
X136823078Y-113669060D01*
X136838490Y-113681709D01*
X136879910Y-113732179D01*
X136928090Y-113785688D01*
X136938210Y-113803216D01*
X136947234Y-113814212D01*
X136980613Y-113876662D01*
X137019552Y-113944105D01*
X137024031Y-113957892D01*
X137028034Y-113965380D01*
X137050095Y-114038107D01*
X137076079Y-114118077D01*
X137076993Y-114126781D01*
X137077793Y-114129416D01*
X137085577Y-114208444D01*
X137095200Y-114300000D01*
X137085576Y-114391563D01*
X137077793Y-114470583D01*
X137076994Y-114473216D01*
X137076079Y-114481923D01*
X137050090Y-114561906D01*
X137028034Y-114634619D01*
X137024032Y-114642105D01*
X137019552Y-114655895D01*
X136980606Y-114723350D01*
X136947234Y-114785787D01*
X136938211Y-114796780D01*
X136928090Y-114814312D01*
X136879901Y-114867831D01*
X136838490Y-114918290D01*
X136823081Y-114930935D01*
X136805689Y-114950252D01*
X136752130Y-114989164D01*
X136705987Y-115027034D01*
X136683363Y-115039126D01*
X136657700Y-115057772D01*
X136602496Y-115082349D01*
X136554819Y-115107834D01*
X136524819Y-115116934D01*
X136490590Y-115132174D01*
X136437091Y-115143545D01*
X136390783Y-115157593D01*
X136353926Y-115161223D01*
X136311662Y-115170207D01*
X136262719Y-115170207D01*
X136220200Y-115174395D01*
X136177681Y-115170207D01*
X136128738Y-115170207D01*
X136086474Y-115161223D01*
X136049616Y-115157593D01*
X136003304Y-115143544D01*
X135949810Y-115132174D01*
X135915582Y-115116935D01*
X135885580Y-115107834D01*
X135837897Y-115082347D01*
X135782700Y-115057772D01*
X135757038Y-115039128D01*
X135734412Y-115027034D01*
X135688260Y-114989157D01*
X135634711Y-114950252D01*
X135617321Y-114930938D01*
X135601909Y-114918290D01*
X135560487Y-114867818D01*
X135512310Y-114814312D01*
X135502190Y-114796784D01*
X135493165Y-114785787D01*
X135459779Y-114723326D01*
X135420848Y-114655895D01*
X135416368Y-114642110D01*
X135412365Y-114634619D01*
X135390294Y-114561860D01*
X135364321Y-114481923D01*
X135363406Y-114473221D01*
X135362606Y-114470583D01*
X135354807Y-114391412D01*
X135345200Y-114300000D01*
X135354807Y-114208595D01*
X135362606Y-114129416D01*
X135363406Y-114126776D01*
X135364321Y-114118077D01*
X135390289Y-114038153D01*
X135412365Y-113965380D01*
X135416369Y-113957887D01*
X135420848Y-113944105D01*
X135459772Y-113876685D01*
X135493165Y-113814212D01*
X135502192Y-113803212D01*
X135512310Y-113785688D01*
X135560478Y-113732191D01*
X135601909Y-113681709D01*
X135617324Y-113669057D01*
X135634711Y-113649748D01*
X135688249Y-113610849D01*
X135734412Y-113572965D01*
X135757044Y-113560868D01*
X135782700Y-113542228D01*
X135837886Y-113517657D01*
X135885580Y-113492165D01*
X135915589Y-113483061D01*
X135949810Y-113467826D01*
X136003293Y-113456457D01*
X136049616Y-113442406D01*
X136086483Y-113438774D01*
X136128738Y-113429793D01*
X136177671Y-113429793D01*
X136220200Y-113425604D01*
X136262729Y-113429793D01*
G37*
G36*
X138802729Y-113429793D02*
G01*
X138851662Y-113429793D01*
X138893917Y-113438774D01*
X138930783Y-113442406D01*
X138977102Y-113456456D01*
X139030590Y-113467826D01*
X139064812Y-113483062D01*
X139094819Y-113492165D01*
X139142508Y-113517654D01*
X139197700Y-113542228D01*
X139223358Y-113560870D01*
X139245987Y-113572965D01*
X139292141Y-113610843D01*
X139345689Y-113649748D01*
X139363078Y-113669060D01*
X139378490Y-113681709D01*
X139419910Y-113732179D01*
X139468090Y-113785688D01*
X139478210Y-113803216D01*
X139487234Y-113814212D01*
X139520613Y-113876662D01*
X139559552Y-113944105D01*
X139564031Y-113957892D01*
X139568034Y-113965380D01*
X139590095Y-114038107D01*
X139616079Y-114118077D01*
X139616993Y-114126781D01*
X139617793Y-114129416D01*
X139625577Y-114208444D01*
X139635200Y-114300000D01*
X139625576Y-114391563D01*
X139617793Y-114470583D01*
X139616994Y-114473216D01*
X139616079Y-114481923D01*
X139590090Y-114561906D01*
X139568034Y-114634619D01*
X139564032Y-114642105D01*
X139559552Y-114655895D01*
X139520606Y-114723350D01*
X139487234Y-114785787D01*
X139478211Y-114796780D01*
X139468090Y-114814312D01*
X139419901Y-114867831D01*
X139378490Y-114918290D01*
X139363081Y-114930935D01*
X139345689Y-114950252D01*
X139292130Y-114989164D01*
X139245987Y-115027034D01*
X139223363Y-115039126D01*
X139197700Y-115057772D01*
X139142496Y-115082349D01*
X139094819Y-115107834D01*
X139064819Y-115116934D01*
X139030590Y-115132174D01*
X138977091Y-115143545D01*
X138930783Y-115157593D01*
X138893926Y-115161223D01*
X138851662Y-115170207D01*
X138802719Y-115170207D01*
X138760200Y-115174395D01*
X138717681Y-115170207D01*
X138668738Y-115170207D01*
X138626474Y-115161223D01*
X138589616Y-115157593D01*
X138543304Y-115143544D01*
X138489810Y-115132174D01*
X138455582Y-115116935D01*
X138425580Y-115107834D01*
X138377897Y-115082347D01*
X138322700Y-115057772D01*
X138297038Y-115039128D01*
X138274412Y-115027034D01*
X138228260Y-114989157D01*
X138174711Y-114950252D01*
X138157321Y-114930938D01*
X138141909Y-114918290D01*
X138100487Y-114867818D01*
X138052310Y-114814312D01*
X138042190Y-114796784D01*
X138033165Y-114785787D01*
X137999779Y-114723326D01*
X137960848Y-114655895D01*
X137956368Y-114642110D01*
X137952365Y-114634619D01*
X137930294Y-114561860D01*
X137904321Y-114481923D01*
X137903406Y-114473221D01*
X137902606Y-114470583D01*
X137894807Y-114391412D01*
X137885200Y-114300000D01*
X137894807Y-114208595D01*
X137902606Y-114129416D01*
X137903406Y-114126776D01*
X137904321Y-114118077D01*
X137930289Y-114038153D01*
X137952365Y-113965380D01*
X137956369Y-113957887D01*
X137960848Y-113944105D01*
X137999772Y-113876685D01*
X138033165Y-113814212D01*
X138042192Y-113803212D01*
X138052310Y-113785688D01*
X138100478Y-113732191D01*
X138141909Y-113681709D01*
X138157324Y-113669057D01*
X138174711Y-113649748D01*
X138228249Y-113610849D01*
X138274412Y-113572965D01*
X138297044Y-113560868D01*
X138322700Y-113542228D01*
X138377886Y-113517657D01*
X138425580Y-113492165D01*
X138455589Y-113483061D01*
X138489810Y-113467826D01*
X138543293Y-113456457D01*
X138589616Y-113442406D01*
X138626483Y-113438774D01*
X138668738Y-113429793D01*
X138717671Y-113429793D01*
X138760200Y-113425604D01*
X138802729Y-113429793D01*
G37*
G36*
X146422729Y-113429793D02*
G01*
X146471662Y-113429793D01*
X146513917Y-113438774D01*
X146550783Y-113442406D01*
X146597102Y-113456456D01*
X146650590Y-113467826D01*
X146684812Y-113483062D01*
X146714819Y-113492165D01*
X146762508Y-113517654D01*
X146817700Y-113542228D01*
X146843358Y-113560870D01*
X146865987Y-113572965D01*
X146912141Y-113610843D01*
X146965689Y-113649748D01*
X146983078Y-113669060D01*
X146998490Y-113681709D01*
X147039910Y-113732179D01*
X147088090Y-113785688D01*
X147098210Y-113803216D01*
X147107234Y-113814212D01*
X147140613Y-113876662D01*
X147179552Y-113944105D01*
X147184031Y-113957892D01*
X147188034Y-113965380D01*
X147210095Y-114038107D01*
X147236079Y-114118077D01*
X147236993Y-114126781D01*
X147237793Y-114129416D01*
X147245577Y-114208444D01*
X147255200Y-114300000D01*
X147245576Y-114391563D01*
X147237793Y-114470583D01*
X147236994Y-114473216D01*
X147236079Y-114481923D01*
X147210090Y-114561906D01*
X147188034Y-114634619D01*
X147184032Y-114642105D01*
X147179552Y-114655895D01*
X147140606Y-114723350D01*
X147107234Y-114785787D01*
X147098211Y-114796780D01*
X147088090Y-114814312D01*
X147039901Y-114867831D01*
X146998490Y-114918290D01*
X146983081Y-114930935D01*
X146965689Y-114950252D01*
X146912130Y-114989164D01*
X146865987Y-115027034D01*
X146843363Y-115039126D01*
X146817700Y-115057772D01*
X146762496Y-115082349D01*
X146714819Y-115107834D01*
X146684819Y-115116934D01*
X146650590Y-115132174D01*
X146597091Y-115143545D01*
X146550783Y-115157593D01*
X146513926Y-115161223D01*
X146471662Y-115170207D01*
X146422719Y-115170207D01*
X146380200Y-115174395D01*
X146337681Y-115170207D01*
X146288738Y-115170207D01*
X146246474Y-115161223D01*
X146209616Y-115157593D01*
X146163304Y-115143544D01*
X146109810Y-115132174D01*
X146075582Y-115116935D01*
X146045580Y-115107834D01*
X145997897Y-115082347D01*
X145942700Y-115057772D01*
X145917038Y-115039128D01*
X145894412Y-115027034D01*
X145848260Y-114989157D01*
X145794711Y-114950252D01*
X145777321Y-114930938D01*
X145761909Y-114918290D01*
X145720487Y-114867818D01*
X145672310Y-114814312D01*
X145662190Y-114796784D01*
X145653165Y-114785787D01*
X145619779Y-114723326D01*
X145580848Y-114655895D01*
X145576368Y-114642110D01*
X145572365Y-114634619D01*
X145550294Y-114561860D01*
X145524321Y-114481923D01*
X145523406Y-114473221D01*
X145522606Y-114470583D01*
X145514807Y-114391412D01*
X145505200Y-114300000D01*
X145514807Y-114208595D01*
X145522606Y-114129416D01*
X145523406Y-114126776D01*
X145524321Y-114118077D01*
X145550289Y-114038153D01*
X145572365Y-113965380D01*
X145576369Y-113957887D01*
X145580848Y-113944105D01*
X145619772Y-113876685D01*
X145653165Y-113814212D01*
X145662192Y-113803212D01*
X145672310Y-113785688D01*
X145720478Y-113732191D01*
X145761909Y-113681709D01*
X145777324Y-113669057D01*
X145794711Y-113649748D01*
X145848249Y-113610849D01*
X145894412Y-113572965D01*
X145917044Y-113560868D01*
X145942700Y-113542228D01*
X145997886Y-113517657D01*
X146045580Y-113492165D01*
X146075589Y-113483061D01*
X146109810Y-113467826D01*
X146163293Y-113456457D01*
X146209616Y-113442406D01*
X146246483Y-113438774D01*
X146288738Y-113429793D01*
X146337671Y-113429793D01*
X146380200Y-113425604D01*
X146422729Y-113429793D01*
G37*
G36*
X151502729Y-113429793D02*
G01*
X151551662Y-113429793D01*
X151593917Y-113438774D01*
X151630783Y-113442406D01*
X151677102Y-113456456D01*
X151730590Y-113467826D01*
X151764812Y-113483062D01*
X151794819Y-113492165D01*
X151842508Y-113517654D01*
X151897700Y-113542228D01*
X151923358Y-113560870D01*
X151945987Y-113572965D01*
X151992141Y-113610843D01*
X152045689Y-113649748D01*
X152063078Y-113669060D01*
X152078490Y-113681709D01*
X152119910Y-113732179D01*
X152168090Y-113785688D01*
X152178210Y-113803216D01*
X152187234Y-113814212D01*
X152220613Y-113876662D01*
X152259552Y-113944105D01*
X152264031Y-113957892D01*
X152268034Y-113965380D01*
X152290095Y-114038107D01*
X152316079Y-114118077D01*
X152316993Y-114126781D01*
X152317793Y-114129416D01*
X152325577Y-114208444D01*
X152335200Y-114300000D01*
X152325576Y-114391563D01*
X152317793Y-114470583D01*
X152316994Y-114473216D01*
X152316079Y-114481923D01*
X152290090Y-114561906D01*
X152268034Y-114634619D01*
X152264032Y-114642105D01*
X152259552Y-114655895D01*
X152220606Y-114723350D01*
X152187234Y-114785787D01*
X152178211Y-114796780D01*
X152168090Y-114814312D01*
X152119901Y-114867831D01*
X152078490Y-114918290D01*
X152063081Y-114930935D01*
X152045689Y-114950252D01*
X151992130Y-114989164D01*
X151945987Y-115027034D01*
X151923363Y-115039126D01*
X151897700Y-115057772D01*
X151842496Y-115082349D01*
X151794819Y-115107834D01*
X151764819Y-115116934D01*
X151730590Y-115132174D01*
X151677091Y-115143545D01*
X151630783Y-115157593D01*
X151593926Y-115161223D01*
X151551662Y-115170207D01*
X151502719Y-115170207D01*
X151460200Y-115174395D01*
X151417681Y-115170207D01*
X151368738Y-115170207D01*
X151326474Y-115161223D01*
X151289616Y-115157593D01*
X151243304Y-115143544D01*
X151189810Y-115132174D01*
X151155582Y-115116935D01*
X151125580Y-115107834D01*
X151077897Y-115082347D01*
X151022700Y-115057772D01*
X150997038Y-115039128D01*
X150974412Y-115027034D01*
X150928260Y-114989157D01*
X150874711Y-114950252D01*
X150857321Y-114930938D01*
X150841909Y-114918290D01*
X150800487Y-114867818D01*
X150752310Y-114814312D01*
X150742190Y-114796784D01*
X150733165Y-114785787D01*
X150699779Y-114723326D01*
X150660848Y-114655895D01*
X150656368Y-114642110D01*
X150652365Y-114634619D01*
X150630294Y-114561860D01*
X150604321Y-114481923D01*
X150603406Y-114473221D01*
X150602606Y-114470583D01*
X150594807Y-114391412D01*
X150585200Y-114300000D01*
X150594807Y-114208595D01*
X150602606Y-114129416D01*
X150603406Y-114126776D01*
X150604321Y-114118077D01*
X150630289Y-114038153D01*
X150652365Y-113965380D01*
X150656369Y-113957887D01*
X150660848Y-113944105D01*
X150699772Y-113876685D01*
X150733165Y-113814212D01*
X150742192Y-113803212D01*
X150752310Y-113785688D01*
X150800478Y-113732191D01*
X150841909Y-113681709D01*
X150857324Y-113669057D01*
X150874711Y-113649748D01*
X150928249Y-113610849D01*
X150974412Y-113572965D01*
X150997044Y-113560868D01*
X151022700Y-113542228D01*
X151077886Y-113517657D01*
X151125580Y-113492165D01*
X151155589Y-113483061D01*
X151189810Y-113467826D01*
X151243293Y-113456457D01*
X151289616Y-113442406D01*
X151326483Y-113438774D01*
X151368738Y-113429793D01*
X151417671Y-113429793D01*
X151460200Y-113425604D01*
X151502729Y-113429793D01*
G37*
G36*
X129373842Y-113255991D02*
G01*
X129406527Y-113260294D01*
X129414748Y-113264127D01*
X129434337Y-113268024D01*
X129460280Y-113285359D01*
X129471408Y-113290548D01*
X129478178Y-113297318D01*
X129499221Y-113311379D01*
X129513281Y-113332421D01*
X129520051Y-113339191D01*
X129525238Y-113350316D01*
X129542576Y-113376263D01*
X129546472Y-113395853D01*
X129550305Y-113404072D01*
X129554606Y-113436745D01*
X129557800Y-113452800D01*
X129557800Y-113852800D01*
X129554605Y-113868857D01*
X129550305Y-113901527D01*
X129546473Y-113909744D01*
X129542576Y-113929337D01*
X129525237Y-113955285D01*
X129520051Y-113966408D01*
X129513283Y-113973175D01*
X129499221Y-113994221D01*
X129478175Y-114008283D01*
X129471408Y-114015051D01*
X129460285Y-114020237D01*
X129434337Y-114037576D01*
X129414744Y-114041473D01*
X129406527Y-114045305D01*
X129373856Y-114049606D01*
X129357800Y-114052800D01*
X128807800Y-114052800D01*
X128791744Y-114049606D01*
X128759072Y-114045305D01*
X128750853Y-114041472D01*
X128731263Y-114037576D01*
X128705316Y-114020238D01*
X128694191Y-114015051D01*
X128687421Y-114008281D01*
X128666379Y-113994221D01*
X128652318Y-113973178D01*
X128645548Y-113966408D01*
X128640359Y-113955280D01*
X128623024Y-113929337D01*
X128619127Y-113909748D01*
X128615294Y-113901527D01*
X128610990Y-113868841D01*
X128607800Y-113852800D01*
X128607800Y-113452800D01*
X128610990Y-113436759D01*
X128615294Y-113404072D01*
X128619127Y-113395849D01*
X128623024Y-113376263D01*
X128640357Y-113350321D01*
X128645548Y-113339191D01*
X128652320Y-113332418D01*
X128666379Y-113311379D01*
X128687418Y-113297320D01*
X128694191Y-113290548D01*
X128705321Y-113285357D01*
X128731263Y-113268024D01*
X128750849Y-113264127D01*
X128759072Y-113260294D01*
X128791760Y-113255990D01*
X128807800Y-113252800D01*
X129357800Y-113252800D01*
X129373842Y-113255991D01*
G37*
G36*
X157542442Y-113229591D02*
G01*
X157575127Y-113233894D01*
X157583348Y-113237727D01*
X157602937Y-113241624D01*
X157628880Y-113258959D01*
X157640008Y-113264148D01*
X157646778Y-113270918D01*
X157667821Y-113284979D01*
X157681881Y-113306021D01*
X157688651Y-113312791D01*
X157693838Y-113323916D01*
X157711176Y-113349863D01*
X157715072Y-113369453D01*
X157718905Y-113377672D01*
X157723206Y-113410345D01*
X157726400Y-113426400D01*
X157726400Y-113826400D01*
X157723205Y-113842457D01*
X157718905Y-113875127D01*
X157715073Y-113883344D01*
X157711176Y-113902937D01*
X157693837Y-113928885D01*
X157688651Y-113940008D01*
X157681883Y-113946775D01*
X157667821Y-113967821D01*
X157646775Y-113981883D01*
X157640008Y-113988651D01*
X157628885Y-113993837D01*
X157602937Y-114011176D01*
X157583344Y-114015073D01*
X157575127Y-114018905D01*
X157542456Y-114023206D01*
X157526400Y-114026400D01*
X156976400Y-114026400D01*
X156960344Y-114023206D01*
X156927672Y-114018905D01*
X156919453Y-114015072D01*
X156899863Y-114011176D01*
X156873916Y-113993838D01*
X156862791Y-113988651D01*
X156856021Y-113981881D01*
X156834979Y-113967821D01*
X156820918Y-113946778D01*
X156814148Y-113940008D01*
X156808959Y-113928880D01*
X156791624Y-113902937D01*
X156787727Y-113883348D01*
X156783894Y-113875127D01*
X156779590Y-113842441D01*
X156776400Y-113826400D01*
X156776400Y-113426400D01*
X156779590Y-113410359D01*
X156783894Y-113377672D01*
X156787727Y-113369449D01*
X156791624Y-113349863D01*
X156808957Y-113323921D01*
X156814148Y-113312791D01*
X156820920Y-113306018D01*
X156834979Y-113284979D01*
X156856018Y-113270920D01*
X156862791Y-113264148D01*
X156873921Y-113258957D01*
X156899863Y-113241624D01*
X156919449Y-113237727D01*
X156927672Y-113233894D01*
X156960360Y-113229590D01*
X156976400Y-113226400D01*
X157526400Y-113226400D01*
X157542442Y-113229591D01*
G37*
G36*
X163109812Y-111261682D02*
G01*
X163175996Y-111264282D01*
X163181956Y-111265226D01*
X163198017Y-111266015D01*
X163241320Y-111274628D01*
X163333355Y-111289206D01*
X163362956Y-111298823D01*
X163390285Y-111304260D01*
X163428846Y-111320232D01*
X163482532Y-111337676D01*
X163532828Y-111363303D01*
X163571397Y-111379279D01*
X163594567Y-111394760D01*
X163622301Y-111408892D01*
X163697696Y-111463670D01*
X163734393Y-111488190D01*
X163742224Y-111496021D01*
X163749191Y-111501083D01*
X163860116Y-111612008D01*
X163865177Y-111618974D01*
X163873010Y-111626807D01*
X163897532Y-111663508D01*
X163952307Y-111738898D01*
X163966437Y-111766629D01*
X163981921Y-111789803D01*
X163997898Y-111828376D01*
X164023523Y-111878667D01*
X164040964Y-111932345D01*
X164056940Y-111970915D01*
X164062377Y-111998249D01*
X164071993Y-112027844D01*
X164086567Y-112119861D01*
X164095185Y-112163183D01*
X164095185Y-112174266D01*
X164096532Y-112182771D01*
X164096532Y-112339628D01*
X164095185Y-112348132D01*
X164095185Y-112359217D01*
X164086567Y-112402541D01*
X164071993Y-112494555D01*
X164062377Y-112524148D01*
X164056940Y-112551485D01*
X164040962Y-112590058D01*
X164023523Y-112643732D01*
X163997900Y-112694018D01*
X163981921Y-112732597D01*
X163966434Y-112755773D01*
X163952307Y-112783501D01*
X163897541Y-112858879D01*
X163873010Y-112895593D01*
X163865174Y-112903428D01*
X163860116Y-112910391D01*
X163749191Y-113021316D01*
X163742228Y-113026374D01*
X163734393Y-113034210D01*
X163697679Y-113058741D01*
X163622301Y-113113507D01*
X163594573Y-113127634D01*
X163571397Y-113143121D01*
X163532818Y-113159100D01*
X163482532Y-113184723D01*
X163428858Y-113202162D01*
X163390285Y-113218140D01*
X163362948Y-113223577D01*
X163333355Y-113233193D01*
X163241344Y-113247766D01*
X163198017Y-113256385D01*
X163186768Y-113256410D01*
X163178326Y-113257748D01*
X161102355Y-113261195D01*
X161102345Y-113261194D01*
X161100000Y-113261200D01*
X161090089Y-113260713D01*
X161024003Y-113258117D01*
X161018051Y-113257174D01*
X161001983Y-113256385D01*
X160958658Y-113247767D01*
X160866644Y-113233193D01*
X160837049Y-113223577D01*
X160809715Y-113218140D01*
X160771145Y-113202164D01*
X160717467Y-113184723D01*
X160667176Y-113159098D01*
X160628603Y-113143121D01*
X160605429Y-113127637D01*
X160577698Y-113113507D01*
X160502308Y-113058732D01*
X160465607Y-113034210D01*
X160457774Y-113026377D01*
X160450808Y-113021316D01*
X160339883Y-112910391D01*
X160334821Y-112903424D01*
X160326990Y-112895593D01*
X160302470Y-112858896D01*
X160247692Y-112783501D01*
X160233560Y-112755767D01*
X160218079Y-112732597D01*
X160202103Y-112694028D01*
X160176476Y-112643732D01*
X160159032Y-112590046D01*
X160143060Y-112551485D01*
X160137623Y-112524156D01*
X160128006Y-112494555D01*
X160113430Y-112402531D01*
X160104815Y-112359217D01*
X160104815Y-112348132D01*
X160103468Y-112339628D01*
X160103468Y-112182771D01*
X160104815Y-112174266D01*
X160104815Y-112163183D01*
X160113430Y-112119871D01*
X160128006Y-112027844D01*
X160137624Y-111998241D01*
X160143060Y-111970915D01*
X160159031Y-111932356D01*
X160176476Y-111878667D01*
X160202105Y-111828365D01*
X160218079Y-111789803D01*
X160233558Y-111766636D01*
X160247692Y-111738898D01*
X160302478Y-111663490D01*
X160326990Y-111626807D01*
X160334818Y-111618978D01*
X160339883Y-111612008D01*
X160450808Y-111501083D01*
X160457778Y-111496018D01*
X160465607Y-111488190D01*
X160502290Y-111463678D01*
X160577698Y-111408892D01*
X160605436Y-111394758D01*
X160628603Y-111379279D01*
X160667165Y-111363305D01*
X160717467Y-111337676D01*
X160771156Y-111320231D01*
X160809715Y-111304260D01*
X160837041Y-111298824D01*
X160866644Y-111289206D01*
X160958684Y-111274627D01*
X161001983Y-111266015D01*
X161013224Y-111265989D01*
X161021673Y-111264651D01*
X163097644Y-111261204D01*
X163097677Y-111261205D01*
X163100000Y-111261200D01*
X163109812Y-111261682D01*
G37*
G36*
X155869597Y-111422332D02*
G01*
X155914450Y-111428867D01*
X155922682Y-111432891D01*
X155940471Y-111436430D01*
X155969240Y-111455653D01*
X155989063Y-111465344D01*
X155999773Y-111476054D01*
X156021577Y-111490623D01*
X156036145Y-111512426D01*
X156046855Y-111523136D01*
X156056544Y-111542956D01*
X156075770Y-111571729D01*
X156079308Y-111589519D01*
X156083332Y-111597749D01*
X156089864Y-111642587D01*
X156094800Y-111667400D01*
X156094800Y-112467400D01*
X156089863Y-112492216D01*
X156083332Y-112537050D01*
X156079309Y-112545278D01*
X156075770Y-112563071D01*
X156056542Y-112591846D01*
X156046855Y-112611663D01*
X156036147Y-112622370D01*
X156021577Y-112644177D01*
X155999770Y-112658747D01*
X155989063Y-112669455D01*
X155969246Y-112679142D01*
X155940471Y-112698370D01*
X155922678Y-112701909D01*
X155914450Y-112705932D01*
X155869614Y-112712464D01*
X155844800Y-112717400D01*
X154644800Y-112717400D01*
X154619986Y-112712464D01*
X154575149Y-112705932D01*
X154566919Y-112701908D01*
X154549129Y-112698370D01*
X154520356Y-112679144D01*
X154500536Y-112669455D01*
X154489826Y-112658745D01*
X154468023Y-112644177D01*
X154453454Y-112622373D01*
X154442744Y-112611663D01*
X154433053Y-112591840D01*
X154413830Y-112563071D01*
X154410291Y-112545282D01*
X154406267Y-112537050D01*
X154399732Y-112492196D01*
X154394800Y-112467400D01*
X154394800Y-111667400D01*
X154399731Y-111642605D01*
X154406267Y-111597749D01*
X154410291Y-111589515D01*
X154413830Y-111571729D01*
X154433051Y-111542961D01*
X154442744Y-111523136D01*
X154453456Y-111512423D01*
X154468023Y-111490623D01*
X154489823Y-111476056D01*
X154500536Y-111465344D01*
X154520361Y-111455651D01*
X154549129Y-111436430D01*
X154566915Y-111432891D01*
X154575149Y-111428867D01*
X154620006Y-111422331D01*
X154644800Y-111417400D01*
X155844800Y-111417400D01*
X155869597Y-111422332D01*
G37*
G36*
X157542442Y-111579591D02*
G01*
X157575127Y-111583894D01*
X157583348Y-111587727D01*
X157602937Y-111591624D01*
X157628880Y-111608959D01*
X157640008Y-111614148D01*
X157646778Y-111620918D01*
X157667821Y-111634979D01*
X157681881Y-111656021D01*
X157688651Y-111662791D01*
X157693838Y-111673916D01*
X157711176Y-111699863D01*
X157715072Y-111719453D01*
X157718905Y-111727672D01*
X157723206Y-111760345D01*
X157726400Y-111776400D01*
X157726400Y-112176400D01*
X157723205Y-112192457D01*
X157718905Y-112225127D01*
X157715073Y-112233344D01*
X157711176Y-112252937D01*
X157693837Y-112278885D01*
X157688651Y-112290008D01*
X157681883Y-112296775D01*
X157667821Y-112317821D01*
X157646775Y-112331883D01*
X157640008Y-112338651D01*
X157628885Y-112343837D01*
X157602937Y-112361176D01*
X157583344Y-112365073D01*
X157575127Y-112368905D01*
X157542456Y-112373206D01*
X157526400Y-112376400D01*
X156976400Y-112376400D01*
X156960344Y-112373206D01*
X156927672Y-112368905D01*
X156919453Y-112365072D01*
X156899863Y-112361176D01*
X156873916Y-112343838D01*
X156862791Y-112338651D01*
X156856021Y-112331881D01*
X156834979Y-112317821D01*
X156820918Y-112296778D01*
X156814148Y-112290008D01*
X156808959Y-112278880D01*
X156791624Y-112252937D01*
X156787727Y-112233348D01*
X156783894Y-112225127D01*
X156779590Y-112192441D01*
X156776400Y-112176400D01*
X156776400Y-111776400D01*
X156779590Y-111760359D01*
X156783894Y-111727672D01*
X156787727Y-111719449D01*
X156791624Y-111699863D01*
X156808957Y-111673921D01*
X156814148Y-111662791D01*
X156820920Y-111656018D01*
X156834979Y-111634979D01*
X156856018Y-111620920D01*
X156862791Y-111614148D01*
X156873921Y-111608957D01*
X156899863Y-111591624D01*
X156919449Y-111587727D01*
X156927672Y-111583894D01*
X156960360Y-111579590D01*
X156976400Y-111576400D01*
X157526400Y-111576400D01*
X157542442Y-111579591D01*
G37*
G36*
X151041797Y-111139532D02*
G01*
X151086650Y-111146067D01*
X151094882Y-111150091D01*
X151112671Y-111153630D01*
X151141440Y-111172853D01*
X151161263Y-111182544D01*
X151171973Y-111193254D01*
X151193777Y-111207823D01*
X151208345Y-111229626D01*
X151219055Y-111240336D01*
X151228744Y-111260156D01*
X151247970Y-111288929D01*
X151251508Y-111306719D01*
X151255532Y-111314949D01*
X151262064Y-111359787D01*
X151267000Y-111384600D01*
X151267000Y-112084600D01*
X151262063Y-112109416D01*
X151255532Y-112154250D01*
X151251509Y-112162478D01*
X151247970Y-112180271D01*
X151228742Y-112209046D01*
X151219055Y-112228863D01*
X151208347Y-112239570D01*
X151193777Y-112261377D01*
X151171970Y-112275947D01*
X151161263Y-112286655D01*
X151141446Y-112296342D01*
X151112671Y-112315570D01*
X151094878Y-112319109D01*
X151086650Y-112323132D01*
X151041814Y-112329664D01*
X151017000Y-112334600D01*
X150467000Y-112334600D01*
X150442186Y-112329664D01*
X150397349Y-112323132D01*
X150389119Y-112319108D01*
X150371329Y-112315570D01*
X150342556Y-112296344D01*
X150322736Y-112286655D01*
X150312026Y-112275945D01*
X150290223Y-112261377D01*
X150275654Y-112239573D01*
X150264944Y-112228863D01*
X150255253Y-112209040D01*
X150236030Y-112180271D01*
X150232491Y-112162482D01*
X150228467Y-112154250D01*
X150221932Y-112109396D01*
X150217000Y-112084600D01*
X150217000Y-111384600D01*
X150221931Y-111359805D01*
X150228467Y-111314949D01*
X150232491Y-111306715D01*
X150236030Y-111288929D01*
X150255251Y-111260161D01*
X150264944Y-111240336D01*
X150275656Y-111229623D01*
X150290223Y-111207823D01*
X150312023Y-111193256D01*
X150322736Y-111182544D01*
X150342561Y-111172851D01*
X150371329Y-111153630D01*
X150389115Y-111150091D01*
X150397349Y-111146067D01*
X150442206Y-111139531D01*
X150467000Y-111134600D01*
X151017000Y-111134600D01*
X151041797Y-111139532D01*
G37*
G36*
X153341797Y-111139532D02*
G01*
X153386650Y-111146067D01*
X153394882Y-111150091D01*
X153412671Y-111153630D01*
X153441440Y-111172853D01*
X153461263Y-111182544D01*
X153471973Y-111193254D01*
X153493777Y-111207823D01*
X153508345Y-111229626D01*
X153519055Y-111240336D01*
X153528744Y-111260156D01*
X153547970Y-111288929D01*
X153551508Y-111306719D01*
X153555532Y-111314949D01*
X153562064Y-111359787D01*
X153567000Y-111384600D01*
X153567000Y-112084600D01*
X153562063Y-112109416D01*
X153555532Y-112154250D01*
X153551509Y-112162478D01*
X153547970Y-112180271D01*
X153528742Y-112209046D01*
X153519055Y-112228863D01*
X153508347Y-112239570D01*
X153493777Y-112261377D01*
X153471970Y-112275947D01*
X153461263Y-112286655D01*
X153441446Y-112296342D01*
X153412671Y-112315570D01*
X153394878Y-112319109D01*
X153386650Y-112323132D01*
X153341814Y-112329664D01*
X153317000Y-112334600D01*
X152767000Y-112334600D01*
X152742186Y-112329664D01*
X152697349Y-112323132D01*
X152689119Y-112319108D01*
X152671329Y-112315570D01*
X152642556Y-112296344D01*
X152622736Y-112286655D01*
X152612026Y-112275945D01*
X152590223Y-112261377D01*
X152575654Y-112239573D01*
X152564944Y-112228863D01*
X152555253Y-112209040D01*
X152536030Y-112180271D01*
X152532491Y-112162482D01*
X152528467Y-112154250D01*
X152521932Y-112109396D01*
X152517000Y-112084600D01*
X152517000Y-111384600D01*
X152521931Y-111359805D01*
X152528467Y-111314949D01*
X152532491Y-111306715D01*
X152536030Y-111288929D01*
X152555251Y-111260161D01*
X152564944Y-111240336D01*
X152575656Y-111229623D01*
X152590223Y-111207823D01*
X152612023Y-111193256D01*
X152622736Y-111182544D01*
X152642561Y-111172851D01*
X152671329Y-111153630D01*
X152689115Y-111150091D01*
X152697349Y-111146067D01*
X152742206Y-111139531D01*
X152767000Y-111134600D01*
X153317000Y-111134600D01*
X153341797Y-111139532D01*
G37*
G36*
X135925997Y-110887532D02*
G01*
X135970850Y-110894067D01*
X135979082Y-110898091D01*
X135996871Y-110901630D01*
X136025640Y-110920853D01*
X136045463Y-110930544D01*
X136056173Y-110941254D01*
X136077977Y-110955823D01*
X136092545Y-110977626D01*
X136103255Y-110988336D01*
X136112944Y-111008156D01*
X136132170Y-111036929D01*
X136135708Y-111054719D01*
X136139732Y-111062949D01*
X136146264Y-111107787D01*
X136151200Y-111132600D01*
X136151200Y-112082600D01*
X136146263Y-112107416D01*
X136139732Y-112152250D01*
X136135709Y-112160478D01*
X136132170Y-112178271D01*
X136112942Y-112207046D01*
X136103255Y-112226863D01*
X136092547Y-112237570D01*
X136077977Y-112259377D01*
X136056170Y-112273947D01*
X136045463Y-112284655D01*
X136025646Y-112294342D01*
X135996871Y-112313570D01*
X135979078Y-112317109D01*
X135970850Y-112321132D01*
X135926014Y-112327664D01*
X135901200Y-112332600D01*
X135401200Y-112332600D01*
X135376386Y-112327664D01*
X135331549Y-112321132D01*
X135323319Y-112317108D01*
X135305529Y-112313570D01*
X135276756Y-112294344D01*
X135256936Y-112284655D01*
X135246226Y-112273945D01*
X135224423Y-112259377D01*
X135209854Y-112237573D01*
X135199144Y-112226863D01*
X135189453Y-112207040D01*
X135170230Y-112178271D01*
X135166691Y-112160482D01*
X135162667Y-112152250D01*
X135156132Y-112107396D01*
X135151200Y-112082600D01*
X135151200Y-111132600D01*
X135156131Y-111107805D01*
X135162667Y-111062949D01*
X135166691Y-111054715D01*
X135170230Y-111036929D01*
X135189451Y-111008161D01*
X135199144Y-110988336D01*
X135209856Y-110977623D01*
X135224423Y-110955823D01*
X135246223Y-110941256D01*
X135256936Y-110930544D01*
X135276761Y-110920851D01*
X135305529Y-110901630D01*
X135323315Y-110898091D01*
X135331549Y-110894067D01*
X135376406Y-110887531D01*
X135401200Y-110882600D01*
X135901200Y-110882600D01*
X135925997Y-110887532D01*
G37*
G36*
X137825997Y-110887532D02*
G01*
X137870850Y-110894067D01*
X137879082Y-110898091D01*
X137896871Y-110901630D01*
X137925640Y-110920853D01*
X137945463Y-110930544D01*
X137956173Y-110941254D01*
X137977977Y-110955823D01*
X137992545Y-110977626D01*
X138003255Y-110988336D01*
X138012944Y-111008156D01*
X138032170Y-111036929D01*
X138035708Y-111054719D01*
X138039732Y-111062949D01*
X138046264Y-111107787D01*
X138051200Y-111132600D01*
X138051200Y-112082600D01*
X138046263Y-112107416D01*
X138039732Y-112152250D01*
X138035709Y-112160478D01*
X138032170Y-112178271D01*
X138012942Y-112207046D01*
X138003255Y-112226863D01*
X137992547Y-112237570D01*
X137977977Y-112259377D01*
X137956170Y-112273947D01*
X137945463Y-112284655D01*
X137925646Y-112294342D01*
X137896871Y-112313570D01*
X137879078Y-112317109D01*
X137870850Y-112321132D01*
X137826014Y-112327664D01*
X137801200Y-112332600D01*
X137301200Y-112332600D01*
X137276386Y-112327664D01*
X137231549Y-112321132D01*
X137223319Y-112317108D01*
X137205529Y-112313570D01*
X137176756Y-112294344D01*
X137156936Y-112284655D01*
X137146226Y-112273945D01*
X137124423Y-112259377D01*
X137109854Y-112237573D01*
X137099144Y-112226863D01*
X137089453Y-112207040D01*
X137070230Y-112178271D01*
X137066691Y-112160482D01*
X137062667Y-112152250D01*
X137056132Y-112107396D01*
X137051200Y-112082600D01*
X137051200Y-111132600D01*
X137056131Y-111107805D01*
X137062667Y-111062949D01*
X137066691Y-111054715D01*
X137070230Y-111036929D01*
X137089451Y-111008161D01*
X137099144Y-110988336D01*
X137109856Y-110977623D01*
X137124423Y-110955823D01*
X137146223Y-110941256D01*
X137156936Y-110930544D01*
X137176761Y-110920851D01*
X137205529Y-110901630D01*
X137223315Y-110898091D01*
X137231549Y-110894067D01*
X137276406Y-110887531D01*
X137301200Y-110882600D01*
X137801200Y-110882600D01*
X137825997Y-110887532D01*
G37*
G36*
X147203597Y-110887532D02*
G01*
X147248450Y-110894067D01*
X147256682Y-110898091D01*
X147274471Y-110901630D01*
X147303240Y-110920853D01*
X147323063Y-110930544D01*
X147333773Y-110941254D01*
X147355577Y-110955823D01*
X147370145Y-110977626D01*
X147380855Y-110988336D01*
X147390544Y-111008156D01*
X147409770Y-111036929D01*
X147413308Y-111054719D01*
X147417332Y-111062949D01*
X147423864Y-111107787D01*
X147428800Y-111132600D01*
X147428800Y-112082600D01*
X147423863Y-112107416D01*
X147417332Y-112152250D01*
X147413309Y-112160478D01*
X147409770Y-112178271D01*
X147390542Y-112207046D01*
X147380855Y-112226863D01*
X147370147Y-112237570D01*
X147355577Y-112259377D01*
X147333770Y-112273947D01*
X147323063Y-112284655D01*
X147303246Y-112294342D01*
X147274471Y-112313570D01*
X147256678Y-112317109D01*
X147248450Y-112321132D01*
X147203614Y-112327664D01*
X147178800Y-112332600D01*
X146678800Y-112332600D01*
X146653986Y-112327664D01*
X146609149Y-112321132D01*
X146600919Y-112317108D01*
X146583129Y-112313570D01*
X146554356Y-112294344D01*
X146534536Y-112284655D01*
X146523826Y-112273945D01*
X146502023Y-112259377D01*
X146487454Y-112237573D01*
X146476744Y-112226863D01*
X146467053Y-112207040D01*
X146447830Y-112178271D01*
X146444291Y-112160482D01*
X146440267Y-112152250D01*
X146433732Y-112107396D01*
X146428800Y-112082600D01*
X146428800Y-111132600D01*
X146433731Y-111107805D01*
X146440267Y-111062949D01*
X146444291Y-111054715D01*
X146447830Y-111036929D01*
X146467051Y-111008161D01*
X146476744Y-110988336D01*
X146487456Y-110977623D01*
X146502023Y-110955823D01*
X146523823Y-110941256D01*
X146534536Y-110930544D01*
X146554361Y-110920851D01*
X146583129Y-110901630D01*
X146600915Y-110898091D01*
X146609149Y-110894067D01*
X146654006Y-110887531D01*
X146678800Y-110882600D01*
X147178800Y-110882600D01*
X147203597Y-110887532D01*
G37*
G36*
X149103597Y-110887532D02*
G01*
X149148450Y-110894067D01*
X149156682Y-110898091D01*
X149174471Y-110901630D01*
X149203240Y-110920853D01*
X149223063Y-110930544D01*
X149233773Y-110941254D01*
X149255577Y-110955823D01*
X149270145Y-110977626D01*
X149280855Y-110988336D01*
X149290544Y-111008156D01*
X149309770Y-111036929D01*
X149313308Y-111054719D01*
X149317332Y-111062949D01*
X149323864Y-111107787D01*
X149328800Y-111132600D01*
X149328800Y-112082600D01*
X149323863Y-112107416D01*
X149317332Y-112152250D01*
X149313309Y-112160478D01*
X149309770Y-112178271D01*
X149290542Y-112207046D01*
X149280855Y-112226863D01*
X149270147Y-112237570D01*
X149255577Y-112259377D01*
X149233770Y-112273947D01*
X149223063Y-112284655D01*
X149203246Y-112294342D01*
X149174471Y-112313570D01*
X149156678Y-112317109D01*
X149148450Y-112321132D01*
X149103614Y-112327664D01*
X149078800Y-112332600D01*
X148578800Y-112332600D01*
X148553986Y-112327664D01*
X148509149Y-112321132D01*
X148500919Y-112317108D01*
X148483129Y-112313570D01*
X148454356Y-112294344D01*
X148434536Y-112284655D01*
X148423826Y-112273945D01*
X148402023Y-112259377D01*
X148387454Y-112237573D01*
X148376744Y-112226863D01*
X148367053Y-112207040D01*
X148347830Y-112178271D01*
X148344291Y-112160482D01*
X148340267Y-112152250D01*
X148333732Y-112107396D01*
X148328800Y-112082600D01*
X148328800Y-111132600D01*
X148333731Y-111107805D01*
X148340267Y-111062949D01*
X148344291Y-111054715D01*
X148347830Y-111036929D01*
X148367051Y-111008161D01*
X148376744Y-110988336D01*
X148387456Y-110977623D01*
X148402023Y-110955823D01*
X148423823Y-110941256D01*
X148434536Y-110930544D01*
X148454361Y-110920851D01*
X148483129Y-110901630D01*
X148500915Y-110898091D01*
X148509149Y-110894067D01*
X148554006Y-110887531D01*
X148578800Y-110882600D01*
X149078800Y-110882600D01*
X149103597Y-110887532D01*
G37*
G36*
X131940997Y-111088732D02*
G01*
X131985850Y-111095267D01*
X131994082Y-111099291D01*
X132011871Y-111102830D01*
X132040640Y-111122053D01*
X132060463Y-111131744D01*
X132071173Y-111142454D01*
X132092977Y-111157023D01*
X132107545Y-111178826D01*
X132118255Y-111189536D01*
X132127944Y-111209356D01*
X132147170Y-111238129D01*
X132150708Y-111255919D01*
X132154732Y-111264149D01*
X132161264Y-111308987D01*
X132166200Y-111333800D01*
X132166200Y-112033800D01*
X132161263Y-112058616D01*
X132154732Y-112103450D01*
X132150709Y-112111678D01*
X132147170Y-112129471D01*
X132127942Y-112158246D01*
X132118255Y-112178063D01*
X132107547Y-112188770D01*
X132092977Y-112210577D01*
X132071170Y-112225147D01*
X132060463Y-112235855D01*
X132040646Y-112245542D01*
X132011871Y-112264770D01*
X131994078Y-112268309D01*
X131985850Y-112272332D01*
X131941014Y-112278864D01*
X131916200Y-112283800D01*
X131366200Y-112283800D01*
X131341386Y-112278864D01*
X131296549Y-112272332D01*
X131288319Y-112268308D01*
X131270529Y-112264770D01*
X131241756Y-112245544D01*
X131221936Y-112235855D01*
X131211226Y-112225145D01*
X131189423Y-112210577D01*
X131174854Y-112188773D01*
X131164144Y-112178063D01*
X131154453Y-112158240D01*
X131135230Y-112129471D01*
X131131691Y-112111682D01*
X131127667Y-112103450D01*
X131121132Y-112058596D01*
X131116200Y-112033800D01*
X131116200Y-111333800D01*
X131121131Y-111309005D01*
X131127667Y-111264149D01*
X131131691Y-111255915D01*
X131135230Y-111238129D01*
X131154451Y-111209361D01*
X131164144Y-111189536D01*
X131174856Y-111178823D01*
X131189423Y-111157023D01*
X131211223Y-111142456D01*
X131221936Y-111131744D01*
X131241761Y-111122051D01*
X131270529Y-111102830D01*
X131288315Y-111099291D01*
X131296549Y-111095267D01*
X131341406Y-111088731D01*
X131366200Y-111083800D01*
X131916200Y-111083800D01*
X131940997Y-111088732D01*
G37*
G36*
X134240997Y-111088732D02*
G01*
X134285850Y-111095267D01*
X134294082Y-111099291D01*
X134311871Y-111102830D01*
X134340640Y-111122053D01*
X134360463Y-111131744D01*
X134371173Y-111142454D01*
X134392977Y-111157023D01*
X134407545Y-111178826D01*
X134418255Y-111189536D01*
X134427944Y-111209356D01*
X134447170Y-111238129D01*
X134450708Y-111255919D01*
X134454732Y-111264149D01*
X134461264Y-111308987D01*
X134466200Y-111333800D01*
X134466200Y-112033800D01*
X134461263Y-112058616D01*
X134454732Y-112103450D01*
X134450709Y-112111678D01*
X134447170Y-112129471D01*
X134427942Y-112158246D01*
X134418255Y-112178063D01*
X134407547Y-112188770D01*
X134392977Y-112210577D01*
X134371170Y-112225147D01*
X134360463Y-112235855D01*
X134340646Y-112245542D01*
X134311871Y-112264770D01*
X134294078Y-112268309D01*
X134285850Y-112272332D01*
X134241014Y-112278864D01*
X134216200Y-112283800D01*
X133666200Y-112283800D01*
X133641386Y-112278864D01*
X133596549Y-112272332D01*
X133588319Y-112268308D01*
X133570529Y-112264770D01*
X133541756Y-112245544D01*
X133521936Y-112235855D01*
X133511226Y-112225145D01*
X133489423Y-112210577D01*
X133474854Y-112188773D01*
X133464144Y-112178063D01*
X133454453Y-112158240D01*
X133435230Y-112129471D01*
X133431691Y-112111682D01*
X133427667Y-112103450D01*
X133421132Y-112058596D01*
X133416200Y-112033800D01*
X133416200Y-111333800D01*
X133421131Y-111309005D01*
X133427667Y-111264149D01*
X133431691Y-111255915D01*
X133435230Y-111238129D01*
X133454451Y-111209361D01*
X133464144Y-111189536D01*
X133474856Y-111178823D01*
X133489423Y-111157023D01*
X133511223Y-111142456D01*
X133521936Y-111131744D01*
X133541761Y-111122051D01*
X133570529Y-111102830D01*
X133588315Y-111099291D01*
X133596549Y-111095267D01*
X133641406Y-111088731D01*
X133666200Y-111083800D01*
X134216200Y-111083800D01*
X134240997Y-111088732D01*
G37*
G36*
X124937370Y-110121667D02*
G01*
X124975953Y-110121667D01*
X125019477Y-110130918D01*
X125070417Y-110136658D01*
X125107459Y-110149619D01*
X125139396Y-110156408D01*
X125185423Y-110176900D01*
X125239507Y-110195825D01*
X125267655Y-110213512D01*
X125292057Y-110224376D01*
X125337553Y-110257431D01*
X125391192Y-110291135D01*
X125410457Y-110310400D01*
X125427243Y-110322596D01*
X125468742Y-110368685D01*
X125517865Y-110417808D01*
X125529163Y-110435789D01*
X125539056Y-110446776D01*
X125572902Y-110505400D01*
X125613175Y-110569493D01*
X125618202Y-110583861D01*
X125622607Y-110591490D01*
X125645163Y-110660910D01*
X125672342Y-110738583D01*
X125673372Y-110747728D01*
X125674245Y-110750414D01*
X125682152Y-110825649D01*
X125692400Y-110916600D01*
X125682151Y-111007558D01*
X125674245Y-111082785D01*
X125673372Y-111085469D01*
X125672342Y-111094617D01*
X125645158Y-111172302D01*
X125622607Y-111241709D01*
X125618203Y-111249335D01*
X125613175Y-111263707D01*
X125572895Y-111327810D01*
X125539056Y-111386423D01*
X125529165Y-111397407D01*
X125517865Y-111415392D01*
X125468733Y-111464523D01*
X125427243Y-111510603D01*
X125410460Y-111522796D01*
X125391192Y-111542065D01*
X125337543Y-111575774D01*
X125292057Y-111608823D01*
X125267661Y-111619684D01*
X125239507Y-111637375D01*
X125185412Y-111656303D01*
X125139396Y-111676791D01*
X125107465Y-111683578D01*
X125070417Y-111696542D01*
X125019474Y-111702281D01*
X124975953Y-111711533D01*
X124937370Y-111711533D01*
X124892400Y-111716600D01*
X124847430Y-111711533D01*
X124808847Y-111711533D01*
X124765324Y-111702281D01*
X124714383Y-111696542D01*
X124677336Y-111683578D01*
X124645403Y-111676791D01*
X124599382Y-111656301D01*
X124545293Y-111637375D01*
X124517141Y-111619686D01*
X124492742Y-111608823D01*
X124447249Y-111575769D01*
X124393608Y-111542065D01*
X124374341Y-111522798D01*
X124357556Y-111510603D01*
X124316056Y-111464513D01*
X124266935Y-111415392D01*
X124255636Y-111397411D01*
X124245743Y-111386423D01*
X124211891Y-111327791D01*
X124171625Y-111263707D01*
X124166597Y-111249340D01*
X124162192Y-111241709D01*
X124139627Y-111172262D01*
X124112458Y-111094617D01*
X124111427Y-111085474D01*
X124110554Y-111082785D01*
X124102633Y-111007426D01*
X124092400Y-110916600D01*
X124102632Y-110825781D01*
X124110554Y-110750414D01*
X124111428Y-110747724D01*
X124112458Y-110738583D01*
X124139622Y-110660950D01*
X124162192Y-110591490D01*
X124166598Y-110583857D01*
X124171625Y-110569493D01*
X124211884Y-110505419D01*
X124245743Y-110446776D01*
X124255639Y-110435785D01*
X124266935Y-110417808D01*
X124316047Y-110368695D01*
X124357556Y-110322596D01*
X124374345Y-110310397D01*
X124393608Y-110291135D01*
X124447245Y-110257432D01*
X124492746Y-110224374D01*
X124517148Y-110213509D01*
X124545293Y-110195825D01*
X124599362Y-110176905D01*
X124645398Y-110156409D01*
X124677342Y-110149619D01*
X124714383Y-110136658D01*
X124765322Y-110130918D01*
X124808847Y-110121667D01*
X124847430Y-110121667D01*
X124892400Y-110116600D01*
X124937370Y-110121667D01*
G37*
G36*
X134352400Y-110654200D02*
G01*
X132652400Y-110654200D01*
X132652400Y-108954200D01*
X134352400Y-108954200D01*
X134352400Y-110654200D01*
G37*
G36*
X161100000Y-110511200D02*
G01*
X158600000Y-110511200D01*
X158600000Y-109311200D01*
X161100000Y-109311200D01*
X161100000Y-110511200D01*
G37*
G36*
X151980000Y-110120800D02*
G01*
X150280000Y-110120800D01*
X150280000Y-108420800D01*
X151980000Y-108420800D01*
X151980000Y-110120800D01*
G37*
G36*
X138573203Y-109134618D02*
G01*
X138621866Y-109167134D01*
X138654382Y-109215797D01*
X138665800Y-109273200D01*
X138665800Y-109573200D01*
X138654382Y-109630603D01*
X138621866Y-109679266D01*
X138573203Y-109711782D01*
X138515800Y-109723200D01*
X136765800Y-109723200D01*
X136708397Y-109711782D01*
X136659734Y-109679266D01*
X136627218Y-109630603D01*
X136615800Y-109573200D01*
X136615800Y-109273200D01*
X136627218Y-109215797D01*
X136659734Y-109167134D01*
X136708397Y-109134618D01*
X136765800Y-109123200D01*
X138515800Y-109123200D01*
X138573203Y-109134618D01*
G37*
G36*
X147873203Y-109134618D02*
G01*
X147921866Y-109167134D01*
X147954382Y-109215797D01*
X147965800Y-109273200D01*
X147965800Y-109573200D01*
X147954382Y-109630603D01*
X147921866Y-109679266D01*
X147873203Y-109711782D01*
X147815800Y-109723200D01*
X146065800Y-109723200D01*
X146008397Y-109711782D01*
X145959734Y-109679266D01*
X145927218Y-109630603D01*
X145915800Y-109573200D01*
X145915800Y-109273200D01*
X145927218Y-109215797D01*
X145959734Y-109167134D01*
X146008397Y-109134618D01*
X146065800Y-109123200D01*
X147815800Y-109123200D01*
X147873203Y-109134618D01*
G37*
G36*
X129000603Y-108055418D02*
G01*
X129049266Y-108087934D01*
X129081782Y-108136597D01*
X129093200Y-108194000D01*
X129093200Y-109219000D01*
X129081782Y-109276403D01*
X129049266Y-109325066D01*
X129000603Y-109357582D01*
X128943200Y-109369000D01*
X128643200Y-109369000D01*
X128585797Y-109357582D01*
X128537134Y-109325066D01*
X128504618Y-109276403D01*
X128493200Y-109219000D01*
X128493200Y-108194000D01*
X128504618Y-108136597D01*
X128537134Y-108087934D01*
X128585797Y-108055418D01*
X128643200Y-108044000D01*
X128943200Y-108044000D01*
X129000603Y-108055418D01*
G37*
G36*
X129950603Y-108055418D02*
G01*
X129999266Y-108087934D01*
X130031782Y-108136597D01*
X130043200Y-108194000D01*
X130043200Y-109219000D01*
X130031782Y-109276403D01*
X129999266Y-109325066D01*
X129950603Y-109357582D01*
X129893200Y-109369000D01*
X129593200Y-109369000D01*
X129535797Y-109357582D01*
X129487134Y-109325066D01*
X129454618Y-109276403D01*
X129443200Y-109219000D01*
X129443200Y-108194000D01*
X129454618Y-108136597D01*
X129487134Y-108087934D01*
X129535797Y-108055418D01*
X129593200Y-108044000D01*
X129893200Y-108044000D01*
X129950603Y-108055418D01*
G37*
G36*
X130900603Y-108055418D02*
G01*
X130949266Y-108087934D01*
X130981782Y-108136597D01*
X130993200Y-108194000D01*
X130993200Y-109219000D01*
X130981782Y-109276403D01*
X130949266Y-109325066D01*
X130900603Y-109357582D01*
X130843200Y-109369000D01*
X130543200Y-109369000D01*
X130485797Y-109357582D01*
X130437134Y-109325066D01*
X130404618Y-109276403D01*
X130393200Y-109219000D01*
X130393200Y-108194000D01*
X130404618Y-108136597D01*
X130437134Y-108087934D01*
X130485797Y-108055418D01*
X130543200Y-108044000D01*
X130843200Y-108044000D01*
X130900603Y-108055418D01*
G37*
G36*
X124937370Y-107621667D02*
G01*
X124975953Y-107621667D01*
X125019477Y-107630918D01*
X125070417Y-107636658D01*
X125107459Y-107649619D01*
X125139396Y-107656408D01*
X125185423Y-107676900D01*
X125239507Y-107695825D01*
X125267655Y-107713512D01*
X125292057Y-107724376D01*
X125337553Y-107757431D01*
X125391192Y-107791135D01*
X125410457Y-107810400D01*
X125427243Y-107822596D01*
X125468742Y-107868685D01*
X125517865Y-107917808D01*
X125529163Y-107935789D01*
X125539056Y-107946776D01*
X125572902Y-108005400D01*
X125613175Y-108069493D01*
X125618202Y-108083861D01*
X125622607Y-108091490D01*
X125645163Y-108160910D01*
X125672342Y-108238583D01*
X125673372Y-108247728D01*
X125674245Y-108250414D01*
X125682152Y-108325649D01*
X125692400Y-108416600D01*
X125682151Y-108507558D01*
X125674245Y-108582785D01*
X125673372Y-108585469D01*
X125672342Y-108594617D01*
X125645158Y-108672302D01*
X125622607Y-108741709D01*
X125618203Y-108749335D01*
X125613175Y-108763707D01*
X125572895Y-108827810D01*
X125539056Y-108886423D01*
X125529165Y-108897407D01*
X125517865Y-108915392D01*
X125468733Y-108964523D01*
X125427243Y-109010603D01*
X125410460Y-109022796D01*
X125391192Y-109042065D01*
X125337543Y-109075774D01*
X125292057Y-109108823D01*
X125267661Y-109119684D01*
X125239507Y-109137375D01*
X125185412Y-109156303D01*
X125139396Y-109176791D01*
X125107465Y-109183578D01*
X125070417Y-109196542D01*
X125019474Y-109202281D01*
X124975953Y-109211533D01*
X124937370Y-109211533D01*
X124892400Y-109216600D01*
X124847430Y-109211533D01*
X124808847Y-109211533D01*
X124765324Y-109202281D01*
X124714383Y-109196542D01*
X124677336Y-109183578D01*
X124645403Y-109176791D01*
X124599382Y-109156301D01*
X124545293Y-109137375D01*
X124517141Y-109119686D01*
X124492742Y-109108823D01*
X124447249Y-109075769D01*
X124393608Y-109042065D01*
X124374341Y-109022798D01*
X124357556Y-109010603D01*
X124316056Y-108964513D01*
X124266935Y-108915392D01*
X124255636Y-108897411D01*
X124245743Y-108886423D01*
X124211891Y-108827791D01*
X124171625Y-108763707D01*
X124166597Y-108749340D01*
X124162192Y-108741709D01*
X124139627Y-108672262D01*
X124112458Y-108594617D01*
X124111427Y-108585474D01*
X124110554Y-108582785D01*
X124102633Y-108507426D01*
X124092400Y-108416600D01*
X124102632Y-108325781D01*
X124110554Y-108250414D01*
X124111428Y-108247724D01*
X124112458Y-108238583D01*
X124139622Y-108160950D01*
X124162192Y-108091490D01*
X124166598Y-108083857D01*
X124171625Y-108069493D01*
X124211884Y-108005419D01*
X124245743Y-107946776D01*
X124255639Y-107935785D01*
X124266935Y-107917808D01*
X124316047Y-107868695D01*
X124357556Y-107822596D01*
X124374345Y-107810397D01*
X124393608Y-107791135D01*
X124447245Y-107757432D01*
X124492746Y-107724374D01*
X124517148Y-107713509D01*
X124545293Y-107695825D01*
X124599362Y-107676905D01*
X124645398Y-107656409D01*
X124677342Y-107649619D01*
X124714383Y-107636658D01*
X124765322Y-107630918D01*
X124808847Y-107621667D01*
X124847430Y-107621667D01*
X124892400Y-107616600D01*
X124937370Y-107621667D01*
G37*
G36*
X162162315Y-108166289D02*
G01*
X162171157Y-108166289D01*
X162217369Y-108179858D01*
X162276978Y-108194550D01*
X162289134Y-108200930D01*
X162307708Y-108206384D01*
X162344159Y-108229809D01*
X162383510Y-108250463D01*
X162402568Y-108267347D01*
X162427430Y-108283325D01*
X162449985Y-108309355D01*
X162473567Y-108330247D01*
X162495023Y-108361331D01*
X162520627Y-108390880D01*
X162530809Y-108413177D01*
X162541915Y-108429266D01*
X162560323Y-108477804D01*
X162579746Y-108520334D01*
X162581756Y-108534316D01*
X162584579Y-108541759D01*
X162594092Y-108620111D01*
X162600000Y-108661200D01*
X162594091Y-108702290D01*
X162584579Y-108780640D01*
X162581756Y-108788081D01*
X162579746Y-108802066D01*
X162560321Y-108844600D01*
X162541915Y-108893133D01*
X162530811Y-108909219D01*
X162520627Y-108931520D01*
X162495019Y-108961072D01*
X162473567Y-108992152D01*
X162449989Y-109013039D01*
X162427430Y-109039075D01*
X162402564Y-109055055D01*
X162383510Y-109071936D01*
X162344167Y-109092584D01*
X162307708Y-109116016D01*
X162289130Y-109121470D01*
X162276978Y-109127849D01*
X162217380Y-109142538D01*
X162171157Y-109156111D01*
X162162315Y-109156111D01*
X162160157Y-109156643D01*
X162039843Y-109156643D01*
X162037685Y-109156111D01*
X162028843Y-109156111D01*
X161982622Y-109142539D01*
X161923021Y-109127849D01*
X161910867Y-109121470D01*
X161892292Y-109116016D01*
X161855836Y-109092587D01*
X161816489Y-109071936D01*
X161797432Y-109055052D01*
X161772570Y-109039075D01*
X161750013Y-109013043D01*
X161726432Y-108992152D01*
X161704975Y-108961066D01*
X161679373Y-108931520D01*
X161669190Y-108909224D01*
X161658084Y-108893133D01*
X161639672Y-108844587D01*
X161620254Y-108802066D01*
X161618243Y-108788085D01*
X161615420Y-108780640D01*
X161605901Y-108702245D01*
X161600000Y-108661200D01*
X161605901Y-108620156D01*
X161615420Y-108541759D01*
X161618244Y-108534312D01*
X161620254Y-108520334D01*
X161639670Y-108477817D01*
X161658084Y-108429266D01*
X161669192Y-108413172D01*
X161679373Y-108390880D01*
X161704971Y-108361337D01*
X161726432Y-108330247D01*
X161750017Y-108309351D01*
X161772570Y-108283325D01*
X161797428Y-108267349D01*
X161816489Y-108250463D01*
X161855845Y-108229806D01*
X161892292Y-108206384D01*
X161910863Y-108200931D01*
X161923021Y-108194550D01*
X161982632Y-108179857D01*
X162028843Y-108166289D01*
X162037685Y-108166289D01*
X162039843Y-108165757D01*
X162160157Y-108165757D01*
X162162315Y-108166289D01*
G37*
G36*
X138573203Y-107864618D02*
G01*
X138621866Y-107897134D01*
X138654382Y-107945797D01*
X138665800Y-108003200D01*
X138665800Y-108303200D01*
X138654382Y-108360603D01*
X138621866Y-108409266D01*
X138573203Y-108441782D01*
X138515800Y-108453200D01*
X136765800Y-108453200D01*
X136708397Y-108441782D01*
X136659734Y-108409266D01*
X136627218Y-108360603D01*
X136615800Y-108303200D01*
X136615800Y-108003200D01*
X136627218Y-107945797D01*
X136659734Y-107897134D01*
X136708397Y-107864618D01*
X136765800Y-107853200D01*
X138515800Y-107853200D01*
X138573203Y-107864618D01*
G37*
G36*
X147873203Y-107864618D02*
G01*
X147921866Y-107897134D01*
X147954382Y-107945797D01*
X147965800Y-108003200D01*
X147965800Y-108303200D01*
X147954382Y-108360603D01*
X147921866Y-108409266D01*
X147873203Y-108441782D01*
X147815800Y-108453200D01*
X146065800Y-108453200D01*
X146008397Y-108441782D01*
X145959734Y-108409266D01*
X145927218Y-108360603D01*
X145915800Y-108303200D01*
X145915800Y-108003200D01*
X145927218Y-107945797D01*
X145959734Y-107897134D01*
X146008397Y-107864618D01*
X146065800Y-107853200D01*
X147815800Y-107853200D01*
X147873203Y-107864618D01*
G37*
G36*
X132604508Y-107657410D02*
G01*
X132626459Y-107659957D01*
X132633958Y-107663268D01*
X132655629Y-107667579D01*
X132678830Y-107683081D01*
X132683596Y-107685186D01*
X132686850Y-107688440D01*
X132707537Y-107702263D01*
X132721359Y-107722949D01*
X132724613Y-107726203D01*
X132726716Y-107730967D01*
X132742221Y-107754171D01*
X132746531Y-107775843D01*
X132749842Y-107783340D01*
X132752387Y-107805281D01*
X132754400Y-107815400D01*
X132754400Y-108135400D01*
X132752386Y-108145521D01*
X132749842Y-108167459D01*
X132746532Y-108174954D01*
X132742221Y-108196629D01*
X132726715Y-108219834D01*
X132724613Y-108224596D01*
X132721361Y-108227847D01*
X132707537Y-108248537D01*
X132686847Y-108262361D01*
X132683596Y-108265613D01*
X132678834Y-108267715D01*
X132655629Y-108283221D01*
X132633954Y-108287532D01*
X132626459Y-108290842D01*
X132604519Y-108293387D01*
X132594400Y-108295400D01*
X132199400Y-108295400D01*
X132189280Y-108293387D01*
X132167340Y-108290842D01*
X132159843Y-108287531D01*
X132138171Y-108283221D01*
X132114967Y-108267716D01*
X132110203Y-108265613D01*
X132106949Y-108262359D01*
X132086263Y-108248537D01*
X132072440Y-108227850D01*
X132069186Y-108224596D01*
X132067081Y-108219830D01*
X132051579Y-108196629D01*
X132047268Y-108174958D01*
X132043957Y-108167459D01*
X132041410Y-108145507D01*
X132039400Y-108135400D01*
X132039400Y-107815400D01*
X132041410Y-107805292D01*
X132043957Y-107783340D01*
X132047269Y-107775839D01*
X132051579Y-107754171D01*
X132067080Y-107730971D01*
X132069186Y-107726203D01*
X132072442Y-107722946D01*
X132086263Y-107702263D01*
X132106946Y-107688442D01*
X132110203Y-107685186D01*
X132114971Y-107683080D01*
X132138171Y-107667579D01*
X132159839Y-107663269D01*
X132167340Y-107659957D01*
X132189293Y-107657410D01*
X132199400Y-107655400D01*
X132594400Y-107655400D01*
X132604508Y-107657410D01*
G37*
G36*
X133799508Y-107657410D02*
G01*
X133821459Y-107659957D01*
X133828958Y-107663268D01*
X133850629Y-107667579D01*
X133873830Y-107683081D01*
X133878596Y-107685186D01*
X133881850Y-107688440D01*
X133902537Y-107702263D01*
X133916359Y-107722949D01*
X133919613Y-107726203D01*
X133921716Y-107730967D01*
X133937221Y-107754171D01*
X133941531Y-107775843D01*
X133944842Y-107783340D01*
X133947387Y-107805281D01*
X133949400Y-107815400D01*
X133949400Y-108135400D01*
X133947386Y-108145521D01*
X133944842Y-108167459D01*
X133941532Y-108174954D01*
X133937221Y-108196629D01*
X133921715Y-108219834D01*
X133919613Y-108224596D01*
X133916361Y-108227847D01*
X133902537Y-108248537D01*
X133881847Y-108262361D01*
X133878596Y-108265613D01*
X133873834Y-108267715D01*
X133850629Y-108283221D01*
X133828954Y-108287532D01*
X133821459Y-108290842D01*
X133799519Y-108293387D01*
X133789400Y-108295400D01*
X133394400Y-108295400D01*
X133384280Y-108293387D01*
X133362340Y-108290842D01*
X133354843Y-108287531D01*
X133333171Y-108283221D01*
X133309967Y-108267716D01*
X133305203Y-108265613D01*
X133301949Y-108262359D01*
X133281263Y-108248537D01*
X133267440Y-108227850D01*
X133264186Y-108224596D01*
X133262081Y-108219830D01*
X133246579Y-108196629D01*
X133242268Y-108174958D01*
X133238957Y-108167459D01*
X133236410Y-108145507D01*
X133234400Y-108135400D01*
X133234400Y-107815400D01*
X133236410Y-107805292D01*
X133238957Y-107783340D01*
X133242269Y-107775839D01*
X133246579Y-107754171D01*
X133262080Y-107730971D01*
X133264186Y-107726203D01*
X133267442Y-107722946D01*
X133281263Y-107702263D01*
X133301946Y-107688442D01*
X133305203Y-107685186D01*
X133309971Y-107683080D01*
X133333171Y-107667579D01*
X133354839Y-107663269D01*
X133362340Y-107659957D01*
X133384293Y-107657410D01*
X133394400Y-107655400D01*
X133789400Y-107655400D01*
X133799508Y-107657410D01*
G37*
G36*
X153994203Y-106861618D02*
G01*
X154042866Y-106894134D01*
X154075382Y-106942797D01*
X154086800Y-107000200D01*
X154086800Y-108025200D01*
X154075382Y-108082603D01*
X154042866Y-108131266D01*
X153994203Y-108163782D01*
X153936800Y-108175200D01*
X153636800Y-108175200D01*
X153579397Y-108163782D01*
X153530734Y-108131266D01*
X153498218Y-108082603D01*
X153486800Y-108025200D01*
X153486800Y-107000200D01*
X153498218Y-106942797D01*
X153530734Y-106894134D01*
X153579397Y-106861618D01*
X153636800Y-106850200D01*
X153936800Y-106850200D01*
X153994203Y-106861618D01*
G37*
G36*
X154944203Y-106861618D02*
G01*
X154992866Y-106894134D01*
X155025382Y-106942797D01*
X155036800Y-107000200D01*
X155036800Y-108025200D01*
X155025382Y-108082603D01*
X154992866Y-108131266D01*
X154944203Y-108163782D01*
X154886800Y-108175200D01*
X154586800Y-108175200D01*
X154529397Y-108163782D01*
X154480734Y-108131266D01*
X154448218Y-108082603D01*
X154436800Y-108025200D01*
X154436800Y-107000200D01*
X154448218Y-106942797D01*
X154480734Y-106894134D01*
X154529397Y-106861618D01*
X154586800Y-106850200D01*
X154886800Y-106850200D01*
X154944203Y-106861618D01*
G37*
G36*
X155894203Y-106861618D02*
G01*
X155942866Y-106894134D01*
X155975382Y-106942797D01*
X155986800Y-107000200D01*
X155986800Y-108025200D01*
X155975382Y-108082603D01*
X155942866Y-108131266D01*
X155894203Y-108163782D01*
X155836800Y-108175200D01*
X155536800Y-108175200D01*
X155479397Y-108163782D01*
X155430734Y-108131266D01*
X155398218Y-108082603D01*
X155386800Y-108025200D01*
X155386800Y-107000200D01*
X155398218Y-106942797D01*
X155430734Y-106894134D01*
X155479397Y-106861618D01*
X155536800Y-106850200D01*
X155836800Y-106850200D01*
X155894203Y-106861618D01*
G37*
G36*
X161100000Y-108011200D02*
G01*
X158600000Y-108011200D01*
X158600000Y-106811200D01*
X161100000Y-106811200D01*
X161100000Y-108011200D01*
G37*
G36*
X132629908Y-106641410D02*
G01*
X132651859Y-106643957D01*
X132659358Y-106647268D01*
X132681029Y-106651579D01*
X132704230Y-106667081D01*
X132708996Y-106669186D01*
X132712250Y-106672440D01*
X132732937Y-106686263D01*
X132746759Y-106706949D01*
X132750013Y-106710203D01*
X132752116Y-106714967D01*
X132767621Y-106738171D01*
X132771931Y-106759843D01*
X132775242Y-106767340D01*
X132777787Y-106789281D01*
X132779800Y-106799400D01*
X132779800Y-107119400D01*
X132777786Y-107129521D01*
X132775242Y-107151459D01*
X132771932Y-107158954D01*
X132767621Y-107180629D01*
X132752115Y-107203834D01*
X132750013Y-107208596D01*
X132746761Y-107211847D01*
X132732937Y-107232537D01*
X132712247Y-107246361D01*
X132708996Y-107249613D01*
X132704234Y-107251715D01*
X132681029Y-107267221D01*
X132659354Y-107271532D01*
X132651859Y-107274842D01*
X132629919Y-107277387D01*
X132619800Y-107279400D01*
X132224800Y-107279400D01*
X132214680Y-107277387D01*
X132192740Y-107274842D01*
X132185243Y-107271531D01*
X132163571Y-107267221D01*
X132140367Y-107251716D01*
X132135603Y-107249613D01*
X132132349Y-107246359D01*
X132111663Y-107232537D01*
X132097840Y-107211850D01*
X132094586Y-107208596D01*
X132092481Y-107203830D01*
X132076979Y-107180629D01*
X132072668Y-107158958D01*
X132069357Y-107151459D01*
X132066810Y-107129507D01*
X132064800Y-107119400D01*
X132064800Y-106799400D01*
X132066810Y-106789292D01*
X132069357Y-106767340D01*
X132072669Y-106759839D01*
X132076979Y-106738171D01*
X132092480Y-106714971D01*
X132094586Y-106710203D01*
X132097842Y-106706946D01*
X132111663Y-106686263D01*
X132132346Y-106672442D01*
X132135603Y-106669186D01*
X132140371Y-106667080D01*
X132163571Y-106651579D01*
X132185239Y-106647269D01*
X132192740Y-106643957D01*
X132214693Y-106641410D01*
X132224800Y-106639400D01*
X132619800Y-106639400D01*
X132629908Y-106641410D01*
G37*
G36*
X133824908Y-106641410D02*
G01*
X133846859Y-106643957D01*
X133854358Y-106647268D01*
X133876029Y-106651579D01*
X133899230Y-106667081D01*
X133903996Y-106669186D01*
X133907250Y-106672440D01*
X133927937Y-106686263D01*
X133941759Y-106706949D01*
X133945013Y-106710203D01*
X133947116Y-106714967D01*
X133962621Y-106738171D01*
X133966931Y-106759843D01*
X133970242Y-106767340D01*
X133972787Y-106789281D01*
X133974800Y-106799400D01*
X133974800Y-107119400D01*
X133972786Y-107129521D01*
X133970242Y-107151459D01*
X133966932Y-107158954D01*
X133962621Y-107180629D01*
X133947115Y-107203834D01*
X133945013Y-107208596D01*
X133941761Y-107211847D01*
X133927937Y-107232537D01*
X133907247Y-107246361D01*
X133903996Y-107249613D01*
X133899234Y-107251715D01*
X133876029Y-107267221D01*
X133854354Y-107271532D01*
X133846859Y-107274842D01*
X133824919Y-107277387D01*
X133814800Y-107279400D01*
X133419800Y-107279400D01*
X133409680Y-107277387D01*
X133387740Y-107274842D01*
X133380243Y-107271531D01*
X133358571Y-107267221D01*
X133335367Y-107251716D01*
X133330603Y-107249613D01*
X133327349Y-107246359D01*
X133306663Y-107232537D01*
X133292840Y-107211850D01*
X133289586Y-107208596D01*
X133287481Y-107203830D01*
X133271979Y-107180629D01*
X133267668Y-107158958D01*
X133264357Y-107151459D01*
X133261810Y-107129507D01*
X133259800Y-107119400D01*
X133259800Y-106799400D01*
X133261810Y-106789292D01*
X133264357Y-106767340D01*
X133267669Y-106759839D01*
X133271979Y-106738171D01*
X133287480Y-106714971D01*
X133289586Y-106710203D01*
X133292842Y-106706946D01*
X133306663Y-106686263D01*
X133327346Y-106672442D01*
X133330603Y-106669186D01*
X133335371Y-106667080D01*
X133358571Y-106651579D01*
X133380239Y-106647269D01*
X133387740Y-106643957D01*
X133409693Y-106641410D01*
X133419800Y-106639400D01*
X133814800Y-106639400D01*
X133824908Y-106641410D01*
G37*
G36*
X151425908Y-106590610D02*
G01*
X151447859Y-106593157D01*
X151455358Y-106596468D01*
X151477029Y-106600779D01*
X151500230Y-106616281D01*
X151504996Y-106618386D01*
X151508250Y-106621640D01*
X151528937Y-106635463D01*
X151542759Y-106656149D01*
X151546013Y-106659403D01*
X151548116Y-106664167D01*
X151563621Y-106687371D01*
X151567931Y-106709043D01*
X151571242Y-106716540D01*
X151573787Y-106738481D01*
X151575800Y-106748600D01*
X151575800Y-107068600D01*
X151573786Y-107078721D01*
X151571242Y-107100659D01*
X151567932Y-107108154D01*
X151563621Y-107129829D01*
X151548115Y-107153034D01*
X151546013Y-107157796D01*
X151542761Y-107161047D01*
X151528937Y-107181737D01*
X151508247Y-107195561D01*
X151504996Y-107198813D01*
X151500234Y-107200915D01*
X151477029Y-107216421D01*
X151455354Y-107220732D01*
X151447859Y-107224042D01*
X151425919Y-107226587D01*
X151415800Y-107228600D01*
X151020800Y-107228600D01*
X151010680Y-107226587D01*
X150988740Y-107224042D01*
X150981243Y-107220731D01*
X150959571Y-107216421D01*
X150936367Y-107200916D01*
X150931603Y-107198813D01*
X150928349Y-107195559D01*
X150907663Y-107181737D01*
X150893840Y-107161050D01*
X150890586Y-107157796D01*
X150888481Y-107153030D01*
X150872979Y-107129829D01*
X150868668Y-107108158D01*
X150865357Y-107100659D01*
X150862810Y-107078707D01*
X150860800Y-107068600D01*
X150860800Y-106748600D01*
X150862810Y-106738492D01*
X150865357Y-106716540D01*
X150868669Y-106709039D01*
X150872979Y-106687371D01*
X150888480Y-106664171D01*
X150890586Y-106659403D01*
X150893842Y-106656146D01*
X150907663Y-106635463D01*
X150928346Y-106621642D01*
X150931603Y-106618386D01*
X150936371Y-106616280D01*
X150959571Y-106600779D01*
X150981239Y-106596469D01*
X150988740Y-106593157D01*
X151010693Y-106590610D01*
X151020800Y-106588600D01*
X151415800Y-106588600D01*
X151425908Y-106590610D01*
G37*
G36*
X152620908Y-106590610D02*
G01*
X152642859Y-106593157D01*
X152650358Y-106596468D01*
X152672029Y-106600779D01*
X152695230Y-106616281D01*
X152699996Y-106618386D01*
X152703250Y-106621640D01*
X152723937Y-106635463D01*
X152737759Y-106656149D01*
X152741013Y-106659403D01*
X152743116Y-106664167D01*
X152758621Y-106687371D01*
X152762931Y-106709043D01*
X152766242Y-106716540D01*
X152768787Y-106738481D01*
X152770800Y-106748600D01*
X152770800Y-107068600D01*
X152768786Y-107078721D01*
X152766242Y-107100659D01*
X152762932Y-107108154D01*
X152758621Y-107129829D01*
X152743115Y-107153034D01*
X152741013Y-107157796D01*
X152737761Y-107161047D01*
X152723937Y-107181737D01*
X152703247Y-107195561D01*
X152699996Y-107198813D01*
X152695234Y-107200915D01*
X152672029Y-107216421D01*
X152650354Y-107220732D01*
X152642859Y-107224042D01*
X152620919Y-107226587D01*
X152610800Y-107228600D01*
X152215800Y-107228600D01*
X152205680Y-107226587D01*
X152183740Y-107224042D01*
X152176243Y-107220731D01*
X152154571Y-107216421D01*
X152131367Y-107200916D01*
X152126603Y-107198813D01*
X152123349Y-107195559D01*
X152102663Y-107181737D01*
X152088840Y-107161050D01*
X152085586Y-107157796D01*
X152083481Y-107153030D01*
X152067979Y-107129829D01*
X152063668Y-107108158D01*
X152060357Y-107100659D01*
X152057810Y-107078707D01*
X152055800Y-107068600D01*
X152055800Y-106748600D01*
X152057810Y-106738492D01*
X152060357Y-106716540D01*
X152063669Y-106709039D01*
X152067979Y-106687371D01*
X152083480Y-106664171D01*
X152085586Y-106659403D01*
X152088842Y-106656146D01*
X152102663Y-106635463D01*
X152123346Y-106621642D01*
X152126603Y-106618386D01*
X152131371Y-106616280D01*
X152154571Y-106600779D01*
X152176239Y-106596469D01*
X152183740Y-106593157D01*
X152205693Y-106590610D01*
X152215800Y-106588600D01*
X152610800Y-106588600D01*
X152620908Y-106590610D01*
G37*
G36*
X124937370Y-105621667D02*
G01*
X124975953Y-105621667D01*
X125019477Y-105630918D01*
X125070417Y-105636658D01*
X125107459Y-105649619D01*
X125139396Y-105656408D01*
X125185423Y-105676900D01*
X125239507Y-105695825D01*
X125267655Y-105713512D01*
X125292057Y-105724376D01*
X125337553Y-105757431D01*
X125391192Y-105791135D01*
X125410457Y-105810400D01*
X125427243Y-105822596D01*
X125468742Y-105868685D01*
X125517865Y-105917808D01*
X125529163Y-105935789D01*
X125539056Y-105946776D01*
X125572902Y-106005400D01*
X125613175Y-106069493D01*
X125618202Y-106083861D01*
X125622607Y-106091490D01*
X125645163Y-106160910D01*
X125672342Y-106238583D01*
X125673372Y-106247728D01*
X125674245Y-106250414D01*
X125682152Y-106325649D01*
X125692400Y-106416600D01*
X125682151Y-106507558D01*
X125674245Y-106582785D01*
X125673372Y-106585469D01*
X125672342Y-106594617D01*
X125645158Y-106672302D01*
X125622607Y-106741709D01*
X125618203Y-106749335D01*
X125613175Y-106763707D01*
X125572895Y-106827810D01*
X125539056Y-106886423D01*
X125529165Y-106897407D01*
X125517865Y-106915392D01*
X125468733Y-106964523D01*
X125427243Y-107010603D01*
X125410460Y-107022796D01*
X125391192Y-107042065D01*
X125337543Y-107075774D01*
X125292057Y-107108823D01*
X125267661Y-107119684D01*
X125239507Y-107137375D01*
X125185412Y-107156303D01*
X125139396Y-107176791D01*
X125107465Y-107183578D01*
X125070417Y-107196542D01*
X125019474Y-107202281D01*
X124975953Y-107211533D01*
X124937370Y-107211533D01*
X124892400Y-107216600D01*
X124847430Y-107211533D01*
X124808847Y-107211533D01*
X124765324Y-107202281D01*
X124714383Y-107196542D01*
X124677336Y-107183578D01*
X124645403Y-107176791D01*
X124599382Y-107156301D01*
X124545293Y-107137375D01*
X124517141Y-107119686D01*
X124492742Y-107108823D01*
X124447249Y-107075769D01*
X124393608Y-107042065D01*
X124374341Y-107022798D01*
X124357556Y-107010603D01*
X124316056Y-106964513D01*
X124266935Y-106915392D01*
X124255636Y-106897411D01*
X124245743Y-106886423D01*
X124211891Y-106827791D01*
X124171625Y-106763707D01*
X124166597Y-106749340D01*
X124162192Y-106741709D01*
X124139627Y-106672262D01*
X124112458Y-106594617D01*
X124111427Y-106585474D01*
X124110554Y-106582785D01*
X124102633Y-106507426D01*
X124092400Y-106416600D01*
X124102632Y-106325781D01*
X124110554Y-106250414D01*
X124111428Y-106247724D01*
X124112458Y-106238583D01*
X124139622Y-106160950D01*
X124162192Y-106091490D01*
X124166598Y-106083857D01*
X124171625Y-106069493D01*
X124211884Y-106005419D01*
X124245743Y-105946776D01*
X124255639Y-105935785D01*
X124266935Y-105917808D01*
X124316047Y-105868695D01*
X124357556Y-105822596D01*
X124374345Y-105810397D01*
X124393608Y-105791135D01*
X124447245Y-105757432D01*
X124492746Y-105724374D01*
X124517148Y-105713509D01*
X124545293Y-105695825D01*
X124599362Y-105676905D01*
X124645398Y-105656409D01*
X124677342Y-105649619D01*
X124714383Y-105636658D01*
X124765322Y-105630918D01*
X124808847Y-105621667D01*
X124847430Y-105621667D01*
X124892400Y-105616600D01*
X124937370Y-105621667D01*
G37*
G36*
X138573203Y-106594618D02*
G01*
X138621866Y-106627134D01*
X138654382Y-106675797D01*
X138665800Y-106733200D01*
X138665800Y-107033200D01*
X138654382Y-107090603D01*
X138621866Y-107139266D01*
X138573203Y-107171782D01*
X138515800Y-107183200D01*
X136765800Y-107183200D01*
X136708397Y-107171782D01*
X136659734Y-107139266D01*
X136627218Y-107090603D01*
X136615800Y-107033200D01*
X136615800Y-106733200D01*
X136627218Y-106675797D01*
X136659734Y-106627134D01*
X136708397Y-106594618D01*
X136765800Y-106583200D01*
X138515800Y-106583200D01*
X138573203Y-106594618D01*
G37*
G36*
X147873203Y-106594618D02*
G01*
X147921866Y-106627134D01*
X147954382Y-106675797D01*
X147965800Y-106733200D01*
X147965800Y-107033200D01*
X147954382Y-107090603D01*
X147921866Y-107139266D01*
X147873203Y-107171782D01*
X147815800Y-107183200D01*
X146065800Y-107183200D01*
X146008397Y-107171782D01*
X145959734Y-107139266D01*
X145927218Y-107090603D01*
X145915800Y-107033200D01*
X145915800Y-106733200D01*
X145927218Y-106675797D01*
X145959734Y-106627134D01*
X146008397Y-106594618D01*
X146065800Y-106583200D01*
X147815800Y-106583200D01*
X147873203Y-106594618D01*
G37*
G36*
X129000603Y-105780418D02*
G01*
X129049266Y-105812934D01*
X129081782Y-105861597D01*
X129093200Y-105919000D01*
X129093200Y-106944000D01*
X129081782Y-107001403D01*
X129049266Y-107050066D01*
X129000603Y-107082582D01*
X128943200Y-107094000D01*
X128643200Y-107094000D01*
X128585797Y-107082582D01*
X128537134Y-107050066D01*
X128504618Y-107001403D01*
X128493200Y-106944000D01*
X128493200Y-105919000D01*
X128504618Y-105861597D01*
X128537134Y-105812934D01*
X128585797Y-105780418D01*
X128643200Y-105769000D01*
X128943200Y-105769000D01*
X129000603Y-105780418D01*
G37*
G36*
X129950603Y-105780418D02*
G01*
X129999266Y-105812934D01*
X130031782Y-105861597D01*
X130043200Y-105919000D01*
X130043200Y-106944000D01*
X130031782Y-107001403D01*
X129999266Y-107050066D01*
X129950603Y-107082582D01*
X129893200Y-107094000D01*
X129593200Y-107094000D01*
X129535797Y-107082582D01*
X129487134Y-107050066D01*
X129454618Y-107001403D01*
X129443200Y-106944000D01*
X129443200Y-105919000D01*
X129454618Y-105861597D01*
X129487134Y-105812934D01*
X129535797Y-105780418D01*
X129593200Y-105769000D01*
X129893200Y-105769000D01*
X129950603Y-105780418D01*
G37*
G36*
X130900603Y-105780418D02*
G01*
X130949266Y-105812934D01*
X130981782Y-105861597D01*
X130993200Y-105919000D01*
X130993200Y-106944000D01*
X130981782Y-107001403D01*
X130949266Y-107050066D01*
X130900603Y-107082582D01*
X130843200Y-107094000D01*
X130543200Y-107094000D01*
X130485797Y-107082582D01*
X130437134Y-107050066D01*
X130404618Y-107001403D01*
X130393200Y-106944000D01*
X130393200Y-105919000D01*
X130404618Y-105861597D01*
X130437134Y-105812934D01*
X130485797Y-105780418D01*
X130543200Y-105769000D01*
X130843200Y-105769000D01*
X130900603Y-105780418D01*
G37*
G36*
X151425908Y-105549210D02*
G01*
X151447859Y-105551757D01*
X151455358Y-105555068D01*
X151477029Y-105559379D01*
X151500230Y-105574881D01*
X151504996Y-105576986D01*
X151508250Y-105580240D01*
X151528937Y-105594063D01*
X151542759Y-105614749D01*
X151546013Y-105618003D01*
X151548116Y-105622767D01*
X151563621Y-105645971D01*
X151567931Y-105667643D01*
X151571242Y-105675140D01*
X151573787Y-105697081D01*
X151575800Y-105707200D01*
X151575800Y-106027200D01*
X151573786Y-106037321D01*
X151571242Y-106059259D01*
X151567932Y-106066754D01*
X151563621Y-106088429D01*
X151548115Y-106111634D01*
X151546013Y-106116396D01*
X151542761Y-106119647D01*
X151528937Y-106140337D01*
X151508247Y-106154161D01*
X151504996Y-106157413D01*
X151500234Y-106159515D01*
X151477029Y-106175021D01*
X151455354Y-106179332D01*
X151447859Y-106182642D01*
X151425919Y-106185187D01*
X151415800Y-106187200D01*
X151020800Y-106187200D01*
X151010680Y-106185187D01*
X150988740Y-106182642D01*
X150981243Y-106179331D01*
X150959571Y-106175021D01*
X150936367Y-106159516D01*
X150931603Y-106157413D01*
X150928349Y-106154159D01*
X150907663Y-106140337D01*
X150893840Y-106119650D01*
X150890586Y-106116396D01*
X150888481Y-106111630D01*
X150872979Y-106088429D01*
X150868668Y-106066758D01*
X150865357Y-106059259D01*
X150862810Y-106037307D01*
X150860800Y-106027200D01*
X150860800Y-105707200D01*
X150862810Y-105697092D01*
X150865357Y-105675140D01*
X150868669Y-105667639D01*
X150872979Y-105645971D01*
X150888480Y-105622771D01*
X150890586Y-105618003D01*
X150893842Y-105614746D01*
X150907663Y-105594063D01*
X150928346Y-105580242D01*
X150931603Y-105576986D01*
X150936371Y-105574880D01*
X150959571Y-105559379D01*
X150981239Y-105555069D01*
X150988740Y-105551757D01*
X151010693Y-105549210D01*
X151020800Y-105547200D01*
X151415800Y-105547200D01*
X151425908Y-105549210D01*
G37*
G36*
X152620908Y-105549210D02*
G01*
X152642859Y-105551757D01*
X152650358Y-105555068D01*
X152672029Y-105559379D01*
X152695230Y-105574881D01*
X152699996Y-105576986D01*
X152703250Y-105580240D01*
X152723937Y-105594063D01*
X152737759Y-105614749D01*
X152741013Y-105618003D01*
X152743116Y-105622767D01*
X152758621Y-105645971D01*
X152762931Y-105667643D01*
X152766242Y-105675140D01*
X152768787Y-105697081D01*
X152770800Y-105707200D01*
X152770800Y-106027200D01*
X152768786Y-106037321D01*
X152766242Y-106059259D01*
X152762932Y-106066754D01*
X152758621Y-106088429D01*
X152743115Y-106111634D01*
X152741013Y-106116396D01*
X152737761Y-106119647D01*
X152723937Y-106140337D01*
X152703247Y-106154161D01*
X152699996Y-106157413D01*
X152695234Y-106159515D01*
X152672029Y-106175021D01*
X152650354Y-106179332D01*
X152642859Y-106182642D01*
X152620919Y-106185187D01*
X152610800Y-106187200D01*
X152215800Y-106187200D01*
X152205680Y-106185187D01*
X152183740Y-106182642D01*
X152176243Y-106179331D01*
X152154571Y-106175021D01*
X152131367Y-106159516D01*
X152126603Y-106157413D01*
X152123349Y-106154159D01*
X152102663Y-106140337D01*
X152088840Y-106119650D01*
X152085586Y-106116396D01*
X152083481Y-106111630D01*
X152067979Y-106088429D01*
X152063668Y-106066758D01*
X152060357Y-106059259D01*
X152057810Y-106037307D01*
X152055800Y-106027200D01*
X152055800Y-105707200D01*
X152057810Y-105697092D01*
X152060357Y-105675140D01*
X152063669Y-105667639D01*
X152067979Y-105645971D01*
X152083480Y-105622771D01*
X152085586Y-105618003D01*
X152088842Y-105614746D01*
X152102663Y-105594063D01*
X152123346Y-105580242D01*
X152126603Y-105576986D01*
X152131371Y-105574880D01*
X152154571Y-105559379D01*
X152176239Y-105555069D01*
X152183740Y-105551757D01*
X152205693Y-105549210D01*
X152215800Y-105547200D01*
X152610800Y-105547200D01*
X152620908Y-105549210D01*
G37*
G36*
X149395108Y-105372610D02*
G01*
X149417059Y-105375157D01*
X149424558Y-105378468D01*
X149446229Y-105382779D01*
X149469430Y-105398281D01*
X149474196Y-105400386D01*
X149477450Y-105403640D01*
X149498137Y-105417463D01*
X149511959Y-105438149D01*
X149515213Y-105441403D01*
X149517316Y-105446167D01*
X149532821Y-105469371D01*
X149537131Y-105491043D01*
X149540442Y-105498540D01*
X149542987Y-105520481D01*
X149545000Y-105530600D01*
X149545000Y-105925600D01*
X149542986Y-105935721D01*
X149540442Y-105957659D01*
X149537132Y-105965154D01*
X149532821Y-105986829D01*
X149517315Y-106010034D01*
X149515213Y-106014796D01*
X149511961Y-106018047D01*
X149498137Y-106038737D01*
X149477447Y-106052561D01*
X149474196Y-106055813D01*
X149469434Y-106057915D01*
X149446229Y-106073421D01*
X149424554Y-106077732D01*
X149417059Y-106081042D01*
X149395119Y-106083587D01*
X149385000Y-106085600D01*
X149065000Y-106085600D01*
X149054880Y-106083587D01*
X149032940Y-106081042D01*
X149025443Y-106077731D01*
X149003771Y-106073421D01*
X148980567Y-106057916D01*
X148975803Y-106055813D01*
X148972549Y-106052559D01*
X148951863Y-106038737D01*
X148938040Y-106018050D01*
X148934786Y-106014796D01*
X148932681Y-106010030D01*
X148917179Y-105986829D01*
X148912868Y-105965158D01*
X148909557Y-105957659D01*
X148907010Y-105935707D01*
X148905000Y-105925600D01*
X148905000Y-105530600D01*
X148907010Y-105520492D01*
X148909557Y-105498540D01*
X148912869Y-105491039D01*
X148917179Y-105469371D01*
X148932680Y-105446171D01*
X148934786Y-105441403D01*
X148938042Y-105438146D01*
X148951863Y-105417463D01*
X148972546Y-105403642D01*
X148975803Y-105400386D01*
X148980571Y-105398280D01*
X149003771Y-105382779D01*
X149025439Y-105378469D01*
X149032940Y-105375157D01*
X149054893Y-105372610D01*
X149065000Y-105370600D01*
X149385000Y-105370600D01*
X149395108Y-105372610D01*
G37*
G36*
X161100000Y-106011200D02*
G01*
X158600000Y-106011200D01*
X158600000Y-104811200D01*
X161100000Y-104811200D01*
X161100000Y-106011200D01*
G37*
G36*
X138573203Y-105324618D02*
G01*
X138621866Y-105357134D01*
X138654382Y-105405797D01*
X138665800Y-105463200D01*
X138665800Y-105763200D01*
X138654382Y-105820603D01*
X138621866Y-105869266D01*
X138573203Y-105901782D01*
X138515800Y-105913200D01*
X136765800Y-105913200D01*
X136708397Y-105901782D01*
X136659734Y-105869266D01*
X136627218Y-105820603D01*
X136615800Y-105763200D01*
X136615800Y-105463200D01*
X136627218Y-105405797D01*
X136659734Y-105357134D01*
X136708397Y-105324618D01*
X136765800Y-105313200D01*
X138515800Y-105313200D01*
X138573203Y-105324618D01*
G37*
G36*
X147873203Y-105324618D02*
G01*
X147921866Y-105357134D01*
X147954382Y-105405797D01*
X147965800Y-105463200D01*
X147965800Y-105763200D01*
X147954382Y-105820603D01*
X147921866Y-105869266D01*
X147873203Y-105901782D01*
X147815800Y-105913200D01*
X146065800Y-105913200D01*
X146008397Y-105901782D01*
X145959734Y-105869266D01*
X145927218Y-105820603D01*
X145915800Y-105763200D01*
X145915800Y-105463200D01*
X145927218Y-105405797D01*
X145959734Y-105357134D01*
X146008397Y-105324618D01*
X146065800Y-105313200D01*
X147815800Y-105313200D01*
X147873203Y-105324618D01*
G37*
G36*
X153994203Y-104586618D02*
G01*
X154042866Y-104619134D01*
X154075382Y-104667797D01*
X154086800Y-104725200D01*
X154086800Y-105750200D01*
X154075382Y-105807603D01*
X154042866Y-105856266D01*
X153994203Y-105888782D01*
X153936800Y-105900200D01*
X153636800Y-105900200D01*
X153579397Y-105888782D01*
X153530734Y-105856266D01*
X153498218Y-105807603D01*
X153486800Y-105750200D01*
X153486800Y-104725200D01*
X153498218Y-104667797D01*
X153530734Y-104619134D01*
X153579397Y-104586618D01*
X153636800Y-104575200D01*
X153936800Y-104575200D01*
X153994203Y-104586618D01*
G37*
G36*
X154944203Y-104586618D02*
G01*
X154992866Y-104619134D01*
X155025382Y-104667797D01*
X155036800Y-104725200D01*
X155036800Y-105750200D01*
X155025382Y-105807603D01*
X154992866Y-105856266D01*
X154944203Y-105888782D01*
X154886800Y-105900200D01*
X154586800Y-105900200D01*
X154529397Y-105888782D01*
X154480734Y-105856266D01*
X154448218Y-105807603D01*
X154436800Y-105750200D01*
X154436800Y-104725200D01*
X154448218Y-104667797D01*
X154480734Y-104619134D01*
X154529397Y-104586618D01*
X154586800Y-104575200D01*
X154886800Y-104575200D01*
X154944203Y-104586618D01*
G37*
G36*
X155894203Y-104586618D02*
G01*
X155942866Y-104619134D01*
X155975382Y-104667797D01*
X155986800Y-104725200D01*
X155986800Y-105750200D01*
X155975382Y-105807603D01*
X155942866Y-105856266D01*
X155894203Y-105888782D01*
X155836800Y-105900200D01*
X155536800Y-105900200D01*
X155479397Y-105888782D01*
X155430734Y-105856266D01*
X155398218Y-105807603D01*
X155386800Y-105750200D01*
X155386800Y-104725200D01*
X155398218Y-104667797D01*
X155430734Y-104619134D01*
X155479397Y-104586618D01*
X155536800Y-104575200D01*
X155836800Y-104575200D01*
X155894203Y-104586618D01*
G37*
G36*
X133387042Y-104898391D02*
G01*
X133419727Y-104902694D01*
X133427948Y-104906527D01*
X133447537Y-104910424D01*
X133473480Y-104927759D01*
X133484608Y-104932948D01*
X133491378Y-104939718D01*
X133512421Y-104953779D01*
X133526481Y-104974821D01*
X133533251Y-104981591D01*
X133538438Y-104992716D01*
X133555776Y-105018663D01*
X133559672Y-105038253D01*
X133563505Y-105046472D01*
X133567806Y-105079145D01*
X133571000Y-105095200D01*
X133571000Y-105495200D01*
X133567805Y-105511257D01*
X133563505Y-105543927D01*
X133559673Y-105552144D01*
X133555776Y-105571737D01*
X133538437Y-105597685D01*
X133533251Y-105608808D01*
X133526483Y-105615575D01*
X133512421Y-105636621D01*
X133491375Y-105650683D01*
X133484608Y-105657451D01*
X133473485Y-105662637D01*
X133447537Y-105679976D01*
X133427944Y-105683873D01*
X133419727Y-105687705D01*
X133387056Y-105692006D01*
X133371000Y-105695200D01*
X132821000Y-105695200D01*
X132804944Y-105692006D01*
X132772272Y-105687705D01*
X132764053Y-105683872D01*
X132744463Y-105679976D01*
X132718516Y-105662638D01*
X132707391Y-105657451D01*
X132700621Y-105650681D01*
X132679579Y-105636621D01*
X132665518Y-105615578D01*
X132658748Y-105608808D01*
X132653559Y-105597680D01*
X132636224Y-105571737D01*
X132632327Y-105552148D01*
X132628494Y-105543927D01*
X132624190Y-105511241D01*
X132621000Y-105495200D01*
X132621000Y-105095200D01*
X132624190Y-105079159D01*
X132628494Y-105046472D01*
X132632327Y-105038249D01*
X132636224Y-105018663D01*
X132653557Y-104992721D01*
X132658748Y-104981591D01*
X132665520Y-104974818D01*
X132679579Y-104953779D01*
X132700618Y-104939720D01*
X132707391Y-104932948D01*
X132718521Y-104927757D01*
X132744463Y-104910424D01*
X132764049Y-104906527D01*
X132772272Y-104902694D01*
X132804960Y-104898390D01*
X132821000Y-104895200D01*
X133371000Y-104895200D01*
X133387042Y-104898391D01*
G37*
G36*
X149395108Y-104177610D02*
G01*
X149417059Y-104180157D01*
X149424558Y-104183468D01*
X149446229Y-104187779D01*
X149469430Y-104203281D01*
X149474196Y-104205386D01*
X149477450Y-104208640D01*
X149498137Y-104222463D01*
X149511959Y-104243149D01*
X149515213Y-104246403D01*
X149517316Y-104251167D01*
X149532821Y-104274371D01*
X149537131Y-104296043D01*
X149540442Y-104303540D01*
X149542987Y-104325481D01*
X149545000Y-104335600D01*
X149545000Y-104730600D01*
X149542986Y-104740721D01*
X149540442Y-104762659D01*
X149537132Y-104770154D01*
X149532821Y-104791829D01*
X149517315Y-104815034D01*
X149515213Y-104819796D01*
X149511961Y-104823047D01*
X149498137Y-104843737D01*
X149477447Y-104857561D01*
X149474196Y-104860813D01*
X149469434Y-104862915D01*
X149446229Y-104878421D01*
X149424554Y-104882732D01*
X149417059Y-104886042D01*
X149395119Y-104888587D01*
X149385000Y-104890600D01*
X149065000Y-104890600D01*
X149054880Y-104888587D01*
X149032940Y-104886042D01*
X149025443Y-104882731D01*
X149003771Y-104878421D01*
X148980567Y-104862916D01*
X148975803Y-104860813D01*
X148972549Y-104857559D01*
X148951863Y-104843737D01*
X148938040Y-104823050D01*
X148934786Y-104819796D01*
X148932681Y-104815030D01*
X148917179Y-104791829D01*
X148912868Y-104770158D01*
X148909557Y-104762659D01*
X148907010Y-104740707D01*
X148905000Y-104730600D01*
X148905000Y-104335600D01*
X148907010Y-104325492D01*
X148909557Y-104303540D01*
X148912869Y-104296039D01*
X148917179Y-104274371D01*
X148932680Y-104251171D01*
X148934786Y-104246403D01*
X148938042Y-104243146D01*
X148951863Y-104222463D01*
X148972546Y-104208642D01*
X148975803Y-104205386D01*
X148980571Y-104203280D01*
X149003771Y-104187779D01*
X149025439Y-104183469D01*
X149032940Y-104180157D01*
X149054893Y-104177610D01*
X149065000Y-104175600D01*
X149385000Y-104175600D01*
X149395108Y-104177610D01*
G37*
G36*
X134661908Y-104177610D02*
G01*
X134683859Y-104180157D01*
X134691358Y-104183468D01*
X134713029Y-104187779D01*
X134736230Y-104203281D01*
X134740996Y-104205386D01*
X134744250Y-104208640D01*
X134764937Y-104222463D01*
X134778759Y-104243149D01*
X134782013Y-104246403D01*
X134784116Y-104251167D01*
X134799621Y-104274371D01*
X134803931Y-104296043D01*
X134807242Y-104303540D01*
X134809787Y-104325481D01*
X134811800Y-104335600D01*
X134811800Y-104655600D01*
X134809786Y-104665721D01*
X134807242Y-104687659D01*
X134803932Y-104695154D01*
X134799621Y-104716829D01*
X134784115Y-104740034D01*
X134782013Y-104744796D01*
X134778761Y-104748047D01*
X134764937Y-104768737D01*
X134744247Y-104782561D01*
X134740996Y-104785813D01*
X134736234Y-104787915D01*
X134713029Y-104803421D01*
X134691354Y-104807732D01*
X134683859Y-104811042D01*
X134661919Y-104813587D01*
X134651800Y-104815600D01*
X134256800Y-104815600D01*
X134246680Y-104813587D01*
X134224740Y-104811042D01*
X134217243Y-104807731D01*
X134195571Y-104803421D01*
X134172367Y-104787916D01*
X134167603Y-104785813D01*
X134164349Y-104782559D01*
X134143663Y-104768737D01*
X134129840Y-104748050D01*
X134126586Y-104744796D01*
X134124481Y-104740030D01*
X134108979Y-104716829D01*
X134104668Y-104695158D01*
X134101357Y-104687659D01*
X134098810Y-104665707D01*
X134096800Y-104655600D01*
X134096800Y-104335600D01*
X134098810Y-104325492D01*
X134101357Y-104303540D01*
X134104669Y-104296039D01*
X134108979Y-104274371D01*
X134124480Y-104251171D01*
X134126586Y-104246403D01*
X134129842Y-104243146D01*
X134143663Y-104222463D01*
X134164346Y-104208642D01*
X134167603Y-104205386D01*
X134172371Y-104203280D01*
X134195571Y-104187779D01*
X134217239Y-104183469D01*
X134224740Y-104180157D01*
X134246693Y-104177610D01*
X134256800Y-104175600D01*
X134651800Y-104175600D01*
X134661908Y-104177610D01*
G37*
G36*
X135856908Y-104177610D02*
G01*
X135878859Y-104180157D01*
X135886358Y-104183468D01*
X135908029Y-104187779D01*
X135931230Y-104203281D01*
X135935996Y-104205386D01*
X135939250Y-104208640D01*
X135959937Y-104222463D01*
X135973759Y-104243149D01*
X135977013Y-104246403D01*
X135979116Y-104251167D01*
X135994621Y-104274371D01*
X135998931Y-104296043D01*
X136002242Y-104303540D01*
X136004787Y-104325481D01*
X136006800Y-104335600D01*
X136006800Y-104655600D01*
X136004786Y-104665721D01*
X136002242Y-104687659D01*
X135998932Y-104695154D01*
X135994621Y-104716829D01*
X135979115Y-104740034D01*
X135977013Y-104744796D01*
X135973761Y-104748047D01*
X135959937Y-104768737D01*
X135939247Y-104782561D01*
X135935996Y-104785813D01*
X135931234Y-104787915D01*
X135908029Y-104803421D01*
X135886354Y-104807732D01*
X135878859Y-104811042D01*
X135856919Y-104813587D01*
X135846800Y-104815600D01*
X135451800Y-104815600D01*
X135441680Y-104813587D01*
X135419740Y-104811042D01*
X135412243Y-104807731D01*
X135390571Y-104803421D01*
X135367367Y-104787916D01*
X135362603Y-104785813D01*
X135359349Y-104782559D01*
X135338663Y-104768737D01*
X135324840Y-104748050D01*
X135321586Y-104744796D01*
X135319481Y-104740030D01*
X135303979Y-104716829D01*
X135299668Y-104695158D01*
X135296357Y-104687659D01*
X135293810Y-104665707D01*
X135291800Y-104655600D01*
X135291800Y-104335600D01*
X135293810Y-104325492D01*
X135296357Y-104303540D01*
X135299669Y-104296039D01*
X135303979Y-104274371D01*
X135319480Y-104251171D01*
X135321586Y-104246403D01*
X135324842Y-104243146D01*
X135338663Y-104222463D01*
X135359346Y-104208642D01*
X135362603Y-104205386D01*
X135367371Y-104203280D01*
X135390571Y-104187779D01*
X135412239Y-104183469D01*
X135419740Y-104180157D01*
X135441693Y-104177610D01*
X135451800Y-104175600D01*
X135846800Y-104175600D01*
X135856908Y-104177610D01*
G37*
G36*
X125642400Y-104716600D02*
G01*
X124142400Y-104716600D01*
X124142400Y-103116600D01*
X125642400Y-103116600D01*
X125642400Y-104716600D01*
G37*
G36*
X162162315Y-103666289D02*
G01*
X162171157Y-103666289D01*
X162217369Y-103679858D01*
X162276978Y-103694550D01*
X162289134Y-103700930D01*
X162307708Y-103706384D01*
X162344159Y-103729809D01*
X162383510Y-103750463D01*
X162402568Y-103767347D01*
X162427430Y-103783325D01*
X162449985Y-103809355D01*
X162473567Y-103830247D01*
X162495023Y-103861331D01*
X162520627Y-103890880D01*
X162530809Y-103913177D01*
X162541915Y-103929266D01*
X162560323Y-103977804D01*
X162579746Y-104020334D01*
X162581756Y-104034316D01*
X162584579Y-104041759D01*
X162594092Y-104120111D01*
X162600000Y-104161200D01*
X162594091Y-104202290D01*
X162584579Y-104280640D01*
X162581756Y-104288081D01*
X162579746Y-104302066D01*
X162560321Y-104344600D01*
X162541915Y-104393133D01*
X162530811Y-104409219D01*
X162520627Y-104431520D01*
X162495019Y-104461072D01*
X162473567Y-104492152D01*
X162449989Y-104513039D01*
X162427430Y-104539075D01*
X162402564Y-104555055D01*
X162383510Y-104571936D01*
X162344167Y-104592584D01*
X162307708Y-104616016D01*
X162289130Y-104621470D01*
X162276978Y-104627849D01*
X162217380Y-104642538D01*
X162171157Y-104656111D01*
X162162315Y-104656111D01*
X162160157Y-104656643D01*
X162039843Y-104656643D01*
X162037685Y-104656111D01*
X162028843Y-104656111D01*
X161982622Y-104642539D01*
X161923021Y-104627849D01*
X161910867Y-104621470D01*
X161892292Y-104616016D01*
X161855836Y-104592587D01*
X161816489Y-104571936D01*
X161797432Y-104555052D01*
X161772570Y-104539075D01*
X161750013Y-104513043D01*
X161726432Y-104492152D01*
X161704975Y-104461066D01*
X161679373Y-104431520D01*
X161669190Y-104409224D01*
X161658084Y-104393133D01*
X161639672Y-104344587D01*
X161620254Y-104302066D01*
X161618243Y-104288085D01*
X161615420Y-104280640D01*
X161605901Y-104202245D01*
X161600000Y-104161200D01*
X161605901Y-104120156D01*
X161615420Y-104041759D01*
X161618244Y-104034312D01*
X161620254Y-104020334D01*
X161639670Y-103977817D01*
X161658084Y-103929266D01*
X161669192Y-103913172D01*
X161679373Y-103890880D01*
X161704971Y-103861337D01*
X161726432Y-103830247D01*
X161750017Y-103809351D01*
X161772570Y-103783325D01*
X161797428Y-103767349D01*
X161816489Y-103750463D01*
X161855845Y-103729806D01*
X161892292Y-103706384D01*
X161910863Y-103700931D01*
X161923021Y-103694550D01*
X161982632Y-103679857D01*
X162028843Y-103666289D01*
X162037685Y-103666289D01*
X162039843Y-103665757D01*
X162160157Y-103665757D01*
X162162315Y-103666289D01*
G37*
G36*
X138573203Y-104054618D02*
G01*
X138621866Y-104087134D01*
X138654382Y-104135797D01*
X138665800Y-104193200D01*
X138665800Y-104493200D01*
X138654382Y-104550603D01*
X138621866Y-104599266D01*
X138573203Y-104631782D01*
X138515800Y-104643200D01*
X136765800Y-104643200D01*
X136708397Y-104631782D01*
X136659734Y-104599266D01*
X136627218Y-104550603D01*
X136615800Y-104493200D01*
X136615800Y-104193200D01*
X136627218Y-104135797D01*
X136659734Y-104087134D01*
X136708397Y-104054618D01*
X136765800Y-104043200D01*
X138515800Y-104043200D01*
X138573203Y-104054618D01*
G37*
G36*
X147873203Y-104054618D02*
G01*
X147921866Y-104087134D01*
X147954382Y-104135797D01*
X147965800Y-104193200D01*
X147965800Y-104493200D01*
X147954382Y-104550603D01*
X147921866Y-104599266D01*
X147873203Y-104631782D01*
X147815800Y-104643200D01*
X146065800Y-104643200D01*
X146008397Y-104631782D01*
X145959734Y-104599266D01*
X145927218Y-104550603D01*
X145915800Y-104493200D01*
X145915800Y-104193200D01*
X145927218Y-104135797D01*
X145959734Y-104087134D01*
X146008397Y-104054618D01*
X146065800Y-104043200D01*
X147815800Y-104043200D01*
X147873203Y-104054618D01*
G37*
G36*
X130509403Y-103032918D02*
G01*
X130558066Y-103065434D01*
X130590582Y-103114097D01*
X130602000Y-103171500D01*
X130602000Y-104346500D01*
X130590582Y-104403903D01*
X130558066Y-104452566D01*
X130509403Y-104485082D01*
X130452000Y-104496500D01*
X130152000Y-104496500D01*
X130094597Y-104485082D01*
X130045934Y-104452566D01*
X130013418Y-104403903D01*
X130002000Y-104346500D01*
X130002000Y-103171500D01*
X130013418Y-103114097D01*
X130045934Y-103065434D01*
X130094597Y-103032918D01*
X130152000Y-103021500D01*
X130452000Y-103021500D01*
X130509403Y-103032918D01*
G37*
G36*
X133387042Y-103248391D02*
G01*
X133419727Y-103252694D01*
X133427948Y-103256527D01*
X133447537Y-103260424D01*
X133473480Y-103277759D01*
X133484608Y-103282948D01*
X133491378Y-103289718D01*
X133512421Y-103303779D01*
X133526481Y-103324821D01*
X133533251Y-103331591D01*
X133538438Y-103342716D01*
X133555776Y-103368663D01*
X133559672Y-103388253D01*
X133563505Y-103396472D01*
X133567806Y-103429145D01*
X133571000Y-103445200D01*
X133571000Y-103845200D01*
X133567805Y-103861257D01*
X133563505Y-103893927D01*
X133559673Y-103902144D01*
X133555776Y-103921737D01*
X133538437Y-103947685D01*
X133533251Y-103958808D01*
X133526483Y-103965575D01*
X133512421Y-103986621D01*
X133491375Y-104000683D01*
X133484608Y-104007451D01*
X133473485Y-104012637D01*
X133447537Y-104029976D01*
X133427944Y-104033873D01*
X133419727Y-104037705D01*
X133387056Y-104042006D01*
X133371000Y-104045200D01*
X132821000Y-104045200D01*
X132804944Y-104042006D01*
X132772272Y-104037705D01*
X132764053Y-104033872D01*
X132744463Y-104029976D01*
X132718516Y-104012638D01*
X132707391Y-104007451D01*
X132700621Y-104000681D01*
X132679579Y-103986621D01*
X132665518Y-103965578D01*
X132658748Y-103958808D01*
X132653559Y-103947680D01*
X132636224Y-103921737D01*
X132632327Y-103902148D01*
X132628494Y-103893927D01*
X132624190Y-103861241D01*
X132621000Y-103845200D01*
X132621000Y-103445200D01*
X132624190Y-103429159D01*
X132628494Y-103396472D01*
X132632327Y-103388249D01*
X132636224Y-103368663D01*
X132653557Y-103342721D01*
X132658748Y-103331591D01*
X132665520Y-103324818D01*
X132679579Y-103303779D01*
X132700618Y-103289720D01*
X132707391Y-103282948D01*
X132718521Y-103277757D01*
X132744463Y-103260424D01*
X132764049Y-103256527D01*
X132772272Y-103252694D01*
X132804960Y-103248390D01*
X132821000Y-103245200D01*
X133371000Y-103245200D01*
X133387042Y-103248391D01*
G37*
G36*
X149601391Y-102793531D02*
G01*
X149639114Y-102799027D01*
X149646038Y-102802411D01*
X149662704Y-102805727D01*
X149689654Y-102823734D01*
X149706336Y-102831890D01*
X149715350Y-102840904D01*
X149735699Y-102854501D01*
X149749295Y-102874849D01*
X149758309Y-102883863D01*
X149766463Y-102900542D01*
X149784473Y-102927496D01*
X149787788Y-102944163D01*
X149791172Y-102951085D01*
X149796665Y-102988792D01*
X149801600Y-103013600D01*
X149801600Y-103463600D01*
X149796664Y-103488410D01*
X149791172Y-103526114D01*
X149787788Y-103533034D01*
X149784473Y-103549704D01*
X149766461Y-103576660D01*
X149758309Y-103593336D01*
X149749297Y-103602347D01*
X149735699Y-103622699D01*
X149715347Y-103636297D01*
X149706336Y-103645309D01*
X149689660Y-103653461D01*
X149662704Y-103671473D01*
X149646034Y-103674788D01*
X149639114Y-103678172D01*
X149601410Y-103683664D01*
X149576600Y-103688600D01*
X149076600Y-103688600D01*
X149051792Y-103683665D01*
X149014085Y-103678172D01*
X149007163Y-103674788D01*
X148990496Y-103671473D01*
X148963542Y-103653463D01*
X148946863Y-103645309D01*
X148937849Y-103636295D01*
X148917501Y-103622699D01*
X148903904Y-103602350D01*
X148894890Y-103593336D01*
X148886734Y-103576654D01*
X148868727Y-103549704D01*
X148865411Y-103533038D01*
X148862027Y-103526114D01*
X148856531Y-103488391D01*
X148851600Y-103463600D01*
X148851600Y-103013600D01*
X148856530Y-102988811D01*
X148862027Y-102951085D01*
X148865412Y-102944160D01*
X148868727Y-102927496D01*
X148886733Y-102900548D01*
X148894890Y-102883863D01*
X148903906Y-102874846D01*
X148917501Y-102854501D01*
X148937846Y-102840906D01*
X148946863Y-102831890D01*
X148963548Y-102823733D01*
X148990496Y-102805727D01*
X149007160Y-102802412D01*
X149014085Y-102799027D01*
X149051811Y-102793530D01*
X149076600Y-102788600D01*
X149576600Y-102788600D01*
X149601391Y-102793531D01*
G37*
G36*
X151243242Y-102891791D02*
G01*
X151275927Y-102896094D01*
X151284148Y-102899927D01*
X151303737Y-102903824D01*
X151329680Y-102921159D01*
X151340808Y-102926348D01*
X151347578Y-102933118D01*
X151368621Y-102947179D01*
X151382681Y-102968221D01*
X151389451Y-102974991D01*
X151394638Y-102986116D01*
X151411976Y-103012063D01*
X151415872Y-103031653D01*
X151419705Y-103039872D01*
X151424006Y-103072545D01*
X151427200Y-103088600D01*
X151427200Y-103488600D01*
X151424005Y-103504657D01*
X151419705Y-103537327D01*
X151415873Y-103545544D01*
X151411976Y-103565137D01*
X151394637Y-103591085D01*
X151389451Y-103602208D01*
X151382683Y-103608975D01*
X151368621Y-103630021D01*
X151347575Y-103644083D01*
X151340808Y-103650851D01*
X151329685Y-103656037D01*
X151303737Y-103673376D01*
X151284144Y-103677273D01*
X151275927Y-103681105D01*
X151243256Y-103685406D01*
X151227200Y-103688600D01*
X150677200Y-103688600D01*
X150661144Y-103685406D01*
X150628472Y-103681105D01*
X150620253Y-103677272D01*
X150600663Y-103673376D01*
X150574716Y-103656038D01*
X150563591Y-103650851D01*
X150556821Y-103644081D01*
X150535779Y-103630021D01*
X150521718Y-103608978D01*
X150514948Y-103602208D01*
X150509759Y-103591080D01*
X150492424Y-103565137D01*
X150488527Y-103545548D01*
X150484694Y-103537327D01*
X150480390Y-103504641D01*
X150477200Y-103488600D01*
X150477200Y-103088600D01*
X150480390Y-103072559D01*
X150484694Y-103039872D01*
X150488527Y-103031649D01*
X150492424Y-103012063D01*
X150509757Y-102986121D01*
X150514948Y-102974991D01*
X150521720Y-102968218D01*
X150535779Y-102947179D01*
X150556818Y-102933120D01*
X150563591Y-102926348D01*
X150574721Y-102921157D01*
X150600663Y-102903824D01*
X150620249Y-102899927D01*
X150628472Y-102896094D01*
X150661160Y-102891790D01*
X150677200Y-102888600D01*
X151227200Y-102888600D01*
X151243242Y-102891791D01*
G37*
G36*
X135580591Y-102717331D02*
G01*
X135618314Y-102722827D01*
X135625238Y-102726211D01*
X135641904Y-102729527D01*
X135668854Y-102747534D01*
X135685536Y-102755690D01*
X135694550Y-102764704D01*
X135714899Y-102778301D01*
X135728495Y-102798649D01*
X135737509Y-102807663D01*
X135745663Y-102824342D01*
X135763673Y-102851296D01*
X135766988Y-102867963D01*
X135770372Y-102874885D01*
X135775865Y-102912592D01*
X135780800Y-102937400D01*
X135780800Y-103387400D01*
X135775864Y-103412210D01*
X135770372Y-103449914D01*
X135766988Y-103456834D01*
X135763673Y-103473504D01*
X135745661Y-103500460D01*
X135737509Y-103517136D01*
X135728497Y-103526147D01*
X135714899Y-103546499D01*
X135694547Y-103560097D01*
X135685536Y-103569109D01*
X135668860Y-103577261D01*
X135641904Y-103595273D01*
X135625234Y-103598588D01*
X135618314Y-103601972D01*
X135580610Y-103607464D01*
X135555800Y-103612400D01*
X135055800Y-103612400D01*
X135030992Y-103607465D01*
X134993285Y-103601972D01*
X134986363Y-103598588D01*
X134969696Y-103595273D01*
X134942742Y-103577263D01*
X134926063Y-103569109D01*
X134917049Y-103560095D01*
X134896701Y-103546499D01*
X134883104Y-103526150D01*
X134874090Y-103517136D01*
X134865934Y-103500454D01*
X134847927Y-103473504D01*
X134844611Y-103456838D01*
X134841227Y-103449914D01*
X134835731Y-103412191D01*
X134830800Y-103387400D01*
X134830800Y-102937400D01*
X134835730Y-102912611D01*
X134841227Y-102874885D01*
X134844612Y-102867960D01*
X134847927Y-102851296D01*
X134865933Y-102824348D01*
X134874090Y-102807663D01*
X134883106Y-102798646D01*
X134896701Y-102778301D01*
X134917046Y-102764706D01*
X134926063Y-102755690D01*
X134942748Y-102747533D01*
X134969696Y-102729527D01*
X134986360Y-102726212D01*
X134993285Y-102722827D01*
X135031011Y-102717330D01*
X135055800Y-102712400D01*
X135555800Y-102712400D01*
X135580591Y-102717331D01*
G37*
G36*
X161100000Y-103511200D02*
G01*
X158600000Y-103511200D01*
X158600000Y-102311200D01*
X161100000Y-102311200D01*
X161100000Y-103511200D01*
G37*
G36*
X138573203Y-102784618D02*
G01*
X138621866Y-102817134D01*
X138654382Y-102865797D01*
X138665800Y-102923200D01*
X138665800Y-103223200D01*
X138654382Y-103280603D01*
X138621866Y-103329266D01*
X138573203Y-103361782D01*
X138515800Y-103373200D01*
X136765800Y-103373200D01*
X136708397Y-103361782D01*
X136659734Y-103329266D01*
X136627218Y-103280603D01*
X136615800Y-103223200D01*
X136615800Y-102923200D01*
X136627218Y-102865797D01*
X136659734Y-102817134D01*
X136708397Y-102784618D01*
X136765800Y-102773200D01*
X138515800Y-102773200D01*
X138573203Y-102784618D01*
G37*
G36*
X147873203Y-102784618D02*
G01*
X147921866Y-102817134D01*
X147954382Y-102865797D01*
X147965800Y-102923200D01*
X147965800Y-103223200D01*
X147954382Y-103280603D01*
X147921866Y-103329266D01*
X147873203Y-103361782D01*
X147815800Y-103373200D01*
X146065800Y-103373200D01*
X146008397Y-103361782D01*
X145959734Y-103329266D01*
X145927218Y-103280603D01*
X145915800Y-103223200D01*
X145915800Y-102923200D01*
X145927218Y-102865797D01*
X145959734Y-102817134D01*
X146008397Y-102784618D01*
X146065800Y-102773200D01*
X147815800Y-102773200D01*
X147873203Y-102784618D01*
G37*
G36*
X129559403Y-101157918D02*
G01*
X129608066Y-101190434D01*
X129640582Y-101239097D01*
X129652000Y-101296500D01*
X129652000Y-102471500D01*
X129640582Y-102528903D01*
X129608066Y-102577566D01*
X129559403Y-102610082D01*
X129502000Y-102621500D01*
X129202000Y-102621500D01*
X129144597Y-102610082D01*
X129095934Y-102577566D01*
X129063418Y-102528903D01*
X129052000Y-102471500D01*
X129052000Y-101296500D01*
X129063418Y-101239097D01*
X129095934Y-101190434D01*
X129144597Y-101157918D01*
X129202000Y-101146500D01*
X129502000Y-101146500D01*
X129559403Y-101157918D01*
G37*
G36*
X131459403Y-101157918D02*
G01*
X131508066Y-101190434D01*
X131540582Y-101239097D01*
X131552000Y-101296500D01*
X131552000Y-102471500D01*
X131540582Y-102528903D01*
X131508066Y-102577566D01*
X131459403Y-102610082D01*
X131402000Y-102621500D01*
X131102000Y-102621500D01*
X131044597Y-102610082D01*
X130995934Y-102577566D01*
X130963418Y-102528903D01*
X130952000Y-102471500D01*
X130952000Y-101296500D01*
X130963418Y-101239097D01*
X130995934Y-101190434D01*
X131044597Y-101157918D01*
X131102000Y-101146500D01*
X131402000Y-101146500D01*
X131459403Y-101157918D01*
G37*
G36*
X133980391Y-101701331D02*
G01*
X134018114Y-101706827D01*
X134025038Y-101710211D01*
X134041704Y-101713527D01*
X134068654Y-101731534D01*
X134085336Y-101739690D01*
X134094350Y-101748704D01*
X134114699Y-101762301D01*
X134128295Y-101782649D01*
X134137309Y-101791663D01*
X134145463Y-101808342D01*
X134163473Y-101835296D01*
X134166788Y-101851963D01*
X134170172Y-101858885D01*
X134175665Y-101896592D01*
X134180600Y-101921400D01*
X134180600Y-102371400D01*
X134175664Y-102396210D01*
X134170172Y-102433914D01*
X134166788Y-102440834D01*
X134163473Y-102457504D01*
X134145461Y-102484460D01*
X134137309Y-102501136D01*
X134128297Y-102510147D01*
X134114699Y-102530499D01*
X134094347Y-102544097D01*
X134085336Y-102553109D01*
X134068660Y-102561261D01*
X134041704Y-102579273D01*
X134025034Y-102582588D01*
X134018114Y-102585972D01*
X133980410Y-102591464D01*
X133955600Y-102596400D01*
X133455600Y-102596400D01*
X133430792Y-102591465D01*
X133393085Y-102585972D01*
X133386163Y-102582588D01*
X133369496Y-102579273D01*
X133342542Y-102561263D01*
X133325863Y-102553109D01*
X133316849Y-102544095D01*
X133296501Y-102530499D01*
X133282904Y-102510150D01*
X133273890Y-102501136D01*
X133265734Y-102484454D01*
X133247727Y-102457504D01*
X133244411Y-102440838D01*
X133241027Y-102433914D01*
X133235531Y-102396191D01*
X133230600Y-102371400D01*
X133230600Y-101921400D01*
X133235530Y-101896611D01*
X133241027Y-101858885D01*
X133244412Y-101851960D01*
X133247727Y-101835296D01*
X133265733Y-101808348D01*
X133273890Y-101791663D01*
X133282906Y-101782646D01*
X133296501Y-101762301D01*
X133316846Y-101748706D01*
X133325863Y-101739690D01*
X133342548Y-101731533D01*
X133369496Y-101713527D01*
X133386160Y-101710212D01*
X133393085Y-101706827D01*
X133430811Y-101701330D01*
X133455600Y-101696400D01*
X133955600Y-101696400D01*
X133980391Y-101701331D01*
G37*
G36*
X122242589Y-99351723D02*
G01*
X122306269Y-99351723D01*
X122363109Y-99361208D01*
X122416994Y-99365449D01*
X122481892Y-99381029D01*
X122550628Y-99392500D01*
X122599377Y-99409235D01*
X122645805Y-99420382D01*
X122713381Y-99448372D01*
X122784943Y-99472940D01*
X122824914Y-99494571D01*
X122863210Y-99510434D01*
X122931086Y-99552028D01*
X123002822Y-99590850D01*
X123033863Y-99615010D01*
X123063851Y-99633387D01*
X123129385Y-99689358D01*
X123198322Y-99743014D01*
X123220808Y-99767440D01*
X123242787Y-99786212D01*
X123303137Y-99856873D01*
X123366111Y-99925281D01*
X123380914Y-99947939D01*
X123395612Y-99965148D01*
X123447841Y-100050378D01*
X123501611Y-100132679D01*
X123510012Y-100151832D01*
X123518565Y-100165789D01*
X123559783Y-100265298D01*
X123601126Y-100359551D01*
X123604747Y-100373852D01*
X123608617Y-100383194D01*
X123636063Y-100497514D01*
X123661942Y-100599708D01*
X123662650Y-100608258D01*
X123663550Y-100612005D01*
X123674692Y-100753583D01*
X123682400Y-100846600D01*
X123674691Y-100939624D01*
X123663550Y-101081194D01*
X123662650Y-101084940D01*
X123661942Y-101093492D01*
X123636058Y-101195703D01*
X123608617Y-101310005D01*
X123604748Y-101319344D01*
X123601126Y-101333649D01*
X123559775Y-101427918D01*
X123518565Y-101527410D01*
X123510014Y-101541363D01*
X123501611Y-101560521D01*
X123447831Y-101642837D01*
X123395612Y-101728051D01*
X123380917Y-101745256D01*
X123366111Y-101767919D01*
X123303125Y-101836339D01*
X123242787Y-101906987D01*
X123220812Y-101925755D01*
X123198322Y-101950186D01*
X123129372Y-102003851D01*
X123063851Y-102059812D01*
X123033869Y-102078184D01*
X123002822Y-102102350D01*
X122931072Y-102141178D01*
X122863210Y-102182765D01*
X122824922Y-102198624D01*
X122784943Y-102220260D01*
X122713366Y-102244831D01*
X122645805Y-102272817D01*
X122599387Y-102283960D01*
X122550628Y-102300700D01*
X122481879Y-102312172D01*
X122416994Y-102327750D01*
X122363121Y-102331989D01*
X122306269Y-102341477D01*
X122242576Y-102341477D01*
X122182400Y-102346213D01*
X122122223Y-102341477D01*
X122058531Y-102341477D01*
X122001679Y-102331990D01*
X121947805Y-102327750D01*
X121882917Y-102312171D01*
X121814172Y-102300700D01*
X121765414Y-102283961D01*
X121718994Y-102272817D01*
X121651427Y-102244829D01*
X121579857Y-102220260D01*
X121539880Y-102198625D01*
X121501589Y-102182765D01*
X121433719Y-102141174D01*
X121361978Y-102102350D01*
X121330934Y-102078187D01*
X121300948Y-102059812D01*
X121235416Y-102003842D01*
X121166478Y-101950186D01*
X121143991Y-101925759D01*
X121122012Y-101906987D01*
X121061660Y-101836324D01*
X120998689Y-101767919D01*
X120983886Y-101745261D01*
X120969187Y-101728051D01*
X120916952Y-101642812D01*
X120863189Y-101560521D01*
X120854788Y-101541369D01*
X120846234Y-101527410D01*
X120805006Y-101427877D01*
X120763674Y-101333649D01*
X120760053Y-101319351D01*
X120756182Y-101310005D01*
X120728722Y-101195627D01*
X120702858Y-101093492D01*
X120702149Y-101084946D01*
X120701249Y-101081194D01*
X120690088Y-100939383D01*
X120682400Y-100846600D01*
X120690087Y-100753823D01*
X120701249Y-100612005D01*
X120702150Y-100608251D01*
X120702858Y-100599708D01*
X120728717Y-100497590D01*
X120756182Y-100383194D01*
X120760053Y-100373846D01*
X120763674Y-100359551D01*
X120804998Y-100265339D01*
X120846234Y-100165789D01*
X120854789Y-100151826D01*
X120863189Y-100132679D01*
X120916942Y-100050402D01*
X120969187Y-99965148D01*
X120983888Y-99947934D01*
X120998689Y-99925281D01*
X121061648Y-99856888D01*
X121122012Y-99786212D01*
X121143995Y-99767436D01*
X121166478Y-99743014D01*
X121235402Y-99689367D01*
X121300948Y-99633387D01*
X121330940Y-99615007D01*
X121361978Y-99590850D01*
X121433705Y-99552033D01*
X121501589Y-99510434D01*
X121539888Y-99494569D01*
X121579857Y-99472940D01*
X121651413Y-99448374D01*
X121718994Y-99420382D01*
X121765424Y-99409234D01*
X121814172Y-99392500D01*
X121882903Y-99381030D01*
X121947805Y-99365449D01*
X122001690Y-99361208D01*
X122058531Y-99351723D01*
X122122211Y-99351723D01*
X122182400Y-99346986D01*
X122242589Y-99351723D01*
G37*
G36*
X149601391Y-101243531D02*
G01*
X149639114Y-101249027D01*
X149646038Y-101252411D01*
X149662704Y-101255727D01*
X149689654Y-101273734D01*
X149706336Y-101281890D01*
X149715350Y-101290904D01*
X149735699Y-101304501D01*
X149749295Y-101324849D01*
X149758309Y-101333863D01*
X149766463Y-101350542D01*
X149784473Y-101377496D01*
X149787788Y-101394163D01*
X149791172Y-101401085D01*
X149796665Y-101438792D01*
X149801600Y-101463600D01*
X149801600Y-101913600D01*
X149796664Y-101938410D01*
X149791172Y-101976114D01*
X149787788Y-101983034D01*
X149784473Y-101999704D01*
X149766461Y-102026660D01*
X149758309Y-102043336D01*
X149749297Y-102052347D01*
X149735699Y-102072699D01*
X149715347Y-102086297D01*
X149706336Y-102095309D01*
X149689660Y-102103461D01*
X149662704Y-102121473D01*
X149646034Y-102124788D01*
X149639114Y-102128172D01*
X149601410Y-102133664D01*
X149576600Y-102138600D01*
X149076600Y-102138600D01*
X149051792Y-102133665D01*
X149014085Y-102128172D01*
X149007163Y-102124788D01*
X148990496Y-102121473D01*
X148963542Y-102103463D01*
X148946863Y-102095309D01*
X148937849Y-102086295D01*
X148917501Y-102072699D01*
X148903904Y-102052350D01*
X148894890Y-102043336D01*
X148886734Y-102026654D01*
X148868727Y-101999704D01*
X148865411Y-101983038D01*
X148862027Y-101976114D01*
X148856531Y-101938391D01*
X148851600Y-101913600D01*
X148851600Y-101463600D01*
X148856530Y-101438811D01*
X148862027Y-101401085D01*
X148865412Y-101394160D01*
X148868727Y-101377496D01*
X148886733Y-101350548D01*
X148894890Y-101333863D01*
X148903906Y-101324846D01*
X148917501Y-101304501D01*
X148937846Y-101290906D01*
X148946863Y-101281890D01*
X148963548Y-101273733D01*
X148990496Y-101255727D01*
X149007160Y-101252412D01*
X149014085Y-101249027D01*
X149051811Y-101243530D01*
X149076600Y-101238600D01*
X149576600Y-101238600D01*
X149601391Y-101243531D01*
G37*
G36*
X138573203Y-101514618D02*
G01*
X138621866Y-101547134D01*
X138654382Y-101595797D01*
X138665800Y-101653200D01*
X138665800Y-101953200D01*
X138654382Y-102010603D01*
X138621866Y-102059266D01*
X138573203Y-102091782D01*
X138515800Y-102103200D01*
X136765800Y-102103200D01*
X136708397Y-102091782D01*
X136659734Y-102059266D01*
X136627218Y-102010603D01*
X136615800Y-101953200D01*
X136615800Y-101653200D01*
X136627218Y-101595797D01*
X136659734Y-101547134D01*
X136708397Y-101514618D01*
X136765800Y-101503200D01*
X138515800Y-101503200D01*
X138573203Y-101514618D01*
G37*
G36*
X147873203Y-101514618D02*
G01*
X147921866Y-101547134D01*
X147954382Y-101595797D01*
X147965800Y-101653200D01*
X147965800Y-101953200D01*
X147954382Y-102010603D01*
X147921866Y-102059266D01*
X147873203Y-102091782D01*
X147815800Y-102103200D01*
X146065800Y-102103200D01*
X146008397Y-102091782D01*
X145959734Y-102059266D01*
X145927218Y-102010603D01*
X145915800Y-101953200D01*
X145915800Y-101653200D01*
X145927218Y-101595797D01*
X145959734Y-101547134D01*
X146008397Y-101514618D01*
X146065800Y-101503200D01*
X147815800Y-101503200D01*
X147873203Y-101514618D01*
G37*
G36*
X135580591Y-101167331D02*
G01*
X135618314Y-101172827D01*
X135625238Y-101176211D01*
X135641904Y-101179527D01*
X135668854Y-101197534D01*
X135685536Y-101205690D01*
X135694550Y-101214704D01*
X135714899Y-101228301D01*
X135728495Y-101248649D01*
X135737509Y-101257663D01*
X135745663Y-101274342D01*
X135763673Y-101301296D01*
X135766988Y-101317963D01*
X135770372Y-101324885D01*
X135775865Y-101362592D01*
X135780800Y-101387400D01*
X135780800Y-101837400D01*
X135775864Y-101862210D01*
X135770372Y-101899914D01*
X135766988Y-101906834D01*
X135763673Y-101923504D01*
X135745661Y-101950460D01*
X135737509Y-101967136D01*
X135728497Y-101976147D01*
X135714899Y-101996499D01*
X135694547Y-102010097D01*
X135685536Y-102019109D01*
X135668860Y-102027261D01*
X135641904Y-102045273D01*
X135625234Y-102048588D01*
X135618314Y-102051972D01*
X135580610Y-102057464D01*
X135555800Y-102062400D01*
X135055800Y-102062400D01*
X135030992Y-102057465D01*
X134993285Y-102051972D01*
X134986363Y-102048588D01*
X134969696Y-102045273D01*
X134942742Y-102027263D01*
X134926063Y-102019109D01*
X134917049Y-102010095D01*
X134896701Y-101996499D01*
X134883104Y-101976150D01*
X134874090Y-101967136D01*
X134865934Y-101950454D01*
X134847927Y-101923504D01*
X134844611Y-101906838D01*
X134841227Y-101899914D01*
X134835731Y-101862191D01*
X134830800Y-101837400D01*
X134830800Y-101387400D01*
X134835730Y-101362611D01*
X134841227Y-101324885D01*
X134844612Y-101317960D01*
X134847927Y-101301296D01*
X134865933Y-101274348D01*
X134874090Y-101257663D01*
X134883106Y-101248646D01*
X134896701Y-101228301D01*
X134917046Y-101214706D01*
X134926063Y-101205690D01*
X134942748Y-101197533D01*
X134969696Y-101179527D01*
X134986360Y-101176212D01*
X134993285Y-101172827D01*
X135031011Y-101167330D01*
X135055800Y-101162400D01*
X135555800Y-101162400D01*
X135580591Y-101167331D01*
G37*
G36*
X151243242Y-101241791D02*
G01*
X151275927Y-101246094D01*
X151284148Y-101249927D01*
X151303737Y-101253824D01*
X151329680Y-101271159D01*
X151340808Y-101276348D01*
X151347578Y-101283118D01*
X151368621Y-101297179D01*
X151382681Y-101318221D01*
X151389451Y-101324991D01*
X151394638Y-101336116D01*
X151411976Y-101362063D01*
X151415872Y-101381653D01*
X151419705Y-101389872D01*
X151424006Y-101422545D01*
X151427200Y-101438600D01*
X151427200Y-101838600D01*
X151424005Y-101854657D01*
X151419705Y-101887327D01*
X151415873Y-101895544D01*
X151411976Y-101915137D01*
X151394637Y-101941085D01*
X151389451Y-101952208D01*
X151382683Y-101958975D01*
X151368621Y-101980021D01*
X151347575Y-101994083D01*
X151340808Y-102000851D01*
X151329685Y-102006037D01*
X151303737Y-102023376D01*
X151284144Y-102027273D01*
X151275927Y-102031105D01*
X151243256Y-102035406D01*
X151227200Y-102038600D01*
X150677200Y-102038600D01*
X150661144Y-102035406D01*
X150628472Y-102031105D01*
X150620253Y-102027272D01*
X150600663Y-102023376D01*
X150574716Y-102006038D01*
X150563591Y-102000851D01*
X150556821Y-101994081D01*
X150535779Y-101980021D01*
X150521718Y-101958978D01*
X150514948Y-101952208D01*
X150509759Y-101941080D01*
X150492424Y-101915137D01*
X150488527Y-101895548D01*
X150484694Y-101887327D01*
X150480390Y-101854641D01*
X150477200Y-101838600D01*
X150477200Y-101438600D01*
X150480390Y-101422559D01*
X150484694Y-101389872D01*
X150488527Y-101381649D01*
X150492424Y-101362063D01*
X150509757Y-101336121D01*
X150514948Y-101324991D01*
X150521720Y-101318218D01*
X150535779Y-101297179D01*
X150556818Y-101283120D01*
X150563591Y-101276348D01*
X150574721Y-101271157D01*
X150600663Y-101253824D01*
X150620249Y-101249927D01*
X150628472Y-101246094D01*
X150661160Y-101241790D01*
X150677200Y-101238600D01*
X151227200Y-101238600D01*
X151243242Y-101241791D01*
G37*
G36*
X163109812Y-99561682D02*
G01*
X163175996Y-99564282D01*
X163181956Y-99565226D01*
X163198017Y-99566015D01*
X163241320Y-99574628D01*
X163333355Y-99589206D01*
X163362956Y-99598823D01*
X163390285Y-99604260D01*
X163428846Y-99620232D01*
X163482532Y-99637676D01*
X163532828Y-99663303D01*
X163571397Y-99679279D01*
X163594567Y-99694760D01*
X163622301Y-99708892D01*
X163697696Y-99763670D01*
X163734393Y-99788190D01*
X163742224Y-99796021D01*
X163749191Y-99801083D01*
X163860116Y-99912008D01*
X163865177Y-99918974D01*
X163873010Y-99926807D01*
X163897532Y-99963508D01*
X163952307Y-100038898D01*
X163966437Y-100066629D01*
X163981921Y-100089803D01*
X163997898Y-100128376D01*
X164023523Y-100178667D01*
X164040964Y-100232345D01*
X164056940Y-100270915D01*
X164062377Y-100298249D01*
X164071993Y-100327844D01*
X164086567Y-100419861D01*
X164095185Y-100463183D01*
X164095185Y-100474266D01*
X164096532Y-100482771D01*
X164096532Y-100639628D01*
X164095185Y-100648132D01*
X164095185Y-100659217D01*
X164086567Y-100702541D01*
X164071993Y-100794555D01*
X164062377Y-100824148D01*
X164056940Y-100851485D01*
X164040962Y-100890058D01*
X164023523Y-100943732D01*
X163997900Y-100994018D01*
X163981921Y-101032597D01*
X163966434Y-101055773D01*
X163952307Y-101083501D01*
X163897541Y-101158879D01*
X163873010Y-101195593D01*
X163865174Y-101203428D01*
X163860116Y-101210391D01*
X163749191Y-101321316D01*
X163742228Y-101326374D01*
X163734393Y-101334210D01*
X163697679Y-101358741D01*
X163622301Y-101413507D01*
X163594573Y-101427634D01*
X163571397Y-101443121D01*
X163532818Y-101459100D01*
X163482532Y-101484723D01*
X163428858Y-101502162D01*
X163390285Y-101518140D01*
X163362948Y-101523577D01*
X163333355Y-101533193D01*
X163241344Y-101547766D01*
X163198017Y-101556385D01*
X163186768Y-101556410D01*
X163178326Y-101557748D01*
X161102355Y-101561195D01*
X161102345Y-101561194D01*
X161100000Y-101561200D01*
X161090089Y-101560713D01*
X161024003Y-101558117D01*
X161018051Y-101557174D01*
X161001983Y-101556385D01*
X160958658Y-101547767D01*
X160866644Y-101533193D01*
X160837049Y-101523577D01*
X160809715Y-101518140D01*
X160771145Y-101502164D01*
X160717467Y-101484723D01*
X160667176Y-101459098D01*
X160628603Y-101443121D01*
X160605429Y-101427637D01*
X160577698Y-101413507D01*
X160502308Y-101358732D01*
X160465607Y-101334210D01*
X160457774Y-101326377D01*
X160450808Y-101321316D01*
X160339883Y-101210391D01*
X160334821Y-101203424D01*
X160326990Y-101195593D01*
X160302470Y-101158896D01*
X160247692Y-101083501D01*
X160233560Y-101055767D01*
X160218079Y-101032597D01*
X160202103Y-100994028D01*
X160176476Y-100943732D01*
X160159032Y-100890046D01*
X160143060Y-100851485D01*
X160137623Y-100824156D01*
X160128006Y-100794555D01*
X160113430Y-100702531D01*
X160104815Y-100659217D01*
X160104815Y-100648132D01*
X160103468Y-100639628D01*
X160103468Y-100482771D01*
X160104815Y-100474266D01*
X160104815Y-100463183D01*
X160113430Y-100419871D01*
X160128006Y-100327844D01*
X160137624Y-100298241D01*
X160143060Y-100270915D01*
X160159031Y-100232356D01*
X160176476Y-100178667D01*
X160202105Y-100128365D01*
X160218079Y-100089803D01*
X160233558Y-100066636D01*
X160247692Y-100038898D01*
X160302478Y-99963490D01*
X160326990Y-99926807D01*
X160334818Y-99918978D01*
X160339883Y-99912008D01*
X160450808Y-99801083D01*
X160457778Y-99796018D01*
X160465607Y-99788190D01*
X160502290Y-99763678D01*
X160577698Y-99708892D01*
X160605436Y-99694758D01*
X160628603Y-99679279D01*
X160667165Y-99663305D01*
X160717467Y-99637676D01*
X160771156Y-99620231D01*
X160809715Y-99604260D01*
X160837041Y-99598824D01*
X160866644Y-99589206D01*
X160958684Y-99574627D01*
X161001983Y-99566015D01*
X161013224Y-99565989D01*
X161021673Y-99564651D01*
X163097644Y-99561204D01*
X163097677Y-99561205D01*
X163100000Y-99561200D01*
X163109812Y-99561682D01*
G37*
G36*
X133980391Y-100151331D02*
G01*
X134018114Y-100156827D01*
X134025038Y-100160211D01*
X134041704Y-100163527D01*
X134068654Y-100181534D01*
X134085336Y-100189690D01*
X134094350Y-100198704D01*
X134114699Y-100212301D01*
X134128295Y-100232649D01*
X134137309Y-100241663D01*
X134145463Y-100258342D01*
X134163473Y-100285296D01*
X134166788Y-100301963D01*
X134170172Y-100308885D01*
X134175665Y-100346592D01*
X134180600Y-100371400D01*
X134180600Y-100821400D01*
X134175664Y-100846210D01*
X134170172Y-100883914D01*
X134166788Y-100890834D01*
X134163473Y-100907504D01*
X134145461Y-100934460D01*
X134137309Y-100951136D01*
X134128297Y-100960147D01*
X134114699Y-100980499D01*
X134094347Y-100994097D01*
X134085336Y-101003109D01*
X134068660Y-101011261D01*
X134041704Y-101029273D01*
X134025034Y-101032588D01*
X134018114Y-101035972D01*
X133980410Y-101041464D01*
X133955600Y-101046400D01*
X133455600Y-101046400D01*
X133430792Y-101041465D01*
X133393085Y-101035972D01*
X133386163Y-101032588D01*
X133369496Y-101029273D01*
X133342542Y-101011263D01*
X133325863Y-101003109D01*
X133316849Y-100994095D01*
X133296501Y-100980499D01*
X133282904Y-100960150D01*
X133273890Y-100951136D01*
X133265734Y-100934454D01*
X133247727Y-100907504D01*
X133244411Y-100890838D01*
X133241027Y-100883914D01*
X133235531Y-100846191D01*
X133230600Y-100821400D01*
X133230600Y-100371400D01*
X133235530Y-100346611D01*
X133241027Y-100308885D01*
X133244412Y-100301960D01*
X133247727Y-100285296D01*
X133265733Y-100258348D01*
X133273890Y-100241663D01*
X133282906Y-100232646D01*
X133296501Y-100212301D01*
X133316846Y-100198706D01*
X133325863Y-100189690D01*
X133342548Y-100181533D01*
X133369496Y-100163527D01*
X133386160Y-100160212D01*
X133393085Y-100156827D01*
X133430811Y-100151330D01*
X133455600Y-100146400D01*
X133955600Y-100146400D01*
X133980391Y-100151331D01*
G37*
G36*
X138573203Y-100244618D02*
G01*
X138621866Y-100277134D01*
X138654382Y-100325797D01*
X138665800Y-100383200D01*
X138665800Y-100683200D01*
X138654382Y-100740603D01*
X138621866Y-100789266D01*
X138573203Y-100821782D01*
X138515800Y-100833200D01*
X136765800Y-100833200D01*
X136708397Y-100821782D01*
X136659734Y-100789266D01*
X136627218Y-100740603D01*
X136615800Y-100683200D01*
X136615800Y-100383200D01*
X136627218Y-100325797D01*
X136659734Y-100277134D01*
X136708397Y-100244618D01*
X136765800Y-100233200D01*
X138515800Y-100233200D01*
X138573203Y-100244618D01*
G37*
G36*
X147873203Y-100244618D02*
G01*
X147921866Y-100277134D01*
X147954382Y-100325797D01*
X147965800Y-100383200D01*
X147965800Y-100683200D01*
X147954382Y-100740603D01*
X147921866Y-100789266D01*
X147873203Y-100821782D01*
X147815800Y-100833200D01*
X146065800Y-100833200D01*
X146008397Y-100821782D01*
X145959734Y-100789266D01*
X145927218Y-100740603D01*
X145915800Y-100683200D01*
X145915800Y-100383200D01*
X145927218Y-100325797D01*
X145959734Y-100277134D01*
X146008397Y-100244618D01*
X146065800Y-100233200D01*
X147815800Y-100233200D01*
X147873203Y-100244618D01*
G37*
G36*
X149575991Y-99618531D02*
G01*
X149613714Y-99624027D01*
X149620638Y-99627411D01*
X149637304Y-99630727D01*
X149664254Y-99648734D01*
X149680936Y-99656890D01*
X149689950Y-99665904D01*
X149710299Y-99679501D01*
X149723895Y-99699849D01*
X149732909Y-99708863D01*
X149741063Y-99725542D01*
X149759073Y-99752496D01*
X149762388Y-99769163D01*
X149765772Y-99776085D01*
X149771265Y-99813792D01*
X149776200Y-99838600D01*
X149776200Y-100288600D01*
X149771264Y-100313410D01*
X149765772Y-100351114D01*
X149762388Y-100358034D01*
X149759073Y-100374704D01*
X149741061Y-100401660D01*
X149732909Y-100418336D01*
X149723897Y-100427347D01*
X149710299Y-100447699D01*
X149689947Y-100461297D01*
X149680936Y-100470309D01*
X149664260Y-100478461D01*
X149637304Y-100496473D01*
X149620634Y-100499788D01*
X149613714Y-100503172D01*
X149576010Y-100508664D01*
X149551200Y-100513600D01*
X149051200Y-100513600D01*
X149026392Y-100508665D01*
X148988685Y-100503172D01*
X148981763Y-100499788D01*
X148965096Y-100496473D01*
X148938142Y-100478463D01*
X148921463Y-100470309D01*
X148912449Y-100461295D01*
X148892101Y-100447699D01*
X148878504Y-100427350D01*
X148869490Y-100418336D01*
X148861334Y-100401654D01*
X148843327Y-100374704D01*
X148840011Y-100358038D01*
X148836627Y-100351114D01*
X148831131Y-100313391D01*
X148826200Y-100288600D01*
X148826200Y-99838600D01*
X148831130Y-99813811D01*
X148836627Y-99776085D01*
X148840012Y-99769160D01*
X148843327Y-99752496D01*
X148861333Y-99725548D01*
X148869490Y-99708863D01*
X148878506Y-99699846D01*
X148892101Y-99679501D01*
X148912446Y-99665906D01*
X148921463Y-99656890D01*
X148938148Y-99648733D01*
X148965096Y-99630727D01*
X148981760Y-99627412D01*
X148988685Y-99624027D01*
X149026411Y-99618530D01*
X149051200Y-99613600D01*
X149551200Y-99613600D01*
X149575991Y-99618531D01*
G37*
G36*
X128992842Y-98548391D02*
G01*
X129025527Y-98552694D01*
X129033748Y-98556527D01*
X129053337Y-98560424D01*
X129079280Y-98577759D01*
X129090408Y-98582948D01*
X129097178Y-98589718D01*
X129118221Y-98603779D01*
X129132281Y-98624821D01*
X129139051Y-98631591D01*
X129144238Y-98642716D01*
X129161576Y-98668663D01*
X129165472Y-98688253D01*
X129169305Y-98696472D01*
X129173606Y-98729145D01*
X129176800Y-98745200D01*
X129176800Y-99145200D01*
X129173605Y-99161257D01*
X129169305Y-99193927D01*
X129165473Y-99202144D01*
X129161576Y-99221737D01*
X129144237Y-99247685D01*
X129139051Y-99258808D01*
X129132283Y-99265575D01*
X129118221Y-99286621D01*
X129097175Y-99300683D01*
X129090408Y-99307451D01*
X129079285Y-99312637D01*
X129053337Y-99329976D01*
X129033744Y-99333873D01*
X129025527Y-99337705D01*
X128992856Y-99342006D01*
X128976800Y-99345200D01*
X128426800Y-99345200D01*
X128410744Y-99342006D01*
X128378072Y-99337705D01*
X128369853Y-99333872D01*
X128350263Y-99329976D01*
X128324316Y-99312638D01*
X128313191Y-99307451D01*
X128306421Y-99300681D01*
X128285379Y-99286621D01*
X128271318Y-99265578D01*
X128264548Y-99258808D01*
X128259359Y-99247680D01*
X128242024Y-99221737D01*
X128238127Y-99202148D01*
X128234294Y-99193927D01*
X128229990Y-99161241D01*
X128226800Y-99145200D01*
X128226800Y-98745200D01*
X128229990Y-98729159D01*
X128234294Y-98696472D01*
X128238127Y-98688249D01*
X128242024Y-98668663D01*
X128259357Y-98642721D01*
X128264548Y-98631591D01*
X128271320Y-98624818D01*
X128285379Y-98603779D01*
X128306418Y-98589720D01*
X128313191Y-98582948D01*
X128324321Y-98577757D01*
X128350263Y-98560424D01*
X128369849Y-98556527D01*
X128378072Y-98552694D01*
X128410760Y-98548390D01*
X128426800Y-98545200D01*
X128976800Y-98545200D01*
X128992842Y-98548391D01*
G37*
G36*
X131306812Y-98633911D02*
G01*
X131329331Y-98636524D01*
X131337025Y-98639921D01*
X131358886Y-98644270D01*
X131382288Y-98659906D01*
X131387310Y-98662124D01*
X131390739Y-98665553D01*
X131411605Y-98679495D01*
X131425546Y-98700360D01*
X131428975Y-98703789D01*
X131431191Y-98708808D01*
X131446830Y-98732214D01*
X131451178Y-98754076D01*
X131454575Y-98761768D01*
X131457186Y-98784278D01*
X131459200Y-98794400D01*
X131459200Y-99119400D01*
X131457185Y-99129524D01*
X131454575Y-99152031D01*
X131451179Y-99159721D01*
X131446830Y-99181586D01*
X131431190Y-99204993D01*
X131428975Y-99210010D01*
X131425548Y-99213436D01*
X131411605Y-99234305D01*
X131390736Y-99248248D01*
X131387310Y-99251675D01*
X131382293Y-99253890D01*
X131358886Y-99269530D01*
X131337021Y-99273879D01*
X131329331Y-99277275D01*
X131306823Y-99279886D01*
X131296700Y-99281900D01*
X130061700Y-99281900D01*
X130051576Y-99279886D01*
X130029068Y-99277275D01*
X130021376Y-99273878D01*
X129999514Y-99269530D01*
X129976108Y-99253891D01*
X129971089Y-99251675D01*
X129967660Y-99248246D01*
X129946795Y-99234305D01*
X129932853Y-99213439D01*
X129929424Y-99210010D01*
X129927206Y-99204988D01*
X129911570Y-99181586D01*
X129907221Y-99159725D01*
X129903824Y-99152031D01*
X129901211Y-99129511D01*
X129899200Y-99119400D01*
X129899200Y-98794400D01*
X129901211Y-98784288D01*
X129903824Y-98761768D01*
X129907221Y-98754072D01*
X129911570Y-98732214D01*
X129927205Y-98708813D01*
X129929424Y-98703789D01*
X129932855Y-98700357D01*
X129946795Y-98679495D01*
X129967657Y-98665555D01*
X129971089Y-98662124D01*
X129976113Y-98659905D01*
X129999514Y-98644270D01*
X130021372Y-98639921D01*
X130029068Y-98636524D01*
X130051590Y-98633911D01*
X130061700Y-98631900D01*
X131296700Y-98631900D01*
X131306812Y-98633911D01*
G37*
G36*
X134006812Y-98633911D02*
G01*
X134029331Y-98636524D01*
X134037025Y-98639921D01*
X134058886Y-98644270D01*
X134082288Y-98659906D01*
X134087310Y-98662124D01*
X134090739Y-98665553D01*
X134111605Y-98679495D01*
X134125546Y-98700360D01*
X134128975Y-98703789D01*
X134131191Y-98708808D01*
X134146830Y-98732214D01*
X134151178Y-98754076D01*
X134154575Y-98761768D01*
X134157186Y-98784278D01*
X134159200Y-98794400D01*
X134159200Y-99119400D01*
X134157185Y-99129524D01*
X134154575Y-99152031D01*
X134151179Y-99159721D01*
X134146830Y-99181586D01*
X134131190Y-99204993D01*
X134128975Y-99210010D01*
X134125548Y-99213436D01*
X134111605Y-99234305D01*
X134090736Y-99248248D01*
X134087310Y-99251675D01*
X134082293Y-99253890D01*
X134058886Y-99269530D01*
X134037021Y-99273879D01*
X134029331Y-99277275D01*
X134006823Y-99279886D01*
X133996700Y-99281900D01*
X132761700Y-99281900D01*
X132751576Y-99279886D01*
X132729068Y-99277275D01*
X132721376Y-99273878D01*
X132699514Y-99269530D01*
X132676108Y-99253891D01*
X132671089Y-99251675D01*
X132667660Y-99248246D01*
X132646795Y-99234305D01*
X132632853Y-99213439D01*
X132629424Y-99210010D01*
X132627206Y-99204988D01*
X132611570Y-99181586D01*
X132607221Y-99159725D01*
X132603824Y-99152031D01*
X132601211Y-99129511D01*
X132599200Y-99119400D01*
X132599200Y-98794400D01*
X132601211Y-98784288D01*
X132603824Y-98761768D01*
X132607221Y-98754072D01*
X132611570Y-98732214D01*
X132627205Y-98708813D01*
X132629424Y-98703789D01*
X132632855Y-98700357D01*
X132646795Y-98679495D01*
X132667657Y-98665555D01*
X132671089Y-98662124D01*
X132676113Y-98659905D01*
X132699514Y-98644270D01*
X132721372Y-98639921D01*
X132729068Y-98636524D01*
X132751590Y-98633911D01*
X132761700Y-98631900D01*
X133996700Y-98631900D01*
X134006812Y-98633911D01*
G37*
G36*
X135673042Y-98319791D02*
G01*
X135705727Y-98324094D01*
X135713948Y-98327927D01*
X135733537Y-98331824D01*
X135759480Y-98349159D01*
X135770608Y-98354348D01*
X135777378Y-98361118D01*
X135798421Y-98375179D01*
X135812481Y-98396221D01*
X135819251Y-98402991D01*
X135824438Y-98414116D01*
X135841776Y-98440063D01*
X135845672Y-98459653D01*
X135849505Y-98467872D01*
X135853806Y-98500545D01*
X135857000Y-98516600D01*
X135857000Y-98916600D01*
X135853805Y-98932657D01*
X135849505Y-98965327D01*
X135845673Y-98973544D01*
X135841776Y-98993137D01*
X135824437Y-99019085D01*
X135819251Y-99030208D01*
X135812483Y-99036975D01*
X135798421Y-99058021D01*
X135777375Y-99072083D01*
X135770608Y-99078851D01*
X135759485Y-99084037D01*
X135733537Y-99101376D01*
X135713944Y-99105273D01*
X135705727Y-99109105D01*
X135673056Y-99113406D01*
X135657000Y-99116600D01*
X135107000Y-99116600D01*
X135090944Y-99113406D01*
X135058272Y-99109105D01*
X135050053Y-99105272D01*
X135030463Y-99101376D01*
X135004516Y-99084038D01*
X134993391Y-99078851D01*
X134986621Y-99072081D01*
X134965579Y-99058021D01*
X134951518Y-99036978D01*
X134944748Y-99030208D01*
X134939559Y-99019080D01*
X134922224Y-98993137D01*
X134918327Y-98973548D01*
X134914494Y-98965327D01*
X134910190Y-98932641D01*
X134907000Y-98916600D01*
X134907000Y-98516600D01*
X134910190Y-98500559D01*
X134914494Y-98467872D01*
X134918327Y-98459649D01*
X134922224Y-98440063D01*
X134939557Y-98414121D01*
X134944748Y-98402991D01*
X134951520Y-98396218D01*
X134965579Y-98375179D01*
X134986618Y-98361120D01*
X134993391Y-98354348D01*
X135004521Y-98349157D01*
X135030463Y-98331824D01*
X135050049Y-98327927D01*
X135058272Y-98324094D01*
X135090960Y-98319790D01*
X135107000Y-98316600D01*
X135657000Y-98316600D01*
X135673042Y-98319791D01*
G37*
G36*
X149575991Y-98068531D02*
G01*
X149613714Y-98074027D01*
X149620638Y-98077411D01*
X149637304Y-98080727D01*
X149664254Y-98098734D01*
X149680936Y-98106890D01*
X149689950Y-98115904D01*
X149710299Y-98129501D01*
X149723895Y-98149849D01*
X149732909Y-98158863D01*
X149741063Y-98175542D01*
X149759073Y-98202496D01*
X149762388Y-98219163D01*
X149765772Y-98226085D01*
X149771265Y-98263792D01*
X149776200Y-98288600D01*
X149776200Y-98738600D01*
X149771264Y-98763410D01*
X149765772Y-98801114D01*
X149762388Y-98808034D01*
X149759073Y-98824704D01*
X149741061Y-98851660D01*
X149732909Y-98868336D01*
X149723897Y-98877347D01*
X149710299Y-98897699D01*
X149689947Y-98911297D01*
X149680936Y-98920309D01*
X149664260Y-98928461D01*
X149637304Y-98946473D01*
X149620634Y-98949788D01*
X149613714Y-98953172D01*
X149576010Y-98958664D01*
X149551200Y-98963600D01*
X149051200Y-98963600D01*
X149026392Y-98958665D01*
X148988685Y-98953172D01*
X148981763Y-98949788D01*
X148965096Y-98946473D01*
X148938142Y-98928463D01*
X148921463Y-98920309D01*
X148912449Y-98911295D01*
X148892101Y-98897699D01*
X148878504Y-98877350D01*
X148869490Y-98868336D01*
X148861334Y-98851654D01*
X148843327Y-98824704D01*
X148840011Y-98808038D01*
X148836627Y-98801114D01*
X148831131Y-98763391D01*
X148826200Y-98738600D01*
X148826200Y-98288600D01*
X148831130Y-98263811D01*
X148836627Y-98226085D01*
X148840012Y-98219160D01*
X148843327Y-98202496D01*
X148861333Y-98175548D01*
X148869490Y-98158863D01*
X148878506Y-98149846D01*
X148892101Y-98129501D01*
X148912446Y-98115906D01*
X148921463Y-98106890D01*
X148938148Y-98098733D01*
X148965096Y-98080727D01*
X148981760Y-98077412D01*
X148988685Y-98074027D01*
X149026411Y-98068530D01*
X149051200Y-98063600D01*
X149551200Y-98063600D01*
X149575991Y-98068531D01*
G37*
G36*
X134006812Y-97683911D02*
G01*
X134029331Y-97686524D01*
X134037025Y-97689921D01*
X134058886Y-97694270D01*
X134082288Y-97709906D01*
X134087310Y-97712124D01*
X134090739Y-97715553D01*
X134111605Y-97729495D01*
X134125546Y-97750360D01*
X134128975Y-97753789D01*
X134131191Y-97758808D01*
X134146830Y-97782214D01*
X134151178Y-97804076D01*
X134154575Y-97811768D01*
X134157186Y-97834278D01*
X134159200Y-97844400D01*
X134159200Y-98169400D01*
X134157185Y-98179524D01*
X134154575Y-98202031D01*
X134151179Y-98209721D01*
X134146830Y-98231586D01*
X134131190Y-98254993D01*
X134128975Y-98260010D01*
X134125548Y-98263436D01*
X134111605Y-98284305D01*
X134090736Y-98298248D01*
X134087310Y-98301675D01*
X134082293Y-98303890D01*
X134058886Y-98319530D01*
X134037021Y-98323879D01*
X134029331Y-98327275D01*
X134006823Y-98329886D01*
X133996700Y-98331900D01*
X132761700Y-98331900D01*
X132751576Y-98329886D01*
X132729068Y-98327275D01*
X132721376Y-98323878D01*
X132699514Y-98319530D01*
X132676108Y-98303891D01*
X132671089Y-98301675D01*
X132667660Y-98298246D01*
X132646795Y-98284305D01*
X132632853Y-98263439D01*
X132629424Y-98260010D01*
X132627206Y-98254988D01*
X132611570Y-98231586D01*
X132607221Y-98209725D01*
X132603824Y-98202031D01*
X132601211Y-98179511D01*
X132599200Y-98169400D01*
X132599200Y-97844400D01*
X132601211Y-97834288D01*
X132603824Y-97811768D01*
X132607221Y-97804072D01*
X132611570Y-97782214D01*
X132627205Y-97758813D01*
X132629424Y-97753789D01*
X132632855Y-97750357D01*
X132646795Y-97729495D01*
X132667657Y-97715555D01*
X132671089Y-97712124D01*
X132676113Y-97709905D01*
X132699514Y-97694270D01*
X132721372Y-97689921D01*
X132729068Y-97686524D01*
X132751590Y-97683911D01*
X132761700Y-97681900D01*
X133996700Y-97681900D01*
X134006812Y-97683911D01*
G37*
G36*
X138551200Y-97867200D02*
G01*
X136551200Y-97867200D01*
X136551200Y-96087200D01*
X138551200Y-96087200D01*
X138551200Y-97867200D01*
G37*
G36*
X148081200Y-97867200D02*
G01*
X146081200Y-97867200D01*
X146081200Y-96087200D01*
X148081200Y-96087200D01*
X148081200Y-97867200D01*
G37*
G36*
X128992842Y-96898391D02*
G01*
X129025527Y-96902694D01*
X129033748Y-96906527D01*
X129053337Y-96910424D01*
X129079280Y-96927759D01*
X129090408Y-96932948D01*
X129097178Y-96939718D01*
X129118221Y-96953779D01*
X129132281Y-96974821D01*
X129139051Y-96981591D01*
X129144238Y-96992716D01*
X129161576Y-97018663D01*
X129165472Y-97038253D01*
X129169305Y-97046472D01*
X129173606Y-97079145D01*
X129176800Y-97095200D01*
X129176800Y-97495200D01*
X129173605Y-97511257D01*
X129169305Y-97543927D01*
X129165473Y-97552144D01*
X129161576Y-97571737D01*
X129144237Y-97597685D01*
X129139051Y-97608808D01*
X129132283Y-97615575D01*
X129118221Y-97636621D01*
X129097175Y-97650683D01*
X129090408Y-97657451D01*
X129079285Y-97662637D01*
X129053337Y-97679976D01*
X129033744Y-97683873D01*
X129025527Y-97687705D01*
X128992856Y-97692006D01*
X128976800Y-97695200D01*
X128426800Y-97695200D01*
X128410744Y-97692006D01*
X128378072Y-97687705D01*
X128369853Y-97683872D01*
X128350263Y-97679976D01*
X128324316Y-97662638D01*
X128313191Y-97657451D01*
X128306421Y-97650681D01*
X128285379Y-97636621D01*
X128271318Y-97615578D01*
X128264548Y-97608808D01*
X128259359Y-97597680D01*
X128242024Y-97571737D01*
X128238127Y-97552148D01*
X128234294Y-97543927D01*
X128229990Y-97511241D01*
X128226800Y-97495200D01*
X128226800Y-97095200D01*
X128229990Y-97079159D01*
X128234294Y-97046472D01*
X128238127Y-97038249D01*
X128242024Y-97018663D01*
X128259357Y-96992721D01*
X128264548Y-96981591D01*
X128271320Y-96974818D01*
X128285379Y-96953779D01*
X128306418Y-96939720D01*
X128313191Y-96932948D01*
X128324321Y-96927757D01*
X128350263Y-96910424D01*
X128369849Y-96906527D01*
X128378072Y-96902694D01*
X128410760Y-96898390D01*
X128426800Y-96895200D01*
X128976800Y-96895200D01*
X128992842Y-96898391D01*
G37*
G36*
X156060189Y-94505123D02*
G01*
X156123869Y-94505123D01*
X156180709Y-94514608D01*
X156234594Y-94518849D01*
X156299492Y-94534429D01*
X156368228Y-94545900D01*
X156416977Y-94562635D01*
X156463405Y-94573782D01*
X156530981Y-94601772D01*
X156602543Y-94626340D01*
X156642514Y-94647971D01*
X156680810Y-94663834D01*
X156748686Y-94705428D01*
X156820422Y-94744250D01*
X156851463Y-94768410D01*
X156881451Y-94786787D01*
X156946985Y-94842758D01*
X157015922Y-94896414D01*
X157038408Y-94920840D01*
X157060387Y-94939612D01*
X157120737Y-95010273D01*
X157183711Y-95078681D01*
X157198514Y-95101339D01*
X157213212Y-95118548D01*
X157265441Y-95203778D01*
X157319211Y-95286079D01*
X157327612Y-95305232D01*
X157336165Y-95319189D01*
X157377383Y-95418698D01*
X157418726Y-95512951D01*
X157422347Y-95527252D01*
X157426217Y-95536594D01*
X157453663Y-95650914D01*
X157479542Y-95753108D01*
X157480250Y-95761658D01*
X157481150Y-95765405D01*
X157492292Y-95906983D01*
X157500000Y-96000000D01*
X157492291Y-96093024D01*
X157481150Y-96234594D01*
X157480250Y-96238340D01*
X157479542Y-96246892D01*
X157453658Y-96349103D01*
X157426217Y-96463405D01*
X157422348Y-96472744D01*
X157418726Y-96487049D01*
X157377375Y-96581318D01*
X157336165Y-96680810D01*
X157327614Y-96694763D01*
X157319211Y-96713921D01*
X157265431Y-96796237D01*
X157213212Y-96881451D01*
X157198517Y-96898656D01*
X157183711Y-96921319D01*
X157120725Y-96989739D01*
X157060387Y-97060387D01*
X157038412Y-97079155D01*
X157015922Y-97103586D01*
X156946972Y-97157251D01*
X156881451Y-97213212D01*
X156851469Y-97231584D01*
X156820422Y-97255750D01*
X156748672Y-97294578D01*
X156680810Y-97336165D01*
X156642522Y-97352024D01*
X156602543Y-97373660D01*
X156530966Y-97398231D01*
X156463405Y-97426217D01*
X156416987Y-97437360D01*
X156368228Y-97454100D01*
X156299479Y-97465572D01*
X156234594Y-97481150D01*
X156180721Y-97485389D01*
X156123869Y-97494877D01*
X156060176Y-97494877D01*
X156000000Y-97499613D01*
X155939823Y-97494877D01*
X155876131Y-97494877D01*
X155819279Y-97485390D01*
X155765405Y-97481150D01*
X155700517Y-97465571D01*
X155631772Y-97454100D01*
X155583014Y-97437361D01*
X155536594Y-97426217D01*
X155469027Y-97398229D01*
X155397457Y-97373660D01*
X155357480Y-97352025D01*
X155319189Y-97336165D01*
X155251319Y-97294574D01*
X155179578Y-97255750D01*
X155148534Y-97231587D01*
X155118548Y-97213212D01*
X155053016Y-97157242D01*
X154984078Y-97103586D01*
X154961591Y-97079159D01*
X154939612Y-97060387D01*
X154879260Y-96989724D01*
X154816289Y-96921319D01*
X154801486Y-96898661D01*
X154786787Y-96881451D01*
X154734552Y-96796212D01*
X154680789Y-96713921D01*
X154672388Y-96694769D01*
X154663834Y-96680810D01*
X154622606Y-96581277D01*
X154581274Y-96487049D01*
X154577653Y-96472751D01*
X154573782Y-96463405D01*
X154546322Y-96349027D01*
X154520458Y-96246892D01*
X154519749Y-96238346D01*
X154518849Y-96234594D01*
X154507688Y-96092783D01*
X154500000Y-96000000D01*
X154507687Y-95907223D01*
X154518849Y-95765405D01*
X154519750Y-95761651D01*
X154520458Y-95753108D01*
X154546317Y-95650990D01*
X154573782Y-95536594D01*
X154577653Y-95527246D01*
X154581274Y-95512951D01*
X154622598Y-95418739D01*
X154663834Y-95319189D01*
X154672389Y-95305226D01*
X154680789Y-95286079D01*
X154734542Y-95203802D01*
X154786787Y-95118548D01*
X154801488Y-95101334D01*
X154816289Y-95078681D01*
X154879248Y-95010288D01*
X154939612Y-94939612D01*
X154961595Y-94920836D01*
X154984078Y-94896414D01*
X155053002Y-94842767D01*
X155118548Y-94786787D01*
X155148540Y-94768407D01*
X155179578Y-94744250D01*
X155251305Y-94705433D01*
X155319189Y-94663834D01*
X155357488Y-94647969D01*
X155397457Y-94626340D01*
X155469013Y-94601774D01*
X155536594Y-94573782D01*
X155583024Y-94562634D01*
X155631772Y-94545900D01*
X155700503Y-94534430D01*
X155765405Y-94518849D01*
X155819290Y-94514608D01*
X155876131Y-94505123D01*
X155939811Y-94505123D01*
X156000000Y-94500386D01*
X156060189Y-94505123D01*
G37*
G36*
X135673042Y-96669791D02*
G01*
X135705727Y-96674094D01*
X135713948Y-96677927D01*
X135733537Y-96681824D01*
X135759480Y-96699159D01*
X135770608Y-96704348D01*
X135777378Y-96711118D01*
X135798421Y-96725179D01*
X135812481Y-96746221D01*
X135819251Y-96752991D01*
X135824438Y-96764116D01*
X135841776Y-96790063D01*
X135845672Y-96809653D01*
X135849505Y-96817872D01*
X135853806Y-96850545D01*
X135857000Y-96866600D01*
X135857000Y-97266600D01*
X135853805Y-97282657D01*
X135849505Y-97315327D01*
X135845673Y-97323544D01*
X135841776Y-97343137D01*
X135824437Y-97369085D01*
X135819251Y-97380208D01*
X135812483Y-97386975D01*
X135798421Y-97408021D01*
X135777375Y-97422083D01*
X135770608Y-97428851D01*
X135759485Y-97434037D01*
X135733537Y-97451376D01*
X135713944Y-97455273D01*
X135705727Y-97459105D01*
X135673056Y-97463406D01*
X135657000Y-97466600D01*
X135107000Y-97466600D01*
X135090944Y-97463406D01*
X135058272Y-97459105D01*
X135050053Y-97455272D01*
X135030463Y-97451376D01*
X135004516Y-97434038D01*
X134993391Y-97428851D01*
X134986621Y-97422081D01*
X134965579Y-97408021D01*
X134951518Y-97386978D01*
X134944748Y-97380208D01*
X134939559Y-97369080D01*
X134922224Y-97343137D01*
X134918327Y-97323548D01*
X134914494Y-97315327D01*
X134910190Y-97282641D01*
X134907000Y-97266600D01*
X134907000Y-96866600D01*
X134910190Y-96850559D01*
X134914494Y-96817872D01*
X134918327Y-96809649D01*
X134922224Y-96790063D01*
X134939557Y-96764121D01*
X134944748Y-96752991D01*
X134951520Y-96746218D01*
X134965579Y-96725179D01*
X134986618Y-96711120D01*
X134993391Y-96704348D01*
X135004521Y-96699157D01*
X135030463Y-96681824D01*
X135050049Y-96677927D01*
X135058272Y-96674094D01*
X135090960Y-96669790D01*
X135107000Y-96666600D01*
X135657000Y-96666600D01*
X135673042Y-96669791D01*
G37*
G36*
X131306812Y-96733911D02*
G01*
X131329331Y-96736524D01*
X131337025Y-96739921D01*
X131358886Y-96744270D01*
X131382288Y-96759906D01*
X131387310Y-96762124D01*
X131390739Y-96765553D01*
X131411605Y-96779495D01*
X131425546Y-96800360D01*
X131428975Y-96803789D01*
X131431191Y-96808808D01*
X131446830Y-96832214D01*
X131451178Y-96854076D01*
X131454575Y-96861768D01*
X131457186Y-96884278D01*
X131459200Y-96894400D01*
X131459200Y-97219400D01*
X131457185Y-97229524D01*
X131454575Y-97252031D01*
X131451179Y-97259721D01*
X131446830Y-97281586D01*
X131431190Y-97304993D01*
X131428975Y-97310010D01*
X131425548Y-97313436D01*
X131411605Y-97334305D01*
X131390736Y-97348248D01*
X131387310Y-97351675D01*
X131382293Y-97353890D01*
X131358886Y-97369530D01*
X131337021Y-97373879D01*
X131329331Y-97377275D01*
X131306823Y-97379886D01*
X131296700Y-97381900D01*
X130061700Y-97381900D01*
X130051576Y-97379886D01*
X130029068Y-97377275D01*
X130021376Y-97373878D01*
X129999514Y-97369530D01*
X129976108Y-97353891D01*
X129971089Y-97351675D01*
X129967660Y-97348246D01*
X129946795Y-97334305D01*
X129932853Y-97313439D01*
X129929424Y-97310010D01*
X129927206Y-97304988D01*
X129911570Y-97281586D01*
X129907221Y-97259725D01*
X129903824Y-97252031D01*
X129901211Y-97229511D01*
X129899200Y-97219400D01*
X129899200Y-96894400D01*
X129901211Y-96884288D01*
X129903824Y-96861768D01*
X129907221Y-96854072D01*
X129911570Y-96832214D01*
X129927205Y-96808813D01*
X129929424Y-96803789D01*
X129932855Y-96800357D01*
X129946795Y-96779495D01*
X129967657Y-96765555D01*
X129971089Y-96762124D01*
X129976113Y-96759905D01*
X129999514Y-96744270D01*
X130021372Y-96739921D01*
X130029068Y-96736524D01*
X130051590Y-96733911D01*
X130061700Y-96731900D01*
X131296700Y-96731900D01*
X131306812Y-96733911D01*
G37*
G36*
X134006812Y-96733911D02*
G01*
X134029331Y-96736524D01*
X134037025Y-96739921D01*
X134058886Y-96744270D01*
X134082288Y-96759906D01*
X134087310Y-96762124D01*
X134090739Y-96765553D01*
X134111605Y-96779495D01*
X134125546Y-96800360D01*
X134128975Y-96803789D01*
X134131191Y-96808808D01*
X134146830Y-96832214D01*
X134151178Y-96854076D01*
X134154575Y-96861768D01*
X134157186Y-96884278D01*
X134159200Y-96894400D01*
X134159200Y-97219400D01*
X134157185Y-97229524D01*
X134154575Y-97252031D01*
X134151179Y-97259721D01*
X134146830Y-97281586D01*
X134131190Y-97304993D01*
X134128975Y-97310010D01*
X134125548Y-97313436D01*
X134111605Y-97334305D01*
X134090736Y-97348248D01*
X134087310Y-97351675D01*
X134082293Y-97353890D01*
X134058886Y-97369530D01*
X134037021Y-97373879D01*
X134029331Y-97377275D01*
X134006823Y-97379886D01*
X133996700Y-97381900D01*
X132761700Y-97381900D01*
X132751576Y-97379886D01*
X132729068Y-97377275D01*
X132721376Y-97373878D01*
X132699514Y-97369530D01*
X132676108Y-97353891D01*
X132671089Y-97351675D01*
X132667660Y-97348246D01*
X132646795Y-97334305D01*
X132632853Y-97313439D01*
X132629424Y-97310010D01*
X132627206Y-97304988D01*
X132611570Y-97281586D01*
X132607221Y-97259725D01*
X132603824Y-97252031D01*
X132601211Y-97229511D01*
X132599200Y-97219400D01*
X132599200Y-96894400D01*
X132601211Y-96884288D01*
X132603824Y-96861768D01*
X132607221Y-96854072D01*
X132611570Y-96832214D01*
X132627205Y-96808813D01*
X132629424Y-96803789D01*
X132632855Y-96800357D01*
X132646795Y-96779495D01*
X132667657Y-96765555D01*
X132671089Y-96762124D01*
X132676113Y-96759905D01*
X132699514Y-96744270D01*
X132721372Y-96739921D01*
X132729068Y-96736524D01*
X132751590Y-96733911D01*
X132761700Y-96731900D01*
X133996700Y-96731900D01*
X134006812Y-96733911D01*
G37*
G36*
X133807842Y-94930591D02*
G01*
X133840527Y-94934894D01*
X133848748Y-94938727D01*
X133868337Y-94942624D01*
X133894280Y-94959959D01*
X133905408Y-94965148D01*
X133912178Y-94971918D01*
X133933221Y-94985979D01*
X133947281Y-95007021D01*
X133954051Y-95013791D01*
X133959238Y-95024916D01*
X133976576Y-95050863D01*
X133980472Y-95070453D01*
X133984305Y-95078672D01*
X133988606Y-95111345D01*
X133991800Y-95127400D01*
X133991800Y-95677400D01*
X133988605Y-95693457D01*
X133984305Y-95726127D01*
X133980473Y-95734344D01*
X133976576Y-95753937D01*
X133959237Y-95779885D01*
X133954051Y-95791008D01*
X133947283Y-95797775D01*
X133933221Y-95818821D01*
X133912175Y-95832883D01*
X133905408Y-95839651D01*
X133894285Y-95844837D01*
X133868337Y-95862176D01*
X133848744Y-95866073D01*
X133840527Y-95869905D01*
X133807856Y-95874206D01*
X133791800Y-95877400D01*
X133391800Y-95877400D01*
X133375744Y-95874206D01*
X133343072Y-95869905D01*
X133334853Y-95866072D01*
X133315263Y-95862176D01*
X133289316Y-95844838D01*
X133278191Y-95839651D01*
X133271421Y-95832881D01*
X133250379Y-95818821D01*
X133236318Y-95797778D01*
X133229548Y-95791008D01*
X133224359Y-95779880D01*
X133207024Y-95753937D01*
X133203127Y-95734348D01*
X133199294Y-95726127D01*
X133194990Y-95693441D01*
X133191800Y-95677400D01*
X133191800Y-95127400D01*
X133194990Y-95111359D01*
X133199294Y-95078672D01*
X133203127Y-95070449D01*
X133207024Y-95050863D01*
X133224357Y-95024921D01*
X133229548Y-95013791D01*
X133236320Y-95007018D01*
X133250379Y-94985979D01*
X133271418Y-94971920D01*
X133278191Y-94965148D01*
X133289321Y-94959957D01*
X133315263Y-94942624D01*
X133334849Y-94938727D01*
X133343072Y-94934894D01*
X133375760Y-94930590D01*
X133391800Y-94927400D01*
X133791800Y-94927400D01*
X133807842Y-94930591D01*
G37*
G36*
X135457842Y-94930591D02*
G01*
X135490527Y-94934894D01*
X135498748Y-94938727D01*
X135518337Y-94942624D01*
X135544280Y-94959959D01*
X135555408Y-94965148D01*
X135562178Y-94971918D01*
X135583221Y-94985979D01*
X135597281Y-95007021D01*
X135604051Y-95013791D01*
X135609238Y-95024916D01*
X135626576Y-95050863D01*
X135630472Y-95070453D01*
X135634305Y-95078672D01*
X135638606Y-95111345D01*
X135641800Y-95127400D01*
X135641800Y-95677400D01*
X135638605Y-95693457D01*
X135634305Y-95726127D01*
X135630473Y-95734344D01*
X135626576Y-95753937D01*
X135609237Y-95779885D01*
X135604051Y-95791008D01*
X135597283Y-95797775D01*
X135583221Y-95818821D01*
X135562175Y-95832883D01*
X135555408Y-95839651D01*
X135544285Y-95844837D01*
X135518337Y-95862176D01*
X135498744Y-95866073D01*
X135490527Y-95869905D01*
X135457856Y-95874206D01*
X135441800Y-95877400D01*
X135041800Y-95877400D01*
X135025744Y-95874206D01*
X134993072Y-95869905D01*
X134984853Y-95866072D01*
X134965263Y-95862176D01*
X134939316Y-95844838D01*
X134928191Y-95839651D01*
X134921421Y-95832881D01*
X134900379Y-95818821D01*
X134886318Y-95797778D01*
X134879548Y-95791008D01*
X134874359Y-95779880D01*
X134857024Y-95753937D01*
X134853127Y-95734348D01*
X134849294Y-95726127D01*
X134844990Y-95693441D01*
X134841800Y-95677400D01*
X134841800Y-95127400D01*
X134844990Y-95111359D01*
X134849294Y-95078672D01*
X134853127Y-95070449D01*
X134857024Y-95050863D01*
X134874357Y-95024921D01*
X134879548Y-95013791D01*
X134886320Y-95007018D01*
X134900379Y-94985979D01*
X134921418Y-94971920D01*
X134928191Y-94965148D01*
X134939321Y-94959957D01*
X134965263Y-94942624D01*
X134984849Y-94938727D01*
X134993072Y-94934894D01*
X135025760Y-94930590D01*
X135041800Y-94927400D01*
X135441800Y-94927400D01*
X135457842Y-94930591D01*
G37*
G36*
X130496648Y-94402532D02*
G01*
X130539716Y-94408807D01*
X130547620Y-94412671D01*
X130565129Y-94416154D01*
X130593441Y-94435072D01*
X130612481Y-94444380D01*
X130622770Y-94454669D01*
X130644207Y-94468993D01*
X130658530Y-94490429D01*
X130668819Y-94500718D01*
X130678126Y-94519755D01*
X130697046Y-94548071D01*
X130700528Y-94565580D01*
X130704392Y-94573483D01*
X130710664Y-94616537D01*
X130715600Y-94641350D01*
X130715600Y-95553850D01*
X130710663Y-95578666D01*
X130704392Y-95621716D01*
X130700529Y-95629617D01*
X130697046Y-95647129D01*
X130678124Y-95675446D01*
X130668819Y-95694481D01*
X130658532Y-95704767D01*
X130644207Y-95726207D01*
X130622767Y-95740532D01*
X130612481Y-95750819D01*
X130593446Y-95760124D01*
X130565129Y-95779046D01*
X130547617Y-95782529D01*
X130539716Y-95786392D01*
X130496665Y-95792664D01*
X130471850Y-95797600D01*
X129984350Y-95797600D01*
X129959535Y-95792664D01*
X129916483Y-95786392D01*
X129908580Y-95782528D01*
X129891071Y-95779046D01*
X129862755Y-95760126D01*
X129843718Y-95750819D01*
X129833429Y-95740530D01*
X129811993Y-95726207D01*
X129797669Y-95704770D01*
X129787380Y-95694481D01*
X129778072Y-95675441D01*
X129759154Y-95647129D01*
X129755671Y-95629620D01*
X129751807Y-95621716D01*
X129745532Y-95578646D01*
X129740600Y-95553850D01*
X129740600Y-94641350D01*
X129745531Y-94616554D01*
X129751807Y-94573483D01*
X129755671Y-94565577D01*
X129759154Y-94548071D01*
X129778070Y-94519761D01*
X129787380Y-94500718D01*
X129797671Y-94490426D01*
X129811993Y-94468993D01*
X129833426Y-94454671D01*
X129843718Y-94444380D01*
X129862761Y-94435070D01*
X129891071Y-94416154D01*
X129908577Y-94412671D01*
X129916483Y-94408807D01*
X129959556Y-94402531D01*
X129984350Y-94397600D01*
X130471850Y-94397600D01*
X130496648Y-94402532D01*
G37*
G36*
X132371648Y-94402532D02*
G01*
X132414716Y-94408807D01*
X132422620Y-94412671D01*
X132440129Y-94416154D01*
X132468441Y-94435072D01*
X132487481Y-94444380D01*
X132497770Y-94454669D01*
X132519207Y-94468993D01*
X132533530Y-94490429D01*
X132543819Y-94500718D01*
X132553126Y-94519755D01*
X132572046Y-94548071D01*
X132575528Y-94565580D01*
X132579392Y-94573483D01*
X132585664Y-94616537D01*
X132590600Y-94641350D01*
X132590600Y-95553850D01*
X132585663Y-95578666D01*
X132579392Y-95621716D01*
X132575529Y-95629617D01*
X132572046Y-95647129D01*
X132553124Y-95675446D01*
X132543819Y-95694481D01*
X132533532Y-95704767D01*
X132519207Y-95726207D01*
X132497767Y-95740532D01*
X132487481Y-95750819D01*
X132468446Y-95760124D01*
X132440129Y-95779046D01*
X132422617Y-95782529D01*
X132414716Y-95786392D01*
X132371665Y-95792664D01*
X132346850Y-95797600D01*
X131859350Y-95797600D01*
X131834535Y-95792664D01*
X131791483Y-95786392D01*
X131783580Y-95782528D01*
X131766071Y-95779046D01*
X131737755Y-95760126D01*
X131718718Y-95750819D01*
X131708429Y-95740530D01*
X131686993Y-95726207D01*
X131672669Y-95704770D01*
X131662380Y-95694481D01*
X131653072Y-95675441D01*
X131634154Y-95647129D01*
X131630671Y-95629620D01*
X131626807Y-95621716D01*
X131620532Y-95578646D01*
X131615600Y-95553850D01*
X131615600Y-94641350D01*
X131620531Y-94616554D01*
X131626807Y-94573483D01*
X131630671Y-94565577D01*
X131634154Y-94548071D01*
X131653070Y-94519761D01*
X131662380Y-94500718D01*
X131672671Y-94490426D01*
X131686993Y-94468993D01*
X131708426Y-94454671D01*
X131718718Y-94444380D01*
X131737761Y-94435070D01*
X131766071Y-94416154D01*
X131783577Y-94412671D01*
X131791483Y-94408807D01*
X131834556Y-94402531D01*
X131859350Y-94397600D01*
X132346850Y-94397600D01*
X132371648Y-94402532D01*
G37*
G36*
X138551200Y-95327200D02*
G01*
X136551200Y-95327200D01*
X136551200Y-93547200D01*
X138551200Y-93547200D01*
X138551200Y-95327200D01*
G37*
G36*
X148081200Y-95327200D02*
G01*
X146081200Y-95327200D01*
X146081200Y-93547200D01*
X148081200Y-93547200D01*
X148081200Y-95327200D01*
G37*
G36*
X128266800Y-95312600D02*
G01*
X126566800Y-95312600D01*
X126566800Y-93612600D01*
X128266800Y-93612600D01*
X128266800Y-95312600D01*
G37*
G36*
X122377940Y-93617256D02*
G01*
X122425649Y-93617256D01*
X122466845Y-93626012D01*
X122502506Y-93629525D01*
X122547313Y-93643116D01*
X122599464Y-93654202D01*
X122632830Y-93669057D01*
X122661852Y-93677861D01*
X122707967Y-93702510D01*
X122761800Y-93726478D01*
X122786831Y-93744664D01*
X122808697Y-93756352D01*
X122853297Y-93792955D01*
X122905561Y-93830927D01*
X122922531Y-93849774D01*
X122937412Y-93861987D01*
X122977408Y-93910722D01*
X123024464Y-93962983D01*
X123034347Y-93980102D01*
X123043047Y-93990702D01*
X123075227Y-94050907D01*
X123113314Y-94116874D01*
X123117694Y-94130357D01*
X123121538Y-94137547D01*
X123142726Y-94207396D01*
X123168225Y-94285875D01*
X123169122Y-94294416D01*
X123169874Y-94296893D01*
X123177185Y-94371122D01*
X123186800Y-94462600D01*
X123177184Y-94554085D01*
X123169874Y-94628306D01*
X123169122Y-94630782D01*
X123168225Y-94639325D01*
X123142721Y-94717817D01*
X123121538Y-94787652D01*
X123117695Y-94794840D01*
X123113314Y-94808326D01*
X123075220Y-94874304D01*
X123043047Y-94934497D01*
X123034349Y-94945094D01*
X123024464Y-94962217D01*
X122977399Y-95014488D01*
X122937412Y-95063212D01*
X122922534Y-95075421D01*
X122905561Y-95094273D01*
X122853286Y-95132252D01*
X122808697Y-95168847D01*
X122786836Y-95180531D01*
X122761800Y-95198722D01*
X122707955Y-95222694D01*
X122661852Y-95247338D01*
X122632837Y-95256139D01*
X122599464Y-95270998D01*
X122547302Y-95282085D01*
X122502506Y-95295674D01*
X122466853Y-95299185D01*
X122425649Y-95307944D01*
X122377930Y-95307944D01*
X122336800Y-95311995D01*
X122295670Y-95307944D01*
X122247951Y-95307944D01*
X122206746Y-95299185D01*
X122171093Y-95295674D01*
X122126293Y-95282084D01*
X122074136Y-95270998D01*
X122040764Y-95256140D01*
X122011747Y-95247338D01*
X121965638Y-95222692D01*
X121911800Y-95198722D01*
X121886766Y-95180533D01*
X121864902Y-95168847D01*
X121820304Y-95132246D01*
X121768039Y-95094273D01*
X121751067Y-95075424D01*
X121736187Y-95063212D01*
X121696189Y-95014475D01*
X121649136Y-94962217D01*
X121639252Y-94945098D01*
X121630552Y-94934497D01*
X121598365Y-94874281D01*
X121560286Y-94808326D01*
X121555905Y-94794845D01*
X121552061Y-94787652D01*
X121530863Y-94717771D01*
X121505375Y-94639325D01*
X121504477Y-94630787D01*
X121503725Y-94628306D01*
X121496399Y-94553934D01*
X121486800Y-94462600D01*
X121496398Y-94371274D01*
X121503725Y-94296893D01*
X121504477Y-94294411D01*
X121505375Y-94285875D01*
X121530858Y-94207442D01*
X121552061Y-94137547D01*
X121555906Y-94130352D01*
X121560286Y-94116874D01*
X121598358Y-94050930D01*
X121630552Y-93990702D01*
X121639254Y-93980098D01*
X121649136Y-93962983D01*
X121696180Y-93910734D01*
X121736187Y-93861987D01*
X121751071Y-93849771D01*
X121768039Y-93830927D01*
X121820293Y-93792961D01*
X121864902Y-93756352D01*
X121886771Y-93744662D01*
X121911800Y-93726478D01*
X121965626Y-93702512D01*
X122011747Y-93677861D01*
X122040771Y-93669056D01*
X122074136Y-93654202D01*
X122126282Y-93643117D01*
X122171093Y-93629525D01*
X122206755Y-93626012D01*
X122247951Y-93617256D01*
X122295660Y-93617256D01*
X122336800Y-93613204D01*
X122377940Y-93617256D01*
G37*
G36*
X124917940Y-93617256D02*
G01*
X124965649Y-93617256D01*
X125006845Y-93626012D01*
X125042506Y-93629525D01*
X125087313Y-93643116D01*
X125139464Y-93654202D01*
X125172830Y-93669057D01*
X125201852Y-93677861D01*
X125247967Y-93702510D01*
X125301800Y-93726478D01*
X125326831Y-93744664D01*
X125348697Y-93756352D01*
X125393297Y-93792955D01*
X125445561Y-93830927D01*
X125462531Y-93849774D01*
X125477412Y-93861987D01*
X125517408Y-93910722D01*
X125564464Y-93962983D01*
X125574347Y-93980102D01*
X125583047Y-93990702D01*
X125615227Y-94050907D01*
X125653314Y-94116874D01*
X125657694Y-94130357D01*
X125661538Y-94137547D01*
X125682726Y-94207396D01*
X125708225Y-94285875D01*
X125709122Y-94294416D01*
X125709874Y-94296893D01*
X125717185Y-94371122D01*
X125726800Y-94462600D01*
X125717184Y-94554085D01*
X125709874Y-94628306D01*
X125709122Y-94630782D01*
X125708225Y-94639325D01*
X125682721Y-94717817D01*
X125661538Y-94787652D01*
X125657695Y-94794840D01*
X125653314Y-94808326D01*
X125615220Y-94874304D01*
X125583047Y-94934497D01*
X125574349Y-94945094D01*
X125564464Y-94962217D01*
X125517399Y-95014488D01*
X125477412Y-95063212D01*
X125462534Y-95075421D01*
X125445561Y-95094273D01*
X125393286Y-95132252D01*
X125348697Y-95168847D01*
X125326836Y-95180531D01*
X125301800Y-95198722D01*
X125247955Y-95222694D01*
X125201852Y-95247338D01*
X125172837Y-95256139D01*
X125139464Y-95270998D01*
X125087302Y-95282085D01*
X125042506Y-95295674D01*
X125006853Y-95299185D01*
X124965649Y-95307944D01*
X124917930Y-95307944D01*
X124876800Y-95311995D01*
X124835670Y-95307944D01*
X124787951Y-95307944D01*
X124746746Y-95299185D01*
X124711093Y-95295674D01*
X124666293Y-95282084D01*
X124614136Y-95270998D01*
X124580764Y-95256140D01*
X124551747Y-95247338D01*
X124505638Y-95222692D01*
X124451800Y-95198722D01*
X124426766Y-95180533D01*
X124404902Y-95168847D01*
X124360304Y-95132246D01*
X124308039Y-95094273D01*
X124291067Y-95075424D01*
X124276187Y-95063212D01*
X124236189Y-95014475D01*
X124189136Y-94962217D01*
X124179252Y-94945098D01*
X124170552Y-94934497D01*
X124138365Y-94874281D01*
X124100286Y-94808326D01*
X124095905Y-94794845D01*
X124092061Y-94787652D01*
X124070863Y-94717771D01*
X124045375Y-94639325D01*
X124044477Y-94630787D01*
X124043725Y-94628306D01*
X124036399Y-94553934D01*
X124026800Y-94462600D01*
X124036398Y-94371274D01*
X124043725Y-94296893D01*
X124044477Y-94294411D01*
X124045375Y-94285875D01*
X124070858Y-94207442D01*
X124092061Y-94137547D01*
X124095906Y-94130352D01*
X124100286Y-94116874D01*
X124138358Y-94050930D01*
X124170552Y-93990702D01*
X124179254Y-93980098D01*
X124189136Y-93962983D01*
X124236180Y-93910734D01*
X124276187Y-93861987D01*
X124291071Y-93849771D01*
X124308039Y-93830927D01*
X124360293Y-93792961D01*
X124404902Y-93756352D01*
X124426771Y-93744662D01*
X124451800Y-93726478D01*
X124505626Y-93702512D01*
X124551747Y-93677861D01*
X124580771Y-93669056D01*
X124614136Y-93654202D01*
X124666282Y-93643117D01*
X124711093Y-93629525D01*
X124746755Y-93626012D01*
X124787951Y-93617256D01*
X124835660Y-93617256D01*
X124876800Y-93613204D01*
X124917940Y-93617256D01*
G37*
G36*
X133934842Y-93406591D02*
G01*
X133967527Y-93410894D01*
X133975748Y-93414727D01*
X133995337Y-93418624D01*
X134021280Y-93435959D01*
X134032408Y-93441148D01*
X134039178Y-93447918D01*
X134060221Y-93461979D01*
X134074281Y-93483021D01*
X134081051Y-93489791D01*
X134086238Y-93500916D01*
X134103576Y-93526863D01*
X134107472Y-93546453D01*
X134111305Y-93554672D01*
X134115606Y-93587345D01*
X134118800Y-93603400D01*
X134118800Y-94153400D01*
X134115605Y-94169457D01*
X134111305Y-94202127D01*
X134107473Y-94210344D01*
X134103576Y-94229937D01*
X134086237Y-94255885D01*
X134081051Y-94267008D01*
X134074283Y-94273775D01*
X134060221Y-94294821D01*
X134039175Y-94308883D01*
X134032408Y-94315651D01*
X134021285Y-94320837D01*
X133995337Y-94338176D01*
X133975744Y-94342073D01*
X133967527Y-94345905D01*
X133934856Y-94350206D01*
X133918800Y-94353400D01*
X133518800Y-94353400D01*
X133502744Y-94350206D01*
X133470072Y-94345905D01*
X133461853Y-94342072D01*
X133442263Y-94338176D01*
X133416316Y-94320838D01*
X133405191Y-94315651D01*
X133398421Y-94308881D01*
X133377379Y-94294821D01*
X133363318Y-94273778D01*
X133356548Y-94267008D01*
X133351359Y-94255880D01*
X133334024Y-94229937D01*
X133330127Y-94210348D01*
X133326294Y-94202127D01*
X133321990Y-94169441D01*
X133318800Y-94153400D01*
X133318800Y-93603400D01*
X133321990Y-93587359D01*
X133326294Y-93554672D01*
X133330127Y-93546449D01*
X133334024Y-93526863D01*
X133351357Y-93500921D01*
X133356548Y-93489791D01*
X133363320Y-93483018D01*
X133377379Y-93461979D01*
X133398418Y-93447920D01*
X133405191Y-93441148D01*
X133416321Y-93435957D01*
X133442263Y-93418624D01*
X133461849Y-93414727D01*
X133470072Y-93410894D01*
X133502760Y-93406590D01*
X133518800Y-93403400D01*
X133918800Y-93403400D01*
X133934842Y-93406591D01*
G37*
G36*
X135584842Y-93406591D02*
G01*
X135617527Y-93410894D01*
X135625748Y-93414727D01*
X135645337Y-93418624D01*
X135671280Y-93435959D01*
X135682408Y-93441148D01*
X135689178Y-93447918D01*
X135710221Y-93461979D01*
X135724281Y-93483021D01*
X135731051Y-93489791D01*
X135736238Y-93500916D01*
X135753576Y-93526863D01*
X135757472Y-93546453D01*
X135761305Y-93554672D01*
X135765606Y-93587345D01*
X135768800Y-93603400D01*
X135768800Y-94153400D01*
X135765605Y-94169457D01*
X135761305Y-94202127D01*
X135757473Y-94210344D01*
X135753576Y-94229937D01*
X135736237Y-94255885D01*
X135731051Y-94267008D01*
X135724283Y-94273775D01*
X135710221Y-94294821D01*
X135689175Y-94308883D01*
X135682408Y-94315651D01*
X135671285Y-94320837D01*
X135645337Y-94338176D01*
X135625744Y-94342073D01*
X135617527Y-94345905D01*
X135584856Y-94350206D01*
X135568800Y-94353400D01*
X135168800Y-94353400D01*
X135152744Y-94350206D01*
X135120072Y-94345905D01*
X135111853Y-94342072D01*
X135092263Y-94338176D01*
X135066316Y-94320838D01*
X135055191Y-94315651D01*
X135048421Y-94308881D01*
X135027379Y-94294821D01*
X135013318Y-94273778D01*
X135006548Y-94267008D01*
X135001359Y-94255880D01*
X134984024Y-94229937D01*
X134980127Y-94210348D01*
X134976294Y-94202127D01*
X134971990Y-94169441D01*
X134968800Y-94153400D01*
X134968800Y-93603400D01*
X134971990Y-93587359D01*
X134976294Y-93554672D01*
X134980127Y-93546449D01*
X134984024Y-93526863D01*
X135001357Y-93500921D01*
X135006548Y-93489791D01*
X135013320Y-93483018D01*
X135027379Y-93461979D01*
X135048418Y-93447920D01*
X135055191Y-93441148D01*
X135066321Y-93435957D01*
X135092263Y-93418624D01*
X135111849Y-93414727D01*
X135120072Y-93410894D01*
X135152760Y-93406590D01*
X135168800Y-93403400D01*
X135568800Y-93403400D01*
X135584842Y-93406591D01*
G37*
M02*
