%TF.GenerationSoftware,KiCad,Pcbnew,8.0.1*%
%TF.CreationDate,2024-05-09T21:24:45+03:00*%
%TF.ProjectId,USB_ISOLATOR,5553425f-4953-44f4-9c41-544f522e6b69,rev?*%
%TF.SameCoordinates,Original*%
%TF.FileFunction,Paste,Top*%
%TF.FilePolarity,Positive*%
%FSLAX46Y46*%
G04 Gerber Fmt 4.6, Leading zero omitted, Abs format (unit mm)*
G04 Created by KiCad (PCBNEW 8.0.1) date 2024-05-09 21:24:45*
%MOMM*%
%LPD*%
G01*
G04 APERTURE LIST*
G04 Aperture macros list*
%AMRoundRect*
0 Rectangle with rounded corners*
0 $1 Rounding radius*
0 $2 $3 $4 $5 $6 $7 $8 $9 X,Y pos of 4 corners*
0 Add a 4 corners polygon primitive as box body*
4,1,4,$2,$3,$4,$5,$6,$7,$8,$9,$2,$3,0*
0 Add four circle primitives for the rounded corners*
1,1,$1+$1,$2,$3*
1,1,$1+$1,$4,$5*
1,1,$1+$1,$6,$7*
1,1,$1+$1,$8,$9*
0 Add four rect primitives between the rounded corners*
20,1,$1+$1,$2,$3,$4,$5,0*
20,1,$1+$1,$4,$5,$6,$7,0*
20,1,$1+$1,$6,$7,$8,$9,0*
20,1,$1+$1,$8,$9,$2,$3,0*%
G04 Aperture macros list end*
%ADD10RoundRect,0.225000X0.250000X-0.225000X0.250000X0.225000X-0.250000X0.225000X-0.250000X-0.225000X0*%
%ADD11RoundRect,0.250000X-0.250000X-0.475000X0.250000X-0.475000X0.250000X0.475000X-0.250000X0.475000X0*%
%ADD12R,2.000000X1.780000*%
%ADD13RoundRect,0.150000X0.150000X-0.512500X0.150000X0.512500X-0.150000X0.512500X-0.150000X-0.512500X0*%
%ADD14RoundRect,0.150000X-0.875000X-0.150000X0.875000X-0.150000X0.875000X0.150000X-0.875000X0.150000X0*%
%ADD15RoundRect,0.160000X-0.197500X-0.160000X0.197500X-0.160000X0.197500X0.160000X-0.197500X0.160000X0*%
%ADD16RoundRect,0.200000X-0.200000X-0.275000X0.200000X-0.275000X0.200000X0.275000X-0.200000X0.275000X0*%
%ADD17RoundRect,0.250000X0.250000X0.475000X-0.250000X0.475000X-0.250000X-0.475000X0.250000X-0.475000X0*%
%ADD18RoundRect,0.150000X-0.150000X0.587500X-0.150000X-0.587500X0.150000X-0.587500X0.150000X0.587500X0*%
%ADD19RoundRect,0.200000X0.275000X-0.200000X0.275000X0.200000X-0.275000X0.200000X-0.275000X-0.200000X0*%
%ADD20RoundRect,0.200000X-0.275000X0.200000X-0.275000X-0.200000X0.275000X-0.200000X0.275000X0.200000X0*%
%ADD21RoundRect,0.225000X-0.250000X0.225000X-0.250000X-0.225000X0.250000X-0.225000X0.250000X0.225000X0*%
%ADD22R,2.500000X1.200000*%
%ADD23RoundRect,0.243750X0.456250X-0.243750X0.456250X0.243750X-0.456250X0.243750X-0.456250X-0.243750X0*%
%ADD24RoundRect,0.250000X-0.275000X-0.350000X0.275000X-0.350000X0.275000X0.350000X-0.275000X0.350000X0*%
%ADD25RoundRect,0.162500X0.617500X0.162500X-0.617500X0.162500X-0.617500X-0.162500X0.617500X-0.162500X0*%
%ADD26RoundRect,0.243750X-0.243750X-0.456250X0.243750X-0.456250X0.243750X0.456250X-0.243750X0.456250X0*%
%ADD27RoundRect,0.243750X0.243750X0.456250X-0.243750X0.456250X-0.243750X-0.456250X0.243750X-0.456250X0*%
%ADD28RoundRect,0.160000X0.160000X-0.197500X0.160000X0.197500X-0.160000X0.197500X-0.160000X-0.197500X0*%
%ADD29RoundRect,0.250000X-0.600000X0.400000X-0.600000X-0.400000X0.600000X-0.400000X0.600000X0.400000X0*%
G04 APERTURE END LIST*
D10*
%TO.C,C1*%
X135305800Y-103162400D03*
X135305800Y-101612400D03*
%TD*%
D11*
%TO.C,C6*%
X135651200Y-111607600D03*
X137551200Y-111607600D03*
%TD*%
D12*
%TO.C,U2*%
X137551200Y-94437200D03*
X137551200Y-96977200D03*
X147081200Y-96977200D03*
X147081200Y-94437200D03*
%TD*%
D13*
%TO.C,U6*%
X128793200Y-108706500D03*
X129743200Y-108706500D03*
X130693200Y-108706500D03*
X130693200Y-106431500D03*
X129743200Y-106431500D03*
X128793200Y-106431500D03*
%TD*%
%TO.C,U5*%
X153786800Y-107512700D03*
X154736800Y-107512700D03*
X155686800Y-107512700D03*
X155686800Y-105237700D03*
X154736800Y-105237700D03*
X153786800Y-105237700D03*
%TD*%
D14*
%TO.C,U1*%
X137640800Y-100533200D03*
X137640800Y-101803200D03*
X137640800Y-103073200D03*
X137640800Y-104343200D03*
X137640800Y-105613200D03*
X137640800Y-106883200D03*
X137640800Y-108153200D03*
X137640800Y-109423200D03*
X146940800Y-109423200D03*
X146940800Y-108153200D03*
X146940800Y-106883200D03*
X146940800Y-105613200D03*
X146940800Y-104343200D03*
X146940800Y-103073200D03*
X146940800Y-101803200D03*
X146940800Y-100533200D03*
%TD*%
D15*
%TO.C,R3*%
X151218300Y-106908600D03*
X152413300Y-106908600D03*
%TD*%
D10*
%TO.C,C4*%
X149326600Y-103238600D03*
X149326600Y-101688600D03*
%TD*%
D16*
%TO.C,R11*%
X133718800Y-93878400D03*
X135368800Y-93878400D03*
%TD*%
D17*
%TO.C,C5*%
X148828800Y-111607600D03*
X146928800Y-111607600D03*
%TD*%
D18*
%TO.C,Q1*%
X131252000Y-101884000D03*
X129352000Y-101884000D03*
X130302000Y-103759000D03*
%TD*%
D19*
%TO.C,R13*%
X128701800Y-98945200D03*
X128701800Y-97295200D03*
%TD*%
D20*
%TO.C,R7*%
X133096000Y-103645200D03*
X133096000Y-105295200D03*
%TD*%
%TO.C,R10*%
X129082800Y-113652800D03*
X129082800Y-115302800D03*
%TD*%
%TO.C,R12*%
X157327600Y-111976400D03*
X157327600Y-113626400D03*
%TD*%
D19*
%TO.C,R8*%
X150952200Y-103288600D03*
X150952200Y-101638600D03*
%TD*%
D21*
%TO.C,C2*%
X133705600Y-100596400D03*
X133705600Y-102146400D03*
%TD*%
D15*
%TO.C,R1*%
X132396900Y-108127800D03*
X133591900Y-108127800D03*
%TD*%
D20*
%TO.C,R5*%
X135382000Y-97066600D03*
X135382000Y-98716600D03*
%TD*%
D15*
%TO.C,R4*%
X151218300Y-105867200D03*
X152413300Y-105867200D03*
%TD*%
D22*
%TO.C,U7*%
X158259200Y-102911200D03*
X158259200Y-105411200D03*
X158259200Y-107411200D03*
X158259200Y-109911200D03*
%TD*%
D23*
%TO.C,D1*%
X157429200Y-117015500D03*
X157429200Y-115140500D03*
%TD*%
D24*
%TO.C,FB1*%
X131641200Y-111683800D03*
X133941200Y-111683800D03*
%TD*%
D25*
%TO.C,U4*%
X133379200Y-98956900D03*
X133379200Y-98006900D03*
X133379200Y-97056900D03*
X130679200Y-97056900D03*
X130679200Y-98956900D03*
%TD*%
D24*
%TO.C,FB2*%
X150742000Y-111734600D03*
X153042000Y-111734600D03*
%TD*%
D26*
%TO.C,D4*%
X130228100Y-95097600D03*
X132103100Y-95097600D03*
%TD*%
D27*
%TO.C,D2*%
X132534900Y-114960400D03*
X130659900Y-114960400D03*
%TD*%
D28*
%TO.C,R6*%
X149225000Y-105728100D03*
X149225000Y-104533100D03*
%TD*%
D16*
%TO.C,R15*%
X133591800Y-95402400D03*
X135241800Y-95402400D03*
%TD*%
D15*
%TO.C,R9*%
X134454300Y-104495600D03*
X135649300Y-104495600D03*
%TD*%
D29*
%TO.C,D3*%
X155244800Y-112067400D03*
X155244800Y-115567400D03*
%TD*%
D15*
%TO.C,R2*%
X132396900Y-106883200D03*
X133591900Y-106883200D03*
%TD*%
D10*
%TO.C,C3*%
X149301200Y-100063600D03*
X149301200Y-98513600D03*
%TD*%
M02*
