%TF.GenerationSoftware,KiCad,Pcbnew,8.0.1*%
%TF.CreationDate,2024-05-15T21:52:54+03:00*%
%TF.ProjectId,USB_ISOLATOR,5553425f-4953-44f4-9c41-544f522e6b69,rev?*%
%TF.SameCoordinates,Original*%
%TF.FileFunction,Legend,Bot*%
%TF.FilePolarity,Positive*%
%FSLAX46Y46*%
G04 Gerber Fmt 4.6, Leading zero omitted, Abs format (unit mm)*
G04 Created by KiCad (PCBNEW 8.0.1) date 2024-05-15 21:52:54*
%MOMM*%
%LPD*%
G01*
G04 APERTURE LIST*
%ADD10C,0.010000*%
%ADD11C,0.000000*%
%ADD12C,0.100000*%
%ADD13C,1.000000*%
%ADD14O,4.000000X2.000000*%
%ADD15R,1.700000X1.700000*%
%ADD16O,1.700000X1.700000*%
%ADD17R,1.500000X1.600000*%
%ADD18C,1.600000*%
%ADD19C,3.000000*%
%ADD20C,1.750000*%
G04 APERTURE END LIST*
D10*
%TO.C,FID2*%
X159807562Y-114939650D02*
X159890313Y-114966853D01*
X159965406Y-115012284D01*
X160037298Y-115078102D01*
X160075846Y-115122367D01*
X160115256Y-115180761D01*
X160140446Y-115241386D01*
X160153861Y-115310665D01*
X160157948Y-115395022D01*
X160157669Y-115441107D01*
X160155460Y-115482250D01*
X160149894Y-115514382D01*
X160139586Y-115544922D01*
X160123148Y-115581289D01*
X160109200Y-115608528D01*
X160050665Y-115694229D01*
X159978619Y-115763417D01*
X159894947Y-115814541D01*
X159801531Y-115846050D01*
X159768434Y-115853025D01*
X159727960Y-115859894D01*
X159694999Y-115861719D01*
X159660698Y-115858747D01*
X159616200Y-115851226D01*
X159564934Y-115838802D01*
X159474434Y-115800912D01*
X159395345Y-115746636D01*
X159329528Y-115678570D01*
X159278840Y-115599311D01*
X159245140Y-115511454D01*
X159230286Y-115417595D01*
X159236136Y-115320330D01*
X159262399Y-115224020D01*
X159307418Y-115135294D01*
X159368373Y-115060219D01*
X159443184Y-115000441D01*
X159529768Y-114957609D01*
X159626043Y-114933371D01*
X159729928Y-114929376D01*
X159807562Y-114939650D01*
G36*
X159807562Y-114939650D02*
G01*
X159890313Y-114966853D01*
X159965406Y-115012284D01*
X160037298Y-115078102D01*
X160075846Y-115122367D01*
X160115256Y-115180761D01*
X160140446Y-115241386D01*
X160153861Y-115310665D01*
X160157948Y-115395022D01*
X160157669Y-115441107D01*
X160155460Y-115482250D01*
X160149894Y-115514382D01*
X160139586Y-115544922D01*
X160123148Y-115581289D01*
X160109200Y-115608528D01*
X160050665Y-115694229D01*
X159978619Y-115763417D01*
X159894947Y-115814541D01*
X159801531Y-115846050D01*
X159768434Y-115853025D01*
X159727960Y-115859894D01*
X159694999Y-115861719D01*
X159660698Y-115858747D01*
X159616200Y-115851226D01*
X159564934Y-115838802D01*
X159474434Y-115800912D01*
X159395345Y-115746636D01*
X159329528Y-115678570D01*
X159278840Y-115599311D01*
X159245140Y-115511454D01*
X159230286Y-115417595D01*
X159236136Y-115320330D01*
X159262399Y-115224020D01*
X159307418Y-115135294D01*
X159368373Y-115060219D01*
X159443184Y-115000441D01*
X159529768Y-114957609D01*
X159626043Y-114933371D01*
X159729928Y-114929376D01*
X159807562Y-114939650D01*
G37*
X157341711Y-115868833D02*
X157437268Y-115886323D01*
X157601558Y-115931364D01*
X157755589Y-115994456D01*
X157901509Y-116076715D01*
X158041466Y-116179257D01*
X158177608Y-116303199D01*
X158221473Y-116348461D01*
X158333758Y-116480665D01*
X158426972Y-116618632D01*
X158503719Y-116766550D01*
X158566603Y-116928603D01*
X158570420Y-116940191D01*
X158620507Y-117126192D01*
X158653899Y-117322321D01*
X158670584Y-117524368D01*
X158670551Y-117728125D01*
X158653791Y-117929381D01*
X158620292Y-118123928D01*
X158570044Y-118307556D01*
X158526190Y-118424853D01*
X158448348Y-118587751D01*
X158354828Y-118741666D01*
X158247822Y-118883471D01*
X158129519Y-119010039D01*
X158002111Y-119118241D01*
X157924606Y-119170920D01*
X157797725Y-119240550D01*
X157660243Y-119299268D01*
X157518716Y-119344387D01*
X157379702Y-119373222D01*
X157365597Y-119374906D01*
X157322153Y-119378234D01*
X157264723Y-119381075D01*
X157199122Y-119383173D01*
X157131167Y-119384268D01*
X157004378Y-119381940D01*
X156856673Y-119368936D01*
X156718779Y-119343933D01*
X156585014Y-119306118D01*
X156561562Y-119297689D01*
X156513612Y-119278208D01*
X156457140Y-119253273D01*
X156395379Y-119224522D01*
X156331563Y-119193590D01*
X156268926Y-119162115D01*
X156210703Y-119131734D01*
X156160127Y-119104083D01*
X156120433Y-119080799D01*
X156094854Y-119063518D01*
X156086625Y-119053879D01*
X156088076Y-119050784D01*
X156099250Y-119030879D01*
X156120134Y-118995220D01*
X156149265Y-118946259D01*
X156185181Y-118886446D01*
X156226420Y-118818233D01*
X156271517Y-118744071D01*
X156452785Y-118446808D01*
X156499315Y-118491339D01*
X156590723Y-118569665D01*
X156704334Y-118644239D01*
X156822122Y-118698274D01*
X156942559Y-118731090D01*
X157064117Y-118742011D01*
X157105585Y-118740668D01*
X157223080Y-118722412D01*
X157333089Y-118683417D01*
X157434430Y-118624470D01*
X157525921Y-118546357D01*
X157606380Y-118449864D01*
X157674627Y-118335778D01*
X157690908Y-118301524D01*
X157736982Y-118178040D01*
X157772106Y-118039718D01*
X157796197Y-117890361D01*
X157809173Y-117733773D01*
X157810949Y-117573756D01*
X157801443Y-117414114D01*
X157780572Y-117258650D01*
X157748252Y-117111166D01*
X157704399Y-116975467D01*
X157666982Y-116888876D01*
X157602185Y-116775488D01*
X157526772Y-116681870D01*
X157440418Y-116607759D01*
X157342795Y-116552894D01*
X157233577Y-116517012D01*
X157112439Y-116499851D01*
X157043038Y-116498680D01*
X156920168Y-116512941D01*
X156804664Y-116548041D01*
X156697953Y-116603482D01*
X156601464Y-116678764D01*
X156585720Y-116693240D01*
X156555150Y-116719762D01*
X156532809Y-116736938D01*
X156522691Y-116741587D01*
X156520706Y-116739397D01*
X156506241Y-116720521D01*
X156482400Y-116687197D01*
X156451029Y-116642180D01*
X156413974Y-116588225D01*
X156373083Y-116528085D01*
X156330202Y-116464518D01*
X156287178Y-116400276D01*
X156245857Y-116338115D01*
X156208086Y-116280791D01*
X156175712Y-116231057D01*
X156150582Y-116191668D01*
X156134542Y-116165380D01*
X156129439Y-116154947D01*
X156134050Y-116150741D01*
X156153267Y-116145733D01*
X156162838Y-116143186D01*
X156190809Y-116132049D01*
X156232448Y-116113602D01*
X156283995Y-116089525D01*
X156341690Y-116061499D01*
X156352957Y-116055954D01*
X156530687Y-115976689D01*
X156700490Y-115917185D01*
X156864430Y-115877045D01*
X157024571Y-115855871D01*
X157182977Y-115853266D01*
X157341711Y-115868833D01*
G36*
X157341711Y-115868833D02*
G01*
X157437268Y-115886323D01*
X157601558Y-115931364D01*
X157755589Y-115994456D01*
X157901509Y-116076715D01*
X158041466Y-116179257D01*
X158177608Y-116303199D01*
X158221473Y-116348461D01*
X158333758Y-116480665D01*
X158426972Y-116618632D01*
X158503719Y-116766550D01*
X158566603Y-116928603D01*
X158570420Y-116940191D01*
X158620507Y-117126192D01*
X158653899Y-117322321D01*
X158670584Y-117524368D01*
X158670551Y-117728125D01*
X158653791Y-117929381D01*
X158620292Y-118123928D01*
X158570044Y-118307556D01*
X158526190Y-118424853D01*
X158448348Y-118587751D01*
X158354828Y-118741666D01*
X158247822Y-118883471D01*
X158129519Y-119010039D01*
X158002111Y-119118241D01*
X157924606Y-119170920D01*
X157797725Y-119240550D01*
X157660243Y-119299268D01*
X157518716Y-119344387D01*
X157379702Y-119373222D01*
X157365597Y-119374906D01*
X157322153Y-119378234D01*
X157264723Y-119381075D01*
X157199122Y-119383173D01*
X157131167Y-119384268D01*
X157004378Y-119381940D01*
X156856673Y-119368936D01*
X156718779Y-119343933D01*
X156585014Y-119306118D01*
X156561562Y-119297689D01*
X156513612Y-119278208D01*
X156457140Y-119253273D01*
X156395379Y-119224522D01*
X156331563Y-119193590D01*
X156268926Y-119162115D01*
X156210703Y-119131734D01*
X156160127Y-119104083D01*
X156120433Y-119080799D01*
X156094854Y-119063518D01*
X156086625Y-119053879D01*
X156088076Y-119050784D01*
X156099250Y-119030879D01*
X156120134Y-118995220D01*
X156149265Y-118946259D01*
X156185181Y-118886446D01*
X156226420Y-118818233D01*
X156271517Y-118744071D01*
X156452785Y-118446808D01*
X156499315Y-118491339D01*
X156590723Y-118569665D01*
X156704334Y-118644239D01*
X156822122Y-118698274D01*
X156942559Y-118731090D01*
X157064117Y-118742011D01*
X157105585Y-118740668D01*
X157223080Y-118722412D01*
X157333089Y-118683417D01*
X157434430Y-118624470D01*
X157525921Y-118546357D01*
X157606380Y-118449864D01*
X157674627Y-118335778D01*
X157690908Y-118301524D01*
X157736982Y-118178040D01*
X157772106Y-118039718D01*
X157796197Y-117890361D01*
X157809173Y-117733773D01*
X157810949Y-117573756D01*
X157801443Y-117414114D01*
X157780572Y-117258650D01*
X157748252Y-117111166D01*
X157704399Y-116975467D01*
X157666982Y-116888876D01*
X157602185Y-116775488D01*
X157526772Y-116681870D01*
X157440418Y-116607759D01*
X157342795Y-116552894D01*
X157233577Y-116517012D01*
X157112439Y-116499851D01*
X157043038Y-116498680D01*
X156920168Y-116512941D01*
X156804664Y-116548041D01*
X156697953Y-116603482D01*
X156601464Y-116678764D01*
X156585720Y-116693240D01*
X156555150Y-116719762D01*
X156532809Y-116736938D01*
X156522691Y-116741587D01*
X156520706Y-116739397D01*
X156506241Y-116720521D01*
X156482400Y-116687197D01*
X156451029Y-116642180D01*
X156413974Y-116588225D01*
X156373083Y-116528085D01*
X156330202Y-116464518D01*
X156287178Y-116400276D01*
X156245857Y-116338115D01*
X156208086Y-116280791D01*
X156175712Y-116231057D01*
X156150582Y-116191668D01*
X156134542Y-116165380D01*
X156129439Y-116154947D01*
X156134050Y-116150741D01*
X156153267Y-116145733D01*
X156162838Y-116143186D01*
X156190809Y-116132049D01*
X156232448Y-116113602D01*
X156283995Y-116089525D01*
X156341690Y-116061499D01*
X156352957Y-116055954D01*
X156530687Y-115976689D01*
X156700490Y-115917185D01*
X156864430Y-115877045D01*
X157024571Y-115855871D01*
X157182977Y-115853266D01*
X157341711Y-115868833D01*
G37*
X153538994Y-118149511D02*
X153538268Y-118226958D01*
X153529689Y-118378394D01*
X153510833Y-118515083D01*
X153480837Y-118641076D01*
X153438836Y-118760425D01*
X153383969Y-118877181D01*
X153317167Y-118987979D01*
X153226363Y-119101539D01*
X153122708Y-119197011D01*
X153006887Y-119273873D01*
X152879586Y-119331597D01*
X152741489Y-119369658D01*
X152703793Y-119375466D01*
X152624752Y-119381196D01*
X152536629Y-119381383D01*
X152447236Y-119376339D01*
X152364384Y-119366378D01*
X152295887Y-119351812D01*
X152265035Y-119342164D01*
X152187730Y-119311923D01*
X152110679Y-119274417D01*
X152041200Y-119233414D01*
X151986615Y-119192679D01*
X151963916Y-119173305D01*
X151941201Y-119155462D01*
X151929779Y-119148578D01*
X151928537Y-119150224D01*
X151925728Y-119168005D01*
X151923776Y-119201170D01*
X151923045Y-119244533D01*
X151923045Y-119340489D01*
X151064896Y-119340489D01*
X151099161Y-119279774D01*
X151104355Y-119270668D01*
X151112715Y-119256049D01*
X151120288Y-119241973D01*
X151127112Y-119227340D01*
X151133227Y-119211049D01*
X151138673Y-119191998D01*
X151143487Y-119169086D01*
X151147708Y-119141213D01*
X151151377Y-119107278D01*
X151154531Y-119066179D01*
X151157211Y-119016815D01*
X151159454Y-118958086D01*
X151161299Y-118888890D01*
X151162787Y-118808126D01*
X151163955Y-118714694D01*
X151164678Y-118627521D01*
X151968200Y-118627521D01*
X152038756Y-118673889D01*
X152079417Y-118697591D01*
X152133546Y-118723439D01*
X152182689Y-118741629D01*
X152246165Y-118757351D01*
X152342331Y-118768341D01*
X152426900Y-118760165D01*
X152500219Y-118732605D01*
X152562637Y-118685442D01*
X152614502Y-118618458D01*
X152656160Y-118531433D01*
X152687962Y-118424150D01*
X152690545Y-118411809D01*
X152699000Y-118350572D01*
X152704663Y-118273492D01*
X152707576Y-118185802D01*
X152707783Y-118092734D01*
X152705330Y-117999520D01*
X152700261Y-117911394D01*
X152692619Y-117833588D01*
X152682448Y-117771333D01*
X152681167Y-117765466D01*
X152652126Y-117654921D01*
X152617610Y-117564375D01*
X152576456Y-117491753D01*
X152527499Y-117434981D01*
X152469574Y-117391984D01*
X152437620Y-117376415D01*
X152364784Y-117357522D01*
X152283443Y-117354265D01*
X152198319Y-117366189D01*
X152114133Y-117392840D01*
X152035608Y-117433762D01*
X151968200Y-117477330D01*
X151968200Y-118627521D01*
X151164678Y-118627521D01*
X151164844Y-118607492D01*
X151165491Y-118485420D01*
X151165936Y-118347376D01*
X151166218Y-118192259D01*
X151166375Y-118018968D01*
X151166448Y-117826403D01*
X151166474Y-117613462D01*
X151166493Y-117379045D01*
X151166689Y-115694178D01*
X152072017Y-115694178D01*
X152047585Y-115730867D01*
X152041318Y-115740447D01*
X152015208Y-115786781D01*
X151997469Y-115833902D01*
X151985908Y-115889051D01*
X151978331Y-115959467D01*
X151977839Y-115966450D01*
X151976062Y-116004441D01*
X151974444Y-116058376D01*
X151972999Y-116125503D01*
X151971740Y-116203071D01*
X151970680Y-116288328D01*
X151969829Y-116378524D01*
X151969203Y-116470907D01*
X151968812Y-116562725D01*
X151968670Y-116651227D01*
X151968790Y-116733662D01*
X151969183Y-116807279D01*
X151969862Y-116869326D01*
X151970841Y-116917051D01*
X151972132Y-116947704D01*
X151973747Y-116958533D01*
X151981957Y-116954133D01*
X152003647Y-116939162D01*
X152033014Y-116917248D01*
X152081879Y-116883036D01*
X152170125Y-116836514D01*
X152268916Y-116802846D01*
X152381510Y-116781031D01*
X152511164Y-116770065D01*
X152603670Y-116769019D01*
X152725011Y-116778814D01*
X152835099Y-116802974D01*
X152938389Y-116842585D01*
X153039338Y-116898732D01*
X153084503Y-116929683D01*
X153189911Y-117020915D01*
X153281538Y-117129906D01*
X153359332Y-117256526D01*
X153423241Y-117400645D01*
X153473214Y-117562132D01*
X153509198Y-117740859D01*
X153531143Y-117936695D01*
X153536900Y-118092734D01*
X153538994Y-118149511D01*
G36*
X153538994Y-118149511D02*
G01*
X153538268Y-118226958D01*
X153529689Y-118378394D01*
X153510833Y-118515083D01*
X153480837Y-118641076D01*
X153438836Y-118760425D01*
X153383969Y-118877181D01*
X153317167Y-118987979D01*
X153226363Y-119101539D01*
X153122708Y-119197011D01*
X153006887Y-119273873D01*
X152879586Y-119331597D01*
X152741489Y-119369658D01*
X152703793Y-119375466D01*
X152624752Y-119381196D01*
X152536629Y-119381383D01*
X152447236Y-119376339D01*
X152364384Y-119366378D01*
X152295887Y-119351812D01*
X152265035Y-119342164D01*
X152187730Y-119311923D01*
X152110679Y-119274417D01*
X152041200Y-119233414D01*
X151986615Y-119192679D01*
X151963916Y-119173305D01*
X151941201Y-119155462D01*
X151929779Y-119148578D01*
X151928537Y-119150224D01*
X151925728Y-119168005D01*
X151923776Y-119201170D01*
X151923045Y-119244533D01*
X151923045Y-119340489D01*
X151064896Y-119340489D01*
X151099161Y-119279774D01*
X151104355Y-119270668D01*
X151112715Y-119256049D01*
X151120288Y-119241973D01*
X151127112Y-119227340D01*
X151133227Y-119211049D01*
X151138673Y-119191998D01*
X151143487Y-119169086D01*
X151147708Y-119141213D01*
X151151377Y-119107278D01*
X151154531Y-119066179D01*
X151157211Y-119016815D01*
X151159454Y-118958086D01*
X151161299Y-118888890D01*
X151162787Y-118808126D01*
X151163955Y-118714694D01*
X151164678Y-118627521D01*
X151968200Y-118627521D01*
X152038756Y-118673889D01*
X152079417Y-118697591D01*
X152133546Y-118723439D01*
X152182689Y-118741629D01*
X152246165Y-118757351D01*
X152342331Y-118768341D01*
X152426900Y-118760165D01*
X152500219Y-118732605D01*
X152562637Y-118685442D01*
X152614502Y-118618458D01*
X152656160Y-118531433D01*
X152687962Y-118424150D01*
X152690545Y-118411809D01*
X152699000Y-118350572D01*
X152704663Y-118273492D01*
X152707576Y-118185802D01*
X152707783Y-118092734D01*
X152705330Y-117999520D01*
X152700261Y-117911394D01*
X152692619Y-117833588D01*
X152682448Y-117771333D01*
X152681167Y-117765466D01*
X152652126Y-117654921D01*
X152617610Y-117564375D01*
X152576456Y-117491753D01*
X152527499Y-117434981D01*
X152469574Y-117391984D01*
X152437620Y-117376415D01*
X152364784Y-117357522D01*
X152283443Y-117354265D01*
X152198319Y-117366189D01*
X152114133Y-117392840D01*
X152035608Y-117433762D01*
X151968200Y-117477330D01*
X151968200Y-118627521D01*
X151164678Y-118627521D01*
X151164844Y-118607492D01*
X151165491Y-118485420D01*
X151165936Y-118347376D01*
X151166218Y-118192259D01*
X151166375Y-118018968D01*
X151166448Y-117826403D01*
X151166474Y-117613462D01*
X151166493Y-117379045D01*
X151166689Y-115694178D01*
X152072017Y-115694178D01*
X152047585Y-115730867D01*
X152041318Y-115740447D01*
X152015208Y-115786781D01*
X151997469Y-115833902D01*
X151985908Y-115889051D01*
X151978331Y-115959467D01*
X151977839Y-115966450D01*
X151976062Y-116004441D01*
X151974444Y-116058376D01*
X151972999Y-116125503D01*
X151971740Y-116203071D01*
X151970680Y-116288328D01*
X151969829Y-116378524D01*
X151969203Y-116470907D01*
X151968812Y-116562725D01*
X151968670Y-116651227D01*
X151968790Y-116733662D01*
X151969183Y-116807279D01*
X151969862Y-116869326D01*
X151970841Y-116917051D01*
X151972132Y-116947704D01*
X151973747Y-116958533D01*
X151981957Y-116954133D01*
X152003647Y-116939162D01*
X152033014Y-116917248D01*
X152081879Y-116883036D01*
X152170125Y-116836514D01*
X152268916Y-116802846D01*
X152381510Y-116781031D01*
X152511164Y-116770065D01*
X152603670Y-116769019D01*
X152725011Y-116778814D01*
X152835099Y-116802974D01*
X152938389Y-116842585D01*
X153039338Y-116898732D01*
X153084503Y-116929683D01*
X153189911Y-117020915D01*
X153281538Y-117129906D01*
X153359332Y-117256526D01*
X153423241Y-117400645D01*
X153473214Y-117562132D01*
X153509198Y-117740859D01*
X153531143Y-117936695D01*
X153536900Y-118092734D01*
X153538994Y-118149511D01*
G37*
X156080755Y-118550267D02*
X156080261Y-118584163D01*
X156076632Y-118659002D01*
X156069022Y-118721201D01*
X156056688Y-118777784D01*
X156012313Y-118903876D01*
X155949400Y-119018479D01*
X155869238Y-119119368D01*
X155772740Y-119205724D01*
X155660822Y-119276732D01*
X155534397Y-119331576D01*
X155394378Y-119369438D01*
X155358149Y-119375151D01*
X155279155Y-119381113D01*
X155190841Y-119381446D01*
X155101075Y-119376459D01*
X155017722Y-119366466D01*
X154948651Y-119351778D01*
X154862187Y-119321549D01*
X154752286Y-119266857D01*
X154654956Y-119199343D01*
X154592867Y-119148356D01*
X154589605Y-119244422D01*
X154586343Y-119340489D01*
X154163450Y-119340489D01*
X154152543Y-119340486D01*
X154058056Y-119340180D01*
X153971331Y-119339416D01*
X153894837Y-119338251D01*
X153831043Y-119336742D01*
X153782418Y-119334947D01*
X153751433Y-119332921D01*
X153740556Y-119330722D01*
X153740578Y-119330263D01*
X153747614Y-119314710D01*
X153763434Y-119291871D01*
X153767734Y-119286438D01*
X153778777Y-119272406D01*
X153788311Y-119258986D01*
X153796461Y-119244522D01*
X153803352Y-119227356D01*
X153809111Y-119205834D01*
X153813862Y-119178298D01*
X153817731Y-119143092D01*
X153820844Y-119098560D01*
X153823325Y-119043046D01*
X153825300Y-118974893D01*
X153826894Y-118892445D01*
X153828234Y-118794046D01*
X153829444Y-118678039D01*
X153829896Y-118627262D01*
X154632378Y-118627262D01*
X154677048Y-118683773D01*
X154689785Y-118699012D01*
X154736604Y-118741644D01*
X154797255Y-118777472D01*
X154807897Y-118782650D01*
X154846676Y-118799545D01*
X154881692Y-118809709D01*
X154921722Y-118815125D01*
X154975541Y-118817778D01*
X154993648Y-118818183D01*
X155069011Y-118815340D01*
X155129743Y-118803420D01*
X155181452Y-118780837D01*
X155229746Y-118746011D01*
X155234803Y-118741598D01*
X155283272Y-118685960D01*
X155311459Y-118622133D01*
X155320752Y-118547082D01*
X155313520Y-118475493D01*
X155288796Y-118412445D01*
X155244249Y-118354558D01*
X155189319Y-118307608D01*
X155116894Y-118267761D01*
X155030340Y-118240063D01*
X154927670Y-118223896D01*
X154806894Y-118218642D01*
X154798007Y-118218657D01*
X154742660Y-118219455D01*
X154695736Y-118221288D01*
X154661953Y-118223911D01*
X154646028Y-118227074D01*
X154641943Y-118233541D01*
X154637572Y-118255675D01*
X154634604Y-118294788D01*
X154632914Y-118352739D01*
X154632378Y-118431386D01*
X154632378Y-118627262D01*
X153829896Y-118627262D01*
X153830649Y-118542768D01*
X153831975Y-118386578D01*
X153833228Y-118243812D01*
X153834651Y-118098742D01*
X153836176Y-117972827D01*
X153837933Y-117864236D01*
X153840051Y-117771134D01*
X153842660Y-117691691D01*
X153845890Y-117624073D01*
X153849869Y-117566449D01*
X153854728Y-117516985D01*
X153860597Y-117473850D01*
X153867604Y-117435210D01*
X153875880Y-117399234D01*
X153885554Y-117364089D01*
X153896756Y-117327942D01*
X153909616Y-117288961D01*
X153925090Y-117245891D01*
X153967994Y-117153671D01*
X154021735Y-117073899D01*
X154090576Y-116999765D01*
X154168185Y-116936205D01*
X154272761Y-116874525D01*
X154392244Y-116827002D01*
X154527508Y-116793367D01*
X154679426Y-116773352D01*
X154848872Y-116766689D01*
X154906890Y-116767087D01*
X154972398Y-116769135D01*
X155033693Y-116773504D01*
X155095097Y-116780835D01*
X155160932Y-116791769D01*
X155235520Y-116806947D01*
X155323184Y-116827009D01*
X155428245Y-116852597D01*
X155456806Y-116859620D01*
X155532054Y-116877576D01*
X155602388Y-116893620D01*
X155663567Y-116906828D01*
X155711354Y-116916274D01*
X155741511Y-116921031D01*
X155769783Y-116924710D01*
X155796060Y-116929987D01*
X155806059Y-116934742D01*
X155802952Y-116943581D01*
X155792194Y-116970872D01*
X155774864Y-117013706D01*
X155752126Y-117069225D01*
X155725147Y-117134572D01*
X155695090Y-117206889D01*
X155688493Y-117222679D01*
X155649907Y-117313284D01*
X155618768Y-117383017D01*
X155594917Y-117432205D01*
X155578198Y-117461174D01*
X155568454Y-117470252D01*
X155560766Y-117468205D01*
X155534415Y-117458560D01*
X155495982Y-117442990D01*
X155450822Y-117423615D01*
X155356293Y-117385614D01*
X155219480Y-117344580D01*
X155078289Y-117319412D01*
X155040314Y-117315411D01*
X154937059Y-117313247D01*
X154849952Y-117326422D01*
X154778129Y-117355556D01*
X154720731Y-117401266D01*
X154676896Y-117464172D01*
X154645762Y-117544892D01*
X154626470Y-117644045D01*
X154619050Y-117703024D01*
X154780936Y-117696245D01*
X154907495Y-117694613D01*
X155058951Y-117700994D01*
X155207396Y-117715577D01*
X155343578Y-117737682D01*
X155408245Y-117752621D01*
X155540490Y-117795541D01*
X155662762Y-117852140D01*
X155772685Y-117920817D01*
X155867883Y-117999970D01*
X155945980Y-118087996D01*
X156004599Y-118183293D01*
X156028595Y-118235664D01*
X156054232Y-118306390D01*
X156070478Y-118377612D01*
X156078822Y-118456512D01*
X156080690Y-118547082D01*
X156080755Y-118550267D01*
G36*
X156080755Y-118550267D02*
G01*
X156080261Y-118584163D01*
X156076632Y-118659002D01*
X156069022Y-118721201D01*
X156056688Y-118777784D01*
X156012313Y-118903876D01*
X155949400Y-119018479D01*
X155869238Y-119119368D01*
X155772740Y-119205724D01*
X155660822Y-119276732D01*
X155534397Y-119331576D01*
X155394378Y-119369438D01*
X155358149Y-119375151D01*
X155279155Y-119381113D01*
X155190841Y-119381446D01*
X155101075Y-119376459D01*
X155017722Y-119366466D01*
X154948651Y-119351778D01*
X154862187Y-119321549D01*
X154752286Y-119266857D01*
X154654956Y-119199343D01*
X154592867Y-119148356D01*
X154589605Y-119244422D01*
X154586343Y-119340489D01*
X154163450Y-119340489D01*
X154152543Y-119340486D01*
X154058056Y-119340180D01*
X153971331Y-119339416D01*
X153894837Y-119338251D01*
X153831043Y-119336742D01*
X153782418Y-119334947D01*
X153751433Y-119332921D01*
X153740556Y-119330722D01*
X153740578Y-119330263D01*
X153747614Y-119314710D01*
X153763434Y-119291871D01*
X153767734Y-119286438D01*
X153778777Y-119272406D01*
X153788311Y-119258986D01*
X153796461Y-119244522D01*
X153803352Y-119227356D01*
X153809111Y-119205834D01*
X153813862Y-119178298D01*
X153817731Y-119143092D01*
X153820844Y-119098560D01*
X153823325Y-119043046D01*
X153825300Y-118974893D01*
X153826894Y-118892445D01*
X153828234Y-118794046D01*
X153829444Y-118678039D01*
X153829896Y-118627262D01*
X154632378Y-118627262D01*
X154677048Y-118683773D01*
X154689785Y-118699012D01*
X154736604Y-118741644D01*
X154797255Y-118777472D01*
X154807897Y-118782650D01*
X154846676Y-118799545D01*
X154881692Y-118809709D01*
X154921722Y-118815125D01*
X154975541Y-118817778D01*
X154993648Y-118818183D01*
X155069011Y-118815340D01*
X155129743Y-118803420D01*
X155181452Y-118780837D01*
X155229746Y-118746011D01*
X155234803Y-118741598D01*
X155283272Y-118685960D01*
X155311459Y-118622133D01*
X155320752Y-118547082D01*
X155313520Y-118475493D01*
X155288796Y-118412445D01*
X155244249Y-118354558D01*
X155189319Y-118307608D01*
X155116894Y-118267761D01*
X155030340Y-118240063D01*
X154927670Y-118223896D01*
X154806894Y-118218642D01*
X154798007Y-118218657D01*
X154742660Y-118219455D01*
X154695736Y-118221288D01*
X154661953Y-118223911D01*
X154646028Y-118227074D01*
X154641943Y-118233541D01*
X154637572Y-118255675D01*
X154634604Y-118294788D01*
X154632914Y-118352739D01*
X154632378Y-118431386D01*
X154632378Y-118627262D01*
X153829896Y-118627262D01*
X153830649Y-118542768D01*
X153831975Y-118386578D01*
X153833228Y-118243812D01*
X153834651Y-118098742D01*
X153836176Y-117972827D01*
X153837933Y-117864236D01*
X153840051Y-117771134D01*
X153842660Y-117691691D01*
X153845890Y-117624073D01*
X153849869Y-117566449D01*
X153854728Y-117516985D01*
X153860597Y-117473850D01*
X153867604Y-117435210D01*
X153875880Y-117399234D01*
X153885554Y-117364089D01*
X153896756Y-117327942D01*
X153909616Y-117288961D01*
X153925090Y-117245891D01*
X153967994Y-117153671D01*
X154021735Y-117073899D01*
X154090576Y-116999765D01*
X154168185Y-116936205D01*
X154272761Y-116874525D01*
X154392244Y-116827002D01*
X154527508Y-116793367D01*
X154679426Y-116773352D01*
X154848872Y-116766689D01*
X154906890Y-116767087D01*
X154972398Y-116769135D01*
X155033693Y-116773504D01*
X155095097Y-116780835D01*
X155160932Y-116791769D01*
X155235520Y-116806947D01*
X155323184Y-116827009D01*
X155428245Y-116852597D01*
X155456806Y-116859620D01*
X155532054Y-116877576D01*
X155602388Y-116893620D01*
X155663567Y-116906828D01*
X155711354Y-116916274D01*
X155741511Y-116921031D01*
X155769783Y-116924710D01*
X155796060Y-116929987D01*
X155806059Y-116934742D01*
X155802952Y-116943581D01*
X155792194Y-116970872D01*
X155774864Y-117013706D01*
X155752126Y-117069225D01*
X155725147Y-117134572D01*
X155695090Y-117206889D01*
X155688493Y-117222679D01*
X155649907Y-117313284D01*
X155618768Y-117383017D01*
X155594917Y-117432205D01*
X155578198Y-117461174D01*
X155568454Y-117470252D01*
X155560766Y-117468205D01*
X155534415Y-117458560D01*
X155495982Y-117442990D01*
X155450822Y-117423615D01*
X155356293Y-117385614D01*
X155219480Y-117344580D01*
X155078289Y-117319412D01*
X155040314Y-117315411D01*
X154937059Y-117313247D01*
X154849952Y-117326422D01*
X154778129Y-117355556D01*
X154720731Y-117401266D01*
X154676896Y-117464172D01*
X154645762Y-117544892D01*
X154626470Y-117644045D01*
X154619050Y-117703024D01*
X154780936Y-117696245D01*
X154907495Y-117694613D01*
X155058951Y-117700994D01*
X155207396Y-117715577D01*
X155343578Y-117737682D01*
X155408245Y-117752621D01*
X155540490Y-117795541D01*
X155662762Y-117852140D01*
X155772685Y-117920817D01*
X155867883Y-117999970D01*
X155945980Y-118087996D01*
X156004599Y-118183293D01*
X156028595Y-118235664D01*
X156054232Y-118306390D01*
X156070478Y-118377612D01*
X156078822Y-118456512D01*
X156080690Y-118547082D01*
X156080755Y-118550267D01*
G37*
X163628614Y-116018592D02*
X163629059Y-116149811D01*
X163629362Y-116297016D01*
X163629548Y-116461149D01*
X163629642Y-116643152D01*
X163629671Y-116843965D01*
X163629661Y-117064532D01*
X163629636Y-117305792D01*
X163629622Y-117568689D01*
X163629622Y-117610840D01*
X163629646Y-117871468D01*
X163629685Y-118110596D01*
X163629708Y-118329160D01*
X163629687Y-118528095D01*
X163629593Y-118708335D01*
X163629395Y-118870815D01*
X163629063Y-119016470D01*
X163628569Y-119146234D01*
X163627883Y-119261043D01*
X163626976Y-119361830D01*
X163625817Y-119449530D01*
X163624378Y-119525079D01*
X163622629Y-119589411D01*
X163620540Y-119643461D01*
X163618083Y-119688163D01*
X163615227Y-119724452D01*
X163611943Y-119753263D01*
X163608202Y-119775531D01*
X163603974Y-119792190D01*
X163599229Y-119804175D01*
X163593939Y-119812421D01*
X163588073Y-119817862D01*
X163581602Y-119821434D01*
X163574497Y-119824070D01*
X163566728Y-119826706D01*
X163558266Y-119830277D01*
X163553908Y-119831945D01*
X163545395Y-119833911D01*
X163532694Y-119835711D01*
X163514885Y-119837355D01*
X163491049Y-119838847D01*
X163460266Y-119840197D01*
X163421617Y-119841411D01*
X163374182Y-119842497D01*
X163317043Y-119843461D01*
X163249279Y-119844311D01*
X163169971Y-119845053D01*
X163078199Y-119845697D01*
X162973044Y-119846247D01*
X162853587Y-119846713D01*
X162718908Y-119847100D01*
X162568088Y-119847416D01*
X162400206Y-119847669D01*
X162214345Y-119847866D01*
X162009583Y-119848013D01*
X161785002Y-119848118D01*
X161539682Y-119848189D01*
X161272704Y-119848232D01*
X161234321Y-119848237D01*
X160968922Y-119848280D01*
X160725050Y-119848325D01*
X160501783Y-119848348D01*
X160298196Y-119848324D01*
X160113367Y-119848230D01*
X159946373Y-119848043D01*
X159796290Y-119847739D01*
X159662196Y-119847294D01*
X159543166Y-119846685D01*
X159438279Y-119845889D01*
X159346610Y-119844880D01*
X159267237Y-119843637D01*
X159199237Y-119842135D01*
X159141686Y-119840351D01*
X159093662Y-119838261D01*
X159054240Y-119835842D01*
X159022499Y-119833070D01*
X158997514Y-119829921D01*
X158978364Y-119826372D01*
X158964123Y-119822398D01*
X158953871Y-119817978D01*
X158946682Y-119813086D01*
X158941635Y-119807700D01*
X158937805Y-119801796D01*
X158934271Y-119795349D01*
X158930108Y-119788337D01*
X158929025Y-119786487D01*
X158926813Y-119780980D01*
X158924786Y-119772668D01*
X158922938Y-119760609D01*
X158921261Y-119743863D01*
X158919745Y-119721487D01*
X158918383Y-119692540D01*
X158917167Y-119656080D01*
X158916089Y-119611167D01*
X158915140Y-119556857D01*
X158914312Y-119492210D01*
X158913597Y-119416284D01*
X158912987Y-119328138D01*
X158912942Y-119319293D01*
X159204378Y-119319293D01*
X159208260Y-119320565D01*
X159231520Y-119322591D01*
X159273874Y-119324426D01*
X159333132Y-119326027D01*
X159407107Y-119327349D01*
X159493610Y-119328348D01*
X159590452Y-119328980D01*
X159695445Y-119329200D01*
X160393651Y-119329200D01*
X161548090Y-119329200D01*
X161547456Y-119253000D01*
X161548574Y-119210960D01*
X161554304Y-119175134D01*
X161566890Y-119137572D01*
X161588568Y-119089377D01*
X161591789Y-119082697D01*
X161617188Y-119033159D01*
X161643996Y-118985169D01*
X161666917Y-118948266D01*
X161671485Y-118941634D01*
X161693516Y-118910393D01*
X161725693Y-118865454D01*
X161766457Y-118808947D01*
X161814245Y-118743004D01*
X161867498Y-118669757D01*
X161924655Y-118591336D01*
X161984155Y-118509872D01*
X162044437Y-118427498D01*
X162103940Y-118346344D01*
X162161105Y-118268542D01*
X162214370Y-118196223D01*
X162262174Y-118131518D01*
X162302957Y-118076559D01*
X162335158Y-118033476D01*
X162357216Y-118004402D01*
X162367571Y-117991467D01*
X162372044Y-117987151D01*
X162376236Y-117985112D01*
X162379643Y-117987726D01*
X162382325Y-117996786D01*
X162384341Y-118014085D01*
X162385748Y-118041414D01*
X162386605Y-118080565D01*
X162386970Y-118133333D01*
X162386903Y-118201507D01*
X162386460Y-118286882D01*
X162385702Y-118391249D01*
X162384685Y-118516400D01*
X162384308Y-118561100D01*
X162383169Y-118682195D01*
X162381972Y-118783488D01*
X162380636Y-118867062D01*
X162379077Y-118935004D01*
X162377215Y-118989399D01*
X162374966Y-119032332D01*
X162372248Y-119065889D01*
X162368979Y-119092155D01*
X162365078Y-119113216D01*
X162360461Y-119131157D01*
X162352192Y-119157570D01*
X162328583Y-119219572D01*
X162302685Y-119272373D01*
X162277535Y-119309445D01*
X162276339Y-119310875D01*
X162274168Y-119315224D01*
X162276328Y-119318826D01*
X162284644Y-119321751D01*
X162300940Y-119324069D01*
X162327041Y-119325851D01*
X162364771Y-119327167D01*
X162415956Y-119328086D01*
X162482420Y-119328678D01*
X162565987Y-119329015D01*
X162668483Y-119329165D01*
X162791732Y-119329200D01*
X163323296Y-119329200D01*
X163284523Y-119271583D01*
X163278432Y-119262693D01*
X163267976Y-119247869D01*
X163258579Y-119234222D01*
X163250183Y-119220565D01*
X163242733Y-119205711D01*
X163236173Y-119188470D01*
X163230446Y-119167655D01*
X163225495Y-119142080D01*
X163221266Y-119110555D01*
X163217701Y-119071893D01*
X163214744Y-119024907D01*
X163212340Y-118968408D01*
X163210431Y-118901209D01*
X163208962Y-118822122D01*
X163207876Y-118729960D01*
X163207118Y-118623534D01*
X163206630Y-118501657D01*
X163206358Y-118363141D01*
X163206243Y-118206799D01*
X163206231Y-118031442D01*
X163206265Y-117835882D01*
X163206289Y-117618933D01*
X163206280Y-117496313D01*
X163206243Y-117291247D01*
X163206227Y-117106916D01*
X163206288Y-116942134D01*
X163206484Y-116795716D01*
X163206870Y-116666474D01*
X163207505Y-116553222D01*
X163208444Y-116454775D01*
X163209745Y-116369944D01*
X163211464Y-116297544D01*
X163213659Y-116236389D01*
X163216385Y-116185292D01*
X163219701Y-116143067D01*
X163223662Y-116108527D01*
X163228325Y-116080486D01*
X163233747Y-116057758D01*
X163239986Y-116039156D01*
X163247097Y-116023493D01*
X163255138Y-116009584D01*
X163264166Y-115996241D01*
X163274236Y-115982279D01*
X163285407Y-115966511D01*
X163325197Y-115908667D01*
X162265314Y-115908667D01*
X162303311Y-115971766D01*
X162317993Y-115996805D01*
X162332531Y-116024386D01*
X162344627Y-116052500D01*
X162354532Y-116083351D01*
X162362494Y-116119144D01*
X162368761Y-116162083D01*
X162373582Y-116214374D01*
X162377206Y-116278219D01*
X162379881Y-116355825D01*
X162381857Y-116449394D01*
X162383382Y-116561133D01*
X162384704Y-116693245D01*
X162385613Y-116813234D01*
X162386020Y-116929863D01*
X162385767Y-117025331D01*
X162384857Y-117099356D01*
X162383293Y-117151655D01*
X162381079Y-117181949D01*
X162378220Y-117189956D01*
X162375161Y-117186658D01*
X162357006Y-117165208D01*
X162327275Y-117128689D01*
X162287639Y-117079242D01*
X162239771Y-117019007D01*
X162185343Y-116950127D01*
X162126027Y-116874743D01*
X162063495Y-116794996D01*
X161999421Y-116713028D01*
X161935475Y-116630980D01*
X161873331Y-116550994D01*
X161814661Y-116475211D01*
X161761137Y-116405773D01*
X161714430Y-116344821D01*
X161676214Y-116294496D01*
X161648161Y-116256940D01*
X161631943Y-116234295D01*
X161586635Y-116162012D01*
X161546661Y-116082263D01*
X161525130Y-116013988D01*
X161521827Y-115956644D01*
X161527116Y-115908667D01*
X160395356Y-115908917D01*
X160434867Y-115939522D01*
X160444248Y-115946889D01*
X160507183Y-116001238D01*
X160575997Y-116069059D01*
X160652596Y-116152316D01*
X160738888Y-116252978D01*
X160756052Y-116273647D01*
X160796833Y-116323209D01*
X160846588Y-116384126D01*
X160903955Y-116454698D01*
X160967569Y-116533224D01*
X161036069Y-116618004D01*
X161108090Y-116707337D01*
X161182270Y-116799522D01*
X161197517Y-116818502D01*
X161257246Y-116892860D01*
X161331653Y-116985648D01*
X161404131Y-117076188D01*
X161473314Y-117162778D01*
X161537841Y-117243718D01*
X161596347Y-117317306D01*
X161647470Y-117381844D01*
X161689847Y-117435629D01*
X161722115Y-117476962D01*
X161742910Y-117504142D01*
X161750869Y-117515468D01*
X161749111Y-117519571D01*
X161736230Y-117540134D01*
X161711885Y-117576361D01*
X161677247Y-117626624D01*
X161633486Y-117689292D01*
X161581775Y-117762736D01*
X161523284Y-117845327D01*
X161459184Y-117935436D01*
X161390646Y-118031431D01*
X161318843Y-118131685D01*
X161244944Y-118234568D01*
X161170121Y-118338450D01*
X161095545Y-118441701D01*
X161022387Y-118542692D01*
X160951819Y-118639794D01*
X160885011Y-118731377D01*
X160823135Y-118815811D01*
X160767361Y-118891467D01*
X160718862Y-118956716D01*
X160678807Y-119009928D01*
X160648369Y-119049473D01*
X160627944Y-119074826D01*
X160581899Y-119129095D01*
X160531612Y-119185575D01*
X160484815Y-119235469D01*
X160393651Y-119329200D01*
X159695445Y-119329200D01*
X159764356Y-119329149D01*
X159862607Y-119328891D01*
X159952030Y-119328437D01*
X160030333Y-119327810D01*
X160095223Y-119327035D01*
X160144411Y-119326135D01*
X160175604Y-119325134D01*
X160186511Y-119324057D01*
X160185322Y-119320837D01*
X160175176Y-119303252D01*
X160158040Y-119276958D01*
X160149540Y-119264491D01*
X160140329Y-119250422D01*
X160132233Y-119236151D01*
X160125185Y-119220279D01*
X160119117Y-119201409D01*
X160113961Y-119178141D01*
X160109651Y-119149078D01*
X160106119Y-119112821D01*
X160103297Y-119067970D01*
X160101118Y-119013128D01*
X160099514Y-118946897D01*
X160098419Y-118867877D01*
X160097765Y-118774671D01*
X160097484Y-118665879D01*
X160097509Y-118540103D01*
X160097772Y-118395945D01*
X160098206Y-118232007D01*
X160098745Y-118046889D01*
X160099279Y-117868032D01*
X160099805Y-117709174D01*
X160100350Y-117570116D01*
X160100945Y-117449465D01*
X160101619Y-117345828D01*
X160102403Y-117257811D01*
X160103326Y-117184023D01*
X160104419Y-117123069D01*
X160105712Y-117073557D01*
X160107235Y-117034093D01*
X160109019Y-117003284D01*
X160111092Y-116979738D01*
X160113486Y-116962060D01*
X160116230Y-116948859D01*
X160119356Y-116938740D01*
X160122892Y-116930311D01*
X160126791Y-116922175D01*
X160146438Y-116885344D01*
X160165225Y-116855191D01*
X160166272Y-116853708D01*
X160180602Y-116831459D01*
X160186511Y-116818502D01*
X160185504Y-116818049D01*
X160168305Y-116816603D01*
X160131656Y-116815280D01*
X160077962Y-116814116D01*
X160009630Y-116813147D01*
X159929064Y-116812411D01*
X159838670Y-116811942D01*
X159740853Y-116811778D01*
X159295195Y-116811778D01*
X159292120Y-117988645D01*
X159289045Y-119165511D01*
X159262407Y-119224422D01*
X159250485Y-119248983D01*
X159233246Y-119279234D01*
X159220074Y-119296360D01*
X159212076Y-119304391D01*
X159204378Y-119319293D01*
X158912942Y-119319293D01*
X158912474Y-119226829D01*
X158912050Y-119111417D01*
X158911706Y-118980960D01*
X158911434Y-118834516D01*
X158911227Y-118671144D01*
X158911076Y-118489901D01*
X158910972Y-118289848D01*
X158910908Y-118070041D01*
X158910876Y-117829539D01*
X158910867Y-117567402D01*
X158910867Y-115375831D01*
X158949249Y-115337449D01*
X158976355Y-115313711D01*
X159003253Y-115301911D01*
X159039560Y-115299067D01*
X159091489Y-115299067D01*
X159091489Y-115387006D01*
X159093427Y-115436902D01*
X159112199Y-115547323D01*
X159149217Y-115648787D01*
X159202369Y-115739952D01*
X159269546Y-115819473D01*
X159348638Y-115886005D01*
X159437534Y-115938206D01*
X159534125Y-115974730D01*
X159636300Y-115994234D01*
X159741950Y-115995373D01*
X159848964Y-115976805D01*
X159955232Y-115937184D01*
X160052219Y-115879316D01*
X160137293Y-115804484D01*
X160206015Y-115716415D01*
X160256918Y-115617416D01*
X160288535Y-115509793D01*
X160299400Y-115395854D01*
X160299400Y-115299067D01*
X161919753Y-115299067D01*
X162130897Y-115299080D01*
X162335020Y-115299130D01*
X162518686Y-115299230D01*
X162682991Y-115299392D01*
X162829029Y-115299629D01*
X162957894Y-115299953D01*
X163070683Y-115300375D01*
X163168488Y-115300909D01*
X163252404Y-115301567D01*
X163323527Y-115302361D01*
X163382950Y-115303304D01*
X163431768Y-115304408D01*
X163471077Y-115305684D01*
X163501969Y-115307147D01*
X163525541Y-115308807D01*
X163542886Y-115310678D01*
X163555099Y-115312772D01*
X163563275Y-115315100D01*
X163568508Y-115317676D01*
X163574504Y-115321245D01*
X163581279Y-115324778D01*
X163587478Y-115328288D01*
X163593126Y-115332718D01*
X163598247Y-115339008D01*
X163602869Y-115348101D01*
X163607015Y-115360939D01*
X163610713Y-115378462D01*
X163613987Y-115401613D01*
X163616863Y-115431334D01*
X163619367Y-115468565D01*
X163621524Y-115514249D01*
X163623360Y-115569327D01*
X163624900Y-115634741D01*
X163626170Y-115711433D01*
X163627195Y-115800344D01*
X163628001Y-115902417D01*
X163628034Y-115908667D01*
X163628614Y-116018592D01*
G36*
X163628614Y-116018592D02*
G01*
X163629059Y-116149811D01*
X163629362Y-116297016D01*
X163629548Y-116461149D01*
X163629642Y-116643152D01*
X163629671Y-116843965D01*
X163629661Y-117064532D01*
X163629636Y-117305792D01*
X163629622Y-117568689D01*
X163629622Y-117610840D01*
X163629646Y-117871468D01*
X163629685Y-118110596D01*
X163629708Y-118329160D01*
X163629687Y-118528095D01*
X163629593Y-118708335D01*
X163629395Y-118870815D01*
X163629063Y-119016470D01*
X163628569Y-119146234D01*
X163627883Y-119261043D01*
X163626976Y-119361830D01*
X163625817Y-119449530D01*
X163624378Y-119525079D01*
X163622629Y-119589411D01*
X163620540Y-119643461D01*
X163618083Y-119688163D01*
X163615227Y-119724452D01*
X163611943Y-119753263D01*
X163608202Y-119775531D01*
X163603974Y-119792190D01*
X163599229Y-119804175D01*
X163593939Y-119812421D01*
X163588073Y-119817862D01*
X163581602Y-119821434D01*
X163574497Y-119824070D01*
X163566728Y-119826706D01*
X163558266Y-119830277D01*
X163553908Y-119831945D01*
X163545395Y-119833911D01*
X163532694Y-119835711D01*
X163514885Y-119837355D01*
X163491049Y-119838847D01*
X163460266Y-119840197D01*
X163421617Y-119841411D01*
X163374182Y-119842497D01*
X163317043Y-119843461D01*
X163249279Y-119844311D01*
X163169971Y-119845053D01*
X163078199Y-119845697D01*
X162973044Y-119846247D01*
X162853587Y-119846713D01*
X162718908Y-119847100D01*
X162568088Y-119847416D01*
X162400206Y-119847669D01*
X162214345Y-119847866D01*
X162009583Y-119848013D01*
X161785002Y-119848118D01*
X161539682Y-119848189D01*
X161272704Y-119848232D01*
X161234321Y-119848237D01*
X160968922Y-119848280D01*
X160725050Y-119848325D01*
X160501783Y-119848348D01*
X160298196Y-119848324D01*
X160113367Y-119848230D01*
X159946373Y-119848043D01*
X159796290Y-119847739D01*
X159662196Y-119847294D01*
X159543166Y-119846685D01*
X159438279Y-119845889D01*
X159346610Y-119844880D01*
X159267237Y-119843637D01*
X159199237Y-119842135D01*
X159141686Y-119840351D01*
X159093662Y-119838261D01*
X159054240Y-119835842D01*
X159022499Y-119833070D01*
X158997514Y-119829921D01*
X158978364Y-119826372D01*
X158964123Y-119822398D01*
X158953871Y-119817978D01*
X158946682Y-119813086D01*
X158941635Y-119807700D01*
X158937805Y-119801796D01*
X158934271Y-119795349D01*
X158930108Y-119788337D01*
X158929025Y-119786487D01*
X158926813Y-119780980D01*
X158924786Y-119772668D01*
X158922938Y-119760609D01*
X158921261Y-119743863D01*
X158919745Y-119721487D01*
X158918383Y-119692540D01*
X158917167Y-119656080D01*
X158916089Y-119611167D01*
X158915140Y-119556857D01*
X158914312Y-119492210D01*
X158913597Y-119416284D01*
X158912987Y-119328138D01*
X158912942Y-119319293D01*
X159204378Y-119319293D01*
X159208260Y-119320565D01*
X159231520Y-119322591D01*
X159273874Y-119324426D01*
X159333132Y-119326027D01*
X159407107Y-119327349D01*
X159493610Y-119328348D01*
X159590452Y-119328980D01*
X159695445Y-119329200D01*
X160393651Y-119329200D01*
X161548090Y-119329200D01*
X161547456Y-119253000D01*
X161548574Y-119210960D01*
X161554304Y-119175134D01*
X161566890Y-119137572D01*
X161588568Y-119089377D01*
X161591789Y-119082697D01*
X161617188Y-119033159D01*
X161643996Y-118985169D01*
X161666917Y-118948266D01*
X161671485Y-118941634D01*
X161693516Y-118910393D01*
X161725693Y-118865454D01*
X161766457Y-118808947D01*
X161814245Y-118743004D01*
X161867498Y-118669757D01*
X161924655Y-118591336D01*
X161984155Y-118509872D01*
X162044437Y-118427498D01*
X162103940Y-118346344D01*
X162161105Y-118268542D01*
X162214370Y-118196223D01*
X162262174Y-118131518D01*
X162302957Y-118076559D01*
X162335158Y-118033476D01*
X162357216Y-118004402D01*
X162367571Y-117991467D01*
X162372044Y-117987151D01*
X162376236Y-117985112D01*
X162379643Y-117987726D01*
X162382325Y-117996786D01*
X162384341Y-118014085D01*
X162385748Y-118041414D01*
X162386605Y-118080565D01*
X162386970Y-118133333D01*
X162386903Y-118201507D01*
X162386460Y-118286882D01*
X162385702Y-118391249D01*
X162384685Y-118516400D01*
X162384308Y-118561100D01*
X162383169Y-118682195D01*
X162381972Y-118783488D01*
X162380636Y-118867062D01*
X162379077Y-118935004D01*
X162377215Y-118989399D01*
X162374966Y-119032332D01*
X162372248Y-119065889D01*
X162368979Y-119092155D01*
X162365078Y-119113216D01*
X162360461Y-119131157D01*
X162352192Y-119157570D01*
X162328583Y-119219572D01*
X162302685Y-119272373D01*
X162277535Y-119309445D01*
X162276339Y-119310875D01*
X162274168Y-119315224D01*
X162276328Y-119318826D01*
X162284644Y-119321751D01*
X162300940Y-119324069D01*
X162327041Y-119325851D01*
X162364771Y-119327167D01*
X162415956Y-119328086D01*
X162482420Y-119328678D01*
X162565987Y-119329015D01*
X162668483Y-119329165D01*
X162791732Y-119329200D01*
X163323296Y-119329200D01*
X163284523Y-119271583D01*
X163278432Y-119262693D01*
X163267976Y-119247869D01*
X163258579Y-119234222D01*
X163250183Y-119220565D01*
X163242733Y-119205711D01*
X163236173Y-119188470D01*
X163230446Y-119167655D01*
X163225495Y-119142080D01*
X163221266Y-119110555D01*
X163217701Y-119071893D01*
X163214744Y-119024907D01*
X163212340Y-118968408D01*
X163210431Y-118901209D01*
X163208962Y-118822122D01*
X163207876Y-118729960D01*
X163207118Y-118623534D01*
X163206630Y-118501657D01*
X163206358Y-118363141D01*
X163206243Y-118206799D01*
X163206231Y-118031442D01*
X163206265Y-117835882D01*
X163206289Y-117618933D01*
X163206280Y-117496313D01*
X163206243Y-117291247D01*
X163206227Y-117106916D01*
X163206288Y-116942134D01*
X163206484Y-116795716D01*
X163206870Y-116666474D01*
X163207505Y-116553222D01*
X163208444Y-116454775D01*
X163209745Y-116369944D01*
X163211464Y-116297544D01*
X163213659Y-116236389D01*
X163216385Y-116185292D01*
X163219701Y-116143067D01*
X163223662Y-116108527D01*
X163228325Y-116080486D01*
X163233747Y-116057758D01*
X163239986Y-116039156D01*
X163247097Y-116023493D01*
X163255138Y-116009584D01*
X163264166Y-115996241D01*
X163274236Y-115982279D01*
X163285407Y-115966511D01*
X163325197Y-115908667D01*
X162265314Y-115908667D01*
X162303311Y-115971766D01*
X162317993Y-115996805D01*
X162332531Y-116024386D01*
X162344627Y-116052500D01*
X162354532Y-116083351D01*
X162362494Y-116119144D01*
X162368761Y-116162083D01*
X162373582Y-116214374D01*
X162377206Y-116278219D01*
X162379881Y-116355825D01*
X162381857Y-116449394D01*
X162383382Y-116561133D01*
X162384704Y-116693245D01*
X162385613Y-116813234D01*
X162386020Y-116929863D01*
X162385767Y-117025331D01*
X162384857Y-117099356D01*
X162383293Y-117151655D01*
X162381079Y-117181949D01*
X162378220Y-117189956D01*
X162375161Y-117186658D01*
X162357006Y-117165208D01*
X162327275Y-117128689D01*
X162287639Y-117079242D01*
X162239771Y-117019007D01*
X162185343Y-116950127D01*
X162126027Y-116874743D01*
X162063495Y-116794996D01*
X161999421Y-116713028D01*
X161935475Y-116630980D01*
X161873331Y-116550994D01*
X161814661Y-116475211D01*
X161761137Y-116405773D01*
X161714430Y-116344821D01*
X161676214Y-116294496D01*
X161648161Y-116256940D01*
X161631943Y-116234295D01*
X161586635Y-116162012D01*
X161546661Y-116082263D01*
X161525130Y-116013988D01*
X161521827Y-115956644D01*
X161527116Y-115908667D01*
X160395356Y-115908917D01*
X160434867Y-115939522D01*
X160444248Y-115946889D01*
X160507183Y-116001238D01*
X160575997Y-116069059D01*
X160652596Y-116152316D01*
X160738888Y-116252978D01*
X160756052Y-116273647D01*
X160796833Y-116323209D01*
X160846588Y-116384126D01*
X160903955Y-116454698D01*
X160967569Y-116533224D01*
X161036069Y-116618004D01*
X161108090Y-116707337D01*
X161182270Y-116799522D01*
X161197517Y-116818502D01*
X161257246Y-116892860D01*
X161331653Y-116985648D01*
X161404131Y-117076188D01*
X161473314Y-117162778D01*
X161537841Y-117243718D01*
X161596347Y-117317306D01*
X161647470Y-117381844D01*
X161689847Y-117435629D01*
X161722115Y-117476962D01*
X161742910Y-117504142D01*
X161750869Y-117515468D01*
X161749111Y-117519571D01*
X161736230Y-117540134D01*
X161711885Y-117576361D01*
X161677247Y-117626624D01*
X161633486Y-117689292D01*
X161581775Y-117762736D01*
X161523284Y-117845327D01*
X161459184Y-117935436D01*
X161390646Y-118031431D01*
X161318843Y-118131685D01*
X161244944Y-118234568D01*
X161170121Y-118338450D01*
X161095545Y-118441701D01*
X161022387Y-118542692D01*
X160951819Y-118639794D01*
X160885011Y-118731377D01*
X160823135Y-118815811D01*
X160767361Y-118891467D01*
X160718862Y-118956716D01*
X160678807Y-119009928D01*
X160648369Y-119049473D01*
X160627944Y-119074826D01*
X160581899Y-119129095D01*
X160531612Y-119185575D01*
X160484815Y-119235469D01*
X160393651Y-119329200D01*
X159695445Y-119329200D01*
X159764356Y-119329149D01*
X159862607Y-119328891D01*
X159952030Y-119328437D01*
X160030333Y-119327810D01*
X160095223Y-119327035D01*
X160144411Y-119326135D01*
X160175604Y-119325134D01*
X160186511Y-119324057D01*
X160185322Y-119320837D01*
X160175176Y-119303252D01*
X160158040Y-119276958D01*
X160149540Y-119264491D01*
X160140329Y-119250422D01*
X160132233Y-119236151D01*
X160125185Y-119220279D01*
X160119117Y-119201409D01*
X160113961Y-119178141D01*
X160109651Y-119149078D01*
X160106119Y-119112821D01*
X160103297Y-119067970D01*
X160101118Y-119013128D01*
X160099514Y-118946897D01*
X160098419Y-118867877D01*
X160097765Y-118774671D01*
X160097484Y-118665879D01*
X160097509Y-118540103D01*
X160097772Y-118395945D01*
X160098206Y-118232007D01*
X160098745Y-118046889D01*
X160099279Y-117868032D01*
X160099805Y-117709174D01*
X160100350Y-117570116D01*
X160100945Y-117449465D01*
X160101619Y-117345828D01*
X160102403Y-117257811D01*
X160103326Y-117184023D01*
X160104419Y-117123069D01*
X160105712Y-117073557D01*
X160107235Y-117034093D01*
X160109019Y-117003284D01*
X160111092Y-116979738D01*
X160113486Y-116962060D01*
X160116230Y-116948859D01*
X160119356Y-116938740D01*
X160122892Y-116930311D01*
X160126791Y-116922175D01*
X160146438Y-116885344D01*
X160165225Y-116855191D01*
X160166272Y-116853708D01*
X160180602Y-116831459D01*
X160186511Y-116818502D01*
X160185504Y-116818049D01*
X160168305Y-116816603D01*
X160131656Y-116815280D01*
X160077962Y-116814116D01*
X160009630Y-116813147D01*
X159929064Y-116812411D01*
X159838670Y-116811942D01*
X159740853Y-116811778D01*
X159295195Y-116811778D01*
X159292120Y-117988645D01*
X159289045Y-119165511D01*
X159262407Y-119224422D01*
X159250485Y-119248983D01*
X159233246Y-119279234D01*
X159220074Y-119296360D01*
X159212076Y-119304391D01*
X159204378Y-119319293D01*
X158912942Y-119319293D01*
X158912474Y-119226829D01*
X158912050Y-119111417D01*
X158911706Y-118980960D01*
X158911434Y-118834516D01*
X158911227Y-118671144D01*
X158911076Y-118489901D01*
X158910972Y-118289848D01*
X158910908Y-118070041D01*
X158910876Y-117829539D01*
X158910867Y-117567402D01*
X158910867Y-115375831D01*
X158949249Y-115337449D01*
X158976355Y-115313711D01*
X159003253Y-115301911D01*
X159039560Y-115299067D01*
X159091489Y-115299067D01*
X159091489Y-115387006D01*
X159093427Y-115436902D01*
X159112199Y-115547323D01*
X159149217Y-115648787D01*
X159202369Y-115739952D01*
X159269546Y-115819473D01*
X159348638Y-115886005D01*
X159437534Y-115938206D01*
X159534125Y-115974730D01*
X159636300Y-115994234D01*
X159741950Y-115995373D01*
X159848964Y-115976805D01*
X159955232Y-115937184D01*
X160052219Y-115879316D01*
X160137293Y-115804484D01*
X160206015Y-115716415D01*
X160256918Y-115617416D01*
X160288535Y-115509793D01*
X160299400Y-115395854D01*
X160299400Y-115299067D01*
X161919753Y-115299067D01*
X162130897Y-115299080D01*
X162335020Y-115299130D01*
X162518686Y-115299230D01*
X162682991Y-115299392D01*
X162829029Y-115299629D01*
X162957894Y-115299953D01*
X163070683Y-115300375D01*
X163168488Y-115300909D01*
X163252404Y-115301567D01*
X163323527Y-115302361D01*
X163382950Y-115303304D01*
X163431768Y-115304408D01*
X163471077Y-115305684D01*
X163501969Y-115307147D01*
X163525541Y-115308807D01*
X163542886Y-115310678D01*
X163555099Y-115312772D01*
X163563275Y-115315100D01*
X163568508Y-115317676D01*
X163574504Y-115321245D01*
X163581279Y-115324778D01*
X163587478Y-115328288D01*
X163593126Y-115332718D01*
X163598247Y-115339008D01*
X163602869Y-115348101D01*
X163607015Y-115360939D01*
X163610713Y-115378462D01*
X163613987Y-115401613D01*
X163616863Y-115431334D01*
X163619367Y-115468565D01*
X163621524Y-115514249D01*
X163623360Y-115569327D01*
X163624900Y-115634741D01*
X163626170Y-115711433D01*
X163627195Y-115800344D01*
X163628001Y-115902417D01*
X163628034Y-115908667D01*
X163628614Y-116018592D01*
G37*
%TO.C,FID1*%
X130113901Y-109077876D02*
X130194567Y-109107840D01*
X130228114Y-109130354D01*
X130262087Y-109162612D01*
X130286319Y-109203646D01*
X130302401Y-109259508D01*
X130311921Y-109336251D01*
X130316468Y-109439925D01*
X130317631Y-109576584D01*
X130317403Y-109647205D01*
X130316260Y-109743708D01*
X130314319Y-109820723D01*
X130311765Y-109871719D01*
X130308781Y-109890169D01*
X130289362Y-109884067D01*
X130250166Y-109867495D01*
X130248989Y-109866958D01*
X130228635Y-109856303D01*
X130214946Y-109841682D01*
X130206599Y-109816073D01*
X130202274Y-109772454D01*
X130200648Y-109703803D01*
X130200400Y-109603098D01*
X130199900Y-109539213D01*
X130194564Y-109419151D01*
X130182345Y-109331209D01*
X130161952Y-109270775D01*
X130132095Y-109233236D01*
X130091482Y-109213981D01*
X130085848Y-109212639D01*
X130009778Y-109211591D01*
X129950452Y-109245671D01*
X129909477Y-109313998D01*
X129902170Y-109333751D01*
X129885514Y-109377466D01*
X129877079Y-109397555D01*
X129859756Y-109394787D01*
X129821925Y-109379765D01*
X129786640Y-109354956D01*
X129770554Y-109308070D01*
X129775352Y-109274487D01*
X129804831Y-109206367D01*
X129852498Y-109142534D01*
X129908239Y-109098388D01*
X129931593Y-109088182D01*
X130020019Y-109071118D01*
X130113901Y-109077876D01*
G36*
X130113901Y-109077876D02*
G01*
X130194567Y-109107840D01*
X130228114Y-109130354D01*
X130262087Y-109162612D01*
X130286319Y-109203646D01*
X130302401Y-109259508D01*
X130311921Y-109336251D01*
X130316468Y-109439925D01*
X130317631Y-109576584D01*
X130317403Y-109647205D01*
X130316260Y-109743708D01*
X130314319Y-109820723D01*
X130311765Y-109871719D01*
X130308781Y-109890169D01*
X130289362Y-109884067D01*
X130250166Y-109867495D01*
X130248989Y-109866958D01*
X130228635Y-109856303D01*
X130214946Y-109841682D01*
X130206599Y-109816073D01*
X130202274Y-109772454D01*
X130200648Y-109703803D01*
X130200400Y-109603098D01*
X130199900Y-109539213D01*
X130194564Y-109419151D01*
X130182345Y-109331209D01*
X130161952Y-109270775D01*
X130132095Y-109233236D01*
X130091482Y-109213981D01*
X130085848Y-109212639D01*
X130009778Y-109211591D01*
X129950452Y-109245671D01*
X129909477Y-109313998D01*
X129902170Y-109333751D01*
X129885514Y-109377466D01*
X129877079Y-109397555D01*
X129859756Y-109394787D01*
X129821925Y-109379765D01*
X129786640Y-109354956D01*
X129770554Y-109308070D01*
X129775352Y-109274487D01*
X129804831Y-109206367D01*
X129852498Y-109142534D01*
X129908239Y-109098388D01*
X129931593Y-109088182D01*
X130020019Y-109071118D01*
X130113901Y-109077876D01*
G37*
X135428772Y-109033084D02*
X135520029Y-109075969D01*
X135594816Y-109150129D01*
X135610317Y-109173344D01*
X135623174Y-109199656D01*
X135632293Y-109232820D01*
X135638502Y-109279281D01*
X135642633Y-109345482D01*
X135645516Y-109437868D01*
X135647979Y-109562885D01*
X135654097Y-109909678D01*
X135602703Y-109890138D01*
X135555646Y-109872187D01*
X135520415Y-109854911D01*
X135497417Y-109832642D01*
X135484055Y-109798565D01*
X135477728Y-109745863D01*
X135475837Y-109667723D01*
X135475785Y-109557328D01*
X135475517Y-109469335D01*
X135473921Y-109384902D01*
X135470112Y-109327234D01*
X135463220Y-109289388D01*
X135452375Y-109264424D01*
X135436708Y-109245400D01*
X135398192Y-109218553D01*
X135333491Y-109208434D01*
X135269481Y-109234006D01*
X135265256Y-109237280D01*
X135252089Y-109252407D01*
X135242375Y-109276668D01*
X135235303Y-109316050D01*
X135230056Y-109376541D01*
X135225821Y-109464129D01*
X135221785Y-109584802D01*
X135212015Y-109907915D01*
X135045939Y-109833465D01*
X135045939Y-109538462D01*
X135046283Y-109458319D01*
X135049247Y-109346831D01*
X135056751Y-109263821D01*
X135070590Y-109202599D01*
X135092555Y-109156475D01*
X135124439Y-109118758D01*
X135168033Y-109082758D01*
X135230736Y-109046489D01*
X135329517Y-109022812D01*
X135428772Y-109033084D01*
G36*
X135428772Y-109033084D02*
G01*
X135520029Y-109075969D01*
X135594816Y-109150129D01*
X135610317Y-109173344D01*
X135623174Y-109199656D01*
X135632293Y-109232820D01*
X135638502Y-109279281D01*
X135642633Y-109345482D01*
X135645516Y-109437868D01*
X135647979Y-109562885D01*
X135654097Y-109909678D01*
X135602703Y-109890138D01*
X135555646Y-109872187D01*
X135520415Y-109854911D01*
X135497417Y-109832642D01*
X135484055Y-109798565D01*
X135477728Y-109745863D01*
X135475837Y-109667723D01*
X135475785Y-109557328D01*
X135475517Y-109469335D01*
X135473921Y-109384902D01*
X135470112Y-109327234D01*
X135463220Y-109289388D01*
X135452375Y-109264424D01*
X135436708Y-109245400D01*
X135398192Y-109218553D01*
X135333491Y-109208434D01*
X135269481Y-109234006D01*
X135265256Y-109237280D01*
X135252089Y-109252407D01*
X135242375Y-109276668D01*
X135235303Y-109316050D01*
X135230056Y-109376541D01*
X135225821Y-109464129D01*
X135221785Y-109584802D01*
X135212015Y-109907915D01*
X135045939Y-109833465D01*
X135045939Y-109538462D01*
X135046283Y-109458319D01*
X135049247Y-109346831D01*
X135056751Y-109263821D01*
X135070590Y-109202599D01*
X135092555Y-109156475D01*
X135124439Y-109118758D01*
X135168033Y-109082758D01*
X135230736Y-109046489D01*
X135329517Y-109022812D01*
X135428772Y-109033084D01*
G37*
X132974292Y-109098567D02*
X132980460Y-109101981D01*
X133030847Y-109141092D01*
X133075898Y-109191375D01*
X133083755Y-109202739D01*
X133098776Y-109229260D01*
X133109507Y-109260736D01*
X133116886Y-109303991D01*
X133121852Y-109365849D01*
X133125342Y-109453133D01*
X133128293Y-109572669D01*
X133128711Y-109592878D01*
X133130054Y-109723899D01*
X133128161Y-109816696D01*
X133123005Y-109871907D01*
X133114558Y-109890169D01*
X133088994Y-109884701D01*
X133045566Y-109868133D01*
X133035340Y-109863288D01*
X133019367Y-109852320D01*
X133008354Y-109834290D01*
X133001150Y-109802796D01*
X132996608Y-109751436D01*
X132993580Y-109673810D01*
X132990916Y-109563515D01*
X132990185Y-109531275D01*
X132987365Y-109429450D01*
X132983704Y-109358188D01*
X132978094Y-109310732D01*
X132969429Y-109280325D01*
X132956602Y-109260210D01*
X132938505Y-109243629D01*
X132884925Y-109214561D01*
X132819012Y-109208964D01*
X132760035Y-109231207D01*
X132717603Y-109277259D01*
X132701323Y-109343092D01*
X132700870Y-109360987D01*
X132691978Y-109393382D01*
X132665725Y-109398325D01*
X132614319Y-109379033D01*
X132602413Y-109372846D01*
X132570235Y-109336458D01*
X132569598Y-109282354D01*
X132600256Y-109207528D01*
X132628378Y-109166750D01*
X132700283Y-109108821D01*
X132789038Y-109076070D01*
X132883942Y-109071612D01*
X132974292Y-109098567D01*
G36*
X132974292Y-109098567D02*
G01*
X132980460Y-109101981D01*
X133030847Y-109141092D01*
X133075898Y-109191375D01*
X133083755Y-109202739D01*
X133098776Y-109229260D01*
X133109507Y-109260736D01*
X133116886Y-109303991D01*
X133121852Y-109365849D01*
X133125342Y-109453133D01*
X133128293Y-109572669D01*
X133128711Y-109592878D01*
X133130054Y-109723899D01*
X133128161Y-109816696D01*
X133123005Y-109871907D01*
X133114558Y-109890169D01*
X133088994Y-109884701D01*
X133045566Y-109868133D01*
X133035340Y-109863288D01*
X133019367Y-109852320D01*
X133008354Y-109834290D01*
X133001150Y-109802796D01*
X132996608Y-109751436D01*
X132993580Y-109673810D01*
X132990916Y-109563515D01*
X132990185Y-109531275D01*
X132987365Y-109429450D01*
X132983704Y-109358188D01*
X132978094Y-109310732D01*
X132969429Y-109280325D01*
X132956602Y-109260210D01*
X132938505Y-109243629D01*
X132884925Y-109214561D01*
X132819012Y-109208964D01*
X132760035Y-109231207D01*
X132717603Y-109277259D01*
X132701323Y-109343092D01*
X132700870Y-109360987D01*
X132691978Y-109393382D01*
X132665725Y-109398325D01*
X132614319Y-109379033D01*
X132602413Y-109372846D01*
X132570235Y-109336458D01*
X132569598Y-109282354D01*
X132600256Y-109207528D01*
X132628378Y-109166750D01*
X132700283Y-109108821D01*
X132789038Y-109076070D01*
X132883942Y-109071612D01*
X132974292Y-109098567D01*
G37*
X134479323Y-108833206D02*
X134479323Y-109367855D01*
X134479060Y-109506494D01*
X134478358Y-109631205D01*
X134477283Y-109736957D01*
X134475900Y-109818722D01*
X134474274Y-109871469D01*
X134472470Y-109890169D01*
X134471764Y-109890106D01*
X134447787Y-109883312D01*
X134404085Y-109868720D01*
X134342554Y-109847270D01*
X134342554Y-109572017D01*
X134342163Y-109463866D01*
X134340346Y-109385426D01*
X134336167Y-109332047D01*
X134328686Y-109296656D01*
X134316967Y-109272179D01*
X134300071Y-109251544D01*
X134288552Y-109240570D01*
X134226264Y-109210175D01*
X134157611Y-109212866D01*
X134094698Y-109248806D01*
X134085539Y-109257725D01*
X134070871Y-109276244D01*
X134060833Y-109300726D01*
X134054551Y-109337793D01*
X134051148Y-109394067D01*
X134049749Y-109476171D01*
X134049477Y-109590729D01*
X134049347Y-109648830D01*
X134048499Y-109744393D01*
X134046994Y-109820926D01*
X134044985Y-109871745D01*
X134042623Y-109890169D01*
X134041918Y-109890106D01*
X134017941Y-109883312D01*
X133974239Y-109868720D01*
X133912708Y-109847270D01*
X133912738Y-109570758D01*
X133912784Y-109546142D01*
X133915370Y-109417819D01*
X133923313Y-109320784D01*
X133938555Y-109248457D01*
X133963036Y-109194255D01*
X133998698Y-109151598D01*
X134047482Y-109113905D01*
X134095061Y-109090310D01*
X134171132Y-109072072D01*
X134245956Y-109071036D01*
X134303477Y-109088778D01*
X134307802Y-109091229D01*
X134321138Y-109090966D01*
X134330251Y-109070439D01*
X134336828Y-109023380D01*
X134342554Y-108943520D01*
X134352323Y-108779636D01*
X134479323Y-108833206D01*
G36*
X134479323Y-108833206D02*
G01*
X134479323Y-109367855D01*
X134479060Y-109506494D01*
X134478358Y-109631205D01*
X134477283Y-109736957D01*
X134475900Y-109818722D01*
X134474274Y-109871469D01*
X134472470Y-109890169D01*
X134471764Y-109890106D01*
X134447787Y-109883312D01*
X134404085Y-109868720D01*
X134342554Y-109847270D01*
X134342554Y-109572017D01*
X134342163Y-109463866D01*
X134340346Y-109385426D01*
X134336167Y-109332047D01*
X134328686Y-109296656D01*
X134316967Y-109272179D01*
X134300071Y-109251544D01*
X134288552Y-109240570D01*
X134226264Y-109210175D01*
X134157611Y-109212866D01*
X134094698Y-109248806D01*
X134085539Y-109257725D01*
X134070871Y-109276244D01*
X134060833Y-109300726D01*
X134054551Y-109337793D01*
X134051148Y-109394067D01*
X134049749Y-109476171D01*
X134049477Y-109590729D01*
X134049347Y-109648830D01*
X134048499Y-109744393D01*
X134046994Y-109820926D01*
X134044985Y-109871745D01*
X134042623Y-109890169D01*
X134041918Y-109890106D01*
X134017941Y-109883312D01*
X133974239Y-109868720D01*
X133912708Y-109847270D01*
X133912738Y-109570758D01*
X133912784Y-109546142D01*
X133915370Y-109417819D01*
X133923313Y-109320784D01*
X133938555Y-109248457D01*
X133963036Y-109194255D01*
X133998698Y-109151598D01*
X134047482Y-109113905D01*
X134095061Y-109090310D01*
X134171132Y-109072072D01*
X134245956Y-109071036D01*
X134303477Y-109088778D01*
X134307802Y-109091229D01*
X134321138Y-109090966D01*
X134330251Y-109070439D01*
X134336828Y-109023380D01*
X134342554Y-108943520D01*
X134352323Y-108779636D01*
X134479323Y-108833206D01*
G37*
X131690398Y-109075434D02*
X131733250Y-109092229D01*
X131783015Y-109114903D01*
X131783015Y-109769933D01*
X131721185Y-109831763D01*
X131707062Y-109845628D01*
X131667936Y-109876446D01*
X131628478Y-109886428D01*
X131569762Y-109881833D01*
X131545856Y-109878862D01*
X131484201Y-109872576D01*
X131441092Y-109870072D01*
X131428305Y-109870455D01*
X131375846Y-109874600D01*
X131312422Y-109881833D01*
X131292130Y-109884318D01*
X131241010Y-109885295D01*
X131203607Y-109869862D01*
X131160999Y-109831763D01*
X131099169Y-109769933D01*
X131099169Y-109419743D01*
X131099651Y-109316257D01*
X131101153Y-109217592D01*
X131103489Y-109139468D01*
X131106471Y-109088062D01*
X131109909Y-109069554D01*
X131110630Y-109069604D01*
X131135603Y-109078813D01*
X131177799Y-109099107D01*
X131234949Y-109128661D01*
X131240328Y-109436146D01*
X131245708Y-109743631D01*
X131362939Y-109743631D01*
X131368285Y-109406592D01*
X131369979Y-109314974D01*
X131372405Y-109217049D01*
X131375034Y-109139306D01*
X131377646Y-109088042D01*
X131380023Y-109069554D01*
X131380706Y-109069619D01*
X131404396Y-109076420D01*
X131447946Y-109091004D01*
X131509477Y-109112454D01*
X131509776Y-109408504D01*
X131510076Y-109459932D01*
X131512154Y-109559866D01*
X131515870Y-109643325D01*
X131520830Y-109702777D01*
X131526640Y-109730687D01*
X131547424Y-109745614D01*
X131589840Y-109750225D01*
X131636477Y-109743631D01*
X131641823Y-109406592D01*
X131643736Y-109320946D01*
X131647703Y-109219572D01*
X131652891Y-109140055D01*
X131658899Y-109088136D01*
X131665327Y-109069554D01*
X131690398Y-109075434D01*
G36*
X131690398Y-109075434D02*
G01*
X131733250Y-109092229D01*
X131783015Y-109114903D01*
X131783015Y-109769933D01*
X131721185Y-109831763D01*
X131707062Y-109845628D01*
X131667936Y-109876446D01*
X131628478Y-109886428D01*
X131569762Y-109881833D01*
X131545856Y-109878862D01*
X131484201Y-109872576D01*
X131441092Y-109870072D01*
X131428305Y-109870455D01*
X131375846Y-109874600D01*
X131312422Y-109881833D01*
X131292130Y-109884318D01*
X131241010Y-109885295D01*
X131203607Y-109869862D01*
X131160999Y-109831763D01*
X131099169Y-109769933D01*
X131099169Y-109419743D01*
X131099651Y-109316257D01*
X131101153Y-109217592D01*
X131103489Y-109139468D01*
X131106471Y-109088062D01*
X131109909Y-109069554D01*
X131110630Y-109069604D01*
X131135603Y-109078813D01*
X131177799Y-109099107D01*
X131234949Y-109128661D01*
X131240328Y-109436146D01*
X131245708Y-109743631D01*
X131362939Y-109743631D01*
X131368285Y-109406592D01*
X131369979Y-109314974D01*
X131372405Y-109217049D01*
X131375034Y-109139306D01*
X131377646Y-109088042D01*
X131380023Y-109069554D01*
X131380706Y-109069619D01*
X131404396Y-109076420D01*
X131447946Y-109091004D01*
X131509477Y-109112454D01*
X131509776Y-109408504D01*
X131510076Y-109459932D01*
X131512154Y-109559866D01*
X131515870Y-109643325D01*
X131520830Y-109702777D01*
X131526640Y-109730687D01*
X131547424Y-109745614D01*
X131589840Y-109750225D01*
X131636477Y-109743631D01*
X131641823Y-109406592D01*
X131643736Y-109320946D01*
X131647703Y-109219572D01*
X131652891Y-109140055D01*
X131658899Y-109088136D01*
X131665327Y-109069554D01*
X131690398Y-109075434D01*
G37*
X137898554Y-109460323D02*
X137898535Y-109481505D01*
X137897476Y-109575984D01*
X137893836Y-109641814D01*
X137886292Y-109687794D01*
X137873522Y-109722721D01*
X137854203Y-109755395D01*
X137849450Y-109762175D01*
X137799159Y-109815631D01*
X137741857Y-109855947D01*
X137712432Y-109869029D01*
X137606699Y-109890850D01*
X137502134Y-109876736D01*
X137405768Y-109828505D01*
X137324635Y-109747979D01*
X137317785Y-109737191D01*
X137295497Y-109674553D01*
X137280479Y-109587335D01*
X137273192Y-109486610D01*
X137274011Y-109393437D01*
X137471196Y-109393437D01*
X137472749Y-109522514D01*
X137473374Y-109530820D01*
X137482477Y-109602043D01*
X137498688Y-109647209D01*
X137526060Y-109678152D01*
X137571953Y-109707137D01*
X137617342Y-109708661D01*
X137664092Y-109675246D01*
X137672224Y-109666453D01*
X137688154Y-109640141D01*
X137697559Y-109601920D01*
X137702032Y-109542749D01*
X137703169Y-109453582D01*
X137701222Y-109370064D01*
X137691505Y-109290495D01*
X137671447Y-109240208D01*
X137638640Y-109213913D01*
X137590680Y-109206323D01*
X137572416Y-109207832D01*
X137521248Y-109235507D01*
X137487435Y-109297572D01*
X137471196Y-109393437D01*
X137274011Y-109393437D01*
X137274099Y-109383452D01*
X137283662Y-109288933D01*
X137302343Y-109214127D01*
X137326351Y-109164305D01*
X137393936Y-109086809D01*
X137485514Y-109038656D01*
X137597613Y-109022103D01*
X137627551Y-109022999D01*
X137715715Y-109041329D01*
X137788133Y-109087504D01*
X137854592Y-109167048D01*
X137858547Y-109172948D01*
X137876440Y-109204688D01*
X137888078Y-109240563D01*
X137894771Y-109289306D01*
X137897826Y-109359649D01*
X137898506Y-109453582D01*
X137898554Y-109460323D01*
G36*
X137898554Y-109460323D02*
G01*
X137898535Y-109481505D01*
X137897476Y-109575984D01*
X137893836Y-109641814D01*
X137886292Y-109687794D01*
X137873522Y-109722721D01*
X137854203Y-109755395D01*
X137849450Y-109762175D01*
X137799159Y-109815631D01*
X137741857Y-109855947D01*
X137712432Y-109869029D01*
X137606699Y-109890850D01*
X137502134Y-109876736D01*
X137405768Y-109828505D01*
X137324635Y-109747979D01*
X137317785Y-109737191D01*
X137295497Y-109674553D01*
X137280479Y-109587335D01*
X137273192Y-109486610D01*
X137274011Y-109393437D01*
X137471196Y-109393437D01*
X137472749Y-109522514D01*
X137473374Y-109530820D01*
X137482477Y-109602043D01*
X137498688Y-109647209D01*
X137526060Y-109678152D01*
X137571953Y-109707137D01*
X137617342Y-109708661D01*
X137664092Y-109675246D01*
X137672224Y-109666453D01*
X137688154Y-109640141D01*
X137697559Y-109601920D01*
X137702032Y-109542749D01*
X137703169Y-109453582D01*
X137701222Y-109370064D01*
X137691505Y-109290495D01*
X137671447Y-109240208D01*
X137638640Y-109213913D01*
X137590680Y-109206323D01*
X137572416Y-109207832D01*
X137521248Y-109235507D01*
X137487435Y-109297572D01*
X137471196Y-109393437D01*
X137274011Y-109393437D01*
X137274099Y-109383452D01*
X137283662Y-109288933D01*
X137302343Y-109214127D01*
X137326351Y-109164305D01*
X137393936Y-109086809D01*
X137485514Y-109038656D01*
X137597613Y-109022103D01*
X137627551Y-109022999D01*
X137715715Y-109041329D01*
X137788133Y-109087504D01*
X137854592Y-109167048D01*
X137858547Y-109172948D01*
X137876440Y-109204688D01*
X137888078Y-109240563D01*
X137894771Y-109289306D01*
X137897826Y-109359649D01*
X137898506Y-109453582D01*
X137898554Y-109460323D01*
G37*
X129653194Y-109483776D02*
X129652813Y-109535849D01*
X129648041Y-109638447D01*
X129635550Y-109713526D01*
X129612521Y-109769148D01*
X129576132Y-109813375D01*
X129523562Y-109854269D01*
X129490114Y-109872866D01*
X129436498Y-109885391D01*
X129361180Y-109884403D01*
X129319072Y-109880435D01*
X129268279Y-109868320D01*
X129227680Y-109841985D01*
X129180449Y-109792914D01*
X129174138Y-109785746D01*
X129131677Y-109730589D01*
X129111418Y-109682550D01*
X129106246Y-109625584D01*
X129106246Y-109541871D01*
X129164746Y-109563952D01*
X129207394Y-109589764D01*
X129244464Y-109650328D01*
X129252203Y-109669720D01*
X129295474Y-109724635D01*
X129354376Y-109752279D01*
X129418511Y-109749793D01*
X129477477Y-109714323D01*
X129497742Y-109692205D01*
X129516120Y-109658836D01*
X129510371Y-109628517D01*
X129477287Y-109597313D01*
X129413661Y-109561287D01*
X129316285Y-109516503D01*
X129116015Y-109428845D01*
X129110701Y-109342007D01*
X129112699Y-109286696D01*
X129243183Y-109286696D01*
X129253088Y-109320938D01*
X129298156Y-109357496D01*
X129379957Y-109399092D01*
X129393492Y-109405118D01*
X129458218Y-109433153D01*
X129506647Y-109452872D01*
X129529151Y-109460323D01*
X129532561Y-109454838D01*
X129533929Y-109421348D01*
X129529051Y-109367516D01*
X129516764Y-109314873D01*
X129478441Y-109248551D01*
X129423120Y-109211180D01*
X129357040Y-109206121D01*
X129286440Y-109236739D01*
X129266874Y-109252048D01*
X129243183Y-109286696D01*
X129112699Y-109286696D01*
X129113047Y-109277063D01*
X129142586Y-109194990D01*
X129179872Y-109149761D01*
X129257176Y-109099238D01*
X129348878Y-109073716D01*
X129443674Y-109075736D01*
X129530259Y-109107840D01*
X129549320Y-109120167D01*
X129593040Y-109158312D01*
X129622940Y-109206567D01*
X129641368Y-109272110D01*
X129650670Y-109362120D01*
X129651899Y-109421348D01*
X129653194Y-109483776D01*
G36*
X129653194Y-109483776D02*
G01*
X129652813Y-109535849D01*
X129648041Y-109638447D01*
X129635550Y-109713526D01*
X129612521Y-109769148D01*
X129576132Y-109813375D01*
X129523562Y-109854269D01*
X129490114Y-109872866D01*
X129436498Y-109885391D01*
X129361180Y-109884403D01*
X129319072Y-109880435D01*
X129268279Y-109868320D01*
X129227680Y-109841985D01*
X129180449Y-109792914D01*
X129174138Y-109785746D01*
X129131677Y-109730589D01*
X129111418Y-109682550D01*
X129106246Y-109625584D01*
X129106246Y-109541871D01*
X129164746Y-109563952D01*
X129207394Y-109589764D01*
X129244464Y-109650328D01*
X129252203Y-109669720D01*
X129295474Y-109724635D01*
X129354376Y-109752279D01*
X129418511Y-109749793D01*
X129477477Y-109714323D01*
X129497742Y-109692205D01*
X129516120Y-109658836D01*
X129510371Y-109628517D01*
X129477287Y-109597313D01*
X129413661Y-109561287D01*
X129316285Y-109516503D01*
X129116015Y-109428845D01*
X129110701Y-109342007D01*
X129112699Y-109286696D01*
X129243183Y-109286696D01*
X129253088Y-109320938D01*
X129298156Y-109357496D01*
X129379957Y-109399092D01*
X129393492Y-109405118D01*
X129458218Y-109433153D01*
X129506647Y-109452872D01*
X129529151Y-109460323D01*
X129532561Y-109454838D01*
X129533929Y-109421348D01*
X129529051Y-109367516D01*
X129516764Y-109314873D01*
X129478441Y-109248551D01*
X129423120Y-109211180D01*
X129357040Y-109206121D01*
X129286440Y-109236739D01*
X129266874Y-109252048D01*
X129243183Y-109286696D01*
X129112699Y-109286696D01*
X129113047Y-109277063D01*
X129142586Y-109194990D01*
X129179872Y-109149761D01*
X129257176Y-109099238D01*
X129348878Y-109073716D01*
X129443674Y-109075736D01*
X129530259Y-109107840D01*
X129549320Y-109120167D01*
X129593040Y-109158312D01*
X129622940Y-109206567D01*
X129641368Y-109272110D01*
X129650670Y-109362120D01*
X129651899Y-109421348D01*
X129653194Y-109483776D01*
G37*
X132466801Y-109479862D02*
X132465239Y-109556052D01*
X132454210Y-109659907D01*
X132430214Y-109737733D01*
X132390443Y-109797160D01*
X132332088Y-109845818D01*
X132276500Y-109873946D01*
X132183151Y-109889599D01*
X132089930Y-109872484D01*
X132005672Y-109824788D01*
X131939218Y-109748694D01*
X131931193Y-109734662D01*
X131920596Y-109710079D01*
X131912735Y-109678709D01*
X131907207Y-109635169D01*
X131903606Y-109574078D01*
X131901528Y-109490055D01*
X131901464Y-109482600D01*
X132037015Y-109482600D01*
X132037477Y-109553716D01*
X132040399Y-109618041D01*
X132047621Y-109659566D01*
X132060961Y-109687467D01*
X132082236Y-109710917D01*
X132087221Y-109715425D01*
X132151263Y-109748695D01*
X132219025Y-109745290D01*
X132282134Y-109705442D01*
X132300926Y-109684798D01*
X132316654Y-109657429D01*
X132325439Y-109619592D01*
X132329259Y-109561755D01*
X132330092Y-109474386D01*
X132329681Y-109407719D01*
X132326834Y-109342645D01*
X132319656Y-109300651D01*
X132306289Y-109272463D01*
X132284872Y-109248806D01*
X132272290Y-109238153D01*
X132207099Y-109209457D01*
X132138800Y-109213975D01*
X132079498Y-109251544D01*
X132066733Y-109266440D01*
X132051164Y-109294489D01*
X132042162Y-109333658D01*
X132038017Y-109393258D01*
X132037015Y-109482600D01*
X131901464Y-109482600D01*
X131900567Y-109377720D01*
X131900319Y-109231689D01*
X131900246Y-108778363D01*
X131963746Y-108804964D01*
X131980536Y-108812245D01*
X132007259Y-108828687D01*
X132022556Y-108853587D01*
X132030963Y-108897132D01*
X132037015Y-108969506D01*
X132042544Y-109034489D01*
X132049850Y-109077150D01*
X132060318Y-109093070D01*
X132076092Y-109088800D01*
X132116290Y-109073797D01*
X132188128Y-109070078D01*
X132265410Y-109083972D01*
X132332088Y-109113905D01*
X132368771Y-109141611D01*
X132415872Y-109195669D01*
X132446038Y-109264977D01*
X132462078Y-109357165D01*
X132466591Y-109474386D01*
X132466801Y-109479862D01*
G36*
X132466801Y-109479862D02*
G01*
X132465239Y-109556052D01*
X132454210Y-109659907D01*
X132430214Y-109737733D01*
X132390443Y-109797160D01*
X132332088Y-109845818D01*
X132276500Y-109873946D01*
X132183151Y-109889599D01*
X132089930Y-109872484D01*
X132005672Y-109824788D01*
X131939218Y-109748694D01*
X131931193Y-109734662D01*
X131920596Y-109710079D01*
X131912735Y-109678709D01*
X131907207Y-109635169D01*
X131903606Y-109574078D01*
X131901528Y-109490055D01*
X131901464Y-109482600D01*
X132037015Y-109482600D01*
X132037477Y-109553716D01*
X132040399Y-109618041D01*
X132047621Y-109659566D01*
X132060961Y-109687467D01*
X132082236Y-109710917D01*
X132087221Y-109715425D01*
X132151263Y-109748695D01*
X132219025Y-109745290D01*
X132282134Y-109705442D01*
X132300926Y-109684798D01*
X132316654Y-109657429D01*
X132325439Y-109619592D01*
X132329259Y-109561755D01*
X132330092Y-109474386D01*
X132329681Y-109407719D01*
X132326834Y-109342645D01*
X132319656Y-109300651D01*
X132306289Y-109272463D01*
X132284872Y-109248806D01*
X132272290Y-109238153D01*
X132207099Y-109209457D01*
X132138800Y-109213975D01*
X132079498Y-109251544D01*
X132066733Y-109266440D01*
X132051164Y-109294489D01*
X132042162Y-109333658D01*
X132038017Y-109393258D01*
X132037015Y-109482600D01*
X131901464Y-109482600D01*
X131900567Y-109377720D01*
X131900319Y-109231689D01*
X131900246Y-108778363D01*
X131963746Y-108804964D01*
X131980536Y-108812245D01*
X132007259Y-108828687D01*
X132022556Y-108853587D01*
X132030963Y-108897132D01*
X132037015Y-108969506D01*
X132042544Y-109034489D01*
X132049850Y-109077150D01*
X132060318Y-109093070D01*
X132076092Y-109088800D01*
X132116290Y-109073797D01*
X132188128Y-109070078D01*
X132265410Y-109083972D01*
X132332088Y-109113905D01*
X132368771Y-109141611D01*
X132415872Y-109195669D01*
X132446038Y-109264977D01*
X132462078Y-109357165D01*
X132466591Y-109474386D01*
X132466801Y-109479862D01*
G37*
X136413187Y-109404936D02*
X136406974Y-109553043D01*
X136403466Y-109584421D01*
X136377327Y-109696105D01*
X136330094Y-109781042D01*
X136258262Y-109846141D01*
X136254202Y-109848828D01*
X136162887Y-109887034D01*
X136067544Y-109890434D01*
X135975674Y-109861339D01*
X135894779Y-109802060D01*
X135832362Y-109714910D01*
X135831314Y-109712809D01*
X135810573Y-109658689D01*
X135795380Y-109597181D01*
X135787321Y-109539439D01*
X135787982Y-109496615D01*
X135798948Y-109479862D01*
X135808690Y-109480880D01*
X135855277Y-109499409D01*
X135908082Y-109533481D01*
X135953003Y-109572922D01*
X135975935Y-109607555D01*
X135999773Y-109654533D01*
X136048630Y-109697262D01*
X136105363Y-109714323D01*
X136126158Y-109709390D01*
X136167204Y-109684557D01*
X136202957Y-109650085D01*
X136218246Y-109618811D01*
X136218242Y-109618695D01*
X136200895Y-109604333D01*
X136154647Y-109578425D01*
X136086467Y-109544610D01*
X136003323Y-109506529D01*
X136002866Y-109506327D01*
X135912538Y-109466109D01*
X135851992Y-109437133D01*
X135815288Y-109414874D01*
X135796486Y-109394807D01*
X135789646Y-109372409D01*
X135788829Y-109343156D01*
X135794513Y-109287763D01*
X135987400Y-109287763D01*
X136007311Y-109305177D01*
X136056921Y-109331272D01*
X136058376Y-109332010D01*
X136116906Y-109359883D01*
X136169268Y-109382119D01*
X136202486Y-109391526D01*
X136215810Y-109378952D01*
X136218246Y-109335868D01*
X136208124Y-109282247D01*
X136173031Y-109233519D01*
X136122223Y-109208256D01*
X136065581Y-109210806D01*
X136012984Y-109245520D01*
X135992310Y-109269507D01*
X135987400Y-109287763D01*
X135794513Y-109287763D01*
X135796022Y-109273054D01*
X135831584Y-109177812D01*
X135891114Y-109102967D01*
X135968146Y-109051145D01*
X136056215Y-109024973D01*
X136148854Y-109027076D01*
X136239598Y-109060081D01*
X136321979Y-109126615D01*
X136367622Y-109192455D01*
X136400408Y-109286436D01*
X136405739Y-109335868D01*
X136413187Y-109404936D01*
G36*
X136413187Y-109404936D02*
G01*
X136406974Y-109553043D01*
X136403466Y-109584421D01*
X136377327Y-109696105D01*
X136330094Y-109781042D01*
X136258262Y-109846141D01*
X136254202Y-109848828D01*
X136162887Y-109887034D01*
X136067544Y-109890434D01*
X135975674Y-109861339D01*
X135894779Y-109802060D01*
X135832362Y-109714910D01*
X135831314Y-109712809D01*
X135810573Y-109658689D01*
X135795380Y-109597181D01*
X135787321Y-109539439D01*
X135787982Y-109496615D01*
X135798948Y-109479862D01*
X135808690Y-109480880D01*
X135855277Y-109499409D01*
X135908082Y-109533481D01*
X135953003Y-109572922D01*
X135975935Y-109607555D01*
X135999773Y-109654533D01*
X136048630Y-109697262D01*
X136105363Y-109714323D01*
X136126158Y-109709390D01*
X136167204Y-109684557D01*
X136202957Y-109650085D01*
X136218246Y-109618811D01*
X136218242Y-109618695D01*
X136200895Y-109604333D01*
X136154647Y-109578425D01*
X136086467Y-109544610D01*
X136003323Y-109506529D01*
X136002866Y-109506327D01*
X135912538Y-109466109D01*
X135851992Y-109437133D01*
X135815288Y-109414874D01*
X135796486Y-109394807D01*
X135789646Y-109372409D01*
X135788829Y-109343156D01*
X135794513Y-109287763D01*
X135987400Y-109287763D01*
X136007311Y-109305177D01*
X136056921Y-109331272D01*
X136058376Y-109332010D01*
X136116906Y-109359883D01*
X136169268Y-109382119D01*
X136202486Y-109391526D01*
X136215810Y-109378952D01*
X136218246Y-109335868D01*
X136208124Y-109282247D01*
X136173031Y-109233519D01*
X136122223Y-109208256D01*
X136065581Y-109210806D01*
X136012984Y-109245520D01*
X135992310Y-109269507D01*
X135987400Y-109287763D01*
X135794513Y-109287763D01*
X135796022Y-109273054D01*
X135831584Y-109177812D01*
X135891114Y-109102967D01*
X135968146Y-109051145D01*
X136056215Y-109024973D01*
X136148854Y-109027076D01*
X136239598Y-109060081D01*
X136321979Y-109126615D01*
X136367622Y-109192455D01*
X136400408Y-109286436D01*
X136405739Y-109335868D01*
X136413187Y-109404936D01*
G37*
X133622858Y-109090628D02*
X133690022Y-109129789D01*
X133719569Y-109160302D01*
X133776348Y-109251510D01*
X133795477Y-109350948D01*
X133795477Y-109419360D01*
X133732591Y-109392918D01*
X133689100Y-109366237D01*
X133654826Y-109310846D01*
X133651307Y-109299424D01*
X133613428Y-109241238D01*
X133556336Y-109209807D01*
X133490783Y-109208458D01*
X133427517Y-109240516D01*
X133418072Y-109248783D01*
X133386487Y-109284711D01*
X133381271Y-109316035D01*
X133405165Y-109346791D01*
X133460910Y-109381017D01*
X133551246Y-109422750D01*
X133557356Y-109425393D01*
X133657641Y-109472155D01*
X133726135Y-109513581D01*
X133768299Y-109554942D01*
X133789593Y-109601511D01*
X133795477Y-109658560D01*
X133787766Y-109721808D01*
X133748830Y-109802764D01*
X133680332Y-109860922D01*
X133630788Y-109878383D01*
X133560869Y-109887937D01*
X133492975Y-109885896D01*
X133444493Y-109871482D01*
X133439343Y-109867893D01*
X133425667Y-109842816D01*
X133435157Y-109798618D01*
X133451646Y-109763927D01*
X133478087Y-109749484D01*
X133528234Y-109750203D01*
X133597853Y-109746060D01*
X133643343Y-109717454D01*
X133658708Y-109664504D01*
X133658694Y-109662982D01*
X133649383Y-109632245D01*
X133617711Y-109604043D01*
X133556131Y-109571536D01*
X133472386Y-109532398D01*
X133416918Y-109511106D01*
X133384897Y-109512479D01*
X133369934Y-109540603D01*
X133365642Y-109599570D01*
X133365631Y-109693468D01*
X133365152Y-109751431D01*
X133362956Y-109823012D01*
X133359386Y-109872006D01*
X133354891Y-109890169D01*
X133353690Y-109890046D01*
X133327719Y-109880202D01*
X133284705Y-109859428D01*
X133225259Y-109828687D01*
X133232323Y-109551698D01*
X133232814Y-109533328D01*
X133238425Y-109404392D01*
X133248338Y-109307214D01*
X133264575Y-109235325D01*
X133289159Y-109182252D01*
X133324115Y-109141527D01*
X133371464Y-109106679D01*
X133372340Y-109106133D01*
X133448899Y-109077703D01*
X133537444Y-109072900D01*
X133622858Y-109090628D01*
G36*
X133622858Y-109090628D02*
G01*
X133690022Y-109129789D01*
X133719569Y-109160302D01*
X133776348Y-109251510D01*
X133795477Y-109350948D01*
X133795477Y-109419360D01*
X133732591Y-109392918D01*
X133689100Y-109366237D01*
X133654826Y-109310846D01*
X133651307Y-109299424D01*
X133613428Y-109241238D01*
X133556336Y-109209807D01*
X133490783Y-109208458D01*
X133427517Y-109240516D01*
X133418072Y-109248783D01*
X133386487Y-109284711D01*
X133381271Y-109316035D01*
X133405165Y-109346791D01*
X133460910Y-109381017D01*
X133551246Y-109422750D01*
X133557356Y-109425393D01*
X133657641Y-109472155D01*
X133726135Y-109513581D01*
X133768299Y-109554942D01*
X133789593Y-109601511D01*
X133795477Y-109658560D01*
X133787766Y-109721808D01*
X133748830Y-109802764D01*
X133680332Y-109860922D01*
X133630788Y-109878383D01*
X133560869Y-109887937D01*
X133492975Y-109885896D01*
X133444493Y-109871482D01*
X133439343Y-109867893D01*
X133425667Y-109842816D01*
X133435157Y-109798618D01*
X133451646Y-109763927D01*
X133478087Y-109749484D01*
X133528234Y-109750203D01*
X133597853Y-109746060D01*
X133643343Y-109717454D01*
X133658708Y-109664504D01*
X133658694Y-109662982D01*
X133649383Y-109632245D01*
X133617711Y-109604043D01*
X133556131Y-109571536D01*
X133472386Y-109532398D01*
X133416918Y-109511106D01*
X133384897Y-109512479D01*
X133369934Y-109540603D01*
X133365642Y-109599570D01*
X133365631Y-109693468D01*
X133365152Y-109751431D01*
X133362956Y-109823012D01*
X133359386Y-109872006D01*
X133354891Y-109890169D01*
X133353690Y-109890046D01*
X133327719Y-109880202D01*
X133284705Y-109859428D01*
X133225259Y-109828687D01*
X133232323Y-109551698D01*
X133232814Y-109533328D01*
X133238425Y-109404392D01*
X133248338Y-109307214D01*
X133264575Y-109235325D01*
X133289159Y-109182252D01*
X133324115Y-109141527D01*
X133371464Y-109106679D01*
X133372340Y-109106133D01*
X133448899Y-109077703D01*
X133537444Y-109072900D01*
X133622858Y-109090628D01*
G37*
X130766336Y-109071311D02*
X130808207Y-109081947D01*
X130847191Y-109108462D01*
X130897365Y-109157820D01*
X130929632Y-109192679D01*
X130963244Y-109237934D01*
X130978403Y-109280351D01*
X130981939Y-109334168D01*
X130981939Y-109422250D01*
X130921870Y-109391187D01*
X130874267Y-109353336D01*
X130841661Y-109302350D01*
X130836061Y-109288488D01*
X130793392Y-109234758D01*
X130734107Y-109207817D01*
X130669461Y-109210439D01*
X130610708Y-109245400D01*
X130585850Y-109273794D01*
X130571370Y-109310118D01*
X130586870Y-109342446D01*
X130635067Y-109374965D01*
X130718674Y-109411861D01*
X130731362Y-109416957D01*
X130807478Y-109450307D01*
X130872796Y-109483193D01*
X130914353Y-109509169D01*
X130955976Y-109555567D01*
X130983647Y-109629611D01*
X130980710Y-109709070D01*
X130947971Y-109784268D01*
X130886241Y-109845531D01*
X130836258Y-109871610D01*
X130739703Y-109889870D01*
X130686047Y-109887407D01*
X130636376Y-109874087D01*
X130617319Y-109846139D01*
X130624445Y-109800110D01*
X130626518Y-109794024D01*
X130642956Y-109761749D01*
X130670326Y-109749533D01*
X130722468Y-109750350D01*
X130759284Y-109751461D01*
X130802361Y-109741928D01*
X130831875Y-109713426D01*
X130848686Y-109678335D01*
X130850561Y-109641575D01*
X130850474Y-109641361D01*
X130828679Y-109621498D01*
X130782032Y-109592592D01*
X130721678Y-109560286D01*
X130658760Y-109530223D01*
X130604423Y-109508046D01*
X130569810Y-109499400D01*
X130564660Y-109507867D01*
X130558178Y-109547709D01*
X130553739Y-109612771D01*
X130552092Y-109694785D01*
X130551709Y-109751553D01*
X130549905Y-109823048D01*
X130546958Y-109872010D01*
X130543243Y-109890169D01*
X130523824Y-109884067D01*
X130484627Y-109867495D01*
X130434862Y-109844820D01*
X130434862Y-109553909D01*
X130435180Y-109479340D01*
X130438189Y-109366101D01*
X130445854Y-109282092D01*
X130459962Y-109220920D01*
X130482299Y-109176195D01*
X130514653Y-109141524D01*
X130558810Y-109110517D01*
X130615067Y-109084928D01*
X130718940Y-109069554D01*
X130766336Y-109071311D01*
G36*
X130766336Y-109071311D02*
G01*
X130808207Y-109081947D01*
X130847191Y-109108462D01*
X130897365Y-109157820D01*
X130929632Y-109192679D01*
X130963244Y-109237934D01*
X130978403Y-109280351D01*
X130981939Y-109334168D01*
X130981939Y-109422250D01*
X130921870Y-109391187D01*
X130874267Y-109353336D01*
X130841661Y-109302350D01*
X130836061Y-109288488D01*
X130793392Y-109234758D01*
X130734107Y-109207817D01*
X130669461Y-109210439D01*
X130610708Y-109245400D01*
X130585850Y-109273794D01*
X130571370Y-109310118D01*
X130586870Y-109342446D01*
X130635067Y-109374965D01*
X130718674Y-109411861D01*
X130731362Y-109416957D01*
X130807478Y-109450307D01*
X130872796Y-109483193D01*
X130914353Y-109509169D01*
X130955976Y-109555567D01*
X130983647Y-109629611D01*
X130980710Y-109709070D01*
X130947971Y-109784268D01*
X130886241Y-109845531D01*
X130836258Y-109871610D01*
X130739703Y-109889870D01*
X130686047Y-109887407D01*
X130636376Y-109874087D01*
X130617319Y-109846139D01*
X130624445Y-109800110D01*
X130626518Y-109794024D01*
X130642956Y-109761749D01*
X130670326Y-109749533D01*
X130722468Y-109750350D01*
X130759284Y-109751461D01*
X130802361Y-109741928D01*
X130831875Y-109713426D01*
X130848686Y-109678335D01*
X130850561Y-109641575D01*
X130850474Y-109641361D01*
X130828679Y-109621498D01*
X130782032Y-109592592D01*
X130721678Y-109560286D01*
X130658760Y-109530223D01*
X130604423Y-109508046D01*
X130569810Y-109499400D01*
X130564660Y-109507867D01*
X130558178Y-109547709D01*
X130553739Y-109612771D01*
X130552092Y-109694785D01*
X130551709Y-109751553D01*
X130549905Y-109823048D01*
X130546958Y-109872010D01*
X130543243Y-109890169D01*
X130523824Y-109884067D01*
X130484627Y-109867495D01*
X130434862Y-109844820D01*
X130434862Y-109553909D01*
X130435180Y-109479340D01*
X130438189Y-109366101D01*
X130445854Y-109282092D01*
X130459962Y-109220920D01*
X130482299Y-109176195D01*
X130514653Y-109141524D01*
X130558810Y-109110517D01*
X130615067Y-109084928D01*
X130718940Y-109069554D01*
X130766336Y-109071311D01*
G37*
X137150228Y-109549605D02*
X137152163Y-109699669D01*
X137152700Y-109743202D01*
X137154419Y-109888744D01*
X137154765Y-110000111D01*
X137152677Y-110081204D01*
X137147098Y-110135922D01*
X137136967Y-110168161D01*
X137121226Y-110181822D01*
X137098817Y-110180803D01*
X137068680Y-110169003D01*
X137029755Y-110150320D01*
X137021438Y-110146333D01*
X136986802Y-110126819D01*
X136968714Y-110103602D01*
X136961792Y-110064892D01*
X136960656Y-109998897D01*
X136960605Y-109880400D01*
X136838541Y-109880400D01*
X136763455Y-109877112D01*
X136704415Y-109863777D01*
X136655386Y-109836823D01*
X136651730Y-109834188D01*
X136601981Y-109789686D01*
X136567359Y-109735923D01*
X136545523Y-109665554D01*
X136534137Y-109571230D01*
X136531359Y-109464671D01*
X136726246Y-109464671D01*
X136726280Y-109482531D01*
X136728135Y-109563148D01*
X136734093Y-109615847D01*
X136745906Y-109650068D01*
X136765323Y-109675246D01*
X136766533Y-109676449D01*
X136814258Y-109709028D01*
X136860510Y-109705817D01*
X136912750Y-109666365D01*
X136925528Y-109652882D01*
X136944349Y-109625237D01*
X136954962Y-109589280D01*
X136959652Y-109534764D01*
X136960708Y-109451442D01*
X136959794Y-109400998D01*
X136949877Y-109309257D01*
X136927242Y-109249152D01*
X136889638Y-109216300D01*
X136834816Y-109206323D01*
X136811717Y-109208450D01*
X136771750Y-109229547D01*
X136745326Y-109276561D01*
X136730730Y-109353575D01*
X136726246Y-109464671D01*
X136531359Y-109464671D01*
X136530862Y-109445606D01*
X136531587Y-109353936D01*
X136534890Y-109284498D01*
X136542228Y-109236345D01*
X136555055Y-109200266D01*
X136574823Y-109167048D01*
X136592969Y-109141661D01*
X136658861Y-109073127D01*
X136733514Y-109035905D01*
X136827304Y-109024122D01*
X136934640Y-109035867D01*
X137027431Y-109077995D01*
X137100821Y-109152298D01*
X137106354Y-109160164D01*
X137119257Y-109181068D01*
X137129142Y-109204955D01*
X137136493Y-109236982D01*
X137141794Y-109282305D01*
X137145527Y-109346079D01*
X137148178Y-109433460D01*
X137148496Y-109451442D01*
X137150228Y-109549605D01*
G36*
X137150228Y-109549605D02*
G01*
X137152163Y-109699669D01*
X137152700Y-109743202D01*
X137154419Y-109888744D01*
X137154765Y-110000111D01*
X137152677Y-110081204D01*
X137147098Y-110135922D01*
X137136967Y-110168161D01*
X137121226Y-110181822D01*
X137098817Y-110180803D01*
X137068680Y-110169003D01*
X137029755Y-110150320D01*
X137021438Y-110146333D01*
X136986802Y-110126819D01*
X136968714Y-110103602D01*
X136961792Y-110064892D01*
X136960656Y-109998897D01*
X136960605Y-109880400D01*
X136838541Y-109880400D01*
X136763455Y-109877112D01*
X136704415Y-109863777D01*
X136655386Y-109836823D01*
X136651730Y-109834188D01*
X136601981Y-109789686D01*
X136567359Y-109735923D01*
X136545523Y-109665554D01*
X136534137Y-109571230D01*
X136531359Y-109464671D01*
X136726246Y-109464671D01*
X136726280Y-109482531D01*
X136728135Y-109563148D01*
X136734093Y-109615847D01*
X136745906Y-109650068D01*
X136765323Y-109675246D01*
X136766533Y-109676449D01*
X136814258Y-109709028D01*
X136860510Y-109705817D01*
X136912750Y-109666365D01*
X136925528Y-109652882D01*
X136944349Y-109625237D01*
X136954962Y-109589280D01*
X136959652Y-109534764D01*
X136960708Y-109451442D01*
X136959794Y-109400998D01*
X136949877Y-109309257D01*
X136927242Y-109249152D01*
X136889638Y-109216300D01*
X136834816Y-109206323D01*
X136811717Y-109208450D01*
X136771750Y-109229547D01*
X136745326Y-109276561D01*
X136730730Y-109353575D01*
X136726246Y-109464671D01*
X136531359Y-109464671D01*
X136530862Y-109445606D01*
X136531587Y-109353936D01*
X136534890Y-109284498D01*
X136542228Y-109236345D01*
X136555055Y-109200266D01*
X136574823Y-109167048D01*
X136592969Y-109141661D01*
X136658861Y-109073127D01*
X136733514Y-109035905D01*
X136827304Y-109024122D01*
X136934640Y-109035867D01*
X137027431Y-109077995D01*
X137100821Y-109152298D01*
X137106354Y-109160164D01*
X137119257Y-109181068D01*
X137129142Y-109204955D01*
X137136493Y-109236982D01*
X137141794Y-109282305D01*
X137145527Y-109346079D01*
X137148178Y-109433460D01*
X137148496Y-109451442D01*
X137150228Y-109549605D01*
G37*
X133519975Y-102739093D02*
X133655771Y-102739207D01*
X133757976Y-102739872D01*
X133831522Y-102741582D01*
X133881342Y-102744829D01*
X133912367Y-102750106D01*
X133929529Y-102757907D01*
X133937761Y-102768725D01*
X133941994Y-102783054D01*
X133942116Y-102783568D01*
X133949072Y-102817251D01*
X133961720Y-102882317D01*
X133978760Y-102971942D01*
X133998896Y-103079304D01*
X134020829Y-103197578D01*
X134022618Y-103207256D01*
X134044483Y-103322050D01*
X134064830Y-103422880D01*
X134082334Y-103503617D01*
X134095671Y-103558134D01*
X134103516Y-103580301D01*
X134103558Y-103580336D01*
X134128284Y-103592600D01*
X134179031Y-103612976D01*
X134244862Y-103637074D01*
X134248569Y-103638383D01*
X134332731Y-103670191D01*
X134430630Y-103710085D01*
X134521835Y-103749753D01*
X134671807Y-103817820D01*
X135003899Y-103591039D01*
X135027289Y-103575088D01*
X135127480Y-103507290D01*
X135216880Y-103447608D01*
X135290145Y-103399556D01*
X135341927Y-103366650D01*
X135366880Y-103352404D01*
X135383977Y-103355670D01*
X135422795Y-103380971D01*
X135482785Y-103431075D01*
X135565610Y-103507389D01*
X135672935Y-103611322D01*
X135682539Y-103620782D01*
X135767702Y-103705545D01*
X135843349Y-103782337D01*
X135904849Y-103846347D01*
X135947573Y-103892761D01*
X135966889Y-103916769D01*
X135966952Y-103916885D01*
X135969406Y-103935163D01*
X135960356Y-103964811D01*
X135937519Y-104009886D01*
X135898613Y-104074444D01*
X135841354Y-104162540D01*
X135763459Y-104278230D01*
X135750185Y-104297757D01*
X135683052Y-104396678D01*
X135623810Y-104484248D01*
X135575988Y-104555231D01*
X135543115Y-104604391D01*
X135528718Y-104626495D01*
X135527632Y-104631177D01*
X135534444Y-104666110D01*
X135554850Y-104723153D01*
X135585523Y-104792572D01*
X135627208Y-104883359D01*
X135673752Y-104991086D01*
X135713277Y-105088592D01*
X135723076Y-105113830D01*
X135748740Y-105178270D01*
X135767593Y-105223163D01*
X135776110Y-105240016D01*
X135785511Y-105241275D01*
X135827763Y-105248559D01*
X135896921Y-105261139D01*
X135985787Y-105277646D01*
X136087168Y-105296712D01*
X136193867Y-105316969D01*
X136298688Y-105337047D01*
X136394436Y-105355579D01*
X136473916Y-105371195D01*
X136529930Y-105382527D01*
X136555285Y-105388207D01*
X136559488Y-105389808D01*
X136569734Y-105398445D01*
X136577357Y-105416833D01*
X136582738Y-105449860D01*
X136586259Y-105502413D01*
X136588301Y-105579379D01*
X136589247Y-105685646D01*
X136589477Y-105826101D01*
X136589477Y-106253245D01*
X136486900Y-106273491D01*
X136474492Y-106275918D01*
X136408599Y-106288488D01*
X136317484Y-106305570D01*
X136211504Y-106325229D01*
X136101015Y-106345532D01*
X136057505Y-106353699D01*
X135960282Y-106373567D01*
X135879258Y-106392354D01*
X135821877Y-106408259D01*
X135795587Y-106419479D01*
X135783673Y-106437811D01*
X135761983Y-106486316D01*
X135739795Y-106549092D01*
X135731985Y-106572600D01*
X135703235Y-106649766D01*
X135666152Y-106741094D01*
X135626775Y-106831493D01*
X135605715Y-106878710D01*
X135575711Y-106949237D01*
X135555092Y-107002055D01*
X135547426Y-107028312D01*
X135547852Y-107030294D01*
X135562393Y-107058151D01*
X135595183Y-107111910D01*
X135642893Y-107186363D01*
X135702198Y-107276297D01*
X135769769Y-107376504D01*
X135992113Y-107702816D01*
X135700001Y-107995416D01*
X135671749Y-108023571D01*
X135585361Y-108107849D01*
X135508156Y-108180528D01*
X135444658Y-108237512D01*
X135399390Y-108274707D01*
X135376874Y-108288016D01*
X135352423Y-108277890D01*
X135301219Y-108248821D01*
X135229147Y-108204296D01*
X135141860Y-108147811D01*
X135045012Y-108082862D01*
X134949886Y-108018714D01*
X134864069Y-107962227D01*
X134794052Y-107917584D01*
X134745276Y-107888255D01*
X134723183Y-107877708D01*
X134721888Y-107877804D01*
X134692539Y-107888202D01*
X134640493Y-107912412D01*
X134576108Y-107945649D01*
X134575432Y-107946013D01*
X134489921Y-107988841D01*
X134431326Y-108009765D01*
X134394971Y-108009823D01*
X134376175Y-107990054D01*
X134368219Y-107970595D01*
X134346747Y-107918480D01*
X134313673Y-107838364D01*
X134270756Y-107734507D01*
X134219756Y-107611167D01*
X134162433Y-107472601D01*
X134100546Y-107323070D01*
X134044452Y-107187036D01*
X133987377Y-107047450D01*
X133936879Y-106922715D01*
X133894654Y-106817072D01*
X133862395Y-106734765D01*
X133841797Y-106680035D01*
X133834554Y-106657126D01*
X133848386Y-106636118D01*
X133886812Y-106601042D01*
X133941207Y-106560287D01*
X134071795Y-106453667D01*
X134188660Y-106317425D01*
X134274180Y-106167518D01*
X134327831Y-106008371D01*
X134349084Y-105844412D01*
X134337414Y-105680067D01*
X134292294Y-105519761D01*
X134213197Y-105367920D01*
X134099597Y-105228972D01*
X134040365Y-105174860D01*
X133898454Y-105079182D01*
X133746606Y-105016805D01*
X133589261Y-104986244D01*
X133430856Y-104986015D01*
X133275829Y-105014632D01*
X133128620Y-105070610D01*
X132993666Y-105152464D01*
X132875405Y-105258709D01*
X132778277Y-105387859D01*
X132706718Y-105538431D01*
X132665169Y-105708939D01*
X132657543Y-105791122D01*
X132668034Y-105969175D01*
X132715282Y-106138104D01*
X132797889Y-106294922D01*
X132914459Y-106436645D01*
X133063593Y-106560287D01*
X133115961Y-106599382D01*
X133155232Y-106634843D01*
X133170246Y-106657092D01*
X133164259Y-106676488D01*
X133144832Y-106728459D01*
X133113594Y-106808402D01*
X133072239Y-106912073D01*
X133022461Y-107035232D01*
X132965953Y-107173634D01*
X132904409Y-107323037D01*
X132848408Y-107458420D01*
X132790584Y-107598252D01*
X132738900Y-107723272D01*
X132695118Y-107829222D01*
X132660997Y-107911841D01*
X132638298Y-107966872D01*
X132628780Y-107990054D01*
X132628669Y-107990328D01*
X132609628Y-108009903D01*
X132573094Y-108009679D01*
X132514354Y-107988610D01*
X132428692Y-107945649D01*
X132421949Y-107942031D01*
X132358338Y-107909487D01*
X132308107Y-107886450D01*
X132281618Y-107877708D01*
X132259906Y-107888039D01*
X132211384Y-107917188D01*
X132141563Y-107961687D01*
X132055884Y-108018068D01*
X131959788Y-108082862D01*
X131865106Y-108146384D01*
X131777532Y-108203105D01*
X131705042Y-108247947D01*
X131653289Y-108277416D01*
X131627926Y-108288016D01*
X131623606Y-108286670D01*
X131593492Y-108265456D01*
X131542040Y-108221637D01*
X131473775Y-108159309D01*
X131393220Y-108082570D01*
X131304900Y-107995516D01*
X131012888Y-107703017D01*
X131467760Y-107033925D01*
X131398608Y-106884316D01*
X131398403Y-106883873D01*
X131356877Y-106788501D01*
X131314444Y-106682296D01*
X131280258Y-106588169D01*
X131275084Y-106572988D01*
X131249001Y-106502509D01*
X131225481Y-106447742D01*
X131209077Y-106419479D01*
X131202396Y-106415488D01*
X131162292Y-106402097D01*
X131094195Y-106384773D01*
X131005545Y-106365317D01*
X130903785Y-106345532D01*
X130873304Y-106339951D01*
X130763028Y-106319633D01*
X130660131Y-106300495D01*
X130574969Y-106284470D01*
X130517900Y-106273491D01*
X130415323Y-106253245D01*
X130415323Y-105826101D01*
X130415346Y-105773580D01*
X130415779Y-105645447D01*
X130417059Y-105549820D01*
X130419568Y-105481811D01*
X130423686Y-105436533D01*
X130429795Y-105409097D01*
X130438278Y-105394618D01*
X130449515Y-105388207D01*
X130460394Y-105385609D01*
X130504747Y-105376422D01*
X130575506Y-105362391D01*
X130665474Y-105344886D01*
X130767456Y-105325274D01*
X130874257Y-105304925D01*
X130978681Y-105285207D01*
X131073532Y-105267489D01*
X131151614Y-105253138D01*
X131205732Y-105243524D01*
X131228691Y-105240016D01*
X131230242Y-105237897D01*
X131242725Y-105210406D01*
X131264327Y-105157806D01*
X131291523Y-105088592D01*
X131329266Y-104995337D01*
X131375728Y-104887559D01*
X131419278Y-104792572D01*
X131429258Y-104771251D01*
X131457262Y-104704486D01*
X131474041Y-104652990D01*
X131476254Y-104626495D01*
X131475113Y-104624618D01*
X131456984Y-104596965D01*
X131421044Y-104543249D01*
X131370818Y-104468703D01*
X131309830Y-104378562D01*
X131241605Y-104278057D01*
X131164730Y-104163870D01*
X131107063Y-104075170D01*
X131067826Y-104010121D01*
X131044750Y-103964695D01*
X131035566Y-103934863D01*
X131038004Y-103916595D01*
X131038824Y-103915225D01*
X131060877Y-103888605D01*
X131105836Y-103840097D01*
X131169073Y-103774508D01*
X131245959Y-103696647D01*
X131331865Y-103611322D01*
X131420979Y-103524734D01*
X131508272Y-103443347D01*
X131572418Y-103388435D01*
X131615079Y-103358590D01*
X131637921Y-103352404D01*
X131640905Y-103353794D01*
X131672336Y-103372527D01*
X131729397Y-103409133D01*
X131806743Y-103460097D01*
X131899026Y-103521904D01*
X132000902Y-103591039D01*
X132332993Y-103817820D01*
X132482966Y-103749753D01*
X132487323Y-103747781D01*
X132579400Y-103707891D01*
X132677083Y-103668218D01*
X132759939Y-103637074D01*
X132760305Y-103636945D01*
X132826085Y-103612856D01*
X132876723Y-103592510D01*
X132901284Y-103580301D01*
X132901682Y-103579858D01*
X132910019Y-103554856D01*
X132923741Y-103497998D01*
X132941523Y-103415414D01*
X132962041Y-103313231D01*
X132983971Y-103197578D01*
X132984736Y-103193433D01*
X133006629Y-103075419D01*
X133026681Y-102968551D01*
X133043592Y-102879652D01*
X133056067Y-102815545D01*
X133062806Y-102783054D01*
X133063237Y-102781253D01*
X133067673Y-102767344D01*
X133076663Y-102756889D01*
X133095137Y-102749396D01*
X133128028Y-102744372D01*
X133180268Y-102741322D01*
X133256788Y-102739755D01*
X133362522Y-102739176D01*
X133502400Y-102739092D01*
X133519975Y-102739093D01*
G36*
X133519975Y-102739093D02*
G01*
X133655771Y-102739207D01*
X133757976Y-102739872D01*
X133831522Y-102741582D01*
X133881342Y-102744829D01*
X133912367Y-102750106D01*
X133929529Y-102757907D01*
X133937761Y-102768725D01*
X133941994Y-102783054D01*
X133942116Y-102783568D01*
X133949072Y-102817251D01*
X133961720Y-102882317D01*
X133978760Y-102971942D01*
X133998896Y-103079304D01*
X134020829Y-103197578D01*
X134022618Y-103207256D01*
X134044483Y-103322050D01*
X134064830Y-103422880D01*
X134082334Y-103503617D01*
X134095671Y-103558134D01*
X134103516Y-103580301D01*
X134103558Y-103580336D01*
X134128284Y-103592600D01*
X134179031Y-103612976D01*
X134244862Y-103637074D01*
X134248569Y-103638383D01*
X134332731Y-103670191D01*
X134430630Y-103710085D01*
X134521835Y-103749753D01*
X134671807Y-103817820D01*
X135003899Y-103591039D01*
X135027289Y-103575088D01*
X135127480Y-103507290D01*
X135216880Y-103447608D01*
X135290145Y-103399556D01*
X135341927Y-103366650D01*
X135366880Y-103352404D01*
X135383977Y-103355670D01*
X135422795Y-103380971D01*
X135482785Y-103431075D01*
X135565610Y-103507389D01*
X135672935Y-103611322D01*
X135682539Y-103620782D01*
X135767702Y-103705545D01*
X135843349Y-103782337D01*
X135904849Y-103846347D01*
X135947573Y-103892761D01*
X135966889Y-103916769D01*
X135966952Y-103916885D01*
X135969406Y-103935163D01*
X135960356Y-103964811D01*
X135937519Y-104009886D01*
X135898613Y-104074444D01*
X135841354Y-104162540D01*
X135763459Y-104278230D01*
X135750185Y-104297757D01*
X135683052Y-104396678D01*
X135623810Y-104484248D01*
X135575988Y-104555231D01*
X135543115Y-104604391D01*
X135528718Y-104626495D01*
X135527632Y-104631177D01*
X135534444Y-104666110D01*
X135554850Y-104723153D01*
X135585523Y-104792572D01*
X135627208Y-104883359D01*
X135673752Y-104991086D01*
X135713277Y-105088592D01*
X135723076Y-105113830D01*
X135748740Y-105178270D01*
X135767593Y-105223163D01*
X135776110Y-105240016D01*
X135785511Y-105241275D01*
X135827763Y-105248559D01*
X135896921Y-105261139D01*
X135985787Y-105277646D01*
X136087168Y-105296712D01*
X136193867Y-105316969D01*
X136298688Y-105337047D01*
X136394436Y-105355579D01*
X136473916Y-105371195D01*
X136529930Y-105382527D01*
X136555285Y-105388207D01*
X136559488Y-105389808D01*
X136569734Y-105398445D01*
X136577357Y-105416833D01*
X136582738Y-105449860D01*
X136586259Y-105502413D01*
X136588301Y-105579379D01*
X136589247Y-105685646D01*
X136589477Y-105826101D01*
X136589477Y-106253245D01*
X136486900Y-106273491D01*
X136474492Y-106275918D01*
X136408599Y-106288488D01*
X136317484Y-106305570D01*
X136211504Y-106325229D01*
X136101015Y-106345532D01*
X136057505Y-106353699D01*
X135960282Y-106373567D01*
X135879258Y-106392354D01*
X135821877Y-106408259D01*
X135795587Y-106419479D01*
X135783673Y-106437811D01*
X135761983Y-106486316D01*
X135739795Y-106549092D01*
X135731985Y-106572600D01*
X135703235Y-106649766D01*
X135666152Y-106741094D01*
X135626775Y-106831493D01*
X135605715Y-106878710D01*
X135575711Y-106949237D01*
X135555092Y-107002055D01*
X135547426Y-107028312D01*
X135547852Y-107030294D01*
X135562393Y-107058151D01*
X135595183Y-107111910D01*
X135642893Y-107186363D01*
X135702198Y-107276297D01*
X135769769Y-107376504D01*
X135992113Y-107702816D01*
X135700001Y-107995416D01*
X135671749Y-108023571D01*
X135585361Y-108107849D01*
X135508156Y-108180528D01*
X135444658Y-108237512D01*
X135399390Y-108274707D01*
X135376874Y-108288016D01*
X135352423Y-108277890D01*
X135301219Y-108248821D01*
X135229147Y-108204296D01*
X135141860Y-108147811D01*
X135045012Y-108082862D01*
X134949886Y-108018714D01*
X134864069Y-107962227D01*
X134794052Y-107917584D01*
X134745276Y-107888255D01*
X134723183Y-107877708D01*
X134721888Y-107877804D01*
X134692539Y-107888202D01*
X134640493Y-107912412D01*
X134576108Y-107945649D01*
X134575432Y-107946013D01*
X134489921Y-107988841D01*
X134431326Y-108009765D01*
X134394971Y-108009823D01*
X134376175Y-107990054D01*
X134368219Y-107970595D01*
X134346747Y-107918480D01*
X134313673Y-107838364D01*
X134270756Y-107734507D01*
X134219756Y-107611167D01*
X134162433Y-107472601D01*
X134100546Y-107323070D01*
X134044452Y-107187036D01*
X133987377Y-107047450D01*
X133936879Y-106922715D01*
X133894654Y-106817072D01*
X133862395Y-106734765D01*
X133841797Y-106680035D01*
X133834554Y-106657126D01*
X133848386Y-106636118D01*
X133886812Y-106601042D01*
X133941207Y-106560287D01*
X134071795Y-106453667D01*
X134188660Y-106317425D01*
X134274180Y-106167518D01*
X134327831Y-106008371D01*
X134349084Y-105844412D01*
X134337414Y-105680067D01*
X134292294Y-105519761D01*
X134213197Y-105367920D01*
X134099597Y-105228972D01*
X134040365Y-105174860D01*
X133898454Y-105079182D01*
X133746606Y-105016805D01*
X133589261Y-104986244D01*
X133430856Y-104986015D01*
X133275829Y-105014632D01*
X133128620Y-105070610D01*
X132993666Y-105152464D01*
X132875405Y-105258709D01*
X132778277Y-105387859D01*
X132706718Y-105538431D01*
X132665169Y-105708939D01*
X132657543Y-105791122D01*
X132668034Y-105969175D01*
X132715282Y-106138104D01*
X132797889Y-106294922D01*
X132914459Y-106436645D01*
X133063593Y-106560287D01*
X133115961Y-106599382D01*
X133155232Y-106634843D01*
X133170246Y-106657092D01*
X133164259Y-106676488D01*
X133144832Y-106728459D01*
X133113594Y-106808402D01*
X133072239Y-106912073D01*
X133022461Y-107035232D01*
X132965953Y-107173634D01*
X132904409Y-107323037D01*
X132848408Y-107458420D01*
X132790584Y-107598252D01*
X132738900Y-107723272D01*
X132695118Y-107829222D01*
X132660997Y-107911841D01*
X132638298Y-107966872D01*
X132628780Y-107990054D01*
X132628669Y-107990328D01*
X132609628Y-108009903D01*
X132573094Y-108009679D01*
X132514354Y-107988610D01*
X132428692Y-107945649D01*
X132421949Y-107942031D01*
X132358338Y-107909487D01*
X132308107Y-107886450D01*
X132281618Y-107877708D01*
X132259906Y-107888039D01*
X132211384Y-107917188D01*
X132141563Y-107961687D01*
X132055884Y-108018068D01*
X131959788Y-108082862D01*
X131865106Y-108146384D01*
X131777532Y-108203105D01*
X131705042Y-108247947D01*
X131653289Y-108277416D01*
X131627926Y-108288016D01*
X131623606Y-108286670D01*
X131593492Y-108265456D01*
X131542040Y-108221637D01*
X131473775Y-108159309D01*
X131393220Y-108082570D01*
X131304900Y-107995516D01*
X131012888Y-107703017D01*
X131467760Y-107033925D01*
X131398608Y-106884316D01*
X131398403Y-106883873D01*
X131356877Y-106788501D01*
X131314444Y-106682296D01*
X131280258Y-106588169D01*
X131275084Y-106572988D01*
X131249001Y-106502509D01*
X131225481Y-106447742D01*
X131209077Y-106419479D01*
X131202396Y-106415488D01*
X131162292Y-106402097D01*
X131094195Y-106384773D01*
X131005545Y-106365317D01*
X130903785Y-106345532D01*
X130873304Y-106339951D01*
X130763028Y-106319633D01*
X130660131Y-106300495D01*
X130574969Y-106284470D01*
X130517900Y-106273491D01*
X130415323Y-106253245D01*
X130415323Y-105826101D01*
X130415346Y-105773580D01*
X130415779Y-105645447D01*
X130417059Y-105549820D01*
X130419568Y-105481811D01*
X130423686Y-105436533D01*
X130429795Y-105409097D01*
X130438278Y-105394618D01*
X130449515Y-105388207D01*
X130460394Y-105385609D01*
X130504747Y-105376422D01*
X130575506Y-105362391D01*
X130665474Y-105344886D01*
X130767456Y-105325274D01*
X130874257Y-105304925D01*
X130978681Y-105285207D01*
X131073532Y-105267489D01*
X131151614Y-105253138D01*
X131205732Y-105243524D01*
X131228691Y-105240016D01*
X131230242Y-105237897D01*
X131242725Y-105210406D01*
X131264327Y-105157806D01*
X131291523Y-105088592D01*
X131329266Y-104995337D01*
X131375728Y-104887559D01*
X131419278Y-104792572D01*
X131429258Y-104771251D01*
X131457262Y-104704486D01*
X131474041Y-104652990D01*
X131476254Y-104626495D01*
X131475113Y-104624618D01*
X131456984Y-104596965D01*
X131421044Y-104543249D01*
X131370818Y-104468703D01*
X131309830Y-104378562D01*
X131241605Y-104278057D01*
X131164730Y-104163870D01*
X131107063Y-104075170D01*
X131067826Y-104010121D01*
X131044750Y-103964695D01*
X131035566Y-103934863D01*
X131038004Y-103916595D01*
X131038824Y-103915225D01*
X131060877Y-103888605D01*
X131105836Y-103840097D01*
X131169073Y-103774508D01*
X131245959Y-103696647D01*
X131331865Y-103611322D01*
X131420979Y-103524734D01*
X131508272Y-103443347D01*
X131572418Y-103388435D01*
X131615079Y-103358590D01*
X131637921Y-103352404D01*
X131640905Y-103353794D01*
X131672336Y-103372527D01*
X131729397Y-103409133D01*
X131806743Y-103460097D01*
X131899026Y-103521904D01*
X132000902Y-103591039D01*
X132332993Y-103817820D01*
X132482966Y-103749753D01*
X132487323Y-103747781D01*
X132579400Y-103707891D01*
X132677083Y-103668218D01*
X132759939Y-103637074D01*
X132760305Y-103636945D01*
X132826085Y-103612856D01*
X132876723Y-103592510D01*
X132901284Y-103580301D01*
X132901682Y-103579858D01*
X132910019Y-103554856D01*
X132923741Y-103497998D01*
X132941523Y-103415414D01*
X132962041Y-103313231D01*
X132983971Y-103197578D01*
X132984736Y-103193433D01*
X133006629Y-103075419D01*
X133026681Y-102968551D01*
X133043592Y-102879652D01*
X133056067Y-102815545D01*
X133062806Y-102783054D01*
X133063237Y-102781253D01*
X133067673Y-102767344D01*
X133076663Y-102756889D01*
X133095137Y-102749396D01*
X133128028Y-102744372D01*
X133180268Y-102741322D01*
X133256788Y-102739755D01*
X133362522Y-102739176D01*
X133502400Y-102739092D01*
X133519975Y-102739093D01*
G37*
D11*
%TO.C,G\u002A\u002A\u002A*%
G36*
X150055456Y-110875532D02*
G01*
X150055456Y-111018395D01*
X149912593Y-111018395D01*
X149769730Y-111018395D01*
X149769730Y-110875532D01*
X149769730Y-110732670D01*
X149912593Y-110732670D01*
X150055456Y-110732670D01*
X150055456Y-110875532D01*
G37*
G36*
X150912632Y-102589497D02*
G01*
X150912632Y-103018085D01*
X150484044Y-103018085D01*
X150055456Y-103018085D01*
X150055456Y-102589497D01*
X150055456Y-102160909D01*
X150484044Y-102160909D01*
X150912632Y-102160909D01*
X150912632Y-102589497D01*
G37*
G36*
X150912632Y-107446828D02*
G01*
X150912632Y-107589691D01*
X150769769Y-107589691D01*
X150626906Y-107589691D01*
X150626906Y-107446828D01*
X150626906Y-107303965D01*
X150769769Y-107303965D01*
X150912632Y-107303965D01*
X150912632Y-107446828D01*
G37*
G36*
X151484083Y-109161180D02*
G01*
X151484083Y-109304043D01*
X151341220Y-109304043D01*
X151198357Y-109304043D01*
X151198357Y-109161180D01*
X151198357Y-109018317D01*
X151341220Y-109018317D01*
X151484083Y-109018317D01*
X151484083Y-109161180D01*
G37*
G36*
X152055533Y-104589574D02*
G01*
X152055533Y-104732437D01*
X151912671Y-104732437D01*
X151769808Y-104732437D01*
X151769808Y-104589574D01*
X151769808Y-104446712D01*
X151912671Y-104446712D01*
X152055533Y-104446712D01*
X152055533Y-104589574D01*
G37*
G36*
X152341259Y-105446750D02*
G01*
X152341259Y-105589613D01*
X152198396Y-105589613D01*
X152055533Y-105589613D01*
X152055533Y-105446750D01*
X152055533Y-105303888D01*
X152198396Y-105303888D01*
X152341259Y-105303888D01*
X152341259Y-105446750D01*
G37*
G36*
X152626984Y-105161025D02*
G01*
X152626984Y-105303888D01*
X152484121Y-105303888D01*
X152341259Y-105303888D01*
X152341259Y-105161025D01*
X152341259Y-105018162D01*
X152484121Y-105018162D01*
X152626984Y-105018162D01*
X152626984Y-105161025D01*
G37*
G36*
X153484160Y-107161103D02*
G01*
X153484160Y-107303965D01*
X153341297Y-107303965D01*
X153198435Y-107303965D01*
X153198435Y-107161103D01*
X153198435Y-107018240D01*
X153341297Y-107018240D01*
X153484160Y-107018240D01*
X153484160Y-107161103D01*
G37*
G36*
X153769885Y-103446673D02*
G01*
X153769885Y-103589535D01*
X153627023Y-103589535D01*
X153484160Y-103589535D01*
X153484160Y-103446673D01*
X153484160Y-103303810D01*
X153627023Y-103303810D01*
X153769885Y-103303810D01*
X153769885Y-103446673D01*
G37*
G36*
X153769885Y-105875338D02*
G01*
X153769885Y-106161064D01*
X153627023Y-106161064D01*
X153484160Y-106161064D01*
X153484160Y-105875338D01*
X153484160Y-105589613D01*
X153627023Y-105589613D01*
X153769885Y-105589613D01*
X153769885Y-105875338D01*
G37*
G36*
X153769885Y-107732553D02*
G01*
X153769885Y-107875416D01*
X153627023Y-107875416D01*
X153484160Y-107875416D01*
X153484160Y-107732553D01*
X153484160Y-107589691D01*
X153627023Y-107589691D01*
X153769885Y-107589691D01*
X153769885Y-107732553D01*
G37*
G36*
X153769885Y-108875455D02*
G01*
X153769885Y-109018317D01*
X153627023Y-109018317D01*
X153484160Y-109018317D01*
X153484160Y-108875455D01*
X153484160Y-108732592D01*
X153627023Y-108732592D01*
X153769885Y-108732592D01*
X153769885Y-108875455D01*
G37*
G36*
X154055611Y-110875532D02*
G01*
X154055611Y-111018395D01*
X153912748Y-111018395D01*
X153769885Y-111018395D01*
X153769885Y-110875532D01*
X153769885Y-110732670D01*
X153912748Y-110732670D01*
X154055611Y-110732670D01*
X154055611Y-110875532D01*
G37*
G36*
X154912787Y-107446828D02*
G01*
X154912787Y-107589691D01*
X154769924Y-107589691D01*
X154627062Y-107589691D01*
X154627062Y-107446828D01*
X154627062Y-107303965D01*
X154769924Y-107303965D01*
X154912787Y-107303965D01*
X154912787Y-107446828D01*
G37*
G36*
X154912787Y-108304004D02*
G01*
X154912787Y-108446867D01*
X154769924Y-108446867D01*
X154627062Y-108446867D01*
X154627062Y-108304004D01*
X154627062Y-108161141D01*
X154769924Y-108161141D01*
X154912787Y-108161141D01*
X154912787Y-108304004D01*
G37*
G36*
X156055688Y-101875183D02*
G01*
X156055688Y-102160909D01*
X155912826Y-102160909D01*
X155769963Y-102160909D01*
X155769963Y-101875183D01*
X155769963Y-101589458D01*
X155912826Y-101589458D01*
X156055688Y-101589458D01*
X156055688Y-101875183D01*
G37*
G36*
X156055688Y-104446712D02*
G01*
X156055688Y-104732437D01*
X155912826Y-104732437D01*
X155769963Y-104732437D01*
X155769963Y-104446712D01*
X155769963Y-104160986D01*
X155912826Y-104160986D01*
X156055688Y-104160986D01*
X156055688Y-104446712D01*
G37*
G36*
X156627139Y-102018046D02*
G01*
X156627139Y-102160909D01*
X156484276Y-102160909D01*
X156341414Y-102160909D01*
X156341414Y-102018046D01*
X156341414Y-101875183D01*
X156484276Y-101875183D01*
X156627139Y-101875183D01*
X156627139Y-102018046D01*
G37*
G36*
X157198590Y-104589574D02*
G01*
X157198590Y-104732437D01*
X156912865Y-104732437D01*
X156627139Y-104732437D01*
X156627139Y-104589574D01*
X156627139Y-104446712D01*
X156912865Y-104446712D01*
X157198590Y-104446712D01*
X157198590Y-104589574D01*
G37*
G36*
X157198590Y-107446828D02*
G01*
X157198590Y-107589691D01*
X157055727Y-107589691D01*
X156912865Y-107589691D01*
X156912865Y-107446828D01*
X156912865Y-107303965D01*
X157055727Y-107303965D01*
X157198590Y-107303965D01*
X157198590Y-107446828D01*
G37*
G36*
X158341491Y-102589497D02*
G01*
X158341491Y-103018085D01*
X157912903Y-103018085D01*
X157484315Y-103018085D01*
X157484315Y-102589497D01*
X157484315Y-102160909D01*
X157912903Y-102160909D01*
X158341491Y-102160909D01*
X158341491Y-102589497D01*
G37*
G36*
X157770041Y-108304004D02*
G01*
X157770041Y-108446867D01*
X157627178Y-108446867D01*
X157484315Y-108446867D01*
X157484315Y-108304004D01*
X157484315Y-108161141D01*
X157627178Y-108161141D01*
X157770041Y-108161141D01*
X157770041Y-108304004D01*
G37*
G36*
X158341491Y-110018356D02*
G01*
X158341491Y-110446944D01*
X157912903Y-110446944D01*
X157484315Y-110446944D01*
X157484315Y-110018356D01*
X157484315Y-109589768D01*
X157912903Y-109589768D01*
X158341491Y-109589768D01*
X158341491Y-110018356D01*
G37*
G36*
X158341491Y-105161025D02*
G01*
X158341491Y-105303888D01*
X158198629Y-105303888D01*
X158055766Y-105303888D01*
X158055766Y-105161025D01*
X158055766Y-105018162D01*
X158198629Y-105018162D01*
X158341491Y-105018162D01*
X158341491Y-105161025D01*
G37*
G36*
X158341491Y-108589729D02*
G01*
X158341491Y-108732592D01*
X158198629Y-108732592D01*
X158055766Y-108732592D01*
X158055766Y-108589729D01*
X158055766Y-108446867D01*
X158198629Y-108446867D01*
X158341491Y-108446867D01*
X158341491Y-108589729D01*
G37*
G36*
X158912942Y-108161141D02*
G01*
X158912942Y-108732592D01*
X158770079Y-108732592D01*
X158627217Y-108732592D01*
X158627217Y-108161141D01*
X158627217Y-107589691D01*
X158770079Y-107589691D01*
X158912942Y-107589691D01*
X158912942Y-108161141D01*
G37*
G36*
X151769808Y-105018162D02*
G01*
X151769808Y-105303888D01*
X151626945Y-105303888D01*
X151484083Y-105303888D01*
X151484083Y-105161025D01*
X151484083Y-105018162D01*
X151341220Y-105018162D01*
X151198357Y-105018162D01*
X151198357Y-104875300D01*
X151198357Y-104732437D01*
X151484083Y-104732437D01*
X151769808Y-104732437D01*
X151769808Y-105018162D01*
G37*
G36*
X155769963Y-106018201D02*
G01*
X155769963Y-106446789D01*
X155627100Y-106446789D01*
X155484238Y-106446789D01*
X155484238Y-106161064D01*
X155484238Y-105875338D01*
X155341375Y-105875338D01*
X155198512Y-105875338D01*
X155198512Y-105732476D01*
X155198512Y-105589613D01*
X155484238Y-105589613D01*
X155769963Y-105589613D01*
X155769963Y-106018201D01*
G37*
G36*
X151484083Y-106589652D02*
G01*
X151484083Y-106732515D01*
X151626945Y-106732515D01*
X151769808Y-106732515D01*
X151769808Y-107018240D01*
X151769808Y-107303965D01*
X151626945Y-107303965D01*
X151484083Y-107303965D01*
X151484083Y-107161103D01*
X151484083Y-107018240D01*
X151341220Y-107018240D01*
X151198357Y-107018240D01*
X151198357Y-106732515D01*
X151198357Y-106446789D01*
X151341220Y-106446789D01*
X151484083Y-106446789D01*
X151484083Y-106589652D01*
G37*
G36*
X158341491Y-107446828D02*
G01*
X158341491Y-107875416D01*
X158055766Y-107875416D01*
X157770041Y-107875416D01*
X157770041Y-107732553D01*
X157770041Y-107589691D01*
X157627178Y-107589691D01*
X157484315Y-107589691D01*
X157484315Y-107446828D01*
X157484315Y-107303965D01*
X157627178Y-107303965D01*
X157770041Y-107303965D01*
X157770041Y-107161103D01*
X157770041Y-107018240D01*
X158055766Y-107018240D01*
X158341491Y-107018240D01*
X158341491Y-107446828D01*
G37*
G36*
X151484083Y-102589497D02*
G01*
X151484083Y-103589535D01*
X150484044Y-103589535D01*
X149484005Y-103589535D01*
X149484005Y-103303810D01*
X149769730Y-103303810D01*
X150484044Y-103303810D01*
X151198357Y-103303810D01*
X151198357Y-102589497D01*
X151198357Y-101875183D01*
X150484044Y-101875183D01*
X149769730Y-101875183D01*
X149769730Y-102589497D01*
X149769730Y-103303810D01*
X149484005Y-103303810D01*
X149484005Y-102589497D01*
X149484005Y-101589458D01*
X150484044Y-101589458D01*
X151484083Y-101589458D01*
X151484083Y-101875183D01*
X151484083Y-102589497D01*
G37*
G36*
X158912942Y-102589497D02*
G01*
X158912942Y-103589535D01*
X157912903Y-103589535D01*
X156912865Y-103589535D01*
X156912865Y-103303810D01*
X157198590Y-103303810D01*
X157912903Y-103303810D01*
X158627217Y-103303810D01*
X158627217Y-102589497D01*
X158627217Y-101875183D01*
X157912903Y-101875183D01*
X157198590Y-101875183D01*
X157198590Y-102589497D01*
X157198590Y-103303810D01*
X156912865Y-103303810D01*
X156912865Y-102589497D01*
X156912865Y-101589458D01*
X157912903Y-101589458D01*
X158912942Y-101589458D01*
X158912942Y-101875183D01*
X158912942Y-102589497D01*
G37*
G36*
X158912942Y-110018356D02*
G01*
X158912942Y-111018395D01*
X157912903Y-111018395D01*
X156912865Y-111018395D01*
X156912865Y-110732670D01*
X157198590Y-110732670D01*
X157912903Y-110732670D01*
X158627217Y-110732670D01*
X158627217Y-110018356D01*
X158627217Y-109304043D01*
X157912903Y-109304043D01*
X157198590Y-109304043D01*
X157198590Y-110018356D01*
X157198590Y-110732670D01*
X156912865Y-110732670D01*
X156912865Y-110018356D01*
X156912865Y-109018317D01*
X157912903Y-109018317D01*
X158912942Y-109018317D01*
X158912942Y-109304043D01*
X158912942Y-110018356D01*
G37*
G36*
X150198318Y-105875338D02*
G01*
X150341181Y-105875338D01*
X150341181Y-106018201D01*
X150341181Y-106161064D01*
X150198318Y-106161064D01*
X150055456Y-106161064D01*
X150055456Y-106018201D01*
X150055456Y-105875338D01*
X150198318Y-105875338D01*
G37*
G36*
X150055456Y-105589613D02*
G01*
X150055456Y-105875338D01*
X149912593Y-105875338D01*
X149769730Y-105875338D01*
X149769730Y-105732476D01*
X149769730Y-105589613D01*
X149626868Y-105589613D01*
X149484005Y-105589613D01*
X149484005Y-105446750D01*
X149484005Y-105303888D01*
X149769730Y-105303888D01*
X150055456Y-105303888D01*
X150055456Y-105589613D01*
G37*
G36*
X152626984Y-104589574D02*
G01*
X152626984Y-104732437D01*
X153055572Y-104732437D01*
X153484160Y-104732437D01*
X153484160Y-104589574D01*
X153484160Y-104446712D01*
X153769885Y-104446712D01*
X154055611Y-104446712D01*
X154055611Y-104589574D01*
X154055611Y-104732437D01*
X153769885Y-104732437D01*
X153484160Y-104732437D01*
X153484160Y-104875300D01*
X153484160Y-105018162D01*
X153055572Y-105018162D01*
X152626984Y-105018162D01*
X152626984Y-104875300D01*
X152626984Y-104732437D01*
X152484121Y-104732437D01*
X152341259Y-104732437D01*
X152341259Y-104589574D01*
X152341259Y-104446712D01*
X152484121Y-104446712D01*
X152626984Y-104446712D01*
X152626984Y-104589574D01*
G37*
G36*
X154198474Y-107589691D02*
G01*
X154341336Y-107589691D01*
X154341336Y-107732553D01*
X154341336Y-107875416D01*
X154484199Y-107875416D01*
X154627062Y-107875416D01*
X154627062Y-108018279D01*
X154627062Y-108161141D01*
X154484199Y-108161141D01*
X154341336Y-108161141D01*
X154341336Y-108304004D01*
X154341336Y-108446867D01*
X154198474Y-108446867D01*
X154055611Y-108446867D01*
X154055611Y-108018279D01*
X154055611Y-107589691D01*
X154198474Y-107589691D01*
G37*
G36*
X154055611Y-107446828D02*
G01*
X154055611Y-107589691D01*
X153912748Y-107589691D01*
X153769885Y-107589691D01*
X153769885Y-107446828D01*
X153769885Y-107303965D01*
X153912748Y-107303965D01*
X154055611Y-107303965D01*
X154055611Y-107446828D01*
G37*
G36*
X150055456Y-106589652D02*
G01*
X150055456Y-107018240D01*
X150198318Y-107018240D01*
X150341181Y-107018240D01*
X150341181Y-106732515D01*
X150341181Y-106446789D01*
X150484044Y-106446789D01*
X150626906Y-106446789D01*
X150626906Y-106732515D01*
X150626906Y-107018240D01*
X150484044Y-107018240D01*
X150341181Y-107018240D01*
X150341181Y-107161103D01*
X150341181Y-107303965D01*
X150198318Y-107303965D01*
X150055456Y-107303965D01*
X150055456Y-107161103D01*
X150055456Y-107018240D01*
X149912593Y-107018240D01*
X149769730Y-107018240D01*
X149769730Y-106875377D01*
X149769730Y-106732515D01*
X149626868Y-106732515D01*
X149484005Y-106732515D01*
X149484005Y-106589652D01*
X149484005Y-106446789D01*
X149626868Y-106446789D01*
X149769730Y-106446789D01*
X149769730Y-106303926D01*
X149769730Y-106161064D01*
X149912593Y-106161064D01*
X150055456Y-106161064D01*
X150055456Y-106589652D01*
G37*
G36*
X158770079Y-105875338D02*
G01*
X158912942Y-105875338D01*
X158912942Y-106446789D01*
X158912942Y-107018240D01*
X158627217Y-107018240D01*
X158341491Y-107018240D01*
X158341491Y-106875377D01*
X158341491Y-106732515D01*
X158484354Y-106732515D01*
X158627217Y-106732515D01*
X158627217Y-106589652D01*
X158627217Y-106446789D01*
X158484354Y-106446789D01*
X158341491Y-106446789D01*
X158341491Y-106303926D01*
X158341491Y-106161064D01*
X158484354Y-106161064D01*
X158627217Y-106161064D01*
X158627217Y-106018201D01*
X158627217Y-105875338D01*
X158770079Y-105875338D01*
G37*
G36*
X158055766Y-105446750D02*
G01*
X158055766Y-105589613D01*
X158341491Y-105589613D01*
X158627217Y-105589613D01*
X158627217Y-105732476D01*
X158627217Y-105875338D01*
X158484354Y-105875338D01*
X158341491Y-105875338D01*
X158341491Y-106018201D01*
X158341491Y-106161064D01*
X158198629Y-106161064D01*
X158055766Y-106161064D01*
X158055766Y-106018201D01*
X158055766Y-105875338D01*
X157912903Y-105875338D01*
X157770041Y-105875338D01*
X157770041Y-105589613D01*
X157770041Y-105303888D01*
X157912903Y-105303888D01*
X158055766Y-105303888D01*
X158055766Y-105446750D01*
G37*
G36*
X154198474Y-108732592D02*
G01*
X154341336Y-108732592D01*
X154341336Y-108875455D01*
X154341336Y-109018317D01*
X154484199Y-109018317D01*
X154627062Y-109018317D01*
X154627062Y-108875455D01*
X154627062Y-108732592D01*
X155055650Y-108732592D01*
X155484238Y-108732592D01*
X155484238Y-108875455D01*
X155484238Y-109018317D01*
X155341375Y-109018317D01*
X155198512Y-109018317D01*
X155198512Y-109161180D01*
X155198512Y-109304043D01*
X155341375Y-109304043D01*
X155484238Y-109304043D01*
X155484238Y-109589768D01*
X155484238Y-109875494D01*
X155341375Y-109875494D01*
X155198512Y-109875494D01*
X155198512Y-109732631D01*
X155198512Y-109589768D01*
X155055650Y-109589768D01*
X154912787Y-109589768D01*
X154912787Y-109732631D01*
X154912787Y-109875494D01*
X154627062Y-109875494D01*
X154341336Y-109875494D01*
X154341336Y-110018356D01*
X154341336Y-110161219D01*
X154484199Y-110161219D01*
X154627062Y-110161219D01*
X154627062Y-110304082D01*
X154627062Y-110446944D01*
X154769924Y-110446944D01*
X154912787Y-110446944D01*
X154912787Y-110589807D01*
X154912787Y-110732670D01*
X154627062Y-110732670D01*
X154341336Y-110732670D01*
X154341336Y-110589807D01*
X154341336Y-110446944D01*
X154198474Y-110446944D01*
X154055611Y-110446944D01*
X154055611Y-110304082D01*
X154055611Y-110161219D01*
X153769885Y-110161219D01*
X153484160Y-110161219D01*
X153484160Y-109732631D01*
X153484160Y-109304043D01*
X153627023Y-109304043D01*
X153769885Y-109304043D01*
X153769885Y-109446906D01*
X153769885Y-109589768D01*
X154341336Y-109589768D01*
X154912787Y-109589768D01*
X154912787Y-109446906D01*
X154912787Y-109304043D01*
X154484199Y-109304043D01*
X154055611Y-109304043D01*
X154055611Y-109018317D01*
X154055611Y-108732592D01*
X154198474Y-108732592D01*
G37*
G36*
X154055611Y-108589729D02*
G01*
X154055611Y-108732592D01*
X153912748Y-108732592D01*
X153769885Y-108732592D01*
X153769885Y-108589729D01*
X153769885Y-108446867D01*
X153912748Y-108446867D01*
X154055611Y-108446867D01*
X154055611Y-108589729D01*
G37*
G36*
X156627139Y-106018201D02*
G01*
X156627139Y-106161064D01*
X156912865Y-106161064D01*
X157198590Y-106161064D01*
X157198590Y-106018201D01*
X157198590Y-105875338D01*
X157484315Y-105875338D01*
X157770041Y-105875338D01*
X157770041Y-106018201D01*
X157770041Y-106161064D01*
X157484315Y-106161064D01*
X157198590Y-106161064D01*
X157198590Y-106303926D01*
X157198590Y-106446789D01*
X157055727Y-106446789D01*
X156912865Y-106446789D01*
X156912865Y-106589652D01*
X156912865Y-106732515D01*
X157341453Y-106732515D01*
X157770041Y-106732515D01*
X157770041Y-106446789D01*
X157770041Y-106161064D01*
X157912903Y-106161064D01*
X158055766Y-106161064D01*
X158055766Y-106446789D01*
X158055766Y-106732515D01*
X157912903Y-106732515D01*
X157770041Y-106732515D01*
X157770041Y-106875377D01*
X157770041Y-107018240D01*
X157341453Y-107018240D01*
X156912865Y-107018240D01*
X156912865Y-106875377D01*
X156912865Y-106732515D01*
X156770002Y-106732515D01*
X156627139Y-106732515D01*
X156627139Y-106589652D01*
X156627139Y-106446789D01*
X156341414Y-106446789D01*
X156055688Y-106446789D01*
X156055688Y-106161064D01*
X156055688Y-105875338D01*
X156341414Y-105875338D01*
X156627139Y-105875338D01*
X156627139Y-106018201D01*
G37*
G36*
X157484315Y-105589613D02*
G01*
X157341453Y-105589613D01*
X157198590Y-105589613D01*
X157198590Y-105732476D01*
X157198590Y-105875338D01*
X156912865Y-105875338D01*
X156627139Y-105875338D01*
X156627139Y-105732476D01*
X156627139Y-105589613D01*
X156912865Y-105589613D01*
X157055727Y-105589613D01*
X157198590Y-105589613D01*
X157198590Y-105446750D01*
X157198590Y-105303888D01*
X157055727Y-105303888D01*
X156912865Y-105303888D01*
X156912865Y-105446750D01*
X156912865Y-105589613D01*
X156627139Y-105589613D01*
X156484276Y-105589613D01*
X156341414Y-105589613D01*
X156341414Y-105446750D01*
X156341414Y-105303888D01*
X156055688Y-105303888D01*
X155769963Y-105303888D01*
X155769963Y-105161025D01*
X155769963Y-105018162D01*
X156627139Y-105018162D01*
X157484315Y-105018162D01*
X157484315Y-105303888D01*
X157484315Y-105589613D01*
G37*
G36*
X154198474Y-104160986D02*
G01*
X154341336Y-104160986D01*
X154341336Y-104303849D01*
X154341336Y-104446712D01*
X154484199Y-104446712D01*
X154627062Y-104446712D01*
X154627062Y-104303849D01*
X154627062Y-104160986D01*
X155055650Y-104160986D01*
X155484238Y-104160986D01*
X155484238Y-104303849D01*
X155484238Y-104446712D01*
X155341375Y-104446712D01*
X155198512Y-104446712D01*
X155198512Y-104589574D01*
X155198512Y-104732437D01*
X155341375Y-104732437D01*
X155484238Y-104732437D01*
X155484238Y-105018162D01*
X155484238Y-105303888D01*
X155341375Y-105303888D01*
X155198512Y-105303888D01*
X155198512Y-105161025D01*
X155198512Y-105018162D01*
X155055650Y-105018162D01*
X154912787Y-105018162D01*
X154912787Y-105161025D01*
X154912787Y-105303888D01*
X154627062Y-105303888D01*
X154341336Y-105303888D01*
X154341336Y-105446750D01*
X154341336Y-105589613D01*
X154484199Y-105589613D01*
X154627062Y-105589613D01*
X154627062Y-105732476D01*
X154627062Y-105875338D01*
X154769924Y-105875338D01*
X154912787Y-105875338D01*
X154912787Y-106018201D01*
X154912787Y-106161064D01*
X154769924Y-106161064D01*
X154627062Y-106161064D01*
X154627062Y-106303926D01*
X154627062Y-106446789D01*
X154484199Y-106446789D01*
X154341336Y-106446789D01*
X154341336Y-106161064D01*
X154341336Y-105875338D01*
X154198474Y-105875338D01*
X154055611Y-105875338D01*
X154055611Y-105589613D01*
X154055611Y-105303888D01*
X153912748Y-105303888D01*
X153769885Y-105303888D01*
X153769885Y-105161025D01*
X153769885Y-105018162D01*
X153912748Y-105018162D01*
X154055611Y-105018162D01*
X154055611Y-104875300D01*
X154055611Y-104732437D01*
X154198474Y-104732437D01*
X154341336Y-104732437D01*
X154627062Y-104732437D01*
X154627062Y-104875300D01*
X154627062Y-105018162D01*
X154769924Y-105018162D01*
X154912787Y-105018162D01*
X154912787Y-104875300D01*
X154912787Y-104732437D01*
X154769924Y-104732437D01*
X154627062Y-104732437D01*
X154341336Y-104732437D01*
X154341336Y-104589574D01*
X154341336Y-104446712D01*
X154198474Y-104446712D01*
X154055611Y-104446712D01*
X154055611Y-104303849D01*
X154055611Y-104160986D01*
X154198474Y-104160986D01*
G37*
G36*
X154055611Y-104018124D02*
G01*
X154055611Y-104160986D01*
X153912748Y-104160986D01*
X153769885Y-104160986D01*
X153769885Y-104018124D01*
X153769885Y-103875261D01*
X153912748Y-103875261D01*
X154055611Y-103875261D01*
X154055611Y-104018124D01*
G37*
G36*
X158770079Y-105018162D02*
G01*
X158912942Y-105018162D01*
X158912942Y-105161025D01*
X158912942Y-105303888D01*
X158770079Y-105303888D01*
X158627217Y-105303888D01*
X158627217Y-105161025D01*
X158627217Y-105018162D01*
X158770079Y-105018162D01*
G37*
G36*
X156627139Y-103589535D02*
G01*
X156484276Y-103589535D01*
X156341414Y-103589535D01*
X156341414Y-103732398D01*
X156341414Y-103875261D01*
X156770002Y-103875261D01*
X157198590Y-103875261D01*
X157198590Y-104018124D01*
X157198590Y-104160986D01*
X157341453Y-104160986D01*
X157484315Y-104160986D01*
X157484315Y-104018124D01*
X157484315Y-103875261D01*
X158198629Y-103875261D01*
X158912942Y-103875261D01*
X158912942Y-104018124D01*
X158912942Y-104160986D01*
X158770079Y-104160986D01*
X158627217Y-104160986D01*
X158627217Y-104589574D01*
X158627217Y-105018162D01*
X158484354Y-105018162D01*
X158341491Y-105018162D01*
X158341491Y-104732437D01*
X158341491Y-104446712D01*
X158198629Y-104446712D01*
X158055766Y-104446712D01*
X158055766Y-104732437D01*
X158055766Y-105018162D01*
X157912903Y-105018162D01*
X157770041Y-105018162D01*
X157770041Y-104875300D01*
X157770041Y-104732437D01*
X157627178Y-104732437D01*
X157484315Y-104732437D01*
X157484315Y-104589574D01*
X157484315Y-104446712D01*
X157627178Y-104446712D01*
X157770041Y-104446712D01*
X157770041Y-104303849D01*
X157770041Y-104160986D01*
X157627178Y-104160986D01*
X157484315Y-104160986D01*
X157484315Y-104303849D01*
X157484315Y-104446712D01*
X157341453Y-104446712D01*
X157198590Y-104446712D01*
X157198590Y-104303849D01*
X157198590Y-104160986D01*
X156627139Y-104160986D01*
X156055688Y-104160986D01*
X156055688Y-104018124D01*
X156055688Y-103875261D01*
X155912826Y-103875261D01*
X155769963Y-103875261D01*
X155769963Y-104018124D01*
X155769963Y-104160986D01*
X155627100Y-104160986D01*
X155484238Y-104160986D01*
X155484238Y-103875261D01*
X155484238Y-103589535D01*
X155341375Y-103589535D01*
X155198512Y-103589535D01*
X155198512Y-103303810D01*
X155198512Y-103018085D01*
X155484238Y-103018085D01*
X155769963Y-103018085D01*
X155769963Y-103160947D01*
X155769963Y-103303810D01*
X155627100Y-103303810D01*
X155484238Y-103303810D01*
X155484238Y-103446673D01*
X155484238Y-103589535D01*
X155627100Y-103589535D01*
X155769963Y-103589535D01*
X156055688Y-103589535D01*
X156198551Y-103589535D01*
X156341414Y-103589535D01*
X156341414Y-103446673D01*
X156341414Y-103303810D01*
X156198551Y-103303810D01*
X156055688Y-103303810D01*
X156055688Y-103446673D01*
X156055688Y-103589535D01*
X155769963Y-103589535D01*
X155769963Y-103446673D01*
X155769963Y-103303810D01*
X155912826Y-103303810D01*
X156055688Y-103303810D01*
X156055688Y-103018085D01*
X156055688Y-102732359D01*
X155912826Y-102732359D01*
X155769963Y-102732359D01*
X155769963Y-102589497D01*
X155769963Y-102446634D01*
X156198551Y-102446634D01*
X156627139Y-102446634D01*
X156627139Y-102589497D01*
X156627139Y-102732359D01*
X156484276Y-102732359D01*
X156341414Y-102732359D01*
X156341414Y-102875222D01*
X156341414Y-103018085D01*
X156484276Y-103018085D01*
X156627139Y-103018085D01*
X156627139Y-103303810D01*
X156627139Y-103589535D01*
G37*
G36*
X156627139Y-110304082D02*
G01*
X156627139Y-111018395D01*
X156484276Y-111018395D01*
X156341414Y-111018395D01*
X156341414Y-110875532D01*
X156341414Y-110732670D01*
X156198551Y-110732670D01*
X156055688Y-110732670D01*
X156055688Y-110875532D01*
X156055688Y-111018395D01*
X155769963Y-111018395D01*
X155484238Y-111018395D01*
X155484238Y-110732670D01*
X155484238Y-110446944D01*
X155341375Y-110446944D01*
X155198512Y-110446944D01*
X155198512Y-110304082D01*
X155198512Y-110161219D01*
X155484238Y-110161219D01*
X155769963Y-110161219D01*
X155769963Y-110304082D01*
X155769963Y-110446944D01*
X155912826Y-110446944D01*
X156055688Y-110446944D01*
X156055688Y-110304082D01*
X156055688Y-110161219D01*
X156198551Y-110161219D01*
X156341414Y-110161219D01*
X156341414Y-110018356D01*
X156341414Y-109875494D01*
X156198551Y-109875494D01*
X156055688Y-109875494D01*
X156055688Y-110018356D01*
X156055688Y-110161219D01*
X155912826Y-110161219D01*
X155769963Y-110161219D01*
X155769963Y-109875494D01*
X155769963Y-109589768D01*
X155912826Y-109589768D01*
X156055688Y-109589768D01*
X156055688Y-109446906D01*
X156055688Y-109304043D01*
X155912826Y-109304043D01*
X155769963Y-109304043D01*
X155769963Y-109018317D01*
X155769963Y-108732592D01*
X155912826Y-108732592D01*
X156055688Y-108732592D01*
X156055688Y-108875455D01*
X156055688Y-109018317D01*
X156198551Y-109018317D01*
X156341414Y-109018317D01*
X156341414Y-108732592D01*
X156341414Y-108446867D01*
X156912865Y-108446867D01*
X157484315Y-108446867D01*
X157484315Y-108589729D01*
X157484315Y-108732592D01*
X157055727Y-108732592D01*
X156627139Y-108732592D01*
X156627139Y-109018317D01*
X156627139Y-109304043D01*
X156484276Y-109304043D01*
X156341414Y-109304043D01*
X156341414Y-109446906D01*
X156341414Y-109589768D01*
X156484276Y-109589768D01*
X156627139Y-109589768D01*
X156627139Y-109875494D01*
X156627139Y-110304082D01*
G37*
G36*
X156770002Y-107589691D02*
G01*
X156912865Y-107589691D01*
X156912865Y-107732553D01*
X156912865Y-107875416D01*
X157055727Y-107875416D01*
X157198590Y-107875416D01*
X157198590Y-107732553D01*
X157198590Y-107589691D01*
X157341453Y-107589691D01*
X157484315Y-107589691D01*
X157484315Y-107732553D01*
X157484315Y-107875416D01*
X157341453Y-107875416D01*
X157198590Y-107875416D01*
X157198590Y-108018279D01*
X157198590Y-108161141D01*
X156912865Y-108161141D01*
X156627139Y-108161141D01*
X156627139Y-108018279D01*
X156627139Y-107875416D01*
X156484276Y-107875416D01*
X156341414Y-107875416D01*
X156341414Y-108018279D01*
X156341414Y-108161141D01*
X156198551Y-108161141D01*
X156055688Y-108161141D01*
X156055688Y-108304004D01*
X156055688Y-108446867D01*
X155912826Y-108446867D01*
X155769963Y-108446867D01*
X155769963Y-108589729D01*
X155769963Y-108732592D01*
X155627100Y-108732592D01*
X155484238Y-108732592D01*
X155484238Y-108446867D01*
X155484238Y-108161141D01*
X155341375Y-108161141D01*
X155198512Y-108161141D01*
X155198512Y-108018279D01*
X155198512Y-107875416D01*
X155484238Y-107875416D01*
X155769963Y-107875416D01*
X156055688Y-107875416D01*
X156198551Y-107875416D01*
X156341414Y-107875416D01*
X156341414Y-107732553D01*
X156341414Y-107589691D01*
X156198551Y-107589691D01*
X156055688Y-107589691D01*
X156055688Y-107732553D01*
X156055688Y-107875416D01*
X155769963Y-107875416D01*
X155769963Y-107446828D01*
X155769963Y-107018240D01*
X155912826Y-107018240D01*
X156055688Y-107018240D01*
X156055688Y-107161103D01*
X156055688Y-107303965D01*
X156198551Y-107303965D01*
X156341414Y-107303965D01*
X156341414Y-107161103D01*
X156341414Y-107018240D01*
X156627139Y-107018240D01*
X156912865Y-107018240D01*
X156912865Y-107161103D01*
X156912865Y-107303965D01*
X156770002Y-107303965D01*
X156627139Y-107303965D01*
X156627139Y-107446828D01*
X156627139Y-107589691D01*
X156770002Y-107589691D01*
G37*
G36*
X153198435Y-110446944D02*
G01*
X153341297Y-110446944D01*
X153484160Y-110446944D01*
X153484160Y-110732670D01*
X153484160Y-111018395D01*
X153341297Y-111018395D01*
X153198435Y-111018395D01*
X153198435Y-110875532D01*
X153198435Y-110732670D01*
X152769847Y-110732670D01*
X152341259Y-110732670D01*
X152341259Y-110875532D01*
X152341259Y-111018395D01*
X151912671Y-111018395D01*
X151484083Y-111018395D01*
X151484083Y-110875532D01*
X151484083Y-110732670D01*
X151912671Y-110732670D01*
X152341259Y-110732670D01*
X152341259Y-110589807D01*
X152341259Y-110446944D01*
X152484121Y-110446944D01*
X152626984Y-110446944D01*
X152626984Y-110304082D01*
X152626984Y-110161219D01*
X152484121Y-110161219D01*
X152341259Y-110161219D01*
X152341259Y-110304082D01*
X152341259Y-110446944D01*
X152198396Y-110446944D01*
X152055533Y-110446944D01*
X152055533Y-110304082D01*
X152055533Y-110161219D01*
X151769808Y-110161219D01*
X151484083Y-110161219D01*
X151484083Y-110446944D01*
X151484083Y-110732670D01*
X151198357Y-110732670D01*
X150912632Y-110732670D01*
X150912632Y-110589807D01*
X150912632Y-110446944D01*
X151055494Y-110446944D01*
X151198357Y-110446944D01*
X151198357Y-110304082D01*
X151198357Y-110161219D01*
X151341220Y-110161219D01*
X151484083Y-110161219D01*
X151484083Y-110018356D01*
X151484083Y-109875494D01*
X152055533Y-109875494D01*
X152484121Y-109875494D01*
X152912709Y-109875494D01*
X152912709Y-109732631D01*
X152912709Y-109589768D01*
X152769847Y-109589768D01*
X152626984Y-109589768D01*
X152626984Y-109446906D01*
X152626984Y-109304043D01*
X152769847Y-109304043D01*
X152912709Y-109304043D01*
X152912709Y-109161180D01*
X152912709Y-109018317D01*
X152626984Y-109018317D01*
X152341259Y-109018317D01*
X152341259Y-109304043D01*
X152341259Y-109589768D01*
X152198396Y-109589768D01*
X152055533Y-109589768D01*
X152055533Y-109732631D01*
X152055533Y-109875494D01*
X151484083Y-109875494D01*
X151341220Y-109875494D01*
X151198357Y-109875494D01*
X151198357Y-110018356D01*
X151198357Y-110161219D01*
X150912632Y-110161219D01*
X150626906Y-110161219D01*
X150626906Y-110589807D01*
X150626906Y-111018395D01*
X150484044Y-111018395D01*
X150341181Y-111018395D01*
X150341181Y-110875532D01*
X150341181Y-110732670D01*
X150198318Y-110732670D01*
X150055456Y-110732670D01*
X150055456Y-110446944D01*
X150055456Y-110161219D01*
X149769730Y-110161219D01*
X149484005Y-110161219D01*
X149484005Y-109875494D01*
X149769730Y-109875494D01*
X149912593Y-109875494D01*
X150055456Y-109875494D01*
X150055456Y-110018356D01*
X150055456Y-110161219D01*
X150341181Y-110161219D01*
X150626906Y-110161219D01*
X150626906Y-109875494D01*
X150626906Y-109589768D01*
X150198318Y-109589768D01*
X149769730Y-109589768D01*
X149769730Y-109732631D01*
X149769730Y-109875494D01*
X149484005Y-109875494D01*
X149484005Y-109732631D01*
X149484005Y-109304043D01*
X149626868Y-109304043D01*
X149769730Y-109304043D01*
X150055456Y-109304043D01*
X150198318Y-109304043D01*
X150341181Y-109304043D01*
X150341181Y-109161180D01*
X150341181Y-109018317D01*
X150912632Y-109018317D01*
X150912632Y-109161180D01*
X150912632Y-109589768D01*
X151341220Y-109589768D01*
X151769808Y-109589768D01*
X151769808Y-109161180D01*
X151769808Y-108732592D01*
X152055533Y-108732592D01*
X152055533Y-108875455D01*
X152055533Y-109018317D01*
X152198396Y-109018317D01*
X152341259Y-109018317D01*
X152341259Y-108875455D01*
X152341259Y-108732592D01*
X152198396Y-108732592D01*
X152055533Y-108732592D01*
X151769808Y-108732592D01*
X151341220Y-108732592D01*
X150912632Y-108732592D01*
X150912632Y-109018317D01*
X150341181Y-109018317D01*
X150198318Y-109018317D01*
X150055456Y-109018317D01*
X150055456Y-109161180D01*
X150055456Y-109304043D01*
X149769730Y-109304043D01*
X149769730Y-109161180D01*
X149769730Y-109018317D01*
X149626868Y-109018317D01*
X149484005Y-109018317D01*
X149484005Y-108732592D01*
X149484005Y-108446867D01*
X149626868Y-108446867D01*
X149769730Y-108446867D01*
X149769730Y-108732592D01*
X149769730Y-109018317D01*
X149912593Y-109018317D01*
X150055456Y-109018317D01*
X150055456Y-108875455D01*
X150055456Y-108732592D01*
X150341181Y-108732592D01*
X150626906Y-108732592D01*
X150626906Y-108589729D01*
X150626906Y-108446867D01*
X150341181Y-108446867D01*
X150055456Y-108446867D01*
X150055456Y-108304004D01*
X150055456Y-108161141D01*
X149912593Y-108161141D01*
X149769730Y-108161141D01*
X149769730Y-108018279D01*
X149769730Y-107875416D01*
X149626868Y-107875416D01*
X149484005Y-107875416D01*
X149484005Y-107732553D01*
X149484005Y-107589691D01*
X149626868Y-107589691D01*
X149769730Y-107589691D01*
X149769730Y-107446828D01*
X149769730Y-107303965D01*
X149912593Y-107303965D01*
X150055456Y-107303965D01*
X150055456Y-107732553D01*
X150055456Y-108161141D01*
X150198318Y-108161141D01*
X150341181Y-108161141D01*
X150341181Y-107875416D01*
X150341181Y-107589691D01*
X150484044Y-107589691D01*
X150626906Y-107589691D01*
X150626906Y-107875416D01*
X150626906Y-108161141D01*
X150769769Y-108161141D01*
X150912632Y-108161141D01*
X150912632Y-108018279D01*
X150912632Y-107875416D01*
X151055494Y-107875416D01*
X151198357Y-107875416D01*
X151198357Y-107732553D01*
X151198357Y-107589691D01*
X151341220Y-107589691D01*
X151484083Y-107589691D01*
X151484083Y-107732553D01*
X151484083Y-107875416D01*
X151626945Y-107875416D01*
X151769808Y-107875416D01*
X151769808Y-108161141D01*
X151769808Y-108446867D01*
X152055533Y-108446867D01*
X152341259Y-108446867D01*
X152341259Y-108161141D01*
X152341259Y-107875416D01*
X152484121Y-107875416D01*
X152626984Y-107875416D01*
X152626984Y-107732553D01*
X152626984Y-107589691D01*
X152912709Y-107589691D01*
X153198435Y-107589691D01*
X153198435Y-107875416D01*
X153198435Y-108161141D01*
X153055572Y-108161141D01*
X152912709Y-108161141D01*
X152912709Y-108304004D01*
X152912709Y-108446867D01*
X152769847Y-108446867D01*
X152626984Y-108446867D01*
X152626984Y-108589729D01*
X152626984Y-108732592D01*
X152769847Y-108732592D01*
X152912709Y-108732592D01*
X152912709Y-108589729D01*
X152912709Y-108446867D01*
X153055572Y-108446867D01*
X153198435Y-108446867D01*
X153198435Y-108304004D01*
X153198435Y-108161141D01*
X153341297Y-108161141D01*
X153484160Y-108161141D01*
X153484160Y-108304004D01*
X153484160Y-108446867D01*
X153341297Y-108446867D01*
X153198435Y-108446867D01*
X153198435Y-109446906D01*
X153198435Y-109875494D01*
X153198435Y-110446944D01*
G37*
G36*
X150484044Y-105018162D02*
G01*
X150626906Y-105018162D01*
X150626906Y-104875300D01*
X150626906Y-104732437D01*
X150484044Y-104732437D01*
X150341181Y-104732437D01*
X150341181Y-104875300D01*
X150341181Y-105018162D01*
X150198318Y-105018162D01*
X150055456Y-105018162D01*
X150055456Y-104875300D01*
X150055456Y-104732437D01*
X150198318Y-104732437D01*
X150341181Y-104732437D01*
X150341181Y-104589574D01*
X150341181Y-104446712D01*
X150198318Y-104446712D01*
X150055456Y-104446712D01*
X150055456Y-104589574D01*
X150055456Y-104732437D01*
X149912593Y-104732437D01*
X149769730Y-104732437D01*
X149769730Y-104589574D01*
X149769730Y-104446712D01*
X149626868Y-104446712D01*
X149484005Y-104446712D01*
X149484005Y-104303849D01*
X149484005Y-104160986D01*
X149626868Y-104160986D01*
X149769730Y-104160986D01*
X149769730Y-104018124D01*
X149769730Y-103875261D01*
X149912593Y-103875261D01*
X150055456Y-103875261D01*
X150055456Y-104018124D01*
X150055456Y-104160986D01*
X150198318Y-104160986D01*
X150341181Y-104160986D01*
X150341181Y-104018124D01*
X150341181Y-103875261D01*
X150484044Y-103875261D01*
X150626906Y-103875261D01*
X150626906Y-104018124D01*
X150626906Y-104160986D01*
X150484044Y-104160986D01*
X150341181Y-104160986D01*
X150341181Y-104303849D01*
X150341181Y-104446712D01*
X150769769Y-104446712D01*
X151198357Y-104446712D01*
X151198357Y-104303849D01*
X151198357Y-104160986D01*
X151055494Y-104160986D01*
X150912632Y-104160986D01*
X150912632Y-104018124D01*
X150912632Y-103875261D01*
X151055494Y-103875261D01*
X151198357Y-103875261D01*
X151198357Y-104018124D01*
X151198357Y-104160986D01*
X151341220Y-104160986D01*
X151484083Y-104160986D01*
X151484083Y-104018124D01*
X151484083Y-103875261D01*
X151626945Y-103875261D01*
X151769808Y-103875261D01*
X151769808Y-103589535D01*
X151769808Y-103303810D01*
X151912671Y-103303810D01*
X152055533Y-103303810D01*
X152055533Y-103732398D01*
X152055533Y-104160986D01*
X152198396Y-104160986D01*
X152341259Y-104160986D01*
X152341259Y-103732398D01*
X152341259Y-103303810D01*
X152484121Y-103303810D01*
X152626984Y-103303810D01*
X152626984Y-103446673D01*
X152626984Y-103589535D01*
X152769847Y-103589535D01*
X152912709Y-103589535D01*
X152912709Y-103303810D01*
X152912709Y-103018085D01*
X152484121Y-103018085D01*
X152055533Y-103018085D01*
X152055533Y-102875222D01*
X152055533Y-102732359D01*
X151912671Y-102732359D01*
X151769808Y-102732359D01*
X151769808Y-102589497D01*
X151769808Y-102446634D01*
X152055533Y-102446634D01*
X152341259Y-102446634D01*
X152341259Y-102160909D01*
X152341259Y-101875183D01*
X152198396Y-101875183D01*
X152055533Y-101875183D01*
X152055533Y-102018046D01*
X152055533Y-102160909D01*
X151912671Y-102160909D01*
X151769808Y-102160909D01*
X151769808Y-101875183D01*
X151769808Y-101589458D01*
X152055533Y-101589458D01*
X152341259Y-101589458D01*
X152341259Y-101732321D01*
X152341259Y-101875183D01*
X152626984Y-101875183D01*
X152912709Y-101875183D01*
X152912709Y-101732321D01*
X152912709Y-101589458D01*
X153484160Y-101589458D01*
X154055611Y-101589458D01*
X154055611Y-101732321D01*
X154055611Y-101875183D01*
X153484160Y-101875183D01*
X152912709Y-101875183D01*
X152912709Y-102018046D01*
X152912709Y-102160909D01*
X153055572Y-102160909D01*
X153198435Y-102160909D01*
X153198435Y-102303771D01*
X153198435Y-102446634D01*
X152912709Y-102446634D01*
X152626984Y-102446634D01*
X152626984Y-102589497D01*
X152626984Y-102732359D01*
X152912709Y-102732359D01*
X153198435Y-102732359D01*
X153198435Y-102589497D01*
X153198435Y-102446634D01*
X153341297Y-102446634D01*
X153484160Y-102446634D01*
X153484160Y-102303771D01*
X153484160Y-102160909D01*
X153627023Y-102160909D01*
X153769885Y-102160909D01*
X153769885Y-102303771D01*
X153769885Y-102446634D01*
X154341336Y-102446634D01*
X154912787Y-102446634D01*
X154912787Y-102303771D01*
X154912787Y-102160909D01*
X154627062Y-102160909D01*
X154341336Y-102160909D01*
X154341336Y-101875183D01*
X154341336Y-101589458D01*
X154484199Y-101589458D01*
X154627062Y-101589458D01*
X154627062Y-101732321D01*
X154627062Y-101875183D01*
X154769924Y-101875183D01*
X154912787Y-101875183D01*
X154912787Y-101732321D01*
X154912787Y-101589458D01*
X155198512Y-101589458D01*
X155484238Y-101589458D01*
X155484238Y-101732321D01*
X155484238Y-101875183D01*
X155341375Y-101875183D01*
X155198512Y-101875183D01*
X155198512Y-102018046D01*
X155198512Y-102160909D01*
X155341375Y-102160909D01*
X155484238Y-102160909D01*
X155484238Y-102446634D01*
X155484238Y-102732359D01*
X155341375Y-102732359D01*
X155198512Y-102732359D01*
X155198512Y-102589497D01*
X155198512Y-102446634D01*
X155055650Y-102446634D01*
X154912787Y-102446634D01*
X154912787Y-102589497D01*
X154912787Y-102732359D01*
X154627062Y-102732359D01*
X154341336Y-102732359D01*
X154341336Y-102875222D01*
X154341336Y-103018085D01*
X154484199Y-103018085D01*
X154627062Y-103018085D01*
X154627062Y-103160947D01*
X154627062Y-103303810D01*
X154484199Y-103303810D01*
X154341336Y-103303810D01*
X154341336Y-103589535D01*
X154341336Y-103875261D01*
X154198474Y-103875261D01*
X154055611Y-103875261D01*
X154055611Y-103446673D01*
X154055611Y-103018085D01*
X153627023Y-103018085D01*
X153198435Y-103018085D01*
X153198435Y-103589535D01*
X153198435Y-104160986D01*
X153341297Y-104160986D01*
X153484160Y-104160986D01*
X153484160Y-104303849D01*
X153484160Y-104446712D01*
X153198435Y-104446712D01*
X152912709Y-104446712D01*
X152912709Y-104160986D01*
X152912709Y-103875261D01*
X152769847Y-103875261D01*
X152626984Y-103875261D01*
X152626984Y-104018124D01*
X152626984Y-104160986D01*
X152484121Y-104160986D01*
X152341259Y-104160986D01*
X152341259Y-104303849D01*
X152341259Y-104446712D01*
X152198396Y-104446712D01*
X152055533Y-104446712D01*
X152055533Y-104303849D01*
X152055533Y-104160986D01*
X151769808Y-104160986D01*
X151484083Y-104160986D01*
X151484083Y-104303849D01*
X151484083Y-104446712D01*
X151341220Y-104446712D01*
X151198357Y-104446712D01*
X151198357Y-104589574D01*
X151198357Y-104732437D01*
X151055494Y-104732437D01*
X150912632Y-104732437D01*
X150912632Y-104875300D01*
X150912632Y-105018162D01*
X151055494Y-105018162D01*
X151198357Y-105018162D01*
X151198357Y-105161025D01*
X151198357Y-105303888D01*
X151341220Y-105303888D01*
X151484083Y-105303888D01*
X151484083Y-105446750D01*
X151484083Y-105589613D01*
X151769808Y-105589613D01*
X152055533Y-105589613D01*
X152055533Y-105732476D01*
X152055533Y-105875338D01*
X152341259Y-105875338D01*
X152626984Y-105875338D01*
X152626984Y-105732476D01*
X152626984Y-105589613D01*
X152769847Y-105589613D01*
X152912709Y-105589613D01*
X152912709Y-105446750D01*
X152912709Y-105303888D01*
X153198435Y-105303888D01*
X153484160Y-105303888D01*
X153484160Y-105446750D01*
X153484160Y-105589613D01*
X153341297Y-105589613D01*
X153198435Y-105589613D01*
X153198435Y-105875338D01*
X153198435Y-106161064D01*
X152912709Y-106161064D01*
X152626984Y-106161064D01*
X152626984Y-106303926D01*
X152626984Y-106446789D01*
X152769847Y-106446789D01*
X152912709Y-106446789D01*
X152912709Y-106875377D01*
X152912709Y-107303965D01*
X152769847Y-107303965D01*
X152626984Y-107303965D01*
X152626984Y-107446828D01*
X152626984Y-107589691D01*
X152484121Y-107589691D01*
X152341259Y-107589691D01*
X152341259Y-107732553D01*
X152341259Y-107875416D01*
X152198396Y-107875416D01*
X152055533Y-107875416D01*
X152055533Y-107732553D01*
X152055533Y-107589691D01*
X151912671Y-107589691D01*
X151769808Y-107589691D01*
X151769808Y-107446828D01*
X151769808Y-107303965D01*
X151912671Y-107303965D01*
X152055533Y-107303965D01*
X152055533Y-107161103D01*
X152055533Y-107018240D01*
X152198396Y-107018240D01*
X152341259Y-107018240D01*
X152341259Y-107161103D01*
X152341259Y-107303965D01*
X152484121Y-107303965D01*
X152626984Y-107303965D01*
X152626984Y-107018240D01*
X152626984Y-106732515D01*
X152341259Y-106732515D01*
X152055533Y-106732515D01*
X152055533Y-106589652D01*
X152055533Y-106446789D01*
X152198396Y-106446789D01*
X152341259Y-106446789D01*
X152341259Y-106303926D01*
X152341259Y-106161064D01*
X152055533Y-106161064D01*
X151769808Y-106161064D01*
X151769808Y-106303926D01*
X151769808Y-106446789D01*
X151626945Y-106446789D01*
X151484083Y-106446789D01*
X151484083Y-106303926D01*
X151484083Y-106161064D01*
X151341220Y-106161064D01*
X151198357Y-106161064D01*
X151198357Y-106303926D01*
X151198357Y-106446789D01*
X150912632Y-106446789D01*
X150626906Y-106446789D01*
X150626906Y-106303926D01*
X150626906Y-106161064D01*
X150769769Y-106161064D01*
X150912632Y-106161064D01*
X150912632Y-106018201D01*
X150912632Y-105875338D01*
X150769769Y-105875338D01*
X150626906Y-105875338D01*
X150626906Y-105732476D01*
X150626906Y-105589613D01*
X150769769Y-105589613D01*
X150912632Y-105589613D01*
X150912632Y-105446750D01*
X150912632Y-105303888D01*
X150626906Y-105303888D01*
X150341181Y-105303888D01*
X150341181Y-105161025D01*
X150341181Y-105018162D01*
X150484044Y-105018162D01*
G37*
G36*
X154198474Y-106446789D02*
G01*
X154341336Y-106446789D01*
X154341336Y-106589652D01*
X154341336Y-106732515D01*
X154484199Y-106732515D01*
X154627062Y-106732515D01*
X154627062Y-106589652D01*
X154627062Y-106446789D01*
X155055650Y-106446789D01*
X155484238Y-106446789D01*
X155484238Y-106589652D01*
X155484238Y-106732515D01*
X155341375Y-106732515D01*
X155198512Y-106732515D01*
X155198512Y-106875377D01*
X155198512Y-107018240D01*
X155341375Y-107018240D01*
X155484238Y-107018240D01*
X155484238Y-107303965D01*
X155484238Y-107589691D01*
X155341375Y-107589691D01*
X155198512Y-107589691D01*
X155198512Y-107446828D01*
X155198512Y-107303965D01*
X155055650Y-107303965D01*
X154912787Y-107303965D01*
X154912787Y-107161103D01*
X154912787Y-107018240D01*
X154769924Y-107018240D01*
X154627062Y-107018240D01*
X154627062Y-107161103D01*
X154627062Y-107303965D01*
X154341336Y-107303965D01*
X154055611Y-107303965D01*
X154055611Y-107161103D01*
X154055611Y-107018240D01*
X154198474Y-107018240D01*
X154341336Y-107018240D01*
X154341336Y-106875377D01*
X154341336Y-106732515D01*
X154198474Y-106732515D01*
X154055611Y-106732515D01*
X154055611Y-106589652D01*
X154055611Y-106446789D01*
X154198474Y-106446789D01*
G37*
G36*
X153341297Y-106161064D02*
G01*
X153484160Y-106161064D01*
X153484160Y-106303926D01*
X153484160Y-106446789D01*
X153627023Y-106446789D01*
X153769885Y-106446789D01*
X153769885Y-106303926D01*
X153769885Y-106161064D01*
X153912748Y-106161064D01*
X154055611Y-106161064D01*
X154055611Y-106303926D01*
X154055611Y-106446789D01*
X153912748Y-106446789D01*
X153769885Y-106446789D01*
X153769885Y-106589652D01*
X153769885Y-106732515D01*
X153484160Y-106732515D01*
X153198435Y-106732515D01*
X153198435Y-106446789D01*
X153198435Y-106161064D01*
X153341297Y-106161064D01*
G37*
G36*
X154769924Y-103303810D02*
G01*
X154912787Y-103303810D01*
X154912787Y-103589535D01*
X154912787Y-103875261D01*
X154769924Y-103875261D01*
X154627062Y-103875261D01*
X154627062Y-103589535D01*
X154627062Y-103303810D01*
X154769924Y-103303810D01*
G37*
%TD*%
%LPC*%
D12*
X140000000Y-91567000D02*
X145000000Y-91567000D01*
X145000000Y-121285000D01*
X140000000Y-121285000D01*
X140000000Y-91567000D01*
G36*
X140000000Y-91567000D02*
G01*
X145000000Y-91567000D01*
X145000000Y-121285000D01*
X140000000Y-121285000D01*
X140000000Y-91567000D01*
G37*
D13*
%TO.C,U7*%
X162100000Y-108661200D03*
X162100000Y-104161200D03*
D14*
X162100000Y-112261200D03*
X162100000Y-100561200D03*
%TD*%
D15*
%TO.C,J5*%
X151130000Y-109270800D03*
%TD*%
%TO.C,J4*%
X133502400Y-109804200D03*
%TD*%
%TO.C,J2*%
X125668800Y-118770400D03*
D16*
X128208800Y-118770400D03*
X130748800Y-118770400D03*
%TD*%
D15*
%TO.C,J3*%
X127416800Y-94462600D03*
D16*
X124876800Y-94462600D03*
X122336800Y-94462600D03*
%TD*%
D17*
%TO.C,J1*%
X124892400Y-103916600D03*
D18*
X124892400Y-106416600D03*
X124892400Y-108416600D03*
X124892400Y-110916600D03*
D19*
X122182400Y-100846600D03*
X122182400Y-113986600D03*
%TD*%
%TO.C,H1*%
X156000000Y-96000000D03*
%TD*%
D20*
%TO.C,U3*%
X136220200Y-114300000D03*
X138760200Y-114300000D03*
X146380200Y-114300000D03*
X151460200Y-114300000D03*
%TD*%
%LPD*%
M02*
